<svg width="665" height="607" viewBox="0 0 665 607" fill="none" xmlns="http://www.w3.org/2000/svg"><path d="M270.878 541.757c149.602 0 270.879-121.277 270.879-270.879C541.757 121.276 420.48 0 270.878 0 121.276 0 0 121.276 0 270.878 0 420.48 121.276 541.757 270.878 541.757z" fill="#E4F2F6"/><path d="M373.468 330.103h-44.661c0-4.208 3.237-7.444 7.444-7.444h37.541v7.444h-.324z" fill="#6C9BAA"/><path d="M389.651 319.423l-21.036-2.266-21.683-1.618s-23.949 5.825-21.036 9.385c1.294 1.295 24.596 0 24.596 0l20.388 5.502h20.713l-1.942-11.003z" fill="#FF9669"/><path d="M532.371 173.141c-9.709 16.829-8.09 35.276-18.123 35.276-10.032 0-18.123-15.858-18.123-35.276 0-19.418 8.091-35.276 18.123-35.276 10.033 0 29.127 15.858 18.123 35.276z" fill="#5046AF"/><path d="M269.583 445.64H87.703v146.604h181.88V445.64z" fill="#A5C8CD"/><path d="M218.774 445.64H36.894v146.604h181.88V445.64z" fill="#87AFB9"/><path d="M602.275 431.074H495.154V238.19l147.899.324-40.778 192.56z" fill="#50374B"/><path d="M471.206 601.951c73.997 0 133.983-3.912 133.983-8.738s-59.986-8.738-133.983-8.738c-73.997 0-133.983 3.912-133.983 8.738s59.986 8.738 133.983 8.738z" fill="#C8E6EB"/><path d="M528.488 436.9H516.19v138.19h12.298V436.9z" fill="#A5A0AA"/><path d="M582.533 592.243h-12.298c0-6.149-5.178-11.327-11.327-11.327h-72.17c-6.149 0-11.327 5.178-11.327 11.327h-12.298c0-12.945 10.68-23.625 23.625-23.625h72.17c12.945 0 23.625 10.68 23.625 23.625z" fill="#695A6E"/><path d="M104.532 185.115c-6.796-4.854-11.65-11.327-15.21-19.094-7.767-16.829-20.065-27.185-31.716-24.919-15.534 2.912-23.949 27.508-18.77 54.369 5.178 27.185 46.279 76.701 52.104 75.73 5.178-.647 27.832-52.428 24.919-66.668-1.294-8.414-5.825-15.534-11.327-19.418z" fill="#B6EBC4"/><path d="M73.463 173.463c4.53 9.709 7.767 19.741 10.68 30.098 2.912 10.356 4.854 20.712 6.149 31.392 1.618 10.679 2.265 21.359 2.912 31.715.324 10.68.324 21.36.648 31.716h-5.826c.324-10.68.647-21.359.647-31.716 0-10.679-.323-21.036-1.294-31.715-.971-10.357-2.59-21.036-4.855-31.392-1.941-10.033-5.178-20.389-9.061-30.098z" fill="#8CC3A1"/><path d="M137.219 220.715c2.913-22.331-1.942-41.425-10.356-42.396-7.444-.97-15.534 12.622-19.418 31.069-.647 3.236-2.265 6.149-5.178 8.414-5.178 3.884-8.09 12.946-6.472 22.654 1.941 12.298 15.534 24.596 15.534 24.596s22.977-22.33 25.89-44.337z" fill="#96CDA3"/><path d="M123.626 190.941c-3.56 16.182-6.473 32.687-8.738 49.192-1.942 16.505-3.237 33.334-1.942 49.839l-2.913.324c-.971-16.829.971-33.658 3.56-50.163 2.589-16.829 6.149-33.01 10.033-49.192z" fill="#7AAF94"/><path d="M112.947 329.456H76.701c-3.56 0-6.797-2.589-7.444-6.149l-9.385-54.694h69.904l-9.385 54.694c-.648 3.56-3.884 6.149-7.444 6.149z" fill="#87AFB9"/><path d="M129.128 277.998h-68.61c-2.589 0-4.53-1.942-4.53-4.531v-10.679c0-2.589 1.941-4.531 4.53-4.531h68.61c2.589 0 4.531 1.942 4.531 4.531v10.679c-.324 2.589-2.266 4.531-4.531 4.531z" fill="#A5C8CD"/><path d="M450.817 208.741l11.327 3.56-18.123 66.344c-1.942 7.444-20.065 40.778-20.065 40.778s-6.473-1.942-12.622-11.004c-12.945-20.065 39.483-99.678 39.483-99.678z" fill="#0073AA"/><path d="M421.041 275.408c6.796-6.149 31.069-27.185 50.81-43.69 23.302-19.418 50.163-21.36 44.661 7.767 0 0-3.883 32.039-57.93 60.195-11.974 6.149-25.89 15.211-34.304 20.065 0-.324-3.237-35.599-3.237-44.337z" fill="#0073AA"/><path d="M442.077 307.772c2.589-8.738 13.269-32.686 17.153-41.101 2.912-6.796 8.414-13.592 14.563-19.741v44.013c-4.531 2.913-9.385 5.826-14.887 8.738-5.502 2.913-11.327 5.826-16.505 8.738-.324-.323-.324-.323-.324-.647z" fill="#00558C"/><path d="M518.78 575.091l2.913 9.385c.647 1.942.323 3.884-.324 5.502-2.589 5.502-9.709 17.476-12.298 16.181-3.56-1.941 2.913-18.77 2.913-18.77l-.971-5.502 7.767-6.796z" fill="#50374B"/><path d="M487.062 368.615l33.01 210.683c-2.589 2.589-4.855 2.266-9.385 2.266l-83.173-198.062 59.548-14.887z" fill="#F58251"/><path d="M502.922 216.186c16.505-2.266 39.806-7.444 56.958 12.298 11.004 12.945 9.062 40.777 13.269 69.58 7.767 52.105-4.854 70.875-4.854 70.875s-62.461 6.149-77.995-9.385c-1.942-10.033-44.661-51.781-27.832-98.707 8.738-23.625 24.596-42.396 40.454-44.661z" fill="#0091C8"/><path d="M498.068 197.737h17.152a163.084 163.084 0 0 0 3.236 17.8c.648 2.913 0 6.149-1.941 8.738-5.502 7.12-17.476 18.771-23.625 3.236a9.066 9.066 0 0 1 0-7.12c1.618-4.53 4.207-12.945 5.178-22.654z" fill="#F58251"/><path d="M520.397 180.586s.647 12.945-6.797 22.654c-2.912 3.56-7.443 10.032-16.505 9.709-5.502-.324-9.709-4.855-12.945-9.709-9.709-15.534-9.062-45.308-9.062-45.308s31.392-12.946 42.072 4.854c2.913 3.884 3.237 11.004 3.237 17.8z" fill="#FF9669"/><path d="M501.304 197.737c0 2.913-2.266 5.502-5.502 5.502-2.913 0-5.502-2.265-5.502-5.502h11.004z" fill="#F9F8F7"/><path d="M504.54 185.116c.715 0 1.294-1.16 1.294-2.589 0-1.43-.579-2.589-1.294-2.589-.715 0-1.295 1.159-1.295 2.589 0 1.429.58 2.589 1.295 2.589zm-18.77 0c.715 0 1.295-1.16 1.295-2.589 0-1.43-.58-2.589-1.295-2.589s-1.294 1.159-1.294 2.589c0 1.429.579 2.589 1.294 2.589z" fill="#523528"/><path d="M495.154 180.262l-2.265 9.709c0 .971.323 2.912 2.912 2.912 1.295 0 1.942-.971 1.942-2.265l-2.589-10.356z" fill="#FF640A"/><path d="M501.301 175.407c1.619-.971 3.237-1.295 5.178-.971 1.619.323 3.56.647 4.855 2.265-1.942.324-3.236.324-4.855.324-1.941-.324-3.559-.647-5.178-1.618zm-11.002.649c-1.619.647-2.913.971-4.208.971-1.294 0-2.589-.001-4.207-.324.971-1.618 2.589-1.942 3.884-2.265 1.618 0 3.236.323 4.531 1.618z" fill="#C96E35"/><path d="M518.132 156.315s-18.123 16.828-37.864 16.181c-19.742-.647-25.891-17.152-24.596-25.243 1.294-8.091 4.854-33.658 37.864-12.945 0-.324 46.927-4.855 24.596 22.007z" fill="#5046AF"/><path d="M526.555 184.126c1.36-5.187.36-9.942-2.234-10.622-2.593-.68-5.798 2.973-7.157 8.16-1.36 5.187-.36 9.943 2.233 10.623 2.593.679 5.798-2.974 7.158-8.161z" fill="#FF9669"/><path d="M378 525.575l-3.884 9.062c-.647 1.941-1.942 3.236-3.883 4.207-5.502 2.912-17.476 8.414-19.742 3.236-2.265-5.502 13.916-11.651 13.916-11.651l5.502-7.119 8.091 2.265z" fill="#50374B"/><path d="M578.65 407.774c6.796-20.389-7.767-42.072-29.127-45.632-33.657-5.825-91.587-12.945-113.594-.971-13.269 7.12-71.522 169.259-71.522 169.259.324 5.825 11.974-1.942 11.974-1.942l75.406-118.449s90.617 32.687 113.594 15.211c7.12-4.855 11.004-11.004 13.269-17.476z" fill="#FF9669"/><path d="M453.729 355.993c25.567-4.207 67.963-17.476 96.119-14.24 32.039 3.56 42.719 60.196 18.446 81.879-.647.647-1.618 1.294-2.265 1.941-21.359 16.182-88.674-3.559-100.649-7.767l-11.651-61.813z" fill="#0091C8"/><path d="M541.432 230.422c7.444 1.942 15.858 8.738 15.858 22.007 0 11.003-44.661 72.169-77.024 83.82-28.479 10.033-91.911-1.618-95.794-6.473-3.56-4.207 1.294-18.77 1.294-18.77 13.269 2.589 79.937-8.091 79.937-8.091s24.919-28.156 39.159-47.897c16.829-22.978 21.683-28.48 36.57-24.596z" fill="#41B4E6"/><path d="M580.269 449.199H454.054c-6.797 0-12.298-5.501-12.298-12.298 0-6.796 5.501-12.297 12.298-12.297h126.215c3.884 0 7.12-2.59 8.091-6.473l39.807-170.553c1.618-6.473 8.09-10.68 14.563-9.062 6.473 1.618 10.68 8.091 9.062 14.564l-39.807 170.553c-2.913 14.887-16.181 25.566-31.716 25.566z" fill="#695A6E"/><path d="M280.912 330.103h-45.631l7.119-45.631h45.632l-7.12 45.631z" fill="#6C9BAA"/><path d="M499.038 436.255l7.12-56.959c1.618-13.916 13.592-24.273 27.508-24.273h74.111" stroke="#50374B" stroke-width="3.407" stroke-miterlimit="10" stroke-linecap="round"/><path d="M30.42 592.568l58.901-247.254-11.003-3.236-59.548 250.49h11.65zm384.795 0l-59.871-250.49-11.004 3.236 58.901 247.254h11.974z" fill="#A5C8CD"/><path d="M349.197 277.674c.971 2.913.647 5.826-1.295 8.091-1.618 2.265-4.531 3.883-7.443 3.883H184.145c-3.883 0-7.119-2.265-8.414-6.148l-37.217-105.827c-.971-2.913-.648-5.826 1.294-8.091 1.942-2.266 4.531-3.884 7.444-3.884h155.989c3.884 0 7.12 2.266 8.415 6.149l37.541 105.827z" fill="#fff"/><path d="M298.71 199.032l-3.236-9.061H168.287l3.236 9.061H298.71z" fill="#FF8291"/><path d="M304.213 214.568l-4.207-11.974H172.819l4.207 11.974h127.187z" fill="#41B4E6"/><path d="M306.801 222.658l-1.294-4.531H178.32l1.295 4.531h127.186z" fill="#FAF58C"/><path d="M181.233 226.218l13.916 39.806h51.458l-14.24-39.806h-51.134z" fill="#FF8C46"/><path d="M236.25 226.218l13.916 39.806h70.552l-13.916-39.806H236.25z" fill="#41B4E6"/><path d="M301.947 177.349l35.922 101.296H186.411l-35.923-101.296h151.459zm1.618-11.328h-155.99c-6.149 0-10.68 6.149-8.414 11.975l37.217 105.827c1.295 3.56 4.531 6.149 8.414 6.149h156.314c2.912 0 5.825-1.295 7.443-3.884 1.618-2.265 2.266-5.501 1.295-8.091L312.626 172.17c-1.941-3.883-5.501-6.149-9.061-6.149zm.649 164.082h-68.933l1.618-10.68h56.635c5.825 0 10.68 4.854 10.68 10.68z" fill="#87AFB9"/><path d="M660.85 229.777c-3.559-5.179-5.501-11.328-5.178-17.8.324-6.796-.323-16.182-5.178-27.185-5.825-13.269-17.152-20.389-27.508-24.272-11.975-4.531-21.36-14.24-26.538-26.214-1.942-4.531-5.178-9.062-10.68-11.975-24.272-13.592-37.541-4.854-43.042.324-4.531 4.855-9.709 9.062-14.887 13.269l-10.357 8.414 11.004 9.062c7.443-2.266 15.21 2.589 16.505 10.356 11.974 73.464 33.981 119.743 100.972 103.562 17.8-3.884 23.949-24.273 14.887-37.541z" fill="#5046AF"/><path d="M483.18 187.383c2.913-2.913 7.12-2.913 10.033 0m-16.459 8.423a8.738 8.738 0 0 0 8.7-8.776 8.737 8.737 0 0 0-8.775-8.7 8.738 8.738 0 1 0 .075 17.476z" stroke="#55C7A6" stroke-width=".42" stroke-miterlimit="10"/><path d="M499.408 195.806a8.738 8.738 0 0 0 8.7-8.776 8.738 8.738 0 0 0-8.776-8.7 8.738 8.738 0 0 0-8.7 8.776 8.738 8.738 0 0 0 8.776 8.7z" stroke="#55C7A6" stroke-width=".42" stroke-miterlimit="10"/><path d="M508.1 187.058l10.68-10.033c.971-.971 2.265-1.618 3.56-1.618 2.265 0 4.207 1.295 4.854 3.237l.648 1.618" stroke="#55C7A6" stroke-width=".42" stroke-miterlimit="10"/><path d="M453.405 209.389l3.236-6.472c.324-3.56.647-10.033 5.178-15.534l4.855-5.178c.971-.971 2.912-3.237 4.207-2.59 1.294.648.323 5.502.323 6.473l-.323 2.266-.971 7.767c-.647 2.912-5.178 8.738-5.178 8.738l-3.56 6.796-7.767-2.266z" fill="#FF9669"/><path d="M435.282 356.64c0 3.884-3.237 6.796-6.796 6.796H27.184c-3.883 0-6.796-3.236-6.796-6.796v-19.741c0-3.884 3.236-6.796 6.796-6.796h401.302c3.883 0 6.796 3.236 6.796 6.796v19.741z" fill="#fff"/><path d="M246.606 324.926H26.537c-8.738 0-15.857 7.12-15.857 15.858v125.244c0 8.738 7.12 15.858 15.857 15.858h14.564" stroke="#87AFB9" stroke-width="1.098" stroke-miterlimit="10"/><path d="M54.046 552.438h39.16m-39.16 8.413h39.16m-39.16 8.09h39.16m-39.16 8.416h39.16" stroke="#6C9BAA" stroke-width="1.098" stroke-miterlimit="10"/><path d="M261.492 455.349h-33.981v6.796h33.981v-6.796zm-3.56 104.208a3.559 3.559 0 1 0 0-7.119 3.559 3.559 0 1 0 0 7.119zm.001 9.386a2.265 2.265 0 1 0 0-4.53 2.265 2.265 0 0 0 0 4.53z" fill="#87AFB9"/><path d="M261.492 475.089h-33.981v60.842h33.981v-60.842z" fill="#B4D7DC"/></svg>