<svg width="665" height="607" viewBox="0 0 665 607" fill="none" xmlns="http://www.w3.org/2000/svg">
<path d="M270.878 541.757C420.48 541.757 541.757 420.48 541.757 270.878C541.757 121.276 420.48 0 270.878 0C121.276 0 0 121.276 0 270.878C0 420.48 121.276 541.757 270.878 541.757Z" fill="#E4F2F6"/>
<path d="M373.468 330.103H332.367H328.807C328.807 325.895 332.044 322.659 336.251 322.659H373.792V330.103H373.468Z" fill="#6C9BAA"/>
<path d="M389.651 319.423L368.615 317.157L346.932 315.539C346.932 315.539 322.983 321.364 325.896 324.924C327.19 326.219 350.492 324.924 350.492 324.924L370.88 330.426H391.593L389.651 319.423Z" fill="#FF9669"/>
<path d="M532.371 173.141C522.662 189.97 524.281 208.417 514.248 208.417C504.216 208.417 496.125 192.559 496.125 173.141C496.125 153.723 504.216 137.865 514.248 137.865C524.281 137.865 543.375 153.723 532.371 173.141Z" fill="#5046AF"/>
<path d="M269.583 445.64H87.7028V592.244H269.583V445.64Z" fill="#A5C8CD"/>
<path d="M218.774 445.64H36.8938V592.244H218.774V445.64Z" fill="#87AFB9"/>
<path d="M602.275 431.074H495.154V238.19L643.053 238.514L602.275 431.074Z" fill="#50374B"/>
<path d="M471.206 601.951C545.203 601.951 605.189 598.039 605.189 593.213C605.189 588.387 545.203 584.475 471.206 584.475C397.209 584.475 337.223 588.387 337.223 593.213C337.223 598.039 397.209 601.951 471.206 601.951Z" fill="#C8E6EB"/>
<path d="M528.488 436.9H516.19V575.09H528.488V436.9Z" fill="#A5A0AA"/>
<path d="M582.533 592.243H570.235C570.235 586.094 565.057 580.916 558.908 580.916H486.738C480.589 580.916 475.411 586.094 475.411 592.243H463.113C463.113 579.298 473.793 568.618 486.738 568.618H558.908C571.853 568.618 582.533 579.298 582.533 592.243Z" fill="#695A6E"/>
<path d="M104.532 185.115C97.7361 180.261 92.8816 173.788 89.3216 166.021C81.5545 149.192 69.2566 138.836 57.6059 141.102C42.0717 144.014 33.6573 168.61 38.8354 195.471C44.0135 222.656 85.1145 272.172 90.9398 271.201C96.1179 270.554 118.772 218.773 115.859 204.533C114.565 196.119 110.034 188.999 104.532 185.115Z" fill="#B6EBC4"/>
<path d="M73.4628 173.463C77.9936 183.172 81.23 193.204 84.1426 203.561C87.0553 213.917 88.9971 224.273 90.2916 234.953C91.9097 245.632 92.557 256.312 93.2043 266.668C93.5279 277.348 93.5279 288.028 93.8515 298.384H88.0262C88.3498 287.704 88.6734 277.025 88.6734 266.668C88.6734 255.989 88.3498 245.632 87.3789 234.953C86.408 224.596 84.7899 213.917 82.5245 203.561C80.5827 193.528 77.3464 183.172 73.4628 173.463Z" fill="#8CC3A1"/>
<path d="M137.219 220.715C140.132 198.384 135.277 179.29 126.863 178.319C119.419 177.349 111.329 190.941 107.445 209.388C106.798 212.624 105.18 215.537 102.267 217.802C97.089 221.686 94.1763 230.748 95.7945 240.456C97.7362 252.754 111.329 265.052 111.329 265.052C111.329 265.052 134.306 242.722 137.219 220.715Z" fill="#96CDA3"/>
<path d="M123.626 190.941C120.066 207.123 117.153 223.628 114.888 240.133C112.946 256.638 111.651 273.467 112.946 289.972L110.033 290.296C109.062 273.467 111.004 256.638 113.593 240.133C116.182 223.304 119.742 207.123 123.626 190.941Z" fill="#7AAF94"/>
<path d="M112.947 329.456H76.7005C73.1406 329.456 69.9043 326.867 69.257 323.307L59.8718 268.613H129.776L120.391 323.307C119.743 326.867 116.507 329.456 112.947 329.456Z" fill="#87AFB9"/>
<path d="M129.128 277.998H60.5185C57.9294 277.998 55.9877 276.056 55.9877 273.467V262.788C55.9877 260.199 57.9294 258.257 60.5185 258.257H129.128C131.717 258.257 133.659 260.199 133.659 262.788V273.467C133.335 276.056 131.393 277.998 129.128 277.998Z" fill="#A5C8CD"/>
<path d="M450.817 208.741L462.144 212.301L444.021 278.645C442.079 286.089 423.956 319.423 423.956 319.423C423.956 319.423 417.483 317.481 411.334 308.419C398.389 288.354 450.817 208.741 450.817 208.741Z" fill="#0073AA"/>
<path d="M421.041 275.408C427.837 269.259 452.11 248.223 471.851 231.718C495.153 212.3 522.014 210.358 516.512 239.485C516.512 239.485 512.629 271.524 458.582 299.68C446.608 305.829 432.692 314.891 424.278 319.745C424.278 319.421 421.041 284.146 421.041 275.408Z" fill="#0073AA"/>
<path d="M442.077 307.772C444.666 299.034 455.346 275.086 459.23 266.671C462.142 259.875 467.644 253.079 473.793 246.93V290.943C469.262 293.856 464.408 296.769 458.906 299.681C453.404 302.594 447.579 305.507 442.401 308.419C442.077 308.096 442.077 308.096 442.077 307.772Z" fill="#00558C"/>
<path d="M518.78 575.091L521.693 584.476C522.34 586.418 522.016 588.36 521.369 589.978C518.78 595.48 511.66 607.454 509.071 606.159C505.511 604.218 511.984 587.389 511.984 587.389L511.013 581.887L518.78 575.091Z" fill="#50374B"/>
<path d="M487.062 368.615L520.072 579.298C517.483 581.887 515.217 581.564 510.687 581.564L427.514 383.502L487.062 368.615Z" fill="#F58251"/>
<path d="M502.922 216.186C519.427 213.92 542.728 208.742 559.88 228.484C570.884 241.429 568.942 269.261 573.149 298.064C580.916 350.169 568.295 368.939 568.295 368.939C568.295 368.939 505.834 375.088 490.3 359.554C488.358 349.521 445.639 307.773 462.468 260.847C471.206 237.222 487.064 218.451 502.922 216.186Z" fill="#0091C8"/>
<path d="M498.068 197.737H515.22C515.867 202.915 516.838 208.741 518.456 215.537C519.104 218.45 518.456 221.686 516.515 224.275C511.013 231.395 499.039 243.046 492.89 227.511C491.919 225.246 491.919 222.657 492.89 220.391C494.508 215.861 497.097 207.446 498.068 197.737Z" fill="#F58251"/>
<path d="M520.397 180.586C520.397 180.586 521.044 193.531 513.6 203.24C510.688 206.8 506.157 213.272 497.095 212.949C491.593 212.625 487.386 208.094 484.15 203.24C474.441 187.706 475.088 157.932 475.088 157.932C475.088 157.932 506.48 144.986 517.16 162.786C520.073 166.67 520.397 173.79 520.397 180.586Z" fill="#FF9669"/>
<path d="M501.304 197.737C501.304 200.65 499.038 203.239 495.802 203.239C492.889 203.239 490.3 200.974 490.3 197.737H501.304Z" fill="#F9F8F7"/>
<path d="M504.54 185.116C505.255 185.116 505.834 183.956 505.834 182.527C505.834 181.097 505.255 179.938 504.54 179.938C503.825 179.938 503.245 181.097 503.245 182.527C503.245 183.956 503.825 185.116 504.54 185.116Z" fill="#523528"/>
<path d="M485.77 185.116C486.485 185.116 487.065 183.956 487.065 182.527C487.065 181.097 486.485 179.938 485.77 179.938C485.055 179.938 484.476 181.097 484.476 182.527C484.476 183.956 485.055 185.116 485.77 185.116Z" fill="#523528"/>
<path d="M495.154 180.262L492.889 189.971C492.889 190.942 493.212 192.883 495.801 192.883C497.096 192.883 497.743 191.912 497.743 190.618L495.154 180.262Z" fill="#FF640A"/>
<path d="M501.301 175.407C502.92 174.436 504.538 174.112 506.479 174.436C508.098 174.759 510.039 175.083 511.334 176.701C509.392 177.025 508.098 177.025 506.479 177.025C504.538 176.701 502.92 176.378 501.301 175.407Z" fill="#C96E35"/>
<path d="M490.299 176.056C488.68 176.703 487.386 177.027 486.091 177.027C484.797 177.027 483.502 177.026 481.884 176.703C482.855 175.085 484.473 174.761 485.768 174.438C487.386 174.438 489.004 174.761 490.299 176.056Z" fill="#C96E35"/>
<path d="M518.132 156.315C518.132 156.315 500.009 173.143 480.268 172.496C460.526 171.849 454.377 155.344 455.672 147.253C456.966 139.162 460.526 113.595 493.536 134.308C493.536 133.984 540.463 129.453 518.132 156.315Z" fill="#5046AF"/>
<path d="M526.555 184.126C527.915 178.939 526.915 174.184 524.321 173.504C521.728 172.824 518.523 176.477 517.164 181.664C515.804 186.851 516.804 191.607 519.397 192.287C521.99 192.966 525.195 189.313 526.555 184.126Z" fill="#FF9669"/>
<path d="M378 525.575L374.116 534.637C373.469 536.578 372.174 537.873 370.233 538.844C364.731 541.756 352.757 547.258 350.491 542.08C348.226 536.578 364.407 530.429 364.407 530.429L369.909 523.31L378 525.575Z" fill="#50374B"/>
<path d="M578.65 407.774C585.446 387.385 570.883 365.702 549.523 362.142C515.866 356.317 457.936 349.197 435.929 361.171C422.66 368.291 364.407 530.43 364.407 530.43C364.731 536.255 376.381 528.488 376.381 528.488L451.787 410.039C451.787 410.039 542.404 442.726 565.381 425.25C572.501 420.395 576.385 414.246 578.65 407.774Z" fill="#FF9669"/>
<path d="M453.729 355.993C479.296 351.786 521.692 338.517 549.848 341.753C581.887 345.313 592.567 401.949 568.294 423.632C567.647 424.279 566.676 424.926 566.029 425.573C544.67 441.755 477.355 422.014 465.38 417.806L453.729 355.993Z" fill="#0091C8"/>
<path d="M541.432 230.422C548.876 232.364 557.29 239.16 557.29 252.429C557.29 263.432 512.629 324.598 480.266 336.249C451.787 346.282 388.355 334.631 384.472 329.776C380.912 325.569 385.766 311.006 385.766 311.006C399.035 313.595 465.703 302.915 465.703 302.915C465.703 302.915 490.622 274.759 504.862 255.018C521.691 232.04 526.545 226.538 541.432 230.422Z" fill="#41B4E6"/>
<path d="M580.269 449.199H454.054C447.257 449.199 441.756 443.698 441.756 436.901C441.756 430.105 447.257 424.604 454.054 424.604H580.269C584.153 424.604 587.389 422.014 588.36 418.131L628.167 247.578C629.785 241.105 636.257 236.898 642.73 238.516C649.203 240.134 653.41 246.607 651.792 253.08L611.985 423.633C609.072 438.52 595.804 449.199 580.269 449.199Z" fill="#695A6E"/>
<path d="M280.912 330.103H235.281L242.4 284.472H288.032L280.912 330.103Z" fill="#6C9BAA"/>
<path d="M499.038 436.255L506.158 379.296C507.776 365.38 519.75 355.023 533.666 355.023H607.777" stroke="#50374B" stroke-width="3.4067" stroke-miterlimit="10" stroke-linecap="round"/>
<path d="M30.4207 592.568L89.3213 345.314L78.3179 342.078L18.77 592.568H30.4207Z" fill="#A5C8CD"/>
<path d="M415.215 592.568L355.344 342.078L344.34 345.314L403.241 592.568H415.215Z" fill="#A5C8CD"/>
<path d="M349.197 277.674C350.168 280.587 349.844 283.5 347.902 285.765C346.284 288.03 343.371 289.648 340.459 289.648H184.145C180.262 289.648 177.026 287.383 175.731 283.5L138.514 177.673C137.543 174.76 137.866 171.847 139.808 169.582C141.75 167.316 144.339 165.698 147.252 165.698H303.241C307.125 165.698 310.361 167.964 311.656 171.847L349.197 277.674Z" fill="white"/>
<path d="M298.71 199.032L295.474 189.971H168.287L171.523 199.032H298.71Z" fill="#FF8291"/>
<path d="M304.213 214.568L300.006 202.594H172.819L177.026 214.568H304.213Z" fill="#41B4E6"/>
<path d="M306.801 222.658L305.507 218.127H178.32L179.615 222.658H306.801Z" fill="#FAF58C"/>
<path d="M181.233 226.218L195.149 266.024H246.607L232.367 226.218H181.233Z" fill="#FF8C46"/>
<path d="M236.25 226.218L250.166 266.024H320.718L306.802 226.218H236.25Z" fill="#41B4E6"/>
<path d="M301.947 177.349L337.869 278.645H186.411L150.488 177.349H301.947ZM303.565 166.021H147.575C141.426 166.021 136.895 172.17 139.161 177.996L176.378 283.823C177.673 287.383 180.909 289.972 184.792 289.972H341.106C344.018 289.972 346.931 288.677 348.549 286.088C350.167 283.823 350.815 280.587 349.844 277.997L312.626 172.17C310.685 168.287 307.125 166.021 303.565 166.021Z" fill="#87AFB9"/>
<path d="M304.214 330.103H235.281L236.899 319.423H293.534C299.359 319.423 304.214 324.277 304.214 330.103Z" fill="#87AFB9"/>
<path d="M660.85 229.777C657.291 224.598 655.349 218.449 655.672 211.977C655.996 205.181 655.349 195.795 650.494 184.792C644.669 171.523 633.342 164.403 622.986 160.52C611.011 155.989 601.626 146.28 596.448 134.306C594.506 129.775 591.27 125.244 585.768 122.331C561.496 108.739 548.227 117.477 542.726 122.655C538.195 127.51 533.017 131.717 527.839 135.924L517.482 144.338L528.486 153.4C535.929 151.134 543.696 155.989 544.991 163.756C556.965 237.22 578.972 283.499 645.963 267.318C663.763 263.434 669.912 243.045 660.85 229.777Z" fill="#5046AF"/>
<path d="M483.18 187.383C486.093 184.47 490.3 184.47 493.213 187.383" stroke="#55C7A6" stroke-width="0.42" stroke-miterlimit="10"/>
<path d="M476.754 195.806C481.58 195.785 485.475 191.856 485.454 187.03C485.434 182.204 481.504 178.309 476.679 178.33C471.853 178.351 467.958 182.28 467.978 187.106C467.999 191.932 471.928 195.827 476.754 195.806Z" stroke="#55C7A6" stroke-width="0.42" stroke-miterlimit="10"/>
<path d="M499.408 195.806C504.234 195.785 508.129 191.856 508.108 187.03C508.087 182.204 504.158 178.309 499.332 178.33C494.506 178.351 490.611 182.28 490.632 187.106C490.653 191.932 494.582 195.827 499.408 195.806Z" stroke="#55C7A6" stroke-width="0.42" stroke-miterlimit="10"/>
<path d="M508.1 187.058L518.78 177.025C519.751 176.054 521.045 175.407 522.34 175.407C524.605 175.407 526.547 176.702 527.194 178.644L527.842 180.262" stroke="#55C7A6" stroke-width="0.42" stroke-miterlimit="10"/>
<path d="M453.405 209.389L456.641 202.917C456.965 199.357 457.288 192.884 461.819 187.383L466.674 182.205C467.645 181.234 469.586 178.968 470.881 179.615C472.175 180.263 471.204 185.117 471.204 186.088L470.881 188.354L469.91 196.121C469.263 199.033 464.732 204.859 464.732 204.859L461.172 211.655L453.405 209.389Z" fill="#FF9669"/>
<path d="M435.282 356.64C435.282 360.524 432.045 363.436 428.486 363.436H27.1843C23.3008 363.436 20.3881 360.2 20.3881 356.64V336.899C20.3881 333.015 23.6244 330.103 27.1843 330.103H428.486C432.369 330.103 435.282 333.339 435.282 336.899V356.64Z" fill="white"/>
<path d="M246.606 324.926H26.5374C17.7994 324.926 10.6795 332.046 10.6795 340.784V466.028C10.6795 474.766 17.7994 481.886 26.5374 481.886H41.1007" stroke="#87AFB9" stroke-width="1.0979" stroke-miterlimit="10"/>
<path d="M54.0461 552.438H93.2053" stroke="#6C9BAA" stroke-width="1.0979" stroke-miterlimit="10"/>
<path d="M54.0458 560.851H93.2051" stroke="#6C9BAA" stroke-width="1.0979" stroke-miterlimit="10"/>
<path d="M54.0458 568.941H93.2051" stroke="#6C9BAA" stroke-width="1.0979" stroke-miterlimit="10"/>
<path d="M54.0458 577.357H93.2051" stroke="#6C9BAA" stroke-width="1.0979" stroke-miterlimit="10"/>
<path d="M261.492 455.349H227.511V462.145H261.492V455.349Z" fill="#87AFB9"/>
<path d="M257.932 559.557C259.898 559.557 261.491 557.964 261.491 555.997C261.491 554.031 259.898 552.438 257.932 552.438C255.965 552.438 254.372 554.031 254.372 555.997C254.372 557.964 255.965 559.557 257.932 559.557Z" fill="#87AFB9"/>
<path d="M257.933 568.943C259.184 568.943 260.198 567.929 260.198 566.677C260.198 565.426 259.184 564.412 257.933 564.412C256.682 564.412 255.667 565.426 255.667 566.677C255.667 567.929 256.682 568.943 257.933 568.943Z" fill="#87AFB9"/>
<path d="M261.492 475.089H227.511V535.931H261.492V475.089Z" fill="#B4D7DC"/>
</svg>
