<svg width="723" height="709" viewBox="0 0 723 709" fill="none" xmlns="http://www.w3.org/2000/svg">
<path opacity="0.3" d="M229.537 235.842C132.488 224.32 44.5279 293.589 33.1618 390.462C21.8273 487.068 91.9074 575.236 188.737 586.327C189.405 586.406 190.072 586.486 190.873 586.581C229.799 590.527 264.39 612.738 285.095 645.865C301.926 672.858 330.496 692.193 364.701 695.984C423.886 702.605 477.498 659.251 483.571 600.12C484.655 589.846 484.106 579.648 482.41 569.989C476.672 538.504 477.131 506.133 483.416 474.859C484.031 471.959 484.529 468.911 484.892 465.847C490.444 419.084 464.855 375.784 424.78 356.434C393.152 341.195 364.473 320.497 341.328 294.24C313.498 262.969 274.525 241.183 229.537 235.842Z" fill="url(#paint0_linear)"/>
<path d="M288.8 0H191.521V9.97338H288.8V0Z" fill="url(#paint1_linear)"/>
<path d="M386.273 74.9951H316.031V84.9685H386.273V74.9951Z" fill="url(#paint2_linear)"/>
<path d="M443.776 74.9951H397.182V84.9685H443.776V74.9951Z" fill="url(#paint3_linear)"/>
<path d="M565.521 74.9951H453.009V84.9685H565.521V74.9951Z" fill="url(#paint4_linear)"/>
<path d="M264.957 225.803H192.65V235.777H264.957V225.803Z" fill="url(#paint5_linear)"/>
<path d="M376.768 0H307.733V9.97338H376.768V0Z" fill="url(#paint6_linear)"/>
<path d="M376.768 112.473H307.733V122.447H376.768V112.473Z" fill="url(#paint7_linear)"/>
<path d="M302.707 149.951H273.216V159.925H302.707V149.951Z" fill="url(#paint8_linear)"/>
<path d="M309.954 188.014H243.685V197.988H309.954V188.014Z" fill="url(#paint9_linear)"/>
<path d="M411.441 188.014H319.966V197.988H411.441V188.014Z" fill="url(#paint10_linear)"/>
<path d="M261.684 150.263H192.65V160.237H261.684V150.263Z" fill="url(#paint11_linear)"/>
<path d="M233.634 188.014H192.65V197.988H233.634V188.014Z" fill="url(#paint12_linear)"/>
<path d="M355.262 150.263H316.616V160.237H355.262V150.263Z" fill="url(#paint13_linear)"/>
<path d="M261.412 74.9951H192.377V84.9685H261.412V74.9951Z" fill="url(#paint14_linear)"/>
<path d="M290.825 112.473H192.377V122.447H290.825V112.473Z" fill="url(#paint15_linear)"/>
<path d="M483.319 0H395.351V9.97338H483.319V0Z" fill="url(#paint16_linear)"/>
<path d="M718.2 74.9951H630.232V84.9685H718.2V74.9951Z" fill="url(#paint17_linear)"/>
<path d="M603.662 112.473H515.694V122.447H603.662V112.473Z" fill="url(#paint18_linear)"/>
<path d="M636.348 0H548.38V9.97338H636.348V0Z" fill="url(#paint19_linear)"/>
<path d="M499.604 112.473H448.023V122.447H499.604V112.473Z" fill="url(#paint20_linear)"/>
<path d="M531.822 0H499.604V9.97338H531.822V0Z" fill="url(#paint21_linear)"/>
<path d="M427.57 112.473H395.351V122.447H427.57V112.473Z" fill="url(#paint22_linear)"/>
<path d="M241.893 37.478H191.52V47.4514H241.893V37.478Z" fill="url(#paint23_linear)"/>
<path d="M365.703 226.076H325.927V236.05H365.703V226.076Z" fill="url(#paint24_linear)"/>
<path d="M270.567 37.478H254.282V47.4514H270.567V37.478Z" fill="url(#paint25_linear)"/>
<path d="M722.641 37.478H588.195V47.4514H722.641V37.478Z" fill="url(#paint26_linear)"/>
<path d="M575.768 37.478H531.783V47.4514H575.768V37.478Z" fill="url(#paint27_linear)"/>
<path d="M619.752 74.9951H575.768V84.9685H619.752V74.9951Z" fill="url(#paint28_linear)"/>
<path d="M520.135 37.478H426.557V47.4514H520.135V37.478Z" fill="url(#paint29_linear)"/>
<path d="M413.311 37.478H381.092V47.4514H413.311V37.478Z" fill="url(#paint30_linear)"/>
<path d="M304.928 74.9951H272.709V84.9685H304.928V74.9951Z" fill="url(#paint31_linear)"/>
<path d="M311.317 226.076H279.099V236.05H311.317V226.076Z" fill="url(#paint32_linear)"/>
<path d="M368.82 37.478H312.72V47.4514H368.82V37.478Z" fill="url(#paint33_linear)"/>
<path d="M249.256 627.933L230.439 502.876L234.062 502.331L252.84 627.349L249.256 627.933Z" fill="#5C5049"/>
<path d="M226.271 627.933L207.493 502.876L211.116 502.331L229.894 627.349L226.271 627.933Z" fill="#5C5049"/>
<path d="M113.213 627.933L109.59 627.349L128.368 502.331L131.991 502.876L113.213 627.933Z" fill="#5C5049"/>
<path d="M236.322 504.162L251.048 349.224C251.048 349.224 225.297 345.835 209.713 346.692L186.338 504.162H236.322Z" fill="#C9C5B4"/>
<path d="M236.322 496.292H186.338V504.162H236.322V496.292Z" fill="#C9C5B4"/>
<path d="M153.613 497.851L145.783 350.198C145.783 350.198 210.96 343.108 251.01 349.224L153.613 497.851Z" fill="#C9C5B4"/>
<path d="M205.701 302.357C205.701 302.357 215.752 272.827 196.545 263.671C177.339 254.516 161.015 267.762 157.938 274.891C154.86 282.06 155.678 295.072 158.288 304.149C160.898 313.227 160.548 327.057 154.821 331.654C149.094 336.29 142.042 343.965 142.393 359.587C142.627 369.288 180.533 334.81 180.533 334.81L205.701 302.357Z" fill="#292C47"/>
<path d="M180.066 620.025C180.066 620.025 179.482 640.868 182.442 642.153C185.403 643.4 196.701 636.154 201.688 628.985C206.675 621.817 195.455 605.104 193.624 595.91C192.844 592.053 184.079 585.118 179.832 587.105C175.547 589.092 172.43 594.195 172.43 594.195C172.43 594.195 183.261 601.637 180.066 620.025Z" fill="#D4C3BD"/>
<path d="M172.391 594.156C172.391 594.156 176.092 601.286 178.001 606.818C179.91 612.35 180.261 627.622 181.469 628.713C182.676 629.764 192.104 625.011 193.39 619.285C194.636 613.558 190.819 602.143 187.156 596.104C183.494 590.105 179.793 587.066 179.793 587.066C179.793 587.066 173.365 588.352 172.391 594.156Z" fill="#DE9673"/>
<path d="M193.585 595.91L203.753 610.714L201.805 612.039L193.974 600.585L193.585 595.91Z" fill="#D4C3BD"/>
<path d="M157.041 432.05C157.041 432.05 161.989 440.427 157.041 446.543C152.094 452.66 118.706 469.412 118.94 479.112C119.174 488.813 125.29 503.968 127.511 507.786C129.693 511.643 137.796 527.577 142.042 536.927C146.25 546.277 170.599 590.962 175.352 601.014C180.105 611.104 177.183 560.73 177.183 560.73L152.834 489.32L209.752 433.882C209.713 433.882 202.857 418.571 157.041 432.05Z" fill="#DE9673"/>
<path d="M178.703 337.498C178.703 337.498 162.924 341.004 156.652 344.666C150.38 348.328 136.471 365.158 136.471 372.404C136.471 379.651 197.325 386.43 197.325 386.43L208.856 428.544C208.856 428.544 239.634 421.025 243.296 414.791C246.958 408.558 231.18 364.262 228.998 354.912C226.816 345.562 215.285 339.29 202.467 337.498C189.611 335.706 178.703 337.498 178.703 337.498Z" fill="#609A3E"/>
<path d="M216.025 433.453C216.025 433.453 214.934 440.66 217.856 443.699C220.778 446.738 234.296 464.542 227.128 482.034C220.583 498.085 207.843 497.773 207.843 497.773H188.13C188.13 497.773 193.857 526.68 191.987 545.731C190.156 564.782 181.468 608.259 181.274 610.441C181.079 612.623 172.937 619.518 170.56 616.012C170.56 616.012 170.326 589.832 169.041 579.937C167.755 570.041 162.301 530.498 160.665 524.655C159.028 518.811 149.328 501.046 149.328 499.215C149.328 497.384 139.861 468.71 160.548 461.386C181.235 454.062 188.559 433.608 216.025 433.453Z" fill="#EEA886"/>
<path d="M160.781 636.232C160.781 636.232 147.185 652.088 148.743 654.932C150.263 657.776 163.586 659.217 171.962 656.763C180.339 654.308 182.131 634.284 186.494 625.947C188.325 622.479 185.871 611.571 181.313 610.402C176.754 609.272 171.105 611.259 171.105 611.259C171.105 611.259 174.845 623.921 160.781 636.232Z" fill="#E6D3CC"/>
<path d="M171.105 611.298C171.105 611.298 169.508 619.168 167.521 624.661C165.534 630.154 156.184 642.27 156.457 643.868C156.73 645.465 167.054 647.686 171.651 644.023C176.209 640.361 180.456 629.063 181.391 622.09C182.326 615.116 181.352 610.441 181.352 610.441C181.352 610.441 175.508 607.364 171.105 611.298Z" fill="#EEA886"/>
<path d="M186.494 625.985L185.053 643.867L182.754 643.711L183.845 629.842L186.494 625.985Z" fill="#E6D3CC"/>
<path d="M227.128 482.034C220.934 498.318 207.844 497.773 207.844 497.773H188.131C188.131 497.773 179.91 484.761 159.808 482.501C155.367 481.995 150.302 482.034 144.653 482.852C144.575 482.852 144.497 482.852 144.458 482.891C117.733 486.865 122.875 496.643 122.953 496.916C120.732 491.501 118.395 482.852 118.979 478.216C121.551 457.061 152.133 452.62 157.081 446.504C162.028 440.387 157.081 432.011 157.081 432.011C202.857 418.492 209.753 433.842 209.753 433.842C211.778 433.569 216.921 430.609 219.103 430.57C219.103 430.57 221.401 435.556 222.998 440.075C224.401 444.127 233.829 464.386 227.128 482.034Z" fill="#292C47"/>
<path d="M208.116 365.548L214.895 428.544H125.719L118.94 365.548H208.116Z" fill="#DED1C5"/>
<path d="M221.985 422.856H207.103V428.505H221.985V422.856Z" fill="#DED1C5"/>
<path d="M311.434 428.544H33.1924V437.115H311.434V428.544Z" fill="#BC8551"/>
<path d="M188.559 268.736C188.559 268.736 208.545 274.658 205.701 302.357C202.857 330.096 189.806 328.654 188.559 328.849C187.351 329.044 171.846 330.057 166.937 296.436C162.067 262.815 188.559 268.736 188.559 268.736Z" fill="#EEA886"/>
<path d="M198.065 323.784C198.065 323.784 197.013 332.979 198.766 338.667C200.519 344.393 175.508 344.549 175.508 339.835C175.508 334.498 178.079 330.057 175.664 320.901C173.287 311.785 198.065 323.784 198.065 323.784Z" fill="#EEA886"/>
<path d="M183.416 281.086C183.416 281.086 194.286 298.344 205.701 302.357C205.701 302.357 211.934 273.372 186.182 267.294C160.431 261.217 164.444 296.552 166.392 305.98C166.353 306.019 171.729 292.15 183.416 281.086Z" fill="#292C47"/>
<path d="M178.664 324.953C178.664 324.953 186.572 333.173 196.662 325.81C196.662 325.81 195.844 331.07 188.559 331.771C181.313 332.433 178.664 324.953 178.664 324.953Z" fill="#A77860"/>
<path opacity="0.72" d="M168.846 278.515C168.846 278.515 174.573 267.451 184.196 266.944C193.857 266.438 199.584 274.814 199.584 274.814C199.584 274.814 195.805 265.386 184.196 265.386C172.625 265.386 168.846 278.515 168.846 278.515Z" fill="white"/>
<path d="M201.337 337.342C201.337 337.342 200.987 356.548 185.754 357.094C170.521 357.678 173.716 338.705 173.716 338.705C173.716 338.705 184.858 334.186 201.337 337.342Z" fill="#EEA886"/>
<path d="M311.434 437.115H305.123V634.05H311.434V437.115Z" fill="#807066"/>
<path d="M48.9317 437.115H42.6204V634.05H48.9317V437.115Z" fill="#807066"/>
<path d="M333.29 257.905H279.255V262.853H333.29V257.905Z" fill="#E0E0E0"/>
<path d="M372.638 280.268H279.255V285.215H372.638V280.268Z" fill="#E0E0E0"/>
<path d="M352.691 269.086H279.255V274.034H352.691V269.086Z" fill="#E0E0E0"/>
<path d="M319.966 291.488H279.255V296.436H319.966V291.488Z" fill="#E0E0E0"/>
<path d="M90.2274 406.26C90.2274 406.26 95.5647 408.792 94.1622 407.662C92.7597 406.493 97.6295 400.026 104.369 391.455C111.07 382.884 106.668 379.183 102.499 369.21C100.824 365.236 97.9412 363.795 95.1751 363.834C90.9676 363.951 87.0717 367.613 88.2405 371.509C90.1884 378.015 92.7986 384.248 87.9288 390.754C83.098 397.182 90.1105 406.104 90.2274 406.26Z" fill="#CFC147"/>
<path d="M104.681 371.391C107.954 369.755 111.888 363.989 108.616 362.587C105.382 361.184 107.915 357.016 104.681 357.016C101.448 357.016 99.8113 362.041 101.681 364.846C101.681 364.885 101.448 373.028 104.681 371.391Z" fill="#CFC147"/>
<path d="M105.538 357.172C105.538 357.172 110.642 352.769 105.538 351.834C100.434 350.899 101.837 356.471 102.304 357.172C102.733 357.873 105.538 357.172 105.538 357.172Z" fill="#CFC147"/>
<path d="M85.3574 372.56C89.2922 371.859 89.2922 367.924 89.2922 367.924C89.2922 367.924 86.1755 362.119 83.4874 364.807C80.8382 367.456 81.4226 373.261 85.3574 372.56Z" fill="#A09832"/>
<path d="M90.2274 406.259C90.2274 406.259 97.9801 392.117 93.9284 382.144C91.0845 375.17 93.4609 367.651 95.1751 363.794C90.9676 363.911 87.0717 367.573 88.2405 371.469C90.1884 377.975 92.7986 384.209 87.9288 390.715C83.098 397.182 90.1105 406.103 90.2274 406.259Z" fill="#A09832"/>
<path d="M103.785 406.104H80.7997L81.7736 409.454H102.928L103.785 406.104Z" fill="#727643"/>
<path d="M98.8763 428.544L100.785 413.272L101.253 409.454H83.6046L85.8252 428.544H98.8763Z" fill="#4B4C37"/>
<path d="M104.759 381.014L109.862 377.547L104.759 380.313V381.014Z" fill="#727643"/>
<path d="M98.9542 358.185L101.759 360.678L101.993 360.094L98.9542 358.185Z" fill="#727643"/>
<path d="M105.811 360.21L109.161 359.743H106.084L105.811 360.21Z" fill="#727643"/>
<path d="M102.46 349.029L103.434 352.419H103.824L102.46 349.029Z" fill="#727643"/>
<path d="M106.395 352.419L106.668 352.886L108.889 351.016L106.395 352.419Z" fill="#727643"/>
<path d="M104.759 351.951L105.382 352.185L104.759 349.964V351.951Z" fill="#727643"/>
<path d="M103.279 388.26L105.382 393.598L104.369 388.26H103.279Z" fill="#727643"/>
<path d="M83.9551 367.885L79.5528 364.885L83.5655 368.353L83.9551 367.885Z" fill="#727643"/>
<path d="M87.3834 393.598L81.0332 394.611H87.3834V393.598Z" fill="#727643"/>
<path d="M100.785 413.272L101.253 409.454H83.6046L85.8641 428.505H90.1496C89.76 418.064 97.318 414.402 100.785 413.272Z" fill="#444532"/>
<path d="M93.383 398.974L93.2272 400.494L92.7597 405.519L92.6428 406.805L92.448 408.87L92.3311 410.155L91.3182 420.947L90.6559 427.959L90.578 428.544H57.5412L57.4243 426.868L56.1776 406.883L55.7491 400.494L55.7101 399.637L55.6712 399.325L55.5153 396.442L73.0466 397.611L74.0206 397.689L76.8646 397.844L86.3315 398.507H86.6432L93.1103 398.935L93.383 398.974Z" fill="#7D776B"/>
<path d="M89.0974 390.169L94.7075 364.184C94.7075 364.184 84.5782 383.936 84.5782 392.195C84.5782 400.454 89.0974 390.169 89.0974 390.169Z" fill="#736D38"/>
<path d="M86.4485 388.728C86.4485 388.728 92.0585 352.185 88.0458 341.238C88.0458 341.238 80.0593 377.664 80.8384 390.17C81.6566 402.714 86.4485 388.728 86.4485 388.728Z" fill="#477830"/>
<path d="M64.8264 392.196C63.7745 385.806 55.4763 368.314 55.4763 368.314C54.9309 377.235 59.4891 392.196 59.4891 392.196C59.4891 392.196 65.9172 398.585 64.8264 392.196Z" fill="#92B856"/>
<path d="M67.7873 391.65C66.9692 384.17 58.4373 356.198 58.4373 356.198C57.3854 363.405 62.45 391.65 62.45 391.65C62.45 391.65 68.5665 399.13 67.7873 391.65Z" fill="#367031"/>
<path d="M70.4367 391.923C69.8913 388.728 63.0735 338.861 63.0735 338.861C60.2296 346.341 64.9825 390.17 64.9825 390.17C65.2552 392.897 70.9821 395.117 70.4367 391.923Z" fill="#5B802A"/>
<path d="M73.1246 390.17C73.1246 386.04 67.8652 326.823 67.8652 326.823C67.125 330.563 64.9823 366.132 64.9823 366.132L67.7873 391.611C67.7873 391.65 73.1246 394.338 73.1246 390.17Z" fill="#4B5E26"/>
<path d="M82.7475 337.809C82.7475 337.809 73.9039 385.105 74.4493 392.546C74.9948 399.987 83.5656 402.948 82.7475 369.443C82.7475 369.404 83.2929 343.926 82.7475 337.809Z" fill="#3A472D"/>
<path d="M80.7996 364.184C80.7996 364.184 80.0594 349.263 78.6958 344.199C78.6958 344.199 72.3066 389.741 73.0858 393.52C73.9039 397.26 79.6308 386.274 80.7996 364.184Z" fill="#6A8F39"/>
<path d="M76.9037 375.599C78.3062 359.315 71.7612 334.342 71.7612 334.342C69.8912 338.082 69.0341 359.704 69.0341 359.704C69.0341 359.704 71.4885 395.157 73.0468 397.611C74.5662 400.065 75.5012 391.884 76.9037 375.599Z" fill="#46402B"/>
<path d="M93.3831 398.974L93.2272 400.494L92.7597 405.519L92.6429 406.805L92.4481 408.909L92.3312 410.194C90.4222 410.584 87.5393 411.636 84.2278 414.285C80.8384 417.012 76.9816 421.414 73.3195 428.583H57.5413L57.4244 426.908L56.1388 406.922L55.7492 400.533L55.7102 399.676V399.364L76.9036 398.78L86.3706 398.507H86.6822L93.1493 398.935L93.3831 398.974Z" fill="#706C3A"/>
<path d="M55.1258 390.17L52.6714 400.494H96.2271L93.461 390.17H55.1258Z" fill="#858045"/>
<path d="M288.682 404.312C286.734 403.026 284.085 403.338 282.254 403.805L282.917 398.975H257.165L261.295 428.583H278.826L279.216 425.817L279.566 423.168C282.215 423.129 284.592 422.194 286.501 420.441C289.267 417.908 290.864 413.779 290.864 409.182C290.903 406.338 289.695 404.974 288.682 404.312ZM284.592 418.298C283.267 419.506 281.709 420.168 279.956 420.285L281.826 406.844C283.189 406.377 285.799 405.753 287.124 406.649C287.358 406.805 288.059 407.273 288.059 409.104C288.059 412.922 286.812 416.272 284.592 418.298Z" fill="url(#paint34_linear)"/>
<mask id="mask0" mask-type="alpha" maskUnits="userSpaceOnUse" x="257" y="398" width="22" height="31">
<path d="M278.787 428.544H261.256L257.126 398.935H266.593C266.632 398.935 263.243 425.661 278.787 428.544Z" fill="url(#paint35_linear)"/>
</mask>
<g mask="url(#mask0)">
<path d="M278.787 428.544H261.256L257.126 398.935H266.593C266.632 398.935 263.243 425.661 278.787 428.544Z" fill="url(#paint36_linear)"/>
<path d="M269.008 378.56C269.008 378.56 263.593 380.352 265.58 385.183C267.567 390.014 271.034 393.014 267.801 398.935C267.801 398.935 273.8 395.312 270.995 389.313C268.229 383.274 266.515 381.599 269.008 378.56Z" fill="url(#paint37_linear)"/>
<path d="M276.8 384.014C276.8 384.014 272.826 385.339 274.307 388.884C275.787 392.429 278.319 394.65 275.943 398.974C275.943 398.974 280.345 396.325 278.28 391.884C276.177 387.443 274.93 386.196 276.8 384.014Z" fill="url(#paint38_linear)"/>
<path d="M262.346 384.014C262.346 384.014 258.372 385.339 259.853 388.884C261.333 392.429 263.865 394.65 261.489 398.974C261.489 398.974 265.891 396.325 263.826 391.884C261.762 387.443 260.515 386.196 262.346 384.014Z" fill="url(#paint39_linear)"/>
</g>
<path d="M410.038 574.287C404.545 549.12 416.427 542.809 427.959 536.77C437.348 531.823 446.27 527.109 445.763 512.265C445.14 492.591 458.542 485.423 470.346 479.112C479.151 474.398 487.449 469.995 488.696 461.035C491.695 439.491 511.525 412.726 511.759 412.454L513.006 413.389C512.811 413.661 493.176 440.114 490.254 461.23C488.89 470.969 480.28 475.566 471.125 480.475C459.126 486.864 446.737 493.487 447.361 512.226C447.867 528.044 438.127 533.147 428.738 538.134C417.246 544.211 406.376 549.938 411.636 573.976L410.038 574.287Z" fill="url(#paint40_linear)"/>
<path d="M416.077 567.898C415.804 567.898 415.531 567.898 415.298 567.859C410.311 567.508 405.441 563.691 399.948 555.938L399.597 555.47L399.987 555.003C400.065 554.886 408.908 544.172 405.636 523.992C404.896 519.278 403.883 515.694 403.065 512.772C401.896 508.564 401.117 505.759 402.402 503.539C404.078 500.734 408.558 499.253 421.219 496.214C434.699 493.02 439.218 477.826 443.192 464.424C446.932 451.802 450.477 439.919 460.957 440.27C470.58 440.621 485.228 425.544 498.162 412.22C510.162 399.87 521.46 388.221 528.667 388.455C530.42 388.533 531.862 389.234 533.03 390.637C539.458 398.312 533.459 409.96 527.654 421.219C522.706 430.842 517.992 439.919 521.031 445.88C524.81 453.399 525.356 460.217 522.55 465.554C519.239 471.904 511.564 475.956 499.682 477.709C488.851 479.267 487.644 491.111 486.436 503.655C484.994 518.265 483.358 534.822 465.126 536.42C451.607 537.588 442.491 547.094 434.465 555.47C428.076 562.093 422.505 567.898 416.077 567.898ZM401.506 555.509C406.532 562.444 411.051 565.989 415.376 566.301C421.414 566.768 426.946 561.002 433.336 554.34C441.556 545.77 450.906 536.069 464.97 534.822C481.917 533.342 483.397 518.148 484.878 503.461C486.163 490.332 487.41 477.904 499.448 476.151C510.785 474.514 518.109 470.697 521.148 464.814C523.68 459.905 523.174 453.594 519.59 446.542C516.2 439.841 521.07 430.452 526.213 420.479C531.784 409.649 537.588 398.467 531.784 391.572C530.927 390.52 529.836 390.013 528.55 389.975C522.005 389.741 510.941 401.156 499.175 413.272C485.579 427.297 471.515 441.789 461.23 441.789C461.113 441.789 460.957 441.789 460.84 441.789C451.529 441.439 448.335 452.269 444.594 464.853C440.504 478.644 435.868 494.305 421.531 497.695C410.077 500.422 405.091 501.941 403.688 504.279C402.714 505.954 403.376 508.33 404.506 512.304C405.324 515.226 406.337 518.888 407.116 523.68C410.155 542.497 403.26 553.172 401.506 555.509Z" fill="url(#paint41_linear)"/>
<path d="M416.661 562.599C416.466 562.599 416.311 562.599 416.116 562.561C407.934 561.82 401.662 543.938 395.585 526.641C392.702 518.421 389.975 510.668 387.325 505.72C385.261 501.863 382.65 497.85 380.118 493.955C373.378 483.592 366.444 472.878 368.703 463.45C369.911 458.502 373.456 454.373 379.573 450.867C392.935 443.153 390.91 438.789 386.39 429.245C383.079 422.232 378.56 412.648 378.365 397.571C378.287 391.065 378.131 385.494 378.014 380.546C377.586 364.651 377.391 356.665 380.78 353.782C382.183 352.574 384.17 352.262 386.975 352.808C391.806 353.743 393.87 357.6 396.091 361.729C398.896 366.989 402.091 372.949 411.713 374.936C420.752 376.845 429.44 379.417 431.816 385.416C433.491 389.624 431.894 395.195 426.946 402.363C425.739 404.116 425.31 405.597 425.7 406.882C426.479 409.765 430.998 411.869 436.179 414.323C443.581 417.791 452.815 422.076 455.425 430.998C457.529 438.166 455.074 447.165 447.984 458.385C431.154 484.994 431.816 503.071 432.4 519.005C432.829 530.809 433.258 541.951 426.128 554.418C423.011 559.911 419.895 562.599 416.661 562.599ZM384.559 354.094C383.352 354.094 382.456 354.366 381.793 354.951C378.949 357.366 379.183 365.586 379.573 380.507C379.69 385.455 379.845 391.065 379.923 397.571C380.079 412.337 384.559 421.725 387.793 428.621C392.273 438.088 394.961 443.815 380.352 452.23C374.625 455.542 371.313 459.32 370.223 463.84C368.119 472.605 374.898 483.046 381.443 493.136C383.975 497.071 386.624 501.123 388.689 505.019C391.377 510.083 394.143 517.914 397.026 526.173C402.675 542.224 409.064 560.418 416.233 561.08C418.96 561.314 421.843 558.859 424.804 553.678C431.699 541.601 431.31 531.16 430.842 519.083C430.219 502.915 429.556 484.605 446.659 457.606C453.516 446.737 455.892 438.205 453.944 431.465C451.529 423.206 443.036 419.232 435.517 415.765C429.946 413.155 425.154 410.934 424.18 407.35C423.713 405.597 424.18 403.688 425.661 401.545C430.297 394.805 431.855 389.741 430.375 386.04C428.232 380.702 419.583 378.209 411.363 376.495C401.039 374.352 397.533 367.768 394.689 362.509C392.585 358.574 390.754 355.145 386.663 354.366C385.884 354.132 385.183 354.094 384.559 354.094Z" fill="url(#paint42_linear)"/>
<path d="M416.817 572.145L415.337 571.677C423.557 545.653 408.675 487.293 404.234 473.073C402.052 466.1 404.078 455.581 406.026 445.413C408.558 432.284 411.168 418.687 404.506 413.622C392.04 404.078 392.702 381.949 392.741 381.014L394.299 381.053C394.299 381.287 393.637 403.337 405.48 412.415C412.882 418.103 410.194 432.128 407.584 445.724C405.675 455.698 403.688 466.022 405.753 472.645C411.207 490.215 425.037 546.198 416.817 572.145Z" fill="url(#paint43_linear)"/>
<path d="M354.561 403.143C351.133 394.455 337.731 395.779 338.978 408.051C340.225 420.323 348.835 433.491 335.706 454.373C322.577 475.255 352.536 479.384 363.171 492.513C373.846 505.642 377.508 523.68 386.546 535.173C395.585 546.666 401.701 574.132 409.103 563.885C416.467 553.639 409.532 540.316 410.35 521.849C411.168 503.383 427.609 491.734 411.168 479.813C394.728 467.931 378.209 464.269 383.664 437.465C386.04 425.661 365.197 430.219 354.561 403.143Z" fill="url(#paint44_linear)"/>
<path d="M421.024 566.262C420.947 565.716 411.83 511.681 391.416 496.877C370.612 481.761 366.833 467.814 359.548 434.933L361.067 434.582C368.236 467.073 371.976 480.865 392.351 495.63C413.272 510.824 422.232 563.768 422.583 566.028L421.024 566.262Z" fill="white"/>
<path d="M402.597 564.314C402.597 564.314 408.675 549.315 397.611 528.004C386.585 506.694 377.625 509.967 404.234 493.565C430.842 477.164 404.389 425.505 427.063 418.921C449.737 412.376 469.411 328.732 486.631 339.367C503.85 350.003 480.904 391.026 493.176 403.337C505.487 415.648 507.123 431.309 481.683 443.971C456.243 456.632 499.721 505.019 465.282 519.784C430.842 534.549 440.777 592.442 402.597 564.314Z" fill="url(#paint45_linear)"/>
<path d="M413.155 580.248C413.116 580.053 409.415 560.846 421.102 536.03C433.024 510.746 438.712 483.124 436.374 462.086C435.089 450.71 442.374 446.269 449.425 441.945C456.36 437.698 463.528 433.335 463.139 422.115C462.788 411.986 467.073 388.221 467.268 387.247L468.788 387.52C468.749 387.754 464.346 412.103 464.697 422.076C465.126 434.192 457.568 438.828 450.243 443.269C443.309 447.516 436.725 451.529 437.894 461.931C440.27 483.202 434.543 511.174 422.505 536.692C411.051 561.002 414.635 579.78 414.674 579.936L413.155 580.248Z" fill="white"/>
<path d="M440.971 474.242C448.724 467.074 458.931 466.022 456.789 476.696C454.646 487.371 447.361 490.41 450.984 497.111C454.607 503.811 460.723 510.512 450.36 518.732C439.997 526.953 434.232 527.888 431.193 543.393C428.154 558.938 428.738 569.534 415.376 570.197C401.974 570.859 407.155 551.302 411.402 542.497C411.402 542.497 417.791 532.407 413.545 519.2C409.298 505.954 401.078 498.825 418.414 494.306C435.79 489.786 435.751 479.073 440.971 474.242Z" fill="white"/>
<path d="M416.35 580.092C416.311 578.183 415.376 533.459 423.752 525.94C432.284 518.265 433.959 504.668 434.154 497.227C434.426 487.566 446.932 481.839 447.439 481.605L448.062 483.008C447.945 483.046 435.907 488.579 435.673 497.305C435.4 506.655 433.297 519.434 424.765 527.109C416.934 534.16 417.869 579.625 417.869 580.092H416.35Z" fill="url(#paint46_linear)"/>
<path d="M447.789 561.86L433.92 614.493H402.87L389.001 561.86H447.789Z" fill="url(#paint47_linear)"/>
<path d="M447.789 561.86C447.789 561.86 417.246 567.587 417.246 614.532H402.909L389.04 561.86H447.789Z" fill="url(#paint48_linear)"/>
<path d="M147.79 123.306L132.712 128.086L134.236 124.578C134.517 123.933 134.212 123.239 133.554 123.03C132.899 122.821 132.138 123.174 131.858 123.82L129.571 129.082L123.437 131.027L120.211 127.704C119.748 127.228 118.932 127.237 118.387 127.719C117.842 128.203 117.776 128.982 118.238 129.458L120.627 131.918L105.07 136.85C102.991 137.509 101.714 139.611 102.223 141.534L117.597 199.69C118.106 201.614 120.211 202.644 122.289 201.985L165.01 188.441C167.088 187.782 168.365 185.68 167.857 183.757L152.482 125.601C151.973 123.677 149.868 122.647 147.79 123.306ZM105.685 139.176L122.499 133.846L124.37 135.773C123.541 136.962 123.187 138.416 123.556 139.813C124.235 142.379 127.04 143.751 129.812 142.872C132.584 141.994 134.287 139.192 133.608 136.627C132.93 134.061 130.124 132.689 127.352 133.567C126.992 133.682 126.651 133.831 126.33 134.006L125.308 132.955L148.405 125.633C149.099 125.413 149.799 125.755 149.969 126.397L160.116 164.78L149.879 168.026C149.132 166.771 147.828 165.91 146.256 165.705L141.107 164.993L140.988 164.543C142.761 162.86 143.749 160.701 143.934 158.108C144.993 157.124 145.463 155.713 145.118 154.408L144.811 153.245C144.526 152.168 143.72 151.34 142.642 150.971C140.696 146.823 136.792 145.645 131.028 147.473C130.756 147.559 130.492 147.653 130.237 147.754C129.173 148.176 127.561 148.598 125.958 148.177C125.359 148.019 124.889 147.831 124.565 147.619C124.01 147.253 123.256 147.303 122.688 147.744C122.121 148.184 121.905 148.885 122.15 149.487C122.317 149.905 122.53 150.386 122.796 150.903C123.339 151.96 123.339 151.96 123.177 152.746C123.117 153.044 123.042 153.407 122.967 153.888C122.801 154.963 122.779 156.09 122.9 157.246C122.182 158.185 121.912 159.348 122.194 160.415L122.501 161.578C122.846 162.883 123.932 163.801 125.308 164.013C126.729 166.098 128.618 167.345 130.937 167.729L131.052 168.167L126.888 171.829C125.715 172.941 125.082 174.416 125.091 175.884L114.883 179.121L104.736 140.738C104.566 140.096 104.991 139.396 105.685 139.176ZM126.149 137.606L127.595 139.096C127.924 139.435 128.43 139.529 128.891 139.383C129.08 139.323 129.261 139.222 129.419 139.083C129.964 138.599 130.03 137.82 129.568 137.344L128.127 135.859C129.459 135.519 130.769 136.19 131.095 137.423C131.434 138.706 130.583 140.107 129.197 140.546C127.811 140.986 126.408 140.3 126.069 139.017C125.944 138.544 125.983 138.057 126.149 137.606ZM132.854 169.779C133.52 169.197 133.816 168.318 133.609 167.537L133.055 165.44L132.216 165.379C130.109 165.222 128.487 164.165 127.255 162.143L126.912 161.58L126.2 161.599C125.634 161.615 125.146 161.279 125.014 160.781L124.707 159.618C124.596 159.197 124.752 158.724 125.117 158.384L125.63 157.906L125.536 157.269C125.372 156.139 125.369 155.049 125.527 154.032C125.595 153.601 125.662 153.273 125.716 153.005C125.918 152.024 125.957 151.537 125.613 150.674C127.298 150.987 129.16 150.755 131.051 150.011C131.242 149.934 131.44 149.863 131.645 149.798C136.349 148.307 139.063 149.156 140.447 152.552L140.685 153.134L141.345 153.235C141.819 153.309 142.186 153.618 142.298 154.041L142.605 155.205C142.737 155.702 142.488 156.272 142.002 156.59L141.391 156.99L141.375 157.667C141.32 160.096 140.465 161.939 138.76 163.304L138.081 163.848L138.638 165.955C138.844 166.733 139.494 167.287 140.334 167.403L145.67 168.142C146.278 168.222 146.811 168.483 147.211 168.873L127.731 175.049C127.852 174.482 128.15 173.945 128.592 173.529L132.854 169.779ZM164.395 186.115L121.674 199.658C120.981 199.878 120.28 199.536 120.11 198.894L115.498 181.447L125.55 178.26L150.702 170.286L160.731 167.106L165.344 184.553C165.514 185.195 165.088 185.895 164.395 186.115Z" fill="#EAA0A0"/>
<path d="M151.892 179.964L130.244 186.463C129.578 186.663 129.172 187.296 129.335 187.879C129.498 188.463 130.167 188.773 130.832 188.574L152.481 182.074C153.146 181.875 153.552 181.241 153.389 180.658C153.227 180.074 152.557 179.764 151.892 179.964Z" fill="#EAA0A0"/>
<path d="M134.239 182.389L146.3 178.715C146.967 178.511 147.374 177.867 147.211 177.273C147.048 176.68 146.377 176.364 145.71 176.567L133.649 180.242C132.982 180.445 132.575 181.089 132.738 181.683C132.901 182.277 133.572 182.593 134.239 182.389Z" fill="#EAA0A0"/>
<path d="M132.885 190.677L131.657 191.066C130.977 191.281 130.562 191.961 130.729 192.589C130.895 193.216 131.578 193.55 132.258 193.335L133.486 192.946C134.166 192.731 134.581 192.05 134.414 191.423C134.248 190.795 133.565 190.462 132.885 190.677Z" fill="#EAA0A0"/>
<path d="M140.08 188.592L137.637 189.36C136.961 189.573 136.549 190.247 136.714 190.867C136.88 191.488 137.559 191.818 138.235 191.605L140.677 190.837C141.353 190.624 141.765 189.951 141.6 189.33C141.435 188.709 140.755 188.379 140.08 188.592Z" fill="#EAA0A0"/>
<path d="M146.057 186.862L144.829 187.25C144.149 187.465 143.734 188.146 143.9 188.773C144.067 189.401 144.75 189.734 145.43 189.519L146.658 189.13C147.338 188.916 147.752 188.235 147.586 187.607C147.42 186.98 146.737 186.647 146.057 186.862Z" fill="#EAA0A0"/>
<path d="M153.252 184.776L150.809 185.545C150.133 185.758 149.721 186.431 149.886 187.052C150.051 187.673 150.731 188.003 151.406 187.79L153.849 187.022C154.525 186.809 154.937 186.136 154.772 185.515C154.607 184.894 153.927 184.564 153.252 184.776Z" fill="#EAA0A0"/>
<path d="M275.472 161.281C277.994 162.103 280.706 160.724 281.528 158.201C282.349 155.679 280.971 152.967 278.448 152.146C275.926 151.324 273.214 152.703 272.392 155.225C271.57 157.748 272.949 160.459 275.472 161.281ZM277.704 154.429C278.965 154.84 279.655 156.196 279.244 157.457C278.833 158.719 277.477 159.408 276.216 158.997C274.955 158.586 274.265 157.23 274.676 155.969C275.087 154.708 276.443 154.019 277.704 154.429Z" fill="#EAA0A0"/>
<path d="M267.298 132.092L262.73 130.604C261.469 130.193 260.113 130.882 259.702 132.144L258.214 136.711C258.008 137.342 258.353 138.02 258.984 138.225L265.835 140.458C266.466 140.663 267.144 140.318 267.349 139.688L268.837 135.12C269.248 133.859 268.559 132.503 267.298 132.092ZM265.437 137.802L260.87 136.314L261.986 132.888L266.554 134.376L265.437 137.802Z" fill="#EAA0A0"/>
<path d="M269.659 162.938C271.908 165.592 275.418 166.819 278.832 166.145C282.245 165.47 285.025 163 286.095 159.689C287.288 155.967 286.124 151.893 283.144 149.363L284.85 144.126L287.134 144.87C287.764 145.076 288.442 144.731 288.648 144.1L290.136 139.533C290.341 138.902 289.997 138.224 289.366 138.019L287.082 137.275L287.826 134.991L288.968 135.363C289.599 135.568 290.277 135.224 290.482 134.593L291.598 131.167C291.804 130.537 291.459 129.859 290.828 129.653L289.686 129.281L290.058 128.139C290.264 127.509 289.919 126.831 289.289 126.626L284.721 125.137C284.09 124.932 283.412 125.277 283.207 125.907L276.292 147.131C275.846 147.165 275.402 147.232 274.964 147.33L276.113 143.806C276.523 142.545 275.834 141.189 274.573 140.778L272.289 140.034L273.777 135.466C274.8 132.313 273.078 128.927 269.928 127.897L263.076 125.664C259.923 124.641 256.537 126.363 255.506 129.514L254.018 134.081L251.734 133.337C250.473 132.926 249.117 133.616 248.707 134.877L242.754 153.148C242.343 154.409 243.033 155.765 244.294 156.176L267.132 163.616C268.034 163.908 269.024 163.643 269.659 162.938ZM277.14 149.511C277.671 149.525 278.148 149.189 278.313 148.683L285.119 127.793L287.403 128.537L287.031 129.679C286.825 130.31 287.17 130.988 287.8 131.193L288.942 131.565L288.57 132.707L287.428 132.335C286.798 132.13 286.12 132.474 285.914 133.105L284.426 137.673C284.221 138.303 284.566 138.981 285.196 139.187L287.48 139.931L286.736 142.215L284.452 141.47C283.822 141.265 283.144 141.61 282.938 142.24L280.597 149.427C280.432 149.933 280.619 150.486 281.057 150.787C284 152.822 285.004 156.707 283.416 159.913C281.829 163.119 278.129 164.675 274.727 163.566C271.325 162.458 269.252 159.022 269.857 155.496C270.463 151.97 273.563 149.422 277.14 149.511ZM250.99 135.621L254.416 136.737C255.047 136.943 255.725 136.598 255.93 135.967L257.79 130.258C258.407 128.366 260.44 127.332 262.332 127.948L269.184 130.18C271.075 130.797 272.11 132.83 271.493 134.722L269.633 140.432C269.428 141.062 269.772 141.74 270.403 141.946L273.829 143.062L272.064 148.478C267.901 150.916 266.218 156.081 268.146 160.503L267.876 161.333L245.038 153.892L250.99 135.621Z" fill="#EAA0A0"/>
<path d="M261.665 141.625C259.874 141.037 257.903 141.554 256.631 142.947C255.36 144.34 255.023 146.349 255.773 148.08L254.147 153.07C253.942 153.701 254.287 154.379 254.917 154.584L259.485 156.072C260.115 156.278 260.793 155.933 260.999 155.303L262.625 150.312C264.25 149.355 265.162 147.533 264.955 145.659C264.748 143.784 263.46 142.205 261.665 141.625ZM261.146 148.377C260.835 148.515 260.598 148.779 260.492 149.103L259.087 153.417L256.803 152.673L258.209 148.359C258.314 148.035 258.278 147.682 258.108 147.387C257.762 146.802 257.684 146.096 257.893 145.449C258.304 144.188 259.66 143.498 260.921 143.909C262.183 144.32 262.872 145.676 262.461 146.937C262.249 147.584 261.771 148.108 261.146 148.377Z" fill="#EAA0A0"/>
<path d="M237.75 164.631L227.861 166.112C227.41 166.179 227.037 166.495 226.896 166.928L225.355 171.658C222.941 171.507 220.791 173.176 220.337 175.552C219.884 177.928 221.268 180.271 223.568 181.02C225.868 181.77 228.367 180.692 229.4 178.505C230.434 176.317 229.679 173.703 227.639 172.402L228.95 168.378L238.837 166.903C239.289 166.835 239.664 166.516 239.804 166.081L242.408 158.087L240.124 157.343L237.75 164.631ZM227.346 177.18C226.935 178.441 225.579 179.13 224.318 178.719C223.057 178.308 222.367 176.953 222.778 175.691C223.189 174.43 224.545 173.741 225.806 174.152C227.067 174.563 227.757 175.918 227.346 177.18Z" fill="#EAA0A0"/>
<path d="M246.812 171.71L250.401 160.691L248.118 159.947L244.397 171.367C244.313 171.626 244.319 171.907 244.415 172.162L246.974 178.965L244.129 187.7L246.412 188.444L249.389 179.308C249.473 179.049 249.467 178.768 249.371 178.513L246.812 171.71Z" fill="#EAA0A0"/>
<path d="M277.911 184.812C276.04 184.206 273.989 184.802 272.734 186.315L268.634 182.271L273.24 168.132L270.956 167.388L266.12 182.233C265.976 182.667 266.091 183.146 266.417 183.467L271.686 188.665C271.31 191.183 272.967 193.557 275.461 194.072C277.955 194.587 280.416 193.063 281.067 190.601C281.719 188.139 280.333 185.598 277.911 184.812ZM275.679 191.663C274.417 191.252 273.728 189.896 274.139 188.635C274.55 187.374 275.906 186.685 277.167 187.095C278.428 187.506 279.118 188.862 278.707 190.123C278.296 191.385 276.94 192.074 275.679 191.663Z" fill="#EAA0A0"/>
<path d="M288.646 178.81C288.735 178.639 288.813 178.462 288.88 178.281C289.641 176.024 288.653 173.549 286.547 172.437C284.442 171.325 281.841 171.904 280.406 173.804C278.971 175.704 279.126 178.365 280.773 180.085C282.419 181.806 285.07 182.078 287.032 180.729L290.267 185.654L285.237 201.093L287.521 201.837L292.73 185.85C292.843 185.503 292.792 185.124 292.592 184.819L288.646 178.81ZM283.569 179.076C282.307 178.665 281.618 177.31 282.029 176.048C282.44 174.787 283.795 174.098 285.057 174.509C286.318 174.919 287.007 176.275 286.596 177.536C286.186 178.798 284.83 179.487 283.569 179.076Z" fill="#EAA0A0"/>
<path d="M262.149 184.941L258.305 180.067C260.114 179.544 261.448 178.008 261.713 176.144C261.978 174.28 261.126 172.434 259.536 171.426L261.821 164.412L259.537 163.668L257.252 170.682C254.923 170.526 252.822 172.076 252.283 174.347C251.744 176.618 252.926 178.946 255.076 179.853L259.865 185.924L257.832 192.164L260.115 192.908L262.348 186.057C262.472 185.675 262.398 185.256 262.149 184.941ZM254.675 174.715C255.086 173.454 256.441 172.764 257.703 173.175C258.964 173.586 259.653 174.942 259.242 176.203C258.831 177.464 257.476 178.154 256.214 177.743C254.953 177.332 254.264 175.976 254.675 174.715Z" fill="#EAA0A0"/>
<path d="M404.379 215.105L355.158 185.293C353.067 184.027 350.345 184.695 349.079 186.786L333.026 213.29C331.76 215.38 332.428 218.103 334.519 219.369L364.809 237.715L361.369 243.394C360.103 245.485 360.771 248.207 362.862 249.473L378.007 258.646C380.098 259.913 382.82 259.244 384.086 257.153L405.872 221.184C407.138 219.093 406.47 216.371 404.379 215.105ZM399.392 227.61L346.385 195.505L348.679 191.719L401.685 223.824L399.392 227.61ZM354.012 187.186L403.232 216.998C404.278 217.631 404.612 218.992 403.979 220.038L402.832 221.931L349.825 189.826L350.972 187.933C351.605 186.887 352.966 186.553 354.012 187.186ZM367.102 233.928L365.955 235.822L335.666 217.476C334.62 216.843 334.286 215.482 334.919 214.436L345.239 197.398L398.246 229.503L389.9 243.281C389.534 242.594 388.99 242.016 388.326 241.608L390.619 237.822C392.199 235.207 391.364 231.809 388.753 230.223L383.074 226.783C380.459 225.204 377.06 226.039 375.475 228.649L373.181 232.435C371.091 231.169 368.368 231.838 367.102 233.928ZM382.193 256.007C381.56 257.052 380.199 257.386 379.153 256.753L364.009 247.58C362.963 246.947 362.629 245.586 363.262 244.541L368.995 235.075C369.628 234.03 370.989 233.695 372.035 234.329L382.447 240.635C382.97 240.952 383.65 240.784 383.967 240.262L386.26 236.475C386.893 235.43 386.559 234.069 385.513 233.436L381.727 231.143C380.682 230.509 379.321 230.844 378.688 231.889L376.968 234.729L375.075 233.582L377.368 229.796C378.318 228.228 380.359 227.726 381.927 228.676L387.607 232.116C389.175 233.066 389.676 235.107 388.726 236.676L385.86 241.408C385.543 241.931 385.71 242.612 386.233 242.928L387.18 243.501C388.225 244.135 388.559 245.496 387.926 246.541L382.193 256.007ZM378.861 235.875L380.581 233.036L384.367 235.329L382.647 238.169L378.861 235.875Z" fill="#EAA0A0"/>
<path d="M380.354 241.954L379.407 241.381L379.981 240.434L378.088 239.288L377.514 240.234L376.568 239.661C376.045 239.344 375.365 239.512 375.048 240.034L372.755 243.821C372.438 244.343 372.605 245.024 373.128 245.34L375.968 247.06L374.821 248.953L372.928 247.807L373.501 246.86L371.608 245.714L370.462 247.607C370.145 248.129 370.312 248.81 370.835 249.127L371.781 249.7L371.208 250.646L373.101 251.793L373.674 250.846L374.621 251.42C375.144 251.736 375.824 251.569 376.141 251.047L378.434 247.26C378.751 246.738 378.583 246.057 378.061 245.74L375.221 244.021L376.368 242.127L378.261 243.274L377.688 244.221L379.581 245.367L380.727 243.474C381.044 242.951 380.877 242.271 380.354 241.954Z" fill="#EAA0A0"/>
<path d="M377.222 219.357L346.932 201.011C346.409 200.694 345.729 200.862 345.412 201.384L343.119 205.171C342.803 205.693 342.97 206.374 343.492 206.69L373.782 225.036C374.305 225.353 374.985 225.186 375.302 224.663L377.595 220.877C377.912 220.354 377.745 219.673 377.222 219.357ZM373.982 222.57L345.586 205.371L346.732 203.477L375.129 220.677L373.982 222.57Z" fill="#EAA0A0"/>
<path d="M48.0945 183.212L42.1123 191.366L36.6764 187.378C33.6731 185.179 29.4573 185.827 27.2524 188.825L5.31754 218.723C3.11884 221.726 3.76647 225.942 6.76525 228.147L26.6968 242.77C25.9626 243.771 26.1787 245.177 27.1793 245.911L52.5467 264.523C53.5474 265.257 54.9539 265.041 55.6881 264.04L82.2758 227.801C83.0099 226.8 82.7938 225.394 81.7932 224.66L57.3318 206.713C56.3311 205.979 54.9246 206.195 54.1904 207.196L50.867 211.725L49.055 210.396L58.3607 197.712C60.5594 194.709 59.9118 190.493 56.913 188.288L49.6652 182.971C49.1648 182.604 48.4616 182.712 48.0945 183.212ZM8.09464 226.335C6.09335 224.866 5.6612 222.053 7.12949 220.052L26.0998 194.195C26.4349 195.822 27.3614 197.267 28.7001 198.249L53.1615 216.196L41.6079 231.944L36.7848 231.119C35.9455 230.973 35.0964 231.317 34.5945 232.005L28.0262 240.958L8.09464 226.335ZM80.4638 226.472L53.8761 262.711L28.5087 244.099L36.4065 233.335L41.2341 234.163C42.0725 234.306 42.9196 233.961 43.4199 233.273L59.6263 211.184L80.4638 226.472ZM56.0024 208.525L57.8144 209.854L54.4909 214.384L52.6789 213.055L56.0024 208.525ZM30.0295 196.438C28.0282 194.969 27.596 192.156 29.0643 190.155C30.5326 188.154 33.3457 187.721 35.347 189.19L49.8427 199.825L49.9024 199.743C51.0405 200.314 52.3174 200.55 53.5843 200.424L47.2431 209.067L30.0295 196.438ZM55.5836 190.1C57.5849 191.569 58.0171 194.382 56.5488 196.383C55.0805 198.384 52.2674 198.816 50.2661 197.348L43.9242 192.695L49.2418 185.447L55.5836 190.1Z" fill="#EAA0A0"/>
<path d="M51.0648 230.372C50.2725 230.291 49.4964 230.636 49.0252 231.278C48.5539 231.92 48.4582 232.764 48.7728 233.496L55.9973 250.295C56.316 251.036 57.0067 251.549 57.8078 251.64C58.6087 251.731 59.3973 251.386 59.8741 250.737L70.8415 235.788C71.3183 235.138 71.4106 234.282 71.0835 233.546C70.7556 232.809 70.059 232.304 69.2568 232.222L51.0648 230.372ZM58.0621 249.407L50.8376 232.608L69.0309 234.457L58.0621 249.407Z" fill="#EAA0A0"/>
<path d="M53.8214 236.191L55.1507 234.379L59.6806 237.703L58.3512 239.515L53.8214 236.191Z" fill="#EAA0A0"/>
<path d="M60.1633 240.844L61.4927 239.032L63.3046 240.361L61.9752 242.173L60.1633 240.844Z" fill="#EAA0A0"/>
<path d="M11.2361 225.852L13.2301 223.134L15.0421 224.464L13.048 227.181L11.2361 225.852Z" fill="#EAA0A0"/>
<path d="M17.2184 217.698L18.5478 215.886L20.3597 217.215L19.0303 219.027L17.2184 217.698Z" fill="#EAA0A0"/>
<path d="M19.8769 214.074L24.5297 207.732L26.3417 209.062L21.6888 215.404L19.8769 214.074Z" fill="#EAA0A0"/>
<path d="M25.8592 205.92L29.1827 201.391L30.9946 202.72L27.6711 207.25L25.8592 205.92Z" fill="#EAA0A0"/>
<path d="M14.8598 228.511L19.5126 222.169L21.3246 223.498L16.6718 229.84L14.8598 228.511Z" fill="#EAA0A0"/>
<path d="M20.8421 220.357L22.1715 218.545L23.9835 219.874L22.6541 221.686L20.8421 220.357Z" fill="#EAA0A0"/>
<path d="M23.5009 216.733L26.8244 212.203L28.6364 213.533L25.3129 218.062L23.5009 216.733Z" fill="#EAA0A0"/>
<path d="M28.1539 210.391L32.8067 204.049L34.6187 205.379L29.9658 211.72L28.1539 210.391Z" fill="#EAA0A0"/>
<path d="M18.4839 231.169L21.1427 227.545L22.9546 228.875L20.2958 232.499L18.4839 231.169Z" fill="#EAA0A0"/>
<path d="M22.4718 225.734L25.7952 221.204L27.6072 222.533L24.2837 227.063L22.4718 225.734Z" fill="#EAA0A0"/>
<path d="M27.1247 219.392L28.4541 217.58L30.266 218.909L28.9367 220.721L27.1247 219.392Z" fill="#EAA0A0"/>
<path d="M29.7839 215.768L36.4308 206.708L38.2428 208.037L31.5958 217.097L29.7839 215.768Z" fill="#EAA0A0"/>
<path d="M22.1076 233.828L26.0958 228.392L27.9077 229.722L23.9196 235.158L22.1076 233.828Z" fill="#EAA0A0"/>
<path d="M27.4253 226.58L29.4193 223.862L31.2313 225.192L29.2372 227.91L27.4253 226.58Z" fill="#EAA0A0"/>
<path d="M30.7488 222.051L32.7429 219.333L34.5548 220.662L32.5607 223.38L30.7488 222.051Z" fill="#EAA0A0"/>
<path d="M34.0723 217.521L40.0545 209.367L41.8665 210.696L35.8843 218.85L34.0723 217.521Z" fill="#EAA0A0"/>
<path d="M14.5596 221.322L15.889 219.51L17.7009 220.839L16.3715 222.651L14.5596 221.322Z" fill="#EAA0A0"/>
<path d="M25.7317 236.487L30.3846 230.145L32.1965 231.475L27.5437 237.816L25.7317 236.487Z" fill="#EAA0A0"/>
<path d="M31.7137 228.333L33.0431 226.521L34.8551 227.851L33.5257 229.663L31.7137 228.333Z" fill="#EAA0A0"/>
<path d="M34.3725 224.709L37.696 220.18L39.5079 221.509L36.1845 226.039L34.3725 224.709Z" fill="#EAA0A0"/>
<path d="M39.0258 218.367L43.6787 212.025L45.4906 213.355L40.8378 219.697L39.0258 218.367Z" fill="#EAA0A0"/>
<defs>
<linearGradient id="paint0_linear" x1="142.094" y1="579.326" x2="538.069" y2="167.368" gradientUnits="userSpaceOnUse">
<stop stop-color="#00F7E7"/>
<stop offset="1" stop-color="#1B0052"/>
</linearGradient>
<linearGradient id="paint1_linear" x1="415.669" y1="437.117" x2="249.909" y2="28.9502" gradientUnits="userSpaceOnUse">
<stop stop-color="#D9D9D9"/>
<stop offset="0.3221" stop-color="#E5E5E5"/>
<stop offset="1" stop-color="white"/>
</linearGradient>
<linearGradient id="paint2_linear" x1="484.781" y1="409.05" x2="319.021" y2="0.880899" gradientUnits="userSpaceOnUse">
<stop stop-color="#D9D9D9"/>
<stop offset="0.3221" stop-color="#E5E5E5"/>
<stop offset="1" stop-color="white"/>
</linearGradient>
<linearGradient id="paint3_linear" x1="544.316" y1="384.871" x2="378.556" y2="-23.296" gradientUnits="userSpaceOnUse">
<stop stop-color="#D9D9D9"/>
<stop offset="0.3221" stop-color="#E5E5E5"/>
<stop offset="1" stop-color="white"/>
</linearGradient>
<linearGradient id="paint4_linear" x1="620.515" y1="353.926" x2="454.755" y2="-54.2402" gradientUnits="userSpaceOnUse">
<stop stop-color="#D9D9D9"/>
<stop offset="0.3221" stop-color="#E5E5E5"/>
<stop offset="1" stop-color="white"/>
</linearGradient>
<linearGradient id="paint5_linear" x1="327.181" y1="473.051" x2="161.421" y2="64.8839" gradientUnits="userSpaceOnUse">
<stop stop-color="#D9D9D9"/>
<stop offset="0.3221" stop-color="#E5E5E5"/>
<stop offset="1" stop-color="white"/>
</linearGradient>
<linearGradient id="paint6_linear" x1="503.294" y1="401.529" x2="337.534" y2="-6.6385" gradientUnits="userSpaceOnUse">
<stop stop-color="#D9D9D9"/>
<stop offset="0.3221" stop-color="#E5E5E5"/>
<stop offset="1" stop-color="white"/>
</linearGradient>
<linearGradient id="paint7_linear" x1="464.081" y1="417.457" x2="298.321" y2="9.28717" gradientUnits="userSpaceOnUse">
<stop stop-color="#D9D9D9"/>
<stop offset="0.3221" stop-color="#E5E5E5"/>
<stop offset="1" stop-color="white"/>
</linearGradient>
<linearGradient id="paint8_linear" x1="404.4" y1="441.695" x2="238.639" y2="33.5254" gradientUnits="userSpaceOnUse">
<stop stop-color="#D9D9D9"/>
<stop offset="0.3221" stop-color="#E5E5E5"/>
<stop offset="1" stop-color="white"/>
</linearGradient>
<linearGradient id="paint9_linear" x1="381.588" y1="450.956" x2="215.829" y2="42.7898" gradientUnits="userSpaceOnUse">
<stop stop-color="#D9D9D9"/>
<stop offset="0.3221" stop-color="#E5E5E5"/>
<stop offset="1" stop-color="white"/>
</linearGradient>
<linearGradient id="paint10_linear" x1="457.895" y1="419.967" x2="292.136" y2="11.8016" gradientUnits="userSpaceOnUse">
<stop stop-color="#D9D9D9"/>
<stop offset="0.3221" stop-color="#E5E5E5"/>
<stop offset="1" stop-color="white"/>
</linearGradient>
<linearGradient id="paint11_linear" x1="352.12" y1="462.921" x2="186.362" y2="54.7557" gradientUnits="userSpaceOnUse">
<stop stop-color="#D9D9D9"/>
<stop offset="0.3221" stop-color="#E5E5E5"/>
<stop offset="1" stop-color="white"/>
</linearGradient>
<linearGradient id="paint12_linear" x1="326.901" y1="473.164" x2="161.141" y2="64.9973" gradientUnits="userSpaceOnUse">
<stop stop-color="#D9D9D9"/>
<stop offset="0.3221" stop-color="#E5E5E5"/>
<stop offset="1" stop-color="white"/>
</linearGradient>
<linearGradient id="paint13_linear" x1="445.495" y1="425.002" x2="279.737" y2="16.8374" gradientUnits="userSpaceOnUse">
<stop stop-color="#D9D9D9"/>
<stop offset="0.3221" stop-color="#E5E5E5"/>
<stop offset="1" stop-color="white"/>
</linearGradient>
<linearGradient id="paint14_linear" x1="378.122" y1="452.361" x2="212.363" y2="44.1942" gradientUnits="userSpaceOnUse">
<stop stop-color="#D9D9D9"/>
<stop offset="0.3221" stop-color="#E5E5E5"/>
<stop offset="1" stop-color="white"/>
</linearGradient>
<linearGradient id="paint15_linear" x1="377.663" y1="452.551" x2="211.904" y2="44.3835" gradientUnits="userSpaceOnUse">
<stop stop-color="#D9D9D9"/>
<stop offset="0.3221" stop-color="#E5E5E5"/>
<stop offset="1" stop-color="white"/>
</linearGradient>
<linearGradient id="paint16_linear" x1="586.647" y1="367.679" x2="420.888" y2="-40.4876" gradientUnits="userSpaceOnUse">
<stop stop-color="#D9D9D9"/>
<stop offset="0.3221" stop-color="#E5E5E5"/>
<stop offset="1" stop-color="white"/>
</linearGradient>
<linearGradient id="paint17_linear" x1="762.124" y1="296.417" x2="596.365" y2="-111.749" gradientUnits="userSpaceOnUse">
<stop stop-color="#D9D9D9"/>
<stop offset="0.3221" stop-color="#E5E5E5"/>
<stop offset="1" stop-color="white"/>
</linearGradient>
<linearGradient id="paint18_linear" x1="650.734" y1="341.655" x2="484.974" y2="-66.5147" gradientUnits="userSpaceOnUse">
<stop stop-color="#D9D9D9"/>
<stop offset="0.3221" stop-color="#E5E5E5"/>
<stop offset="1" stop-color="white"/>
</linearGradient>
<linearGradient id="paint19_linear" x1="718.017" y1="314.33" x2="552.257" y2="-93.8379" gradientUnits="userSpaceOnUse">
<stop stop-color="#D9D9D9"/>
<stop offset="0.3221" stop-color="#E5E5E5"/>
<stop offset="1" stop-color="white"/>
</linearGradient>
<linearGradient id="paint20_linear" x1="577.016" y1="371.593" x2="411.256" y2="-36.5757" gradientUnits="userSpaceOnUse">
<stop stop-color="#D9D9D9"/>
<stop offset="0.3221" stop-color="#E5E5E5"/>
<stop offset="1" stop-color="white"/>
</linearGradient>
<linearGradient id="paint21_linear" x1="652.19" y1="341.063" x2="486.43" y2="-67.1038" gradientUnits="userSpaceOnUse">
<stop stop-color="#D9D9D9"/>
<stop offset="0.3221" stop-color="#E5E5E5"/>
<stop offset="1" stop-color="white"/>
</linearGradient>
<linearGradient id="paint22_linear" x1="523.497" y1="393.328" x2="357.737" y2="-14.8415" gradientUnits="userSpaceOnUse">
<stop stop-color="#D9D9D9"/>
<stop offset="0.3221" stop-color="#E5E5E5"/>
<stop offset="1" stop-color="white"/>
</linearGradient>
<linearGradient id="paint23_linear" x1="382.471" y1="450.599" x2="216.711" y2="42.4312" gradientUnits="userSpaceOnUse">
<stop stop-color="#D9D9D9"/>
<stop offset="0.3221" stop-color="#E5E5E5"/>
<stop offset="1" stop-color="white"/>
</linearGradient>
<linearGradient id="paint24_linear" x1="427.559" y1="432.287" x2="261.799" y2="24.1202" gradientUnits="userSpaceOnUse">
<stop stop-color="#D9D9D9"/>
<stop offset="0.3221" stop-color="#E5E5E5"/>
<stop offset="1" stop-color="white"/>
</linearGradient>
<linearGradient id="paint25_linear" x1="421.69" y1="434.675" x2="255.929" y2="26.5039" gradientUnits="userSpaceOnUse">
<stop stop-color="#D9D9D9"/>
<stop offset="0.3221" stop-color="#E5E5E5"/>
<stop offset="1" stop-color="white"/>
</linearGradient>
<linearGradient id="paint26_linear" x1="759.067" y1="297.66" x2="593.307" y2="-110.507" gradientUnits="userSpaceOnUse">
<stop stop-color="#D9D9D9"/>
<stop offset="0.3221" stop-color="#E5E5E5"/>
<stop offset="1" stop-color="white"/>
</linearGradient>
<linearGradient id="paint27_linear" x1="671.819" y1="333.093" x2="506.059" y2="-75.0757" gradientUnits="userSpaceOnUse">
<stop stop-color="#D9D9D9"/>
<stop offset="0.3221" stop-color="#E5E5E5"/>
<stop offset="1" stop-color="white"/>
</linearGradient>
<linearGradient id="paint28_linear" x1="696.505" y1="323.065" x2="530.747" y2="-85.0984" gradientUnits="userSpaceOnUse">
<stop stop-color="#D9D9D9"/>
<stop offset="0.3221" stop-color="#E5E5E5"/>
<stop offset="1" stop-color="white"/>
</linearGradient>
<linearGradient id="paint29_linear" x1="602.775" y1="361.132" x2="437.015" y2="-47.0359" gradientUnits="userSpaceOnUse">
<stop stop-color="#D9D9D9"/>
<stop offset="0.3221" stop-color="#E5E5E5"/>
<stop offset="1" stop-color="white"/>
</linearGradient>
<linearGradient id="paint30_linear" x1="537.386" y1="387.688" x2="371.627" y2="-20.4809" gradientUnits="userSpaceOnUse">
<stop stop-color="#D9D9D9"/>
<stop offset="0.3221" stop-color="#E5E5E5"/>
<stop offset="1" stop-color="white"/>
</linearGradient>
<linearGradient id="paint31_linear" x1="431.272" y1="430.779" x2="265.513" y2="22.6137" gradientUnits="userSpaceOnUse">
<stop stop-color="#D9D9D9"/>
<stop offset="0.3221" stop-color="#E5E5E5"/>
<stop offset="1" stop-color="white"/>
</linearGradient>
<linearGradient id="paint32_linear" x1="384.11" y1="449.933" x2="218.349" y2="41.7641" gradientUnits="userSpaceOnUse">
<stop stop-color="#D9D9D9"/>
<stop offset="0.3221" stop-color="#E5E5E5"/>
<stop offset="1" stop-color="white"/>
</linearGradient>
<linearGradient id="paint33_linear" x1="488.941" y1="407.36" x2="323.181" y2="-0.808066" gradientUnits="userSpaceOnUse">
<stop stop-color="#D9D9D9"/>
<stop offset="0.3221" stop-color="#E5E5E5"/>
<stop offset="1" stop-color="white"/>
</linearGradient>
<linearGradient id="paint34_linear" x1="257.165" y1="413.739" x2="290.884" y2="413.739" gradientUnits="userSpaceOnUse">
<stop stop-color="#FF9F55"/>
<stop offset="1" stop-color="#FFD255"/>
</linearGradient>
<linearGradient id="paint35_linear" x1="258.194" y1="431.669" x2="270.722" y2="408.721" gradientUnits="userSpaceOnUse">
<stop stop-color="white"/>
<stop offset="1"/>
</linearGradient>
<linearGradient id="paint36_linear" x1="258.194" y1="431.669" x2="270.722" y2="408.721" gradientUnits="userSpaceOnUse">
<stop stop-color="#FFA155"/>
<stop offset="1" stop-color="#FFA155"/>
</linearGradient>
<linearGradient id="paint37_linear" x1="262.449" y1="399.138" x2="270.552" y2="384.295" gradientUnits="userSpaceOnUse">
<stop offset="0.00518135" stop-color="#E6E6E6"/>
<stop offset="1" stop-color="#FFDCC2"/>
</linearGradient>
<linearGradient id="paint38_linear" x1="271.965" y1="399.086" x2="277.909" y2="388.198" gradientUnits="userSpaceOnUse">
<stop offset="0.00518135" stop-color="#E6E6E6"/>
<stop offset="1" stop-color="#FFDCC2"/>
</linearGradient>
<linearGradient id="paint39_linear" x1="257.521" y1="399.086" x2="263.464" y2="388.198" gradientUnits="userSpaceOnUse">
<stop offset="0.00518135" stop-color="#E6E6E6"/>
<stop offset="1" stop-color="#FFDCC2"/>
</linearGradient>
<linearGradient id="paint40_linear" x1="408.655" y1="493.391" x2="512.985" y2="493.391" gradientUnits="userSpaceOnUse">
<stop stop-color="#3076A1"/>
<stop offset="1" stop-color="#639C38"/>
</linearGradient>
<linearGradient id="paint41_linear" x1="399.591" y1="478.182" x2="535.811" y2="478.182" gradientUnits="userSpaceOnUse">
<stop stop-color="#3076A1"/>
<stop offset="1" stop-color="#639C38"/>
</linearGradient>
<linearGradient id="paint42_linear" x1="368.295" y1="457.573" x2="456.16" y2="457.573" gradientUnits="userSpaceOnUse">
<stop stop-color="#3076A1"/>
<stop offset="1" stop-color="#639C38"/>
</linearGradient>
<linearGradient id="paint43_linear" x1="392.717" y1="476.574" x2="419.357" y2="476.574" gradientUnits="userSpaceOnUse">
<stop stop-color="#3076A1"/>
<stop offset="1" stop-color="#639C38"/>
</linearGradient>
<linearGradient id="paint44_linear" x1="332.422" y1="481.853" x2="418.426" y2="481.853" gradientUnits="userSpaceOnUse">
<stop stop-color="#3076A1"/>
<stop offset="1" stop-color="#639C38"/>
</linearGradient>
<linearGradient id="paint45_linear" x1="390.008" y1="676.715" x2="462.368" y2="395.318" gradientUnits="userSpaceOnUse">
<stop stop-color="#3076A1"/>
<stop offset="1" stop-color="#639C38"/>
</linearGradient>
<linearGradient id="paint46_linear" x1="416.31" y1="530.845" x2="448.105" y2="530.845" gradientUnits="userSpaceOnUse">
<stop stop-color="#3076A1"/>
<stop offset="1" stop-color="#639C38"/>
</linearGradient>
<linearGradient id="paint47_linear" x1="389.008" y1="588.171" x2="447.788" y2="588.171" gradientUnits="userSpaceOnUse">
<stop stop-color="#FF9340"/>
<stop offset="1" stop-color="#FFCE45"/>
</linearGradient>
<linearGradient id="paint48_linear" x1="389.008" y1="588.171" x2="447.788" y2="588.171" gradientUnits="userSpaceOnUse">
<stop stop-color="#C97332"/>
<stop offset="1" stop-color="#FFCE45"/>
</linearGradient>
</defs>
</svg>
