<svg width="850" height="642" viewBox="0 0 850 642" fill="none" xmlns="http://www.w3.org/2000/svg">
<path d="M322.06 301.876C318.61 292.662 313.944 283.788 308.017 275.452C267.64 217.661 183.081 205.724 118.991 248.739C52.934 293.11 32.7407 378.242 73.9097 437.971C85.4401 454.7 100.531 467.65 117.702 476.516C147.323 491.872 174.172 511.622 195.249 536.677C229.098 577.106 294.169 587.073 346.532 550.982C408.605 508.198 414.604 429.041 372.456 384.726C350.014 361.109 333.699 332.442 322.06 301.876Z" fill="url(#paint0_linear)"/>
<path d="M552.793 33.0693H490.911V41.8557H552.793V33.0693Z" fill="url(#paint1_linear)"/>
<path d="M603.452 33.0693H562.403V41.8557H603.452V33.0693Z" fill="url(#paint2_linear)"/>
<path d="M710.708 33.0693H611.587V41.8557H710.708V33.0693Z" fill="url(#paint3_linear)"/>
<path d="M445.915 165.929H382.214V174.715H445.915V165.929Z" fill="url(#paint4_linear)"/>
<path d="M544.419 66.0869H483.6V74.8733H544.419V66.0869Z" fill="url(#paint5_linear)"/>
<path d="M479.139 99.1042H453.157V107.891H479.139V99.1042Z" fill="url(#paint6_linear)"/>
<path d="M485.557 132.637H427.176V141.423H485.557V132.637Z" fill="url(#paint7_linear)"/>
<path d="M574.965 132.637H494.378V141.423H574.965V132.637Z" fill="url(#paint8_linear)"/>
<path d="M443.032 99.3792H382.214V108.166H443.032V99.3792Z" fill="url(#paint9_linear)"/>
<path d="M418.32 132.637H382.214V141.423H418.32V132.637Z" fill="url(#paint10_linear)"/>
<path d="M525.473 99.3792H491.426V108.166H525.473V99.3792Z" fill="url(#paint11_linear)"/>
<path d="M442.758 33.0693H381.94V41.8557H442.758V33.0693Z" fill="url(#paint12_linear)"/>
<path d="M468.671 66.0869H381.94V74.8733H468.671V66.0869Z" fill="url(#paint13_linear)"/>
<path d="M845.215 33.0693H767.716V41.8557H845.215V33.0693Z" fill="url(#paint14_linear)"/>
<path d="M744.309 66.0869H666.81V74.8733H744.309V66.0869Z" fill="url(#paint15_linear)"/>
<path d="M652.636 66.0869H607.194V74.8733H652.636V66.0869Z" fill="url(#paint16_linear)"/>
<path d="M589.174 66.0869H560.79V74.8733H589.174V66.0869Z" fill="url(#paint17_linear)"/>
<path d="M425.597 0.0175781H381.219V8.80395H425.597V0.0175781Z" fill="url(#paint18_linear)"/>
<path d="M534.671 166.169H499.628V174.956H534.671V166.169Z" fill="url(#paint19_linear)"/>
<path d="M450.857 0.0175781H436.511V8.80395H450.857V0.0175781Z" fill="url(#paint20_linear)"/>
<path d="M849.127 0.0175781H730.683V8.80395H849.127V0.0175781Z" fill="url(#paint21_linear)"/>
<path d="M719.734 0.0175781H680.985V8.80395H719.734V0.0175781Z" fill="url(#paint22_linear)"/>
<path d="M758.483 33.0693H719.734V41.8557H758.483V33.0693Z" fill="url(#paint23_linear)"/>
<path d="M670.723 0.0175781H588.282V8.80395H670.723V0.0175781Z" fill="url(#paint24_linear)"/>
<path d="M576.612 0.0175781H548.228V8.80395H576.612V0.0175781Z" fill="url(#paint25_linear)"/>
<path d="M481.13 33.0693H452.746V41.8557H481.13V33.0693Z" fill="url(#paint26_linear)"/>
<path d="M486.758 166.169H458.374V174.956H486.758V166.169Z" fill="url(#paint27_linear)"/>
<path d="M537.383 0.0175781H487.96V8.80395H537.383V0.0175781Z" fill="url(#paint28_linear)"/>
<path d="M323.459 156.402L322.446 134.973L330.343 134.602L331.355 156.031L323.459 156.402ZM324.088 170.313L323.717 162.14L331.613 161.769L331.984 169.942L324.088 170.313Z" fill="#D44040"/>
<path d="M357.445 168.334L366.612 148.938L359.463 145.562L350.297 164.958L357.445 168.334ZM351.52 180.936L355.003 173.533L347.855 170.157L344.372 177.56L351.52 180.936Z" fill="#D44040"/>
<path d="M297.028 164.007L286.01 145.611L292.772 141.561L303.789 159.957L297.028 164.007ZM304.167 175.951L299.945 168.915L306.707 164.865L310.928 171.901L304.167 175.951Z" fill="#D44040"/>
<path opacity="0.72" d="M410.29 295.082H444.268C448.627 295.082 452.128 291.547 452.128 287.222V253.243C452.128 248.885 448.593 245.384 444.268 245.384H410.29C405.931 245.384 402.43 248.919 402.43 253.243V287.222C402.43 291.581 405.965 295.082 410.29 295.082Z" fill="#E0E0E0"/>
<path d="M420.243 311.625C418.527 310.493 416.193 310.767 414.58 311.179L415.164 306.923H392.477L396.115 332.973H411.56L411.903 330.536L412.212 328.203C414.546 328.168 416.64 327.345 418.321 325.8C420.758 323.569 422.165 319.931 422.165 315.881C422.165 313.41 421.101 312.209 420.243 311.625ZM416.64 323.947C415.473 325.011 414.1 325.594 412.555 325.697L414.203 313.856C415.404 313.444 417.704 312.895 418.871 313.684C419.076 313.822 419.694 314.234 419.694 315.847C419.694 319.21 418.562 322.162 416.64 323.947Z" fill="url(#paint29_linear)"/>
<mask id="mask0" mask-type="alpha" maskUnits="userSpaceOnUse" x="392" y="306" width="20" height="27">
<path d="M411.525 332.973H396.08L392.442 306.888H400.782C400.816 306.888 397.796 330.433 411.525 332.973Z" fill="url(#paint30_linear)"/>
</mask>
<g mask="url(#mask0)">
<path d="M411.525 332.973H396.08L392.442 306.888H400.782C400.816 306.888 397.796 330.433 411.525 332.973Z" fill="url(#paint31_linear)"/>
<path d="M402.909 288.938C402.909 288.938 398.139 290.517 399.889 294.773C401.639 299.029 404.694 301.672 401.845 306.888C401.845 306.888 407.131 303.697 404.66 298.411C402.189 293.091 400.678 291.615 402.909 288.938Z" fill="url(#paint32_linear)"/>
<path d="M409.74 293.743C409.74 293.743 406.239 294.91 407.543 298.034C408.847 301.157 411.078 303.113 408.985 306.923C408.985 306.923 412.863 304.589 411.044 300.676C409.225 296.764 408.127 295.665 409.74 293.743Z" fill="url(#paint33_linear)"/>
<path d="M397.006 293.743C397.006 293.743 393.506 294.91 394.81 298.034C396.114 301.157 398.345 303.113 396.251 306.923C396.251 306.923 400.13 304.589 398.311 300.676C396.492 296.764 395.393 295.665 397.006 293.743Z" fill="url(#paint34_linear)"/>
</g>
<path d="M623.221 465.352C618.382 443.18 628.85 437.62 639.009 432.3C647.281 427.941 655.14 423.788 654.694 410.712C654.145 393.379 665.952 387.064 676.351 381.504C684.108 377.351 691.419 373.473 692.517 365.579C695.16 346.599 712.629 323.02 712.835 322.779L713.934 323.603C713.762 323.843 696.464 347.148 693.89 365.75C692.688 374.331 685.103 378.381 677.038 382.705C666.467 388.334 655.552 394.169 656.101 410.677C656.548 424.612 647.967 429.108 639.696 433.501C629.571 438.855 619.995 443.901 624.628 465.077L623.221 465.352Z" fill="url(#paint35_linear)"/>
<path d="M628.575 459.689C628.335 459.689 628.095 459.689 627.889 459.655C623.496 459.346 619.205 455.982 614.366 449.152L614.057 448.74L614.4 448.328C614.469 448.225 622.26 438.787 619.377 421.008C618.725 416.855 617.833 413.698 617.112 411.124C616.082 407.417 615.396 404.946 616.528 402.989C618.004 400.484 621.951 399.214 633.106 396.537C644.981 393.723 648.962 380.337 652.463 368.53C655.758 357.41 658.881 346.942 668.114 347.251C676.591 347.56 689.496 334.277 700.891 322.539C711.462 311.659 721.416 301.397 727.765 301.603C729.31 301.672 730.58 302.289 731.609 303.525C737.272 310.286 731.987 320.549 726.873 330.467C722.514 338.945 718.361 346.942 721.038 352.193C724.367 358.817 724.848 364.824 722.377 369.526C719.459 375.12 712.698 378.69 702.23 380.234C692.688 381.607 691.624 392.041 690.56 403.092C689.29 415.963 687.849 430.55 671.786 431.957C659.877 432.987 651.845 441.361 644.775 448.74C639.112 454.575 634.238 459.689 628.575 459.689ZM615.739 448.809C620.166 454.918 624.148 458.041 627.958 458.316C633.277 458.728 638.151 453.648 643.78 447.779C651.022 440.228 659.259 431.682 671.649 430.584C686.579 429.28 687.883 415.894 689.187 402.955C690.32 391.389 691.418 380.44 702.024 378.895C712.011 377.454 718.464 374.09 721.141 368.908C723.372 364.583 722.926 359.023 719.768 352.811C716.782 346.908 721.072 338.636 725.603 329.85C730.511 320.308 735.625 310.458 730.511 304.383C729.756 303.456 728.795 303.01 727.662 302.976C721.896 302.77 712.149 312.826 701.784 323.5C689.805 335.856 677.415 348.624 668.354 348.624C668.251 348.624 668.114 348.624 668.011 348.624C659.808 348.315 656.994 357.856 653.699 368.942C650.095 381.092 646.011 394.889 633.38 397.875C623.29 400.278 618.897 401.616 617.661 403.676C616.803 405.152 617.386 407.245 618.382 410.746C619.102 413.32 619.995 416.546 620.681 420.768C623.358 437.311 617.283 446.75 615.739 448.809Z" fill="url(#paint36_linear)"/>
<path d="M629.056 455.056C628.884 455.056 628.747 455.056 628.575 455.021C621.367 454.369 615.842 438.615 610.487 423.377C607.948 416.135 605.545 409.305 603.211 404.946C601.392 401.548 599.093 398.013 596.862 394.581C590.924 385.451 584.815 376.013 586.805 367.707C587.869 363.348 590.993 359.71 596.381 356.621C608.154 349.825 606.369 345.981 602.388 337.572C599.47 331.394 595.489 322.951 595.317 309.669C595.249 303.971 595.111 299.029 595.008 294.67C594.631 280.667 594.459 273.631 597.445 271.091C598.681 270.027 600.431 269.752 602.902 270.233C607.158 271.057 608.977 274.454 610.934 278.093C613.405 282.726 616.219 287.977 624.697 289.728C632.659 291.409 640.313 293.675 642.407 298.96C643.883 302.667 642.475 307.575 638.116 313.89C637.053 315.435 636.675 316.739 637.018 317.871C637.705 320.411 641.686 322.265 646.251 324.427C652.772 327.482 660.906 331.257 663.206 339.117C665.059 345.432 662.897 353.36 656.65 363.245C641.823 386.687 642.407 402.612 642.922 416.65C643.299 427.049 643.677 436.865 637.396 447.848C634.65 452.687 631.904 455.056 629.056 455.056ZM600.774 271.331C599.71 271.331 598.921 271.571 598.338 272.086C595.832 274.214 596.038 281.456 596.381 294.601C596.484 298.96 596.621 303.902 596.69 309.634C596.827 322.642 600.774 330.914 603.623 336.989C607.57 345.329 609.938 350.374 597.068 357.788C592.022 360.705 589.105 364.034 588.144 368.016C586.291 375.738 592.263 384.936 598.029 393.826C600.26 397.292 602.593 400.861 604.412 404.294C606.781 408.756 609.218 415.654 611.757 422.93C616.734 437.071 622.363 453.099 628.678 453.683C631.081 453.889 633.62 451.726 636.229 447.162C642.304 436.522 641.961 427.324 641.549 416.684C641 402.44 640.416 386.309 655.483 362.524C661.524 352.948 663.618 345.432 661.901 339.494C659.773 332.218 652.291 328.717 645.667 325.663C640.759 323.363 636.538 321.407 635.68 318.249C635.268 316.705 635.68 315.023 636.984 313.135C641.068 307.197 642.441 302.736 641.137 299.475C639.249 294.773 631.63 292.576 624.388 291.066C615.293 289.178 612.204 283.378 609.698 278.745C607.845 275.278 606.232 272.258 602.628 271.571C601.941 271.4 601.324 271.331 600.774 271.331Z" fill="url(#paint37_linear)"/>
<path d="M629.193 463.464L627.889 463.052C635.131 440.125 622.02 388.711 618.107 376.184C616.185 370.04 617.97 360.773 619.686 351.815C621.917 340.249 624.216 328.271 618.347 323.809C607.364 315.4 607.948 295.905 607.982 295.082L609.355 295.116C609.355 295.322 608.771 314.748 619.205 322.745C625.726 327.756 623.358 340.112 621.059 352.09C619.377 360.876 617.626 369.972 619.445 375.806C624.251 391.251 636.435 440.571 629.193 463.464Z" fill="url(#paint38_linear)"/>
<path d="M574.347 314.576C571.326 306.923 559.52 308.09 560.618 318.901C561.716 329.747 569.301 341.313 557.735 359.71C546.169 378.14 572.562 381.744 581.932 393.311C591.336 404.877 594.562 420.768 602.525 430.893C610.488 441.018 615.876 465.215 622.397 456.188C628.884 447.161 622.775 435.423 623.496 419.155C624.216 402.886 638.7 392.624 624.216 382.122C609.733 371.654 595.18 368.427 599.985 344.814C602.079 334.38 583.751 338.396 574.347 314.576Z" fill="url(#paint39_linear)"/>
<path d="M632.934 458.247C632.865 457.767 624.834 410.163 606.849 397.12C588.521 383.803 585.192 371.516 578.774 342.549L580.112 342.24C586.428 370.864 589.722 383.014 607.673 396.022C626.103 409.407 633.998 456.051 634.306 458.041L632.934 458.247Z" fill="white"/>
<path d="M616.7 456.566C616.7 456.566 622.054 443.352 612.307 424.578C602.594 405.804 594.7 408.687 618.141 394.237C641.583 379.788 618.279 334.277 638.254 328.477C658.229 322.711 675.562 249.022 690.732 258.392C705.902 267.762 685.687 303.902 696.498 314.748C707.344 325.594 708.785 339.391 686.373 350.546C663.961 361.7 702.264 404.328 671.924 417.336C641.583 430.344 650.301 481.312 616.7 456.566Z" fill="url(#paint40_linear)"/>
<path d="M625.967 470.569C625.933 470.397 622.672 453.477 632.969 431.614C643.471 409.339 648.516 385.005 646.423 366.471C645.29 356.449 651.708 352.536 657.92 348.727C664.03 344.986 670.345 341.141 670.002 331.257C669.693 322.333 673.468 301.397 673.64 300.539L674.978 300.779C674.944 300.985 671.066 322.436 671.375 331.222C671.752 341.897 665.094 345.981 658.641 349.894C652.532 353.635 646.732 357.17 647.761 366.334C649.855 385.073 644.81 409.716 634.204 432.197C624.114 453.614 627.271 470.157 627.305 470.294L625.967 470.569Z" fill="white"/>
<path d="M650.472 377.179C657.302 370.864 666.295 369.938 664.407 379.342C662.519 388.746 656.101 391.423 659.293 397.326C662.519 403.23 667.873 409.133 658.744 416.375C649.614 423.617 644.535 424.441 641.857 438.101C639.18 451.795 639.695 461.131 627.923 461.714C616.15 462.297 620.681 445.068 624.422 437.311C624.422 437.311 630.051 428.422 626.31 416.787C622.569 405.117 615.327 398.836 630.6 394.855C645.907 390.874 645.873 381.47 650.472 377.179Z" fill="white"/>
<path d="M628.816 470.466C628.781 468.784 627.958 429.383 635.337 422.759C642.853 415.997 644.329 404.019 644.501 397.463C644.741 388.952 655.758 383.906 656.204 383.7L656.753 384.936C656.65 384.97 646.045 389.844 645.839 397.532C645.599 405.769 643.746 417.027 636.229 423.788C629.33 430.001 630.154 470.054 630.154 470.466H628.816Z" fill="url(#paint41_linear)"/>
<path d="M656.479 454.369L644.26 500.772H616.94L604.687 454.369H656.479Z" fill="url(#paint42_linear)"/>
<path d="M656.479 454.369C656.479 454.369 629.57 459.414 629.57 500.772H616.94L604.721 454.369H656.479Z" fill="url(#paint43_linear)"/>
<path d="M444.92 258.152V282.314L409.672 282.28V258.152H435.344H444.92Z" fill="#FFC655"/>
<path d="M444.92 282.314L427.313 268.792L409.672 282.28L444.92 282.314Z" fill="#FFBC55"/>
<path d="M444.92 258.152L430.024 270.885L427.313 273.185L424.567 270.885L409.672 258.152H435.344H444.92Z" fill="#FFA655"/>
<path d="M373.874 367.913C374.182 366.711 374.011 364.824 370.201 362.696C366.391 360.568 357.914 354.424 354.997 354.253C352.079 354.081 347.652 355.179 346.45 355.145C345.284 355.111 342.984 362.97 342.984 362.97L373.874 367.913Z" fill="#EEA886"/>
<path d="M272.247 290.483L297.714 340.455L349.883 353.875L344.838 367.089L288.756 363.108L261.23 317.288L272.247 290.483Z" fill="#B53737"/>
<path d="M426.867 493.29C426.867 493.29 438.536 498.198 443.753 499.914C448.97 501.63 468.053 499.708 470.181 501.219C472.309 502.763 472.377 508.529 469.323 509.524C466.268 510.52 443.444 515.771 435.481 515.016C427.519 514.261 413.55 519.272 410.186 518.62C406.857 517.968 406.548 500.498 407.269 496.448C407.99 492.467 426.867 493.29 426.867 493.29Z" fill="#202338"/>
<path d="M424.19 486.288L426.867 493.29C426.867 493.29 412.795 497.958 407.269 496.482L405.416 489.343L424.19 486.288Z" fill="#292C47"/>
<path d="M395.394 499.537C395.394 499.537 406.411 505.783 411.388 508.117C416.364 510.417 435.55 510.794 437.472 512.545C439.394 514.295 438.811 520.061 435.619 520.679C432.461 521.331 409.191 523.837 401.366 522.155C393.575 520.473 379.057 523.768 375.83 522.738C372.604 521.709 374.355 504.307 375.556 500.395C376.757 496.448 395.394 499.537 395.394 499.537Z" fill="#292C47"/>
<path d="M393.746 492.26L395.394 499.537C395.394 499.537 380.876 502.523 375.556 500.395L374.56 493.084L393.746 492.26Z" fill="#3D416B"/>
<path d="M283.402 361.151C283.402 361.151 333.615 361.563 339.758 362.387C346.417 363.279 371.643 363.52 374.801 367.981C406.652 413.012 428.309 487.284 428.309 487.284L403.151 491.917C403.151 491.917 378.817 447.951 368.623 425.127C359.459 404.637 351.634 399.351 332.414 399.798C313.193 400.244 251.757 396.297 216.303 392.213L283.402 361.151Z" fill="#202338"/>
<path d="M294.247 258.461C294.247 258.461 299.155 280.049 297.954 291.959C296.753 303.868 277.738 333.728 276.846 340.352C275.954 346.976 281.136 360.705 281.136 360.705L215.341 391.149C215.341 391.149 215.444 372.1 218.156 349.482C220.867 326.864 229.379 308.982 232.365 296.215C242.524 252.626 279.763 246.551 279.763 246.551L294.247 258.461Z" fill="#CFBEB6"/>
<path d="M280.93 360.087C280.93 360.087 332.619 360.499 338.797 361.323C345.455 362.215 372.192 362.627 374.732 367.432C392.957 401.754 397.075 493.427 397.075 493.427L373.599 496.07C373.599 496.07 362.067 449.564 358.463 427.392C354.859 405.255 350.329 402.029 331.109 402.475C311.889 402.921 236.621 422.965 215.376 391.149L280.93 360.087Z" fill="#292C47"/>
<path d="M344.014 223.727C344.014 223.727 343.396 236.975 339.792 236.907C336.806 236.872 335.708 249.571 335.365 251.562C335.022 253.553 329.702 251.94 328.089 252.386C326.475 252.832 315.939 263.781 311.889 261.859C307.839 259.937 294.247 243.668 292.497 235.98C290.746 228.292 300.116 204.026 308.8 196.613C317.483 189.234 344.975 200.526 344.014 223.727Z" fill="#EEA886"/>
<path d="M305.299 251.287C305.299 251.287 304.681 252.351 303.754 253.999C303.068 255.234 302.21 256.779 301.317 258.46C298.881 263.025 296.135 268.585 295.517 271.434C294.35 276.754 282.269 246.963 282.269 246.963C282.269 246.963 291.021 231.758 297.954 213.396C304.887 195.034 305.299 251.287 305.299 251.287Z" fill="#EEA886"/>
<path d="M343.774 226.541C343.774 226.541 355.787 219.059 350.57 205.022C345.387 190.984 318.479 193.97 316.076 193.284C313.674 192.563 301.558 186.351 294.9 210.582C288.241 234.813 290.369 231.415 290.369 231.415C290.369 231.415 298.435 222.972 302.691 224.345C307.324 225.855 314.6 228.944 314.6 228.944C314.6 228.944 316.694 217.446 323.009 219.437C329.359 221.427 339.449 221.119 343.774 226.541Z" fill="#754836"/>
<path d="M311.992 220.054C312.267 218.476 314.017 212.023 307.324 212.401C300.632 212.813 302.073 227.845 302.828 228.463C303.583 229.081 309.59 233.337 311.992 220.054Z" fill="#EEA886"/>
<path d="M303.72 253.999C303.034 255.234 302.176 256.779 301.283 258.461C296.65 250.155 293.973 241.162 293.183 238.382C294.865 243.153 303.72 253.999 303.72 253.999Z" fill="#A77860"/>
<path d="M308.216 255.852C308.216 255.852 308.113 251.425 307.942 250.086C307.77 248.748 310.619 249.64 311.168 251.219C311.683 252.798 308.216 255.852 308.216 255.852Z" fill="#C98462"/>
<path d="M329.29 253.45C329.29 253.45 329.736 255.372 329.53 256.333C329.53 256.333 329.016 258.015 328.707 259.216C328.604 259.593 328.535 259.937 328.501 260.177C328.398 261.103 328.466 263.197 327.574 265.359C326.716 267.522 322.288 276.994 322.288 276.994L316.076 275.141L311.168 273.494C311.168 273.494 307.324 258.564 307.908 256.436C307.976 256.23 308.045 256.024 308.114 255.852C308.766 254.102 310.001 253.072 310.447 252.214C310.619 251.905 312.507 248.816 313.571 248.645C315.047 248.439 316.179 248.885 316.866 249.64C316.866 249.64 319.783 249.331 321.43 250.429C321.43 250.429 324.108 250.086 325.789 252.008C325.789 252.043 328.569 251.974 329.29 253.45Z" fill="#DE9D7D"/>
<path d="M283.573 244.526C283.573 244.526 291.193 262.27 297.68 268.277L294.625 278.813L279.764 246.551L283.573 244.526Z" fill="#EDDAD3"/>
<path d="M280.93 360.087C280.93 360.087 279.969 357.547 279.249 355.076C278.528 352.571 259.033 362.867 259.033 362.867L263.735 368.29L280.93 360.087Z" fill="#323657"/>
<path d="M292.291 300.059C290.438 303.868 288.653 307.747 286.971 311.625C283.264 320.171 279.97 328.889 277.052 337.401C276.023 340.421 275.027 343.441 274.101 346.427C262.912 381.882 258.45 411.948 258.45 411.948C258.45 411.948 216.577 400.793 210.296 395.267C210.296 395.267 220.524 246.894 279.764 246.551C280.141 247.134 302.073 280.083 292.291 300.059Z" fill="#D44040"/>
<path d="M277.087 337.401C276.057 340.421 275.062 343.441 274.135 346.427C264.903 331.841 248.634 296.764 248.394 296.215L277.087 337.401Z" fill="#631E1E"/>
<path d="M309.04 270.988L324.931 276.274L310.276 353.498C308.628 360.808 299.396 363.211 294.419 357.616C280.725 342.274 259.033 316.67 249.56 298.583C235.18 271.16 259.205 261.618 264.971 268.517C270.737 275.416 296.204 321.99 296.204 321.99L309.04 270.988Z" fill="#D44040"/>
<path d="M188.571 233.68L213.179 305.859C213.351 306.408 213.488 306.991 213.523 307.575L219.426 402.475L322.323 404.774L352.32 513.917C353.212 517.212 352.663 520.747 350.672 523.562C349.368 525.415 347.515 527.063 344.906 527.371C338.385 528.161 206.246 527.371 206.246 527.371V521.914C206.246 519.203 208.512 516.972 211.292 516.972H334.816C336.841 516.972 338.797 516.08 340.067 514.501C340.788 513.574 341.337 512.442 341.131 511.137C340.582 507.671 314.223 418.709 314.223 418.709L214.724 416.958C210.193 416.89 206.521 413.355 206.315 408.927L201.991 306.786C201.956 306.133 201.853 305.481 201.682 304.864L181.569 235.842C181.569 235.842 179.475 231.037 183.32 230.557C187.164 230.145 188.159 232.41 188.571 233.68Z" fill="#5E5E5B"/>
<path d="M322.906 406.765C322.906 406.765 322.975 398.871 312.198 398.322C299.808 397.704 219.117 397.12 219.117 397.12L219.666 405.495L322.906 406.765Z" fill="#D6985E"/>
<path d="M376.242 339.117V342.858H554.784V339.117C554.784 335.616 552.45 332.802 549.533 332.802H381.494C378.611 332.802 376.242 335.616 376.242 339.117Z" fill="#D6985E"/>
<path d="M490.705 525.484H544.659V516.869H495.991C493.073 516.869 490.705 519.237 490.705 522.155V525.484Z" fill="#807066"/>
<path d="M534.095 525.501H541.234V342.875H534.095V525.501Z" fill="#807066"/>
<path d="M519.793 525.501H526.932V342.875H519.793V525.501Z" fill="#807066"/>
<path d="M473.373 194.245H467.676V320.789H473.373V194.245Z" fill="#6E6760"/>
<path d="M479.482 332.801H510.886V330.914H479.482C477.834 330.914 476.667 330.536 475.981 329.747C475.157 328.82 475.295 327.584 475.295 327.55V327.481V327.413V286.844H473.407V327.378C473.373 327.756 473.304 329.541 474.574 330.948C475.603 332.184 477.251 332.801 479.482 332.801Z" fill="#918880"/>
<path d="M437.541 329.472H469.838V332.801H434.486V332.527C434.486 330.845 435.859 329.472 437.541 329.472Z" fill="#6E6760"/>
<path d="M451.99 342.858H554.784V339.117C554.784 335.616 552.382 332.802 549.396 332.802H468.087L451.99 342.858Z" fill="#BC8551"/>
<path d="M544.384 296.386C544.384 296.386 534.534 297.862 520.153 305.516C505.772 313.169 531.411 307.815 544.384 296.386Z" fill="#757D28"/>
<path d="M518.197 306.614C518.197 306.614 525.336 292.988 536.456 286.742C536.456 286.742 533.23 296.214 521.492 306.374C509.754 316.533 518.197 306.614 518.197 306.614Z" fill="#5C9E33"/>
<path d="M512.5 297.278C512.5 297.278 505.12 288.252 502.169 284.133C499.217 280.015 508.381 303.319 509.136 305.79C509.891 308.261 512.98 310.424 512.5 297.278Z" fill="#4D8B33"/>
<path d="M519.536 311.247C522.831 306.339 525.13 284.167 525.13 284.167C519.398 288.938 513.976 310.321 513.976 310.321C513.976 310.321 516.275 316.155 519.536 311.247Z" fill="#B1C265"/>
<path d="M518.814 309.017C519.809 306.923 518.471 279.774 517.716 282.211C516.926 284.682 512.464 294.842 512.464 294.842C511.778 301.02 517.819 311.11 518.814 309.017Z" fill="#92A05B"/>
<path d="M511.229 302.976C509.479 299.818 492.284 282.829 492.284 282.829C492.455 288.08 503.129 300.539 503.129 300.539C503.129 300.539 512.98 306.168 511.229 302.976Z" fill="#C7CA7F"/>
<path d="M519.535 310.87C499.663 303.559 480.958 307.369 480.958 307.369C483.703 311.11 509.685 310.87 509.685 310.87H519.535Z" fill="#5C9E33"/>
<path d="M515.383 311.522C505.292 300.539 481.507 295.254 481.507 295.254C488.543 302.427 498.633 308.742 498.633 308.742C498.633 308.742 525.473 322.505 515.383 311.522Z" fill="#518330"/>
<path d="M517.407 310.321C511.504 299.406 488.989 288.595 488.989 288.595C488.989 292.027 507.214 308.09 507.214 308.09C507.214 308.09 523.311 321.269 517.407 310.321Z" fill="#6C9F44"/>
<path d="M517.27 311.419C521.698 310.595 538.103 294.499 538.103 294.499C533.848 295.322 517.27 305.825 517.27 305.825C517.27 305.825 512.843 312.209 517.27 311.419Z" fill="#4A8A33"/>
<path d="M525.13 311.488C530.724 311.728 548.606 300.573 548.606 300.573C543.252 300.573 530.965 303.834 524.958 305.481C522.693 306.099 520.771 307.609 519.604 309.669C516.412 315.366 520.256 311.282 525.13 311.488Z" fill="#689C2F"/>
<path d="M545.826 306.648C544.144 306.511 533.436 306.992 528.802 307.197C526.983 307.266 525.233 307.953 523.826 309.154C521.835 310.87 522.418 312.174 525.13 312.723C528.734 313.444 547.954 306.82 545.826 306.648Z" fill="#478B33"/>
<path d="M516.789 309.565C517.201 307.884 517.235 306.133 517.029 304.417C516.24 298.582 513.529 280.461 509.547 277.715C509.547 277.715 507.763 301.157 511.504 309.051C514.352 314.988 516.034 312.792 516.789 309.565Z" fill="#61A23E"/>
<path d="M516.755 312.758C519.02 310.595 528.218 289.728 528.218 289.728C519.604 294.773 515.794 304.967 515.794 304.967C515.794 304.967 514.49 314.92 516.755 312.758Z" fill="#5C9B3B"/>
<path d="M495.578 314.336L498.393 332.802H531.891L534.739 314.336H495.578Z" fill="#31535F"/>
<path d="M534.739 314.336H495.578L498.427 332.767H505.463C505.463 332.767 511.469 320.961 533.916 319.656L534.739 314.336Z" fill="#27434C"/>
<path d="M536.284 310.389H494V316.567H536.284V310.389Z" fill="#31535F"/>
<defs>
<linearGradient id="paint0_linear" x1="285.5" y1="598" x2="158.242" y2="86.9748" gradientUnits="userSpaceOnUse">
<stop stop-color="#00F7E7"/>
<stop offset="1" stop-color="#1B0052"/>
</linearGradient>
<linearGradient id="paint1_linear" x1="639.572" y1="327.366" x2="493.54" y2="-32.224" gradientUnits="userSpaceOnUse">
<stop stop-color="#D9D9D9"/>
<stop offset="0.3221" stop-color="#E5E5E5"/>
<stop offset="1" stop-color="white"/>
</linearGradient>
<linearGradient id="paint2_linear" x1="692.021" y1="306.065" x2="545.99" y2="-53.5236" gradientUnits="userSpaceOnUse">
<stop stop-color="#D9D9D9"/>
<stop offset="0.3221" stop-color="#E5E5E5"/>
<stop offset="1" stop-color="white"/>
</linearGradient>
<linearGradient id="paint3_linear" x1="759.151" y1="278.803" x2="613.12" y2="-80.7851" gradientUnits="userSpaceOnUse">
<stop stop-color="#D9D9D9"/>
<stop offset="0.3221" stop-color="#E5E5E5"/>
<stop offset="1" stop-color="white"/>
</linearGradient>
<linearGradient id="paint4_linear" x1="500.728" y1="383.749" x2="354.698" y2="24.1628" gradientUnits="userSpaceOnUse">
<stop stop-color="#D9D9D9"/>
<stop offset="0.3221" stop-color="#E5E5E5"/>
<stop offset="1" stop-color="white"/>
</linearGradient>
<linearGradient id="paint5_linear" x1="621.335" y1="334.771" x2="475.303" y2="-24.8176" gradientUnits="userSpaceOnUse">
<stop stop-color="#D9D9D9"/>
<stop offset="0.3221" stop-color="#E5E5E5"/>
<stop offset="1" stop-color="white"/>
</linearGradient>
<linearGradient id="paint6_linear" x1="568.757" y1="356.127" x2="422.724" y2="-3.46495" gradientUnits="userSpaceOnUse">
<stop stop-color="#D9D9D9"/>
<stop offset="0.3221" stop-color="#E5E5E5"/>
<stop offset="1" stop-color="white"/>
</linearGradient>
<linearGradient id="paint7_linear" x1="548.66" y1="364.284" x2="402.63" y2="4.69734" gradientUnits="userSpaceOnUse">
<stop stop-color="#D9D9D9"/>
<stop offset="0.3221" stop-color="#E5E5E5"/>
<stop offset="1" stop-color="white"/>
</linearGradient>
<linearGradient id="paint8_linear" x1="615.886" y1="336.983" x2="469.856" y2="-22.6027" gradientUnits="userSpaceOnUse">
<stop stop-color="#D9D9D9"/>
<stop offset="0.3221" stop-color="#E5E5E5"/>
<stop offset="1" stop-color="white"/>
</linearGradient>
<linearGradient id="paint9_linear" x1="522.7" y1="374.826" x2="376.669" y2="15.2389" gradientUnits="userSpaceOnUse">
<stop stop-color="#D9D9D9"/>
<stop offset="0.3221" stop-color="#E5E5E5"/>
<stop offset="1" stop-color="white"/>
</linearGradient>
<linearGradient id="paint10_linear" x1="500.482" y1="383.848" x2="354.452" y2="24.262" gradientUnits="userSpaceOnUse">
<stop stop-color="#D9D9D9"/>
<stop offset="0.3221" stop-color="#E5E5E5"/>
<stop offset="1" stop-color="white"/>
</linearGradient>
<linearGradient id="paint11_linear" x1="604.961" y1="341.418" x2="458.931" y2="-18.1656" gradientUnits="userSpaceOnUse">
<stop stop-color="#D9D9D9"/>
<stop offset="0.3221" stop-color="#E5E5E5"/>
<stop offset="1" stop-color="white"/>
</linearGradient>
<linearGradient id="paint12_linear" x1="545.608" y1="365.524" x2="399.576" y2="5.93421" gradientUnits="userSpaceOnUse">
<stop stop-color="#D9D9D9"/>
<stop offset="0.3221" stop-color="#E5E5E5"/>
<stop offset="1" stop-color="white"/>
</linearGradient>
<linearGradient id="paint13_linear" x1="545.203" y1="365.69" x2="399.171" y2="6.10126" gradientUnits="userSpaceOnUse">
<stop stop-color="#D9D9D9"/>
<stop offset="0.3221" stop-color="#E5E5E5"/>
<stop offset="1" stop-color="white"/>
</linearGradient>
<linearGradient id="paint14_linear" x1="883.906" y1="228.139" x2="737.874" y2="-131.45" gradientUnits="userSpaceOnUse">
<stop stop-color="#D9D9D9"/>
<stop offset="0.3221" stop-color="#E5E5E5"/>
<stop offset="1" stop-color="white"/>
</linearGradient>
<linearGradient id="paint15_linear" x1="785.773" y1="267.992" x2="639.741" y2="-91.5976" gradientUnits="userSpaceOnUse">
<stop stop-color="#D9D9D9"/>
<stop offset="0.3221" stop-color="#E5E5E5"/>
<stop offset="1" stop-color="white"/>
</linearGradient>
<linearGradient id="paint16_linear" x1="720.829" y1="294.367" x2="574.797" y2="-65.2224" gradientUnits="userSpaceOnUse">
<stop stop-color="#D9D9D9"/>
<stop offset="0.3221" stop-color="#E5E5E5"/>
<stop offset="1" stop-color="white"/>
</linearGradient>
<linearGradient id="paint17_linear" x1="673.68" y1="313.517" x2="527.647" y2="-46.0758" gradientUnits="userSpaceOnUse">
<stop stop-color="#D9D9D9"/>
<stop offset="0.3221" stop-color="#E5E5E5"/>
<stop offset="1" stop-color="white"/>
</linearGradient>
<linearGradient id="paint18_linear" x1="549.436" y1="363.965" x2="403.406" y2="4.38163" gradientUnits="userSpaceOnUse">
<stop stop-color="#D9D9D9"/>
<stop offset="0.3221" stop-color="#E5E5E5"/>
<stop offset="1" stop-color="white"/>
</linearGradient>
<linearGradient id="paint19_linear" x1="589.159" y1="347.835" x2="443.13" y2="-11.7482" gradientUnits="userSpaceOnUse">
<stop stop-color="#D9D9D9"/>
<stop offset="0.3221" stop-color="#E5E5E5"/>
<stop offset="1" stop-color="white"/>
</linearGradient>
<linearGradient id="paint20_linear" x1="583.986" y1="349.933" x2="437.957" y2="-9.64986" gradientUnits="userSpaceOnUse">
<stop stop-color="#D9D9D9"/>
<stop offset="0.3221" stop-color="#E5E5E5"/>
<stop offset="1" stop-color="white"/>
</linearGradient>
<linearGradient id="paint21_linear" x1="881.212" y1="229.232" x2="735.182" y2="-130.354" gradientUnits="userSpaceOnUse">
<stop stop-color="#D9D9D9"/>
<stop offset="0.3221" stop-color="#E5E5E5"/>
<stop offset="1" stop-color="white"/>
</linearGradient>
<linearGradient id="paint22_linear" x1="804.347" y1="260.445" x2="658.318" y2="-99.138" gradientUnits="userSpaceOnUse">
<stop stop-color="#D9D9D9"/>
<stop offset="0.3221" stop-color="#E5E5E5"/>
<stop offset="1" stop-color="white"/>
</linearGradient>
<linearGradient id="paint23_linear" x1="826.097" y1="251.616" x2="680.066" y2="-107.971" gradientUnits="userSpaceOnUse">
<stop stop-color="#D9D9D9"/>
<stop offset="0.3221" stop-color="#E5E5E5"/>
<stop offset="1" stop-color="white"/>
</linearGradient>
<linearGradient id="paint24_linear" x1="743.521" y1="285.149" x2="597.491" y2="-74.4366" gradientUnits="userSpaceOnUse">
<stop stop-color="#D9D9D9"/>
<stop offset="0.3221" stop-color="#E5E5E5"/>
<stop offset="1" stop-color="white"/>
</linearGradient>
<linearGradient id="paint25_linear" x1="685.914" y1="308.544" x2="539.884" y2="-51.0423" gradientUnits="userSpaceOnUse">
<stop stop-color="#D9D9D9"/>
<stop offset="0.3221" stop-color="#E5E5E5"/>
<stop offset="1" stop-color="white"/>
</linearGradient>
<linearGradient id="paint26_linear" x1="592.433" y1="346.513" x2="446.4" y2="-13.0783" gradientUnits="userSpaceOnUse">
<stop stop-color="#D9D9D9"/>
<stop offset="0.3221" stop-color="#E5E5E5"/>
<stop offset="1" stop-color="white"/>
</linearGradient>
<linearGradient id="paint27_linear" x1="550.881" y1="363.379" x2="404.853" y2="3.79625" gradientUnits="userSpaceOnUse">
<stop stop-color="#D9D9D9"/>
<stop offset="0.3221" stop-color="#E5E5E5"/>
<stop offset="1" stop-color="white"/>
</linearGradient>
<linearGradient id="paint28_linear" x1="643.235" y1="325.873" x2="497.206" y2="-33.7109" gradientUnits="userSpaceOnUse">
<stop stop-color="#D9D9D9"/>
<stop offset="0.3221" stop-color="#E5E5E5"/>
<stop offset="1" stop-color="white"/>
</linearGradient>
<linearGradient id="paint29_linear" x1="392.457" y1="319.933" x2="422.164" y2="319.933" gradientUnits="userSpaceOnUse">
<stop stop-color="#FF9F55"/>
<stop offset="1" stop-color="#FFD255"/>
</linearGradient>
<linearGradient id="paint30_linear" x1="393.363" y1="335.73" x2="404.4" y2="315.513" gradientUnits="userSpaceOnUse">
<stop stop-color="white"/>
<stop offset="1"/>
</linearGradient>
<linearGradient id="paint31_linear" x1="393.363" y1="335.73" x2="404.4" y2="315.513" gradientUnits="userSpaceOnUse">
<stop stop-color="#FFA155"/>
<stop offset="1" stop-color="#FFA155"/>
</linearGradient>
<linearGradient id="paint32_linear" x1="397.111" y1="307.07" x2="404.249" y2="293.994" gradientUnits="userSpaceOnUse">
<stop offset="0.00518135" stop-color="#E6E6E6"/>
<stop offset="1" stop-color="#FFDCC2"/>
</linearGradient>
<linearGradient id="paint33_linear" x1="405.495" y1="307.025" x2="410.731" y2="297.433" gradientUnits="userSpaceOnUse">
<stop offset="0.00518135" stop-color="#E6E6E6"/>
<stop offset="1" stop-color="#FFDCC2"/>
</linearGradient>
<linearGradient id="paint34_linear" x1="392.77" y1="307.025" x2="398.006" y2="297.433" gradientUnits="userSpaceOnUse">
<stop offset="0.00518135" stop-color="#E6E6E6"/>
<stop offset="1" stop-color="#FFDCC2"/>
</linearGradient>
<linearGradient id="paint35_linear" x1="622.012" y1="394.061" x2="713.926" y2="394.061" gradientUnits="userSpaceOnUse">
<stop stop-color="#3076A1"/>
<stop offset="1" stop-color="#639C38"/>
</linearGradient>
<linearGradient id="paint36_linear" x1="614.027" y1="380.662" x2="734.034" y2="380.662" gradientUnits="userSpaceOnUse">
<stop stop-color="#3076A1"/>
<stop offset="1" stop-color="#639C38"/>
</linearGradient>
<linearGradient id="paint37_linear" x1="586.456" y1="362.506" x2="663.863" y2="362.506" gradientUnits="userSpaceOnUse">
<stop stop-color="#3076A1"/>
<stop offset="1" stop-color="#639C38"/>
</linearGradient>
<linearGradient id="paint38_linear" x1="607.971" y1="379.245" x2="631.441" y2="379.245" gradientUnits="userSpaceOnUse">
<stop stop-color="#3076A1"/>
<stop offset="1" stop-color="#639C38"/>
</linearGradient>
<linearGradient id="paint39_linear" x1="554.853" y1="383.895" x2="630.621" y2="383.895" gradientUnits="userSpaceOnUse">
<stop stop-color="#3076A1"/>
<stop offset="1" stop-color="#639C38"/>
</linearGradient>
<linearGradient id="paint40_linear" x1="605.585" y1="555.566" x2="669.332" y2="307.66" gradientUnits="userSpaceOnUse">
<stop stop-color="#3076A1"/>
<stop offset="1" stop-color="#639C38"/>
</linearGradient>
<linearGradient id="paint41_linear" x1="628.756" y1="427.057" x2="656.767" y2="427.057" gradientUnits="userSpaceOnUse">
<stop stop-color="#3076A1"/>
<stop offset="1" stop-color="#639C38"/>
</linearGradient>
<linearGradient id="paint42_linear" x1="604.704" y1="477.559" x2="656.488" y2="477.559" gradientUnits="userSpaceOnUse">
<stop stop-color="#FF9340"/>
<stop offset="1" stop-color="#FFCE45"/>
</linearGradient>
<linearGradient id="paint43_linear" x1="604.704" y1="477.559" x2="656.488" y2="477.559" gradientUnits="userSpaceOnUse">
<stop stop-color="#C97332"/>
<stop offset="1" stop-color="#FFCE45"/>
</linearGradient>
</defs>
</svg>
