<svg width="705" height="675" viewBox="0 0 705 675" fill="none" xmlns="http://www.w3.org/2000/svg">
<path d="M251.978 0.366699H150.397V10.781H251.978V0.366699Z" fill="url(#paint0_linear)"/>
<path d="M353.719 78.6772H280.372V89.0916H353.719V78.6772Z" fill="url(#paint1_linear)"/>
<path d="M413.805 78.6772H365.151V89.0916H413.805V78.6772Z" fill="url(#paint2_linear)"/>
<path d="M540.893 78.6772H423.406V89.0916H540.893V78.6772Z" fill="url(#paint3_linear)"/>
<path d="M227.039 236.153H151.536V246.568H227.039V236.153Z" fill="url(#paint4_linear)"/>
<path d="M343.794 0.366699H271.707V10.781H343.794V0.366699Z" fill="url(#paint5_linear)"/>
<path d="M343.794 117.812H271.707V128.227H343.794V117.812Z" fill="url(#paint6_linear)"/>
<path d="M266.46 156.988H235.664V167.403H266.46V156.988Z" fill="url(#paint7_linear)"/>
<path d="M274.067 196.693H204.868V207.107H274.067V196.693Z" fill="url(#paint8_linear)"/>
<path d="M380.04 196.693H284.521V207.107H380.04V196.693Z" fill="url(#paint9_linear)"/>
<path d="M223.622 157.273H151.536V167.687H223.622V157.273Z" fill="url(#paint10_linear)"/>
<path d="M194.332 196.693H151.536V207.107H194.332V196.693Z" fill="url(#paint11_linear)"/>
<path d="M321.338 157.273H280.983V167.687H321.338V157.273Z" fill="url(#paint12_linear)"/>
<path d="M223.337 78.6772H151.251V89.0916H223.337V78.6772Z" fill="url(#paint13_linear)"/>
<path d="M254.052 117.812H151.251V128.227H254.052V117.812Z" fill="url(#paint14_linear)"/>
<path d="M455.097 0.366699H363.239V10.781H455.097V0.366699Z" fill="url(#paint15_linear)"/>
<path d="M700.321 78.6772H608.464V89.0916H700.321V78.6772Z" fill="url(#paint16_linear)"/>
<path d="M580.76 117.812H488.903V128.227H580.76V117.812Z" fill="url(#paint17_linear)"/>
<path d="M614.891 0.366699H523.033V10.781H614.891V0.366699Z" fill="url(#paint18_linear)"/>
<path d="M472.061 117.812H418.199V128.227H472.061V117.812Z" fill="url(#paint19_linear)"/>
<path d="M505.704 0.366699H472.061V10.781H505.704V0.366699Z" fill="url(#paint20_linear)"/>
<path d="M396.882 117.812H363.239V128.227H396.882V117.812Z" fill="url(#paint21_linear)"/>
<path d="M202.997 39.502H150.396V49.9163H202.997V39.502Z" fill="url(#paint22_linear)"/>
<path d="M332.28 236.438H290.745V246.852H332.28V236.438Z" fill="url(#paint23_linear)"/>
<path d="M232.897 39.502H215.893V49.9163H232.897V39.502Z" fill="url(#paint24_linear)"/>
<path d="M705 39.502H564.61V49.9163H705V39.502Z" fill="url(#paint25_linear)"/>
<path d="M551.632 39.502H505.703V49.9163H551.632V39.502Z" fill="url(#paint26_linear)"/>
<path d="M597.561 78.6772H551.633V89.0916H597.561V78.6772Z" fill="url(#paint27_linear)"/>
<path d="M493.541 39.502H395.825V49.9163H493.541V39.502Z" fill="url(#paint28_linear)"/>
<path d="M381.953 39.502H348.31V49.9163H381.953V39.502Z" fill="url(#paint29_linear)"/>
<path d="M268.778 78.6772H235.135V89.0916H268.778V78.6772Z" fill="url(#paint30_linear)"/>
<path d="M275.49 236.438H241.847V246.852H275.49V236.438Z" fill="url(#paint31_linear)"/>
<path d="M335.494 39.502H276.914V49.9163H335.494V39.502Z" fill="url(#paint32_linear)"/>
<path d="M256.452 351.768C255.801 352.582 255.923 353.762 256.737 354.413C256.981 354.616 257.265 354.738 257.51 354.779C257.876 365.275 257.184 371.702 253.36 371.865C249.658 372.028 249.251 366.454 249.251 366.454C248.682 368.854 249.658 373.98 254.499 372.76C258.689 371.743 258.608 359.335 258.445 354.698C258.771 354.575 259.096 354.372 259.34 354.087C259.991 353.274 259.869 352.094 259.055 351.443C258.282 350.874 257.103 350.996 256.452 351.768Z" fill="#878787"/>
<path d="M415.229 371.743C417.141 380.082 416.816 399.528 416.816 399.528C417.345 417.956 415.27 436.873 414.782 447.409C414.782 447.735 414.741 448.06 414.741 448.385C414.619 450.867 414.457 453.511 414.253 456.196H552.039C551.999 453.674 551.958 451.03 551.917 448.385C551.633 432.805 551.389 415.719 551.389 403.514C582.876 395.215 616.885 384.354 616.234 376.421C615.583 368.244 591.052 247.991 584.177 243.069C579.499 239.692 550.127 227.936 534.913 222.159C527.875 219.474 522.505 217.603 521.407 217.521C517.908 217.318 476.942 220.45 476.942 220.45C476.942 220.45 468.806 223.542 462.541 226.43C451.802 231.353 435.041 239.082 423.04 244.777C419.176 246.608 414.294 249.13 410.266 251.246C410.755 265.85 411.609 281.472 412.87 298.232C412.789 298.273 415.026 334.804 415.229 371.743ZM551.755 385.655C553.463 362.752 560.338 323.414 561.111 320.647C561.152 320.647 564.366 323.698 564.366 323.698C564.366 323.698 565.423 323.861 565.423 323.82C565.423 323.78 566.4 324.187 566.4 324.187C566.4 324.187 587.269 353.314 587.473 368.976C587.595 376.462 571.322 381.791 551.755 385.655Z" fill="#323657"/>
<path d="M409.128 456.196H427.19C427.597 453.633 428.044 451.03 428.532 448.385C431.584 431.137 435.611 411.691 437.767 392.571C441.713 357.138 447.205 322.437 450.134 301.812C457.823 248.113 468.034 224.111 468.034 224.111C463.152 225.576 409.209 251.042 409.209 251.042C409.697 265.891 410.429 281.797 411.691 298.842C411.691 298.842 412.87 340.459 415.27 379.96C416.084 385.615 416.491 391.391 416.043 397.29C415.433 405.019 414.62 413.44 413.603 422.227C413.603 422.349 413.562 422.471 413.562 422.553C413.318 424.628 413.074 426.743 412.83 428.858C412.83 428.899 412.83 428.899 412.83 428.94C412.057 435.327 411.202 441.836 410.307 448.345C409.86 450.989 409.494 453.592 409.128 456.196Z" fill="#323657"/>
<path d="M460.751 396.802C464.86 406.484 478.976 430.364 478.976 430.364C478.976 430.364 489.187 427.842 504.239 423.977C505.215 432.52 506.232 440.534 507.168 448.385C507.493 450.989 507.819 453.593 508.104 456.196H561.762C561.111 453.552 560.501 450.948 559.931 448.385C556.636 433.862 554.358 420.316 554.032 410.471C590.035 400.179 625.305 388.666 624.776 383.174C623.963 375.038 596.91 248.927 590.076 244.045C586.13 241.197 556.799 230.824 542.398 225.129C539.753 224.071 530.804 220.735 528.444 219.799C525.393 223.217 504.361 246.445 496.916 334.194C495.981 345.097 497.893 365.03 500.049 385.005C478.244 390.781 460.059 395.175 460.751 396.802ZM558.914 365.478C561.07 347.985 563.552 330.411 565.301 324.268C565.301 324.268 571.362 336.513 570.915 354.494C570.793 358.114 566.196 361.816 558.914 365.478Z" fill="#323657"/>
<path d="M523.604 218.945C523.604 218.945 518.152 208.612 519.658 179.322C520.064 171.186 477.024 198.564 477.024 198.564C477.024 198.564 477.187 201.371 477.268 205.154C477.309 206.741 477.349 208.449 477.349 210.239C477.349 210.727 477.349 211.216 477.349 211.704C477.349 212.517 477.349 213.29 477.309 214.104C477.268 215.08 477.268 216.057 477.187 216.992C477.146 218.05 477.065 219.026 476.983 219.962C476.821 221.752 475.763 224.844 475.397 225.698C473.403 230.214 507.494 230.458 523.604 218.945Z" fill="#EEA987"/>
<path d="M318.287 411.61C318.287 411.61 344.444 386.225 361.612 381.994C369.545 380.042 380 369.098 389.926 356.203C393.18 351.972 396.394 347.497 399.486 343.103C411.69 325.488 421.209 308.647 421.209 308.647C421.209 308.647 457.212 266.42 428.329 247.625C428.329 247.625 415.921 247.34 409.127 251.042C402.13 254.826 387.241 285.947 384.719 291.439C382.196 296.93 354.818 348.107 352.987 349.246C351.157 350.385 348.106 354.616 337.163 360.515C323.738 367.715 302.706 388.869 302.706 388.869L318.287 411.61Z" fill="#323657"/>
<path d="M443.95 440.982C443.95 440.982 447.611 440.819 449.157 440.005C449.157 440.005 451.883 438.256 453.917 437.117C454.568 436.751 455.137 436.466 455.503 436.303C457.131 435.653 460.833 434.758 464.29 432.113C467.748 429.51 478.936 418.973 478.936 418.973L471.694 407.827L468.359 396.802C468.359 396.802 442.201 399.406 438.702 401.481C438.377 401.684 438.051 401.887 437.726 402.131C434.96 404.165 433.739 406.85 432.397 408.112C431.908 408.559 427.352 413.441 427.596 415.434C427.962 418.2 429.305 419.95 431.014 420.763C431.014 420.763 431.949 426.093 434.715 428.493C434.715 428.493 435.407 433.456 439.679 435.449C439.719 435.449 440.98 440.412 443.95 440.982Z" fill="#EFAA88"/>
<path d="M485.607 103.696C485.607 103.696 438.335 92.3054 448.262 152.147C458.228 212.029 469.578 216.87 498.38 204.951C527.183 193.031 525.189 154.71 526.898 135.997C528.606 117.283 500.74 104.55 485.607 103.696Z" fill="#EEA886"/>
<path d="M524.132 166.589C524.132 166.589 523.197 147.753 516.321 147.062C509.446 146.37 508.307 153.937 508.307 153.937L501.351 155.157C501.351 155.157 503.792 138.682 496.957 135.712C490.123 132.742 452.371 144.133 446.92 139.21C441.469 134.288 444.56 100.889 454.609 96.4547C464.616 92.0205 492.279 82.1757 512.253 96.0886C512.253 96.0886 527.997 94.5427 530.153 107.235C532.268 119.968 528.566 157.232 524.132 166.589Z" fill="#3A3F47"/>
<path d="M459.449 396.802L478.976 430.364C478.976 430.364 530.681 417.021 542.764 413.644L515.182 380.814C515.182 380.814 474.501 390.09 459.449 396.802Z" fill="#323657"/>
<path d="M477.187 216.911C502.572 214.307 512.376 194.78 512.376 194.78C496.429 210.605 477.309 210.158 477.309 210.158C477.309 210.646 477.309 211.134 477.309 211.622C477.309 212.436 477.309 213.209 477.268 214.022C477.268 215.039 477.227 216.016 477.187 216.911Z" fill="#A77860"/>
<path d="M511.968 148.323C511.968 148.323 499.276 150.601 494.028 150.967C488.78 151.333 475.478 153.286 470.352 154.303C465.226 155.32 450.784 155.523 447.774 157.273L449.36 165.124C449.36 165.124 453.835 174.725 464.087 170.372C474.339 166.019 478.61 171.267 488.577 167.28C498.584 163.293 514.857 152.676 514.857 152.676L511.968 148.323Z" fill="#16202E"/>
<path d="M510.463 145.15C511.155 139.902 521.61 138.112 522.342 146.004C523.074 153.896 517.297 167.687 513.351 166.263C509.405 164.88 509.487 152.391 510.463 145.15Z" fill="#EEA886"/>
<path d="M468.441 440.005H438.133V451.559H468.441V440.005Z" fill="#E6DFDD"/>
<path d="M570.753 451.314H222.524V459.125H570.753V451.314Z" fill="#FFC055"/>
<path d="M358.928 400.355C364.497 399.217 367.83 392.514 366.372 385.382C364.915 378.25 359.219 373.391 353.65 374.529C348.081 375.667 344.748 382.371 346.206 389.503C347.663 396.635 353.359 401.493 358.928 400.355Z" fill="#CFA345"/>
<path d="M208.775 6.10254C208.775 6.10254 412.749 335.74 445.416 441.999L451.193 437.361C451.233 437.402 408.844 314.749 208.775 6.10254Z" fill="#875835"/>
<path d="M410.774 385.684C417.971 379.934 419.144 369.438 413.394 362.241C407.644 355.044 397.149 353.871 389.952 359.621C382.755 365.371 381.582 375.867 387.331 383.064C393.081 390.261 403.577 391.434 410.774 385.684Z" fill="#5E8FDF"/>
<path d="M401.165 373.962L397.543 372.737L385.802 407.459L389.425 408.684L401.165 373.962Z" fill="#486EAB"/>
<path d="M391.395 412.787C394.01 410.697 394.437 406.883 392.347 404.267C390.257 401.652 386.443 401.225 383.828 403.315C381.212 405.405 380.786 409.219 382.875 411.834C384.965 414.45 388.779 414.876 391.395 412.787Z" fill="#5E8FDF"/>
<path d="M402.905 375.819C404.66 374.417 404.946 371.857 403.544 370.102C402.141 368.346 399.581 368.06 397.826 369.463C396.071 370.865 395.784 373.425 397.187 375.18C398.589 376.936 401.149 377.222 402.905 375.819Z" fill="#689FF7"/>
<path d="M440.208 323.333L453.998 451.559H272.48L258.649 323.333H440.208Z" fill="#E6DFDD"/>
<path d="M131.155 520.798L116.835 370.156C116.835 370.156 149.95 369.139 164.757 367.837L239 520.838L131.155 520.798Z" fill="#E2D2CA"/>
<path d="M239.001 520.798L219.148 371.051C219.148 371.051 155.767 364.176 116.795 370.115L239.001 520.798Z" fill="#E2D2CA"/>
<path d="M75.9917 159.511C75.9917 159.511 101.417 171.186 130.097 202.714L99.8714 228.017C99.8714 228.017 67.0419 190.916 44.3013 181.112L75.9917 159.511Z" fill="#EDE6E4"/>
<path d="M73.2664 105.445C73.2664 105.445 39.9081 108.578 2.23755 127.413L30.6735 162.805C30.6735 162.805 65.5777 142.668 99.4243 136.973L73.2664 105.445Z" fill="#F5EEEC"/>
<path d="M303.218 647.124H309.361V455.598H303.218V647.124Z" fill="#807066"/>
<path d="M70.4704 647.134L76.6132 647.134L76.6005 455.608L70.4577 455.608L70.4704 647.134Z" fill="#807066"/>
<path d="M118.626 641.173L136.892 519.577L133.352 519.049L115.087 640.644L118.626 641.173Z" fill="#5C5049"/>
<path d="M136.077 641.173L154.384 519.577L150.845 519.049L132.579 640.644L136.077 641.173Z" fill="#5C5049"/>
<path d="M255.842 641.173L259.341 640.644L241.075 519.049L237.536 519.577L255.842 641.173Z" fill="#5C5049"/>
<path d="M244.94 641.173L248.438 640.644L230.173 519.049L226.633 519.577L244.94 641.173Z" fill="#5C5049"/>
<path d="M131.172 520.812L239.017 520.81L239.017 508.158L131.172 508.161L131.172 520.812Z" fill="#C9BBB4"/>
<path d="M248.438 638.651C248.438 638.651 253.564 643.125 258.12 650.001C262.717 656.876 274.881 657.242 275.41 666.639C275.939 676.036 258.853 676.321 249.903 673.27C240.953 670.219 239.57 661.066 234.159 658.747C228.749 656.469 225.942 654.597 226.349 650.123C226.755 645.648 229.766 638.366 229.766 638.366C229.766 638.366 233.142 639.423 235.095 639.668C237.088 639.912 243.76 639.993 248.438 638.651Z" fill="#505459"/>
<path d="M122.327 633.077C122.327 633.077 117.608 638.284 114.842 641.417C112.076 644.549 101.417 650.204 101.377 659.56C101.295 669.69 109.228 668.836 116.266 668.47C123.304 668.103 129.04 663.222 132.009 657.486C134.979 651.75 142.871 650.244 143.441 645.607C144.01 640.969 139.78 632.63 139.78 632.63L122.327 633.077Z" fill="#505459"/>
<path d="M138.844 623.965L139.739 632.589C139.739 632.589 125.053 639.017 122.327 633.077L122.978 625.388L138.844 623.965Z" fill="#EEA886"/>
<path d="M247.624 632.426L248.438 638.691C248.438 638.691 239.57 641.824 229.765 638.406L229.562 632.833L247.624 632.426Z" fill="#EEA886"/>
<path d="M134.654 470.72C134.654 470.72 108.659 494.518 108.496 507.414C108.333 520.31 113.256 556.109 113.622 563.187C113.988 570.266 120.659 629.335 120.659 629.335C120.659 629.335 125.826 634.135 141.244 628.114C141.244 628.114 144.661 572.097 145.027 566.076C145.393 560.096 145.393 532.433 148.851 528.446C152.309 524.459 173.219 511.889 175.945 509.529C178.67 507.17 226.186 518.52 231.149 519.781C244.045 523.117 238.146 545.532 235.298 555.58C230.539 572.381 226.349 633.118 226.349 633.118C226.349 633.118 235.542 637.023 250.92 633.728C250.92 633.728 281.105 524.052 282.081 513.15C283.058 502.247 283.546 484.266 209.141 470.598L134.654 470.72Z" fill="#35385C"/>
<path d="M193.235 418.241C194.374 423.693 195.391 428.045 196.001 429.388C199.011 414.743 196.286 395.948 196.286 395.948C195.879 404.939 193.235 418.241 193.235 418.241Z" fill="#2F5485"/>
<path d="M41.2096 276.793C41.2096 276.793 38.8094 268.25 38.5653 267.152C38.3213 266.053 36.0431 263.816 33.2361 261.538C30.3885 259.219 25.5474 257.388 24.9372 257.551C24.327 257.754 23.6354 257.632 22.6591 258.934C21.6828 260.195 21.52 261.823 21.52 261.823C21.52 261.823 19.5673 262.84 19.5267 264.833C19.5267 264.833 17.7367 265.85 18.0622 268.169C18.0622 268.169 16.3129 269.227 16.7197 270.854C16.7197 270.854 18.9978 273.051 19.608 274.149C20.2182 275.207 25.2627 279.478 30.7546 282.855C30.7546 282.855 37.7517 288.021 41.2096 276.793Z" fill="#EEA886"/>
<path d="M30.7545 270.041C30.7545 270.041 29.7375 273.62 29.9409 274.8C30.1443 275.939 21.764 276.143 21.764 276.143C21.764 276.143 26.361 268.901 30.7545 270.041Z" fill="#CF8C6C"/>
<path d="M227.324 224.071C227.324 224.071 230.131 205.561 231.352 204.544C232.572 203.527 233.589 203.812 233.386 205.561C233.183 207.31 231.189 223.542 231.189 223.542C231.189 223.542 238.186 202.469 239 201.412C239.488 200.801 241.441 201.208 241.4 202.185C241.4 203.12 235.664 224.518 235.664 224.518C235.664 224.518 242.254 204.829 243.19 204.178C244.004 203.608 245.753 204.463 245.387 205.927C245.021 207.432 239.936 226.105 239.936 226.105C239.936 226.105 245.631 212.151 246.811 212.111C247.543 212.07 249.211 212.355 247.624 215.935C246.038 219.474 243.19 228.302 243.19 228.302L227.324 224.071Z" fill="#EEA886"/>
<path d="M227.447 246.079C227.447 246.079 227.976 239.896 224.925 237.902C222.321 236.194 220.043 232.207 219.351 230.946C218.416 229.278 213.738 225.169 215.69 224.112C217.643 223.054 223.704 230.539 225.291 231.882C226.837 233.224 226.552 224.274 227.813 222.688C229.034 221.101 243.76 222.484 243.272 228.587C242.784 234.689 238.187 240.587 238.309 241.726C238.431 242.866 238.105 246.201 238.105 246.201L227.447 246.079Z" fill="#EEA886"/>
<path d="M207.879 460.63L209.1 470.719C209.1 470.719 185.708 476.374 134.654 470.719L135.711 462.258L207.879 460.63Z" fill="#FF7E55"/>
<path d="M170.9 321.624C170.9 321.624 186.563 324.715 193.56 320.444C196.245 322.315 201.899 347.415 202.794 353.151C203.689 358.887 203.73 383.296 202.225 392.571C200.76 401.806 212.883 455.871 209.059 462.664C209.059 462.664 172.731 463.478 134.735 462.624C134.735 462.624 135.142 425.116 132.335 412.993C128.714 397.412 120.212 361.572 120.212 361.572C120.212 361.572 116.632 331.509 121.026 331.346C132.091 330.98 151.374 323.088 151.374 323.088L170.9 321.624Z" fill="#FF7E55"/>
<path d="M179.688 322.641C179.688 322.641 180.257 317.352 163.904 317.881C147.55 318.41 136.973 323.251 137.176 327.929C137.38 332.607 180.013 339.808 180.013 339.808L179.688 322.641Z" fill="#FF7E55"/>
<path d="M156.785 263.898C156.785 263.898 178.671 253.036 180.502 283.465C182.332 313.895 177.329 317.556 161.87 314.912C146.411 312.308 143.116 293.31 140.187 284.32C137.258 275.329 149.503 266.013 156.785 263.898Z" fill="#EEA987"/>
<path d="M175.172 326.017C175.172 326.017 169.965 329.028 151.333 323.088C151.333 323.088 150.519 310.843 145.8 299.819C141.081 288.794 171.267 312.43 171.267 312.43C170.982 312.674 171.063 313.813 171.389 315.359C171.673 316.701 172.162 318.329 172.772 319.956C174.236 323.699 173.952 323.048 175.172 326.017Z" fill="#EEA987"/>
<path d="M144.987 299.005C144.987 299.005 144.051 290.91 147.347 289.811C150.642 288.713 152.879 293.188 152.879 293.188L155.564 292.74C155.564 292.74 152.269 284.808 155.279 282.57C158.29 280.333 177.654 279.926 179.769 276.915C181.885 273.905 176.637 257.877 171.226 256.819C165.816 255.761 151.171 254.053 142.953 263.084C142.953 263.084 135.508 267.274 135.875 273.742C136.2 280.292 141.773 294.896 144.987 299.005Z" fill="#3A3F47"/>
<path d="M172.853 319.997C154.872 318.939 151.17 309.175 151.089 309.013C158.9 317.149 171.47 315.359 171.47 315.359C171.755 316.701 172.203 318.369 172.853 319.997Z" fill="#A77860"/>
<path d="M150.763 285.987C149.462 283.424 143.807 284.36 144.865 288.55C145.882 292.7 151.292 298.72 153.042 297.297C154.791 295.873 152.553 289.526 150.763 285.987Z" fill="#EEA987"/>
<path d="M243.719 296.849C247.381 287.37 241.807 238.716 241.807 238.716L225.494 241.97C225.494 241.97 225.21 253.036 226.43 273.173C226.796 279.315 223.42 290.259 222.972 291.235C222.525 292.211 205.764 312.999 199.052 316.783C195.919 318.532 189.166 323.088 184.773 328.58C180.42 334.072 183.512 340.622 183.512 340.622C195.309 352.866 212.599 333.462 212.599 333.462C212.599 333.462 238.594 310.111 243.719 296.849Z" fill="#FF7E55"/>
<path d="M220.572 323.902C220.572 323.902 201.859 348.432 203.405 361.491C204.178 368.041 193.397 341.639 193.397 341.639L220.572 323.902Z" fill="#FF7E55"/>
<path d="M63.0554 325.651C56.4244 317.963 23.8796 285.377 23.8796 285.377L41.7386 276.021C41.7386 276.021 50.1188 285.296 65.903 301.121C70.2559 305.514 79.938 312.552 80.6702 313.325C81.4025 314.098 104.387 327.238 111.791 329.313C114.72 330.126 121.717 332.323 129.447 331.387C136.403 330.533 134.45 346.48 134.45 346.48C127.453 361.979 104.631 349.572 104.631 349.572C104.631 349.572 72.3713 336.432 63.0554 325.651Z" fill="#FF7E55"/>
<path d="M93.9729 343.266C93.9729 343.266 119.887 360.027 122.856 372.841C124.362 379.269 125.582 350.792 125.582 350.792L93.9729 343.266Z" fill="#FF7E55"/>
<path d="M27.9073 254.582V242.296C27.9073 242.296 29.3718 244.574 30.7142 244.411C32.0567 244.249 34.5789 245.062 34.5789 245.062V250.31L41.2099 253.28L48.5325 260.684L32.4228 268.25L21.7238 271.83L27.9073 254.582Z" fill="#F5EEEC"/>
<path d="M18.8353 270.935L1.74928 282.57L0 286.923L3.70196 290.096L6.63099 297.256L13.0586 298.191C13.0586 298.191 19.893 276.631 24.612 272.074C29.2903 267.518 18.8353 270.935 18.8353 270.935Z" fill="#F5EEEC"/>
<path d="M6.5907 297.256L24.3276 267.355L27.0939 268.657L13.0183 298.151L6.5907 297.256Z" fill="#E0DAD8"/>
<path d="M48.5321 260.684L41.2095 253.28L23.1472 269.145L24.1642 271.79C24.2049 271.83 41.6164 265.159 48.5321 260.684Z" fill="#E0DAD8"/>
<path d="M25.7104 258.121C25.7104 258.121 32.7482 264.142 31.9346 265.403C31.121 266.664 30.0226 266.623 30.0226 266.623L31.8126 270.406C31.8126 270.406 31.5685 273.58 28.1919 272.4C28.1919 272.4 28.2733 275.37 25.1409 273.864C25.1409 273.864 24.3273 275.858 22.7407 275.41C21.1541 274.963 16.8013 270.895 16.8013 270.895C16.8013 270.895 15.947 269.634 17.8183 268.21C17.8183 268.21 17.4929 265.891 19.4049 264.752C19.4049 264.752 19.2421 263.003 21.3169 261.782C21.3169 261.782 21.6423 257.795 24.9782 257.551C24.9375 257.551 25.385 257.877 25.7104 258.121Z" fill="#DB9C7C"/>
<path d="M38.4839 267.233C38.4839 267.233 33.7649 262.962 30.185 261.782C29.3714 261.497 28.5171 261.416 27.9882 262.067C27.4187 262.718 27.6628 264.345 29.6155 266.298C31.5681 268.25 33.1954 271.668 33.1954 271.668C33.1954 271.668 35.7583 273.091 38.4839 267.233Z" fill="#EEA886"/>
<path d="M145.084 454.08L159.566 454.08L159.566 448.588L145.084 448.589L145.084 454.08Z" fill="#F5EEEC"/>
<path d="M70.4493 462.44L309.328 462.435L309.327 454.095L70.4491 454.1L70.4493 462.44Z" fill="#BC8551"/>
<path d="M140.309 210.931L134.735 178.387L146.695 176.353L152.269 208.897L140.309 210.931ZM143.929 232.045L141.814 219.637L153.774 217.562L155.889 229.97L143.929 232.045Z" fill="url(#paint33_linear)"/>
<path d="M106.217 214.389L89.2534 186.075L99.6677 179.851L116.632 208.165L106.217 214.389ZM117.242 232.777L110.733 221.956L121.147 215.732L127.615 226.553L117.242 232.777Z" fill="url(#paint34_linear)"/>
<path d="M274.921 358.562V404.45H207.879V358.562H256.696H274.921Z" fill="#FFC655"/>
<path d="M274.922 404.45L241.4 378.78L207.879 404.45H274.922Z" fill="#FFBC55"/>
<path d="M274.921 358.562L246.567 382.767L241.4 387.161L236.234 382.726L207.879 358.562H256.696H274.921Z" fill="#FFA655"/>
<path d="M259.288 454.085L304.566 454.084L304.564 395.992L259.286 395.993L259.288 454.085Z" fill="#FFF7F5"/>
<path d="M270.446 435.693C270.446 435.693 261.659 435.734 257.632 438.378C257.632 438.378 257.347 437.036 259.3 435.693H270.446Z" fill="#DED7D5"/>
<path d="M301.933 419.706C301.933 419.706 260.886 422.553 254.459 426.662C254.459 426.662 255.842 421.821 258.527 419.706H301.933Z" fill="#DED7D5"/>
<path d="M258.461 419.694L306.098 419.692L306.098 406.471L258.46 406.472L258.461 419.694Z" fill="#FFF7F5"/>
<path d="M279.6 448.467C279.6 448.467 262.961 448.996 256.574 453.104C256.574 453.104 257.551 450.419 259.259 448.467H279.6Z" fill="#DED7D5"/>
<path d="M257.565 448.451L295.927 448.45L295.927 440.07L257.565 440.071L257.565 448.451Z" fill="#FFF7F5"/>
<path d="M258.365 352.623L257.144 352.298C272.074 298.924 249.334 267.193 222.972 230.458C202.469 201.859 179.24 169.437 173.301 122.044C166.426 67.165 176.311 38.4442 185.831 24.0025C196.245 8.2183 208.124 5.61472 208.612 5.49268L208.856 6.7131C208.734 6.75378 196.896 9.39804 186.766 24.7754C177.41 39.0544 167.687 67.4904 174.481 121.881C180.379 168.949 202.51 199.825 223.949 229.685C250.554 266.705 273.457 298.68 258.365 352.623Z" fill="#878787"/>
<path d="M158.574 392.815L151.984 454.081H238.716L245.306 392.815H158.574Z" fill="#F5EEEC"/>
<path d="M207.898 427.341C209.466 423.298 208.07 418.987 204.782 417.711C201.493 416.436 197.556 418.68 195.988 422.723C194.421 426.766 195.816 431.078 199.105 432.353C202.394 433.628 206.331 431.384 207.898 427.341Z" fill="#DED7D5"/>
<path d="M256.696 380.164C256.127 381.547 255.394 382.523 254.377 382.767C249.74 383.906 248.804 379.065 249.374 376.747C249.374 376.747 249.78 382.035 253.279 381.872C254.459 381.791 255.313 381.14 255.923 379.96C256.127 380.082 256.411 380.123 256.696 380.164Z" fill="#878787"/>
<path d="M378.576 600.085C372.84 573.805 385.248 567.215 397.289 560.909C407.094 555.743 416.409 550.82 415.881 535.321C415.23 514.777 429.224 507.292 441.55 500.701C450.744 495.779 459.409 491.182 460.711 481.825C463.843 459.329 484.55 431.381 484.794 431.096L486.096 432.073C485.892 432.357 465.389 459.98 462.338 482.029C460.914 492.199 451.924 496.999 442.364 502.125C429.834 508.797 416.898 515.713 417.549 535.28C418.077 551.797 407.907 557.126 398.103 562.333C386.102 568.679 374.752 574.659 380.244 599.759L378.576 600.085Z" fill="url(#paint35_linear)"/>
<path d="M384.882 593.373C384.597 593.373 384.312 593.373 384.068 593.332C378.861 592.966 373.776 588.979 368.04 580.884L367.674 580.395L368.08 579.907C368.162 579.785 377.396 568.598 373.979 547.525C373.206 542.603 372.149 538.86 371.294 535.809C370.074 531.416 369.26 528.487 370.603 526.168C372.352 523.198 377.03 521.693 390.252 518.52C404.327 515.184 409.046 499.318 413.196 485.324C417.101 472.143 420.803 459.736 431.746 460.102C441.794 460.468 457.09 444.725 470.596 430.812C483.126 417.916 494.924 405.752 502.45 405.996C504.28 406.078 505.785 406.81 507.006 408.274C513.718 416.289 507.453 428.452 501.392 440.209C496.225 450.257 491.303 459.736 494.476 465.96C498.422 473.811 498.992 480.931 496.063 486.504C492.605 493.135 484.591 497.366 472.183 499.196C460.874 500.824 459.613 513.191 458.351 526.29C456.846 541.545 455.138 558.835 436.099 560.502C421.983 561.723 412.463 571.649 404.083 580.395C397.411 587.311 391.594 593.373 384.882 593.373ZM369.667 580.477C374.915 587.718 379.634 591.42 384.149 591.745C390.455 592.234 396.232 586.213 402.903 579.256C411.487 570.307 421.25 560.177 435.936 558.875C453.632 557.329 455.178 541.464 456.724 526.127C458.067 512.418 459.368 499.44 471.939 497.61C483.777 495.901 491.425 491.914 494.598 485.772C497.242 480.646 496.714 474.055 492.971 466.692C489.432 459.695 494.517 449.891 499.887 439.477C505.704 428.167 511.766 416.492 505.704 409.291C504.809 408.193 503.67 407.664 502.328 407.624C495.493 407.379 483.94 419.299 471.654 431.951C457.456 446.596 442.771 461.729 432.031 461.729C431.909 461.729 431.746 461.729 431.624 461.729C421.901 461.363 418.565 472.713 414.66 485.812C410.389 500.213 405.548 516.567 390.577 520.106C378.617 522.954 373.41 524.541 371.945 526.981C370.928 528.731 371.62 531.212 372.799 535.362C373.654 538.413 374.711 542.237 375.525 547.24C378.698 566.849 371.498 577.995 369.667 580.477Z" fill="url(#paint36_linear)"/>
<path d="M385.451 587.84C385.248 587.84 385.085 587.84 384.882 587.799C376.339 587.026 369.789 568.354 363.443 550.291C360.432 541.708 357.585 533.612 354.818 528.446C352.662 524.418 349.937 520.228 347.292 516.16C340.255 505.339 333.013 494.152 335.373 484.307C336.634 479.14 340.336 474.828 346.723 471.167C360.676 463.112 358.561 458.556 353.842 448.589C350.384 441.266 345.665 431.259 345.462 415.515C345.38 408.762 345.218 402.904 345.096 397.738C344.648 381.14 344.445 372.8 347.984 369.79C349.448 368.529 351.523 368.203 354.452 368.773C359.497 369.749 361.653 373.777 363.972 378.089C366.901 383.581 370.236 389.805 380.285 391.88C389.723 393.873 398.794 396.558 401.276 402.823C403.025 407.216 401.357 413.034 396.191 420.519C394.93 422.35 394.482 423.896 394.889 425.238C395.703 428.249 400.422 430.445 405.832 433.008C413.562 436.629 423.203 441.104 425.929 450.42C428.125 457.905 425.603 467.302 418.158 479.018C400.584 506.803 401.276 525.679 401.886 542.318C402.334 554.644 402.781 566.279 395.337 579.297C392.123 585.073 388.868 587.84 385.451 587.84ZM351.971 370.115C350.71 370.115 349.774 370.4 349.082 371.01C346.113 373.533 346.357 382.116 346.764 397.697C346.886 402.864 347.048 408.722 347.13 415.515C347.292 430.933 351.971 440.738 355.347 447.938C360.025 457.824 362.832 463.804 347.577 472.591C341.597 476.049 338.139 479.995 337 484.714C334.803 493.867 341.882 504.769 348.716 515.306C351.36 519.414 354.127 523.645 356.283 527.713C359.09 533.002 361.978 541.179 364.989 549.803C370.887 566.564 377.559 585.562 385.044 586.253C387.892 586.497 390.902 583.934 393.994 578.524C401.195 565.913 400.788 555.01 400.3 542.399C399.649 525.517 398.957 506.397 416.816 478.205C423.976 466.855 426.457 457.946 424.423 450.908C421.901 442.283 413.033 438.134 405.181 434.513C399.364 431.788 394.36 429.469 393.343 425.726C392.855 423.896 393.343 421.902 394.889 419.665C399.73 412.627 401.357 407.339 399.811 403.474C397.574 397.901 388.543 395.297 379.959 393.507C369.179 391.27 365.517 384.394 362.548 378.903C360.351 374.794 358.439 371.214 354.167 370.4C353.354 370.197 352.622 370.115 351.971 370.115Z" fill="url(#paint37_linear)"/>
<path d="M385.655 597.847L384.109 597.359C392.692 570.184 377.152 509.244 372.515 494.396C370.237 487.114 372.352 476.13 374.386 465.512C377.03 451.803 379.756 437.605 372.8 432.317C359.782 422.35 360.473 399.243 360.514 398.267L362.141 398.307C362.141 398.551 361.45 421.577 373.817 431.055C381.546 436.995 378.739 451.64 376.013 465.838C374.02 476.252 371.945 487.032 374.101 493.948C379.797 512.255 394.198 570.713 385.655 597.847Z" fill="url(#paint38_linear)"/>
<path d="M320.606 421.374C317.026 412.302 303.032 413.685 304.334 426.5C305.635 439.314 314.626 453.064 300.916 474.869C287.207 496.715 318.491 500.986 329.596 514.696C340.743 528.405 344.567 547.24 354.005 559.241C363.443 571.242 369.83 599.922 377.559 589.223C385.248 578.524 378.007 564.611 378.861 545.328C379.715 526.046 396.883 513.882 379.715 501.434C362.548 489.026 345.299 485.202 350.995 457.214C353.476 444.847 331.752 449.606 320.606 421.374Z" fill="url(#paint39_linear)"/>
<path d="M390.048 591.664C389.966 591.095 380.447 534.67 359.13 519.211C337.407 503.427 333.461 488.863 325.853 454.529L327.44 454.163C334.925 488.09 338.831 502.492 360.107 517.91C381.952 533.775 391.309 589.061 391.675 591.42L390.048 591.664Z" fill="white"/>
<path d="M370.806 589.63C370.806 589.63 377.153 573.968 365.599 551.715C354.086 529.463 344.73 532.88 372.515 515.753C400.3 498.627 372.678 444.684 396.354 437.809C420.03 430.974 440.574 343.632 458.555 354.738C476.536 365.844 452.575 408.681 465.389 421.536C478.204 434.391 479.953 450.745 453.389 463.966C426.824 477.188 472.224 527.713 436.262 543.132C400.341 558.55 410.674 619.001 370.806 589.63Z" fill="url(#paint40_linear)"/>
<path d="M381.789 606.268C381.749 606.065 377.884 586.009 390.088 560.095C402.537 533.693 408.476 504.851 406.035 482.883C404.693 471.004 412.3 466.366 419.663 461.851C426.905 457.417 434.39 452.86 433.983 441.144C433.617 430.567 438.092 405.752 438.295 404.735L439.882 405.02C439.841 405.264 435.244 430.689 435.61 441.104C436.058 453.755 428.166 458.596 420.518 463.234C413.277 467.668 406.401 471.858 407.622 482.72C410.103 504.932 404.123 534.141 391.553 560.787C379.593 586.172 383.335 605.78 383.376 605.943L381.789 606.268Z" fill="white"/>
<path d="M410.877 495.576C418.973 488.09 429.631 486.992 427.394 498.139C425.156 509.285 417.549 512.458 421.332 519.455C425.156 526.453 431.502 533.45 420.681 542.033C409.86 550.617 403.839 551.593 400.666 567.784C397.493 584.016 398.103 595.081 384.15 595.773C370.156 596.464 375.566 576.043 380 566.849C380 566.849 386.672 556.312 382.238 542.521C377.804 528.69 369.22 521.245 387.323 516.526C405.467 511.807 405.426 500.661 410.877 495.576Z" fill="white"/>
<path d="M385.167 606.106C385.126 604.112 384.15 557.41 392.896 549.559C401.805 541.545 403.554 527.347 403.758 519.577C404.043 509.488 417.101 503.508 417.63 503.264L418.281 504.729C418.159 504.769 405.588 510.546 405.344 519.659C405.06 529.422 402.863 542.765 393.954 550.78C385.777 558.143 386.753 605.617 386.753 606.106H385.167Z" fill="url(#paint41_linear)"/>
<path d="M417.996 587.067L403.473 642.027H371.091L356.608 587.067H417.996Z" fill="url(#paint42_linear)"/>
<path d="M417.996 587.067C417.996 587.067 386.102 593.047 386.102 642.068H371.132L356.649 587.067H417.996Z" fill="url(#paint43_linear)"/>
<defs>
<linearGradient id="paint0_linear" x1="384.422" y1="456.802" x2="211.342" y2="30.6093" gradientUnits="userSpaceOnUse">
<stop stop-color="#D9D9D9"/>
<stop offset="0.3221" stop-color="#E5E5E5"/>
<stop offset="1" stop-color="white"/>
</linearGradient>
<linearGradient id="paint1_linear" x1="456.593" y1="427.494" x2="283.513" y2="1.30116" gradientUnits="userSpaceOnUse">
<stop stop-color="#D9D9D9"/>
<stop offset="0.3221" stop-color="#E5E5E5"/>
<stop offset="1" stop-color="white"/>
</linearGradient>
<linearGradient id="paint2_linear" x1="518.763" y1="402.252" x2="345.68" y2="-23.947" gradientUnits="userSpaceOnUse">
<stop stop-color="#D9D9D9"/>
<stop offset="0.3221" stop-color="#E5E5E5"/>
<stop offset="1" stop-color="white"/>
</linearGradient>
<linearGradient id="paint3_linear" x1="598.329" y1="369.934" x2="425.25" y2="-56.2583" gradientUnits="userSpaceOnUse">
<stop stop-color="#D9D9D9"/>
<stop offset="0.3221" stop-color="#E5E5E5"/>
<stop offset="1" stop-color="white"/>
</linearGradient>
<linearGradient id="paint4_linear" x1="292.032" y1="494.334" x2="118.952" y2="68.1401" gradientUnits="userSpaceOnUse">
<stop stop-color="#D9D9D9"/>
<stop offset="0.3221" stop-color="#E5E5E5"/>
<stop offset="1" stop-color="white"/>
</linearGradient>
<linearGradient id="paint5_linear" x1="475.922" y1="419.639" x2="302.842" y2="-6.55336" gradientUnits="userSpaceOnUse">
<stop stop-color="#D9D9D9"/>
<stop offset="0.3221" stop-color="#E5E5E5"/>
<stop offset="1" stop-color="white"/>
</linearGradient>
<linearGradient id="paint6_linear" x1="434.979" y1="436.275" x2="261.899" y2="10.0809" gradientUnits="userSpaceOnUse">
<stop stop-color="#D9D9D9"/>
<stop offset="0.3221" stop-color="#E5E5E5"/>
<stop offset="1" stop-color="white"/>
</linearGradient>
<linearGradient id="paint7_linear" x1="372.661" y1="461.586" x2="199.581" y2="35.3932" gradientUnits="userSpaceOnUse">
<stop stop-color="#D9D9D9"/>
<stop offset="0.3221" stop-color="#E5E5E5"/>
<stop offset="1" stop-color="white"/>
</linearGradient>
<linearGradient id="paint8_linear" x1="348.843" y1="471.258" x2="175.764" y2="45.0671" gradientUnits="userSpaceOnUse">
<stop stop-color="#D9D9D9"/>
<stop offset="0.3221" stop-color="#E5E5E5"/>
<stop offset="1" stop-color="white"/>
</linearGradient>
<linearGradient id="paint9_linear" x1="428.523" y1="438.899" x2="255.445" y2="12.709" gradientUnits="userSpaceOnUse">
<stop stop-color="#D9D9D9"/>
<stop offset="0.3221" stop-color="#E5E5E5"/>
<stop offset="1" stop-color="white"/>
</linearGradient>
<linearGradient id="paint10_linear" x1="318.073" y1="483.758" x2="144.991" y2="57.5592" gradientUnits="userSpaceOnUse">
<stop stop-color="#D9D9D9"/>
<stop offset="0.3221" stop-color="#E5E5E5"/>
<stop offset="1" stop-color="white"/>
</linearGradient>
<linearGradient id="paint11_linear" x1="291.74" y1="494.454" x2="118.658" y2="68.2546" gradientUnits="userSpaceOnUse">
<stop stop-color="#D9D9D9"/>
<stop offset="0.3221" stop-color="#E5E5E5"/>
<stop offset="1" stop-color="white"/>
</linearGradient>
<linearGradient id="paint12_linear" x1="415.576" y1="444.161" x2="242.494" y2="17.9632" gradientUnits="userSpaceOnUse">
<stop stop-color="#D9D9D9"/>
<stop offset="0.3221" stop-color="#E5E5E5"/>
<stop offset="1" stop-color="white"/>
</linearGradient>
<linearGradient id="paint13_linear" x1="345.221" y1="472.726" x2="172.139" y2="46.5296" gradientUnits="userSpaceOnUse">
<stop stop-color="#D9D9D9"/>
<stop offset="0.3221" stop-color="#E5E5E5"/>
<stop offset="1" stop-color="white"/>
</linearGradient>
<linearGradient id="paint14_linear" x1="344.74" y1="472.919" x2="171.661" y2="46.73" gradientUnits="userSpaceOnUse">
<stop stop-color="#D9D9D9"/>
<stop offset="0.3221" stop-color="#E5E5E5"/>
<stop offset="1" stop-color="white"/>
</linearGradient>
<linearGradient id="paint15_linear" x1="562.961" y1="384.294" x2="389.881" y2="-41.8996" gradientUnits="userSpaceOnUse">
<stop stop-color="#D9D9D9"/>
<stop offset="0.3221" stop-color="#E5E5E5"/>
<stop offset="1" stop-color="white"/>
</linearGradient>
<linearGradient id="paint16_linear" x1="746.198" y1="309.882" x2="573.118" y2="-116.311" gradientUnits="userSpaceOnUse">
<stop stop-color="#D9D9D9"/>
<stop offset="0.3221" stop-color="#E5E5E5"/>
<stop offset="1" stop-color="white"/>
</linearGradient>
<linearGradient id="paint17_linear" x1="629.885" y1="357.12" x2="456.806" y2="-69.0721" gradientUnits="userSpaceOnUse">
<stop stop-color="#D9D9D9"/>
<stop offset="0.3221" stop-color="#E5E5E5"/>
<stop offset="1" stop-color="white"/>
</linearGradient>
<linearGradient id="paint18_linear" x1="700.138" y1="328.583" x2="527.059" y2="-97.6089" gradientUnits="userSpaceOnUse">
<stop stop-color="#D9D9D9"/>
<stop offset="0.3221" stop-color="#E5E5E5"/>
<stop offset="1" stop-color="white"/>
</linearGradient>
<linearGradient id="paint19_linear" x1="552.908" y1="388.384" x2="379.828" y2="-37.8105" gradientUnits="userSpaceOnUse">
<stop stop-color="#D9D9D9"/>
<stop offset="0.3221" stop-color="#E5E5E5"/>
<stop offset="1" stop-color="white"/>
</linearGradient>
<linearGradient id="paint20_linear" x1="631.402" y1="356.501" x2="458.322" y2="-69.6934" gradientUnits="userSpaceOnUse">
<stop stop-color="#D9D9D9"/>
<stop offset="0.3221" stop-color="#E5E5E5"/>
<stop offset="1" stop-color="white"/>
</linearGradient>
<linearGradient id="paint21_linear" x1="497.022" y1="411.08" x2="323.942" y2="-15.115" gradientUnits="userSpaceOnUse">
<stop stop-color="#D9D9D9"/>
<stop offset="0.3221" stop-color="#E5E5E5"/>
<stop offset="1" stop-color="white"/>
</linearGradient>
<linearGradient id="paint22_linear" x1="349.758" y1="470.881" x2="176.678" y2="44.6882" gradientUnits="userSpaceOnUse">
<stop stop-color="#D9D9D9"/>
<stop offset="0.3221" stop-color="#E5E5E5"/>
<stop offset="1" stop-color="white"/>
</linearGradient>
<linearGradient id="paint23_linear" x1="396.848" y1="451.768" x2="223.767" y2="25.5708" gradientUnits="userSpaceOnUse">
<stop stop-color="#D9D9D9"/>
<stop offset="0.3221" stop-color="#E5E5E5"/>
<stop offset="1" stop-color="white"/>
</linearGradient>
<linearGradient id="paint24_linear" x1="390.716" y1="454.264" x2="217.63" y2="28.0561" gradientUnits="userSpaceOnUse">
<stop stop-color="#D9D9D9"/>
<stop offset="0.3221" stop-color="#E5E5E5"/>
<stop offset="1" stop-color="white"/>
</linearGradient>
<linearGradient id="paint25_linear" x1="743.004" y1="311.176" x2="569.926" y2="-115.013" gradientUnits="userSpaceOnUse">
<stop stop-color="#D9D9D9"/>
<stop offset="0.3221" stop-color="#E5E5E5"/>
<stop offset="1" stop-color="white"/>
</linearGradient>
<linearGradient id="paint26_linear" x1="651.899" y1="348.179" x2="478.819" y2="-78.0161" gradientUnits="userSpaceOnUse">
<stop stop-color="#D9D9D9"/>
<stop offset="0.3221" stop-color="#E5E5E5"/>
<stop offset="1" stop-color="white"/>
</linearGradient>
<linearGradient id="paint27_linear" x1="677.681" y1="337.713" x2="504.599" y2="-88.4845" gradientUnits="userSpaceOnUse">
<stop stop-color="#D9D9D9"/>
<stop offset="0.3221" stop-color="#E5E5E5"/>
<stop offset="1" stop-color="white"/>
</linearGradient>
<linearGradient id="paint28_linear" x1="579.803" y1="377.457" x2="406.723" y2="-48.7357" gradientUnits="userSpaceOnUse">
<stop stop-color="#D9D9D9"/>
<stop offset="0.3221" stop-color="#E5E5E5"/>
<stop offset="1" stop-color="white"/>
</linearGradient>
<linearGradient id="paint29_linear" x1="511.523" y1="405.188" x2="338.443" y2="-21.0063" gradientUnits="userSpaceOnUse">
<stop stop-color="#D9D9D9"/>
<stop offset="0.3221" stop-color="#E5E5E5"/>
<stop offset="1" stop-color="white"/>
</linearGradient>
<linearGradient id="paint30_linear" x1="400.72" y1="450.189" x2="227.64" y2="23.9945" gradientUnits="userSpaceOnUse">
<stop stop-color="#D9D9D9"/>
<stop offset="0.3221" stop-color="#E5E5E5"/>
<stop offset="1" stop-color="white"/>
</linearGradient>
<linearGradient id="paint31_linear" x1="351.478" y1="470.191" x2="178.398" y2="43.9978" gradientUnits="userSpaceOnUse">
<stop stop-color="#D9D9D9"/>
<stop offset="0.3221" stop-color="#E5E5E5"/>
<stop offset="1" stop-color="white"/>
</linearGradient>
<linearGradient id="paint32_linear" x1="460.935" y1="425.729" x2="287.856" y2="-0.463295" gradientUnits="userSpaceOnUse">
<stop stop-color="#D9D9D9"/>
<stop offset="0.3221" stop-color="#E5E5E5"/>
<stop offset="1" stop-color="white"/>
</linearGradient>
<linearGradient id="paint33_linear" x1="156.6" y1="219.93" x2="57.0424" y2="81.3304" gradientUnits="userSpaceOnUse">
<stop stop-color="#FF9F55"/>
<stop offset="1" stop-color="#FFD255"/>
</linearGradient>
<linearGradient id="paint34_linear" x1="131.302" y1="238.103" x2="31.7439" y2="99.5026" gradientUnits="userSpaceOnUse">
<stop stop-color="#FF9F55"/>
<stop offset="1" stop-color="#FFD255"/>
</linearGradient>
<linearGradient id="paint35_linear" x1="377.12" y1="515.578" x2="486.058" y2="515.578" gradientUnits="userSpaceOnUse">
<stop stop-color="#3076A1"/>
<stop offset="1" stop-color="#639C38"/>
</linearGradient>
<linearGradient id="paint36_linear" x1="367.655" y1="499.696" x2="509.893" y2="499.696" gradientUnits="userSpaceOnUse">
<stop stop-color="#3076A1"/>
<stop offset="1" stop-color="#639C38"/>
</linearGradient>
<linearGradient id="paint37_linear" x1="334.973" y1="478.177" x2="426.721" y2="478.177" gradientUnits="userSpaceOnUse">
<stop stop-color="#3076A1"/>
<stop offset="1" stop-color="#639C38"/>
</linearGradient>
<linearGradient id="paint38_linear" x1="360.473" y1="498.017" x2="388.295" y2="498.017" gradientUnits="userSpaceOnUse">
<stop stop-color="#3076A1"/>
<stop offset="1" stop-color="#639C38"/>
</linearGradient>
<linearGradient id="paint39_linear" x1="297.515" y1="503.531" x2="387.321" y2="503.531" gradientUnits="userSpaceOnUse">
<stop stop-color="#3076A1"/>
<stop offset="1" stop-color="#639C38"/>
</linearGradient>
<linearGradient id="paint40_linear" x1="357.646" y1="707.006" x2="433.205" y2="413.169" gradientUnits="userSpaceOnUse">
<stop stop-color="#3076A1"/>
<stop offset="1" stop-color="#639C38"/>
</linearGradient>
<linearGradient id="paint41_linear" x1="385.113" y1="554.688" x2="418.312" y2="554.688" gradientUnits="userSpaceOnUse">
<stop stop-color="#3076A1"/>
<stop offset="1" stop-color="#639C38"/>
</linearGradient>
<linearGradient id="paint42_linear" x1="356.604" y1="614.547" x2="417.982" y2="614.547" gradientUnits="userSpaceOnUse">
<stop stop-color="#FF9340"/>
<stop offset="1" stop-color="#FFCE45"/>
</linearGradient>
<linearGradient id="paint43_linear" x1="356.604" y1="614.547" x2="417.983" y2="614.547" gradientUnits="userSpaceOnUse">
<stop stop-color="#C97332"/>
<stop offset="1" stop-color="#FFCE45"/>
</linearGradient>
</defs>
</svg>
