<svg width="528" height="549" viewBox="0 0 528 549" fill="none" xmlns="http://www.w3.org/2000/svg">
<path d="M528 351.09C528 468.491 435.689 549.161 318.246 549C201.127 548.839 105.654 470.752 106.139 353.674C106.139 352.866 106.139 352.059 106.139 351.09C106.946 304.097 85.2994 259.688 48.6288 230.297C18.7432 206.397 -0.319045 169.577 0.00404358 128.237C0.488676 56.6974 59.937 -1.11511 131.501 0.0153198C143.94 0.176819 156.056 2.27618 167.364 5.66742C204.196 16.9716 242.967 21.0088 281.253 17.9406C284.807 17.6176 288.522 17.4561 292.238 17.4561C348.94 17.4561 397.08 54.1136 414.527 104.659C428.258 144.547 448.935 181.689 477.044 213.018C510.484 250.644 528 296.668 528 351.09Z" fill="url(#paint0_linear)"/>
<defs>
<linearGradient id="paint0_linear" x1="114.996" y1="118.923" x2="580.395" y2="584.484" gradientUnits="userSpaceOnUse">
<stop stop-color="#00BAAE"/>
<stop offset="1" stop-color="#F6FF00"/>
</linearGradient>
</defs>
</svg>
