<svg width="438" height="369" viewBox="0 0 438 369" fill="none" xmlns="http://www.w3.org/2000/svg">
<path d="M420.732 246.425C418.798 219.357 442.121 180.576 423.008 155.442C403.325 129.625 377.386 150.438 351.901 143.955C307.645 132.81 318.681 103.013 313.561 67.5297C306.052 16.1244 244.958 -32.7788 210.03 28.6345C178.175 84.7027 197.061 137.245 127.775 168.293C78.171 190.584 10.1366 213.33 1.14875 277.7C-12.0486 372.663 91.7096 351.168 145.978 335.588C216.515 315.344 270.556 361.859 340.752 367.773C369.991 370.275 410.607 371.64 429.72 343.776C451.791 311.591 423.008 279.633 420.732 246.425Z" fill="url(#paint0_linear)"/>
<defs>
<linearGradient id="paint0_linear" x1="88.7433" y1="113.141" x2="443.371" y2="467.897" gradientUnits="userSpaceOnUse">
<stop stop-color="#00F7E7"/>
<stop offset="1" stop-color="#1B0052"/>
</linearGradient>
</defs>
</svg>
