<svg width="401" height="653" viewBox="0 0 401 653" fill="none" xmlns="http://www.w3.org/2000/svg">
<path d="M58.9069 612.212C95.9598 605.946 152.518 632.904 184.621 603.236C217.59 572.695 185.452 539.742 190.999 503.783C200.477 441.352 243.017 452.584 291.247 440.81C361.106 423.628 420.391 332.982 331.093 293.056C249.572 256.648 179.658 289.65 127.648 198.365C90.326 133.02 49.9261 42.3532 -39.9979 38.5431C-172.651 33.0077 -129.225 173.038 -100.532 245.7C-63.2485 340.147 -120.179 420.76 -118.996 518.218C-118.557 558.818 -115.038 614.934 -74.0885 637.547C-26.7892 663.659 13.4342 619.766 58.9069 612.212Z" fill="url(#paint0_linear)"/>
<defs>
<linearGradient id="paint0_linear" x1="331.559" y1="534.705" x2="-165.043" y2="148.895" gradientUnits="userSpaceOnUse">
<stop stop-color="#00A1FF"/>
<stop offset="1"/>
</linearGradient>
</defs>
</svg>
