<svg width="591" height="980" viewBox="0 0 591 980" fill="none" xmlns="http://www.w3.org/2000/svg">
<path d="M319.279 179.978C426.042 73.2141 583.35 83.8003 690.004 190.748C796.365 297.402 812.175 455.235 705.265 561.264C704.53 561.999 703.796 562.733 702.915 563.614C659.446 605.615 638.746 665.685 645.366 725.761C650.809 774.673 634.661 825.491 596.772 862.792C531.275 927.408 424.639 925.921 360.587 859.813C349.422 848.355 340.313 835.427 333.114 822.06C309.899 778.285 278.313 739.356 240.706 707.33C237.18 704.392 233.654 701.16 230.276 697.781C178.711 646.216 168.269 569.102 198.369 507.271C222.155 458.51 237.128 405.93 240.056 351.878C243.864 287.251 269.788 229.468 319.279 179.978Z" fill="url(#paint0_linear)"/>
<defs>
<linearGradient id="paint0_linear" x1="483.729" y1="766.689" x2="483.877" y2="-79.9155" gradientUnits="userSpaceOnUse">
<stop stop-color="#00BAAE"/>
<stop offset="1" stop-color="#F6FF00"/>
</linearGradient>
</defs>
</svg>
