<svg width="1920" height="483" viewBox="0 0 1920 483" fill="none" xmlns="http://www.w3.org/2000/svg">
<path d="M1909.79 481.395C1912.27 481.83 1914.39 482.199 1916.13 482.5H-0.5V10.9525C3.13889 37.2252 18.6947 88.7042 82.9713 127.899C158.016 173.661 299.384 202.618 565.53 155.308C600.535 149.097 634.366 144.986 666.868 142.756C803.121 133.465 912.602 170.385 1024.92 219.588C1050.81 230.93 1076.85 242.926 1103.41 255.16C1192.04 295.987 1286.4 339.45 1399.9 370.033C1525.55 403.889 1656.05 432.254 1755.14 452.154C1804.69 462.105 1846.38 469.939 1875.69 475.286C1890.34 477.96 1901.9 480.011 1909.79 481.395Z" fill="url(#paint0_linear)" stroke="black"/>
<defs>
<linearGradient id="paint0_linear" x1="1942.74" y1="341.661" x2="683.137" y2="-1079.04" gradientUnits="userSpaceOnUse">
<stop stop-color="#00F7E7"/>
<stop offset="1" stop-color="#1B0052"/>
</linearGradient>
</defs>
</svg>
