<svg width="723" height="709" viewBox="0 0 723 709" fill="none" xmlns="http://www.w3.org/2000/svg"><path opacity=".3" d="M229.537 235.842c-97.049-11.522-185.01 57.747-196.375 154.62-11.335 96.606 58.745 184.774 155.575 195.865l2.136.254c38.926 3.946 73.517 26.157 94.222 59.284 16.831 26.993 45.401 46.328 79.606 50.119 59.185 6.621 112.797-36.733 118.87-95.864 1.084-10.274.535-20.472-1.161-30.131-5.738-31.485-5.279-63.856 1.006-95.13.615-2.9 1.113-5.948 1.476-9.012 5.552-46.763-20.037-90.063-60.112-109.413-31.628-15.239-60.307-35.937-83.452-62.194-27.83-31.271-66.803-53.057-111.791-58.398z" fill="url(#a)"/><path d="M288.8 0h-97.279v9.973H288.8V0z" fill="url(#b)"/><path d="M386.273 74.995h-70.242v9.974h70.242v-9.974z" fill="url(#c)"/><path d="M443.776 74.995h-46.594v9.974h46.594v-9.974z" fill="url(#d)"/><path d="M565.521 74.995H453.009v9.974h112.512v-9.974z" fill="url(#e)"/><path d="M264.957 225.803H192.65v9.974h72.307v-9.974z" fill="url(#f)"/><path d="M376.768 0h-69.035v9.973h69.035V0z" fill="url(#g)"/><path d="M376.768 112.473h-69.035v9.974h69.035v-9.974z" fill="url(#h)"/><path d="M302.707 149.951h-29.491v9.974h29.491v-9.974z" fill="url(#i)"/><path d="M309.954 188.014h-66.269v9.974h66.269v-9.974z" fill="url(#j)"/><path d="M411.441 188.014h-91.475v9.974h91.475v-9.974z" fill="url(#k)"/><path d="M261.684 150.263H192.65v9.974h69.034v-9.974z" fill="url(#l)"/><path d="M233.634 188.014H192.65v9.974h40.984v-9.974z" fill="url(#m)"/><path d="M355.262 150.263h-38.646v9.974h38.646v-9.974z" fill="url(#n)"/><path d="M261.412 74.995h-69.035v9.974h69.035v-9.974z" fill="url(#o)"/><path d="M290.825 112.473h-98.448v9.974h98.448v-9.974z" fill="url(#p)"/><path d="M483.319 0h-87.968v9.973h87.968V0z" fill="url(#q)"/><path d="M718.2 74.995h-87.968v9.974H718.2v-9.974z" fill="url(#r)"/><path d="M603.662 112.473h-87.968v9.974h87.968v-9.974z" fill="url(#s)"/><path d="M636.348 0H548.38v9.973h87.968V0z" fill="url(#t)"/><path d="M499.604 112.473h-51.581v9.974h51.581v-9.974z" fill="url(#u)"/><path d="M531.822 0h-32.218v9.973h32.218V0z" fill="url(#v)"/><path d="M427.57 112.473h-32.219v9.974h32.219v-9.974z" fill="url(#w)"/><path d="M241.893 37.478H191.52v9.973h50.373v-9.973z" fill="url(#x)"/><path d="M365.703 226.076h-39.776v9.974h39.776v-9.974z" fill="url(#y)"/><path d="M270.567 37.478h-16.285v9.973h16.285v-9.973z" fill="url(#z)"/><path d="M722.641 37.478H588.195v9.973h134.446v-9.973z" fill="url(#A)"/><path d="M575.768 37.478h-43.985v9.973h43.985v-9.973z" fill="url(#B)"/><path d="M619.752 74.995h-43.984v9.974h43.984v-9.974z" fill="url(#C)"/><path d="M520.135 37.478h-93.578v9.973h93.578v-9.973z" fill="url(#D)"/><path d="M413.311 37.478h-32.219v9.973h32.219v-9.973z" fill="url(#E)"/><path d="M304.928 74.995h-32.219v9.974h32.219v-9.974z" fill="url(#F)"/><path d="M311.317 226.076h-32.218v9.974h32.218v-9.974z" fill="url(#G)"/><path d="M368.82 37.478h-56.1v9.973h56.1v-9.973z" fill="url(#H)"/><path d="M249.256 627.933l-18.817-125.057 3.623-.545 18.778 125.018-3.584.584zm-22.985 0l-18.778-125.057 3.623-.545 18.778 125.018-3.623.584zm-113.058 0l-3.623-.584 18.778-125.018 3.623.545-18.778 125.057z" fill="#5C5049"/><path d="M236.322 504.162l14.726-154.938s-25.751-3.389-41.335-2.532l-23.375 157.47h49.984z" fill="#C9C5B4"/><path d="M236.322 496.292h-49.984v7.87h49.984v-7.87zm-82.709 1.559l-7.83-147.653s65.177-7.09 105.227-.974l-97.397 148.627z" fill="#C9C5B4"/><path d="M205.701 302.357s10.051-29.53-9.156-38.686c-19.206-9.155-35.53 4.091-38.607 11.22-3.078 7.169-2.26 20.181.35 29.258 2.61 9.078 2.26 22.908-3.467 27.505-5.727 4.636-12.779 12.311-12.428 27.933.234 9.701 38.14-24.777 38.14-24.777l25.168-32.453z" fill="#292C47"/><path d="M180.066 620.025s-.584 20.843 2.376 22.128c2.961 1.247 14.259-5.999 19.246-13.168 4.987-7.168-6.233-23.881-8.064-33.075-.78-3.857-9.545-10.792-13.792-8.805-4.285 1.987-7.402 7.09-7.402 7.09s10.831 7.442 7.636 25.83z" fill="#D4C3BD"/><path d="M172.391 594.156s3.701 7.13 5.61 12.662c1.909 5.532 2.26 20.804 3.468 21.895 1.207 1.051 10.635-3.702 11.921-9.428 1.246-5.727-2.571-17.142-6.234-23.181-3.662-5.999-7.363-9.038-7.363-9.038s-6.428 1.286-7.402 7.09z" fill="#DE9673"/><path d="M193.585 595.91l10.168 14.804-1.948 1.325-7.831-11.454-.389-4.675z" fill="#D4C3BD"/><path d="M157.041 432.05s4.948 8.377 0 14.493c-4.947 6.117-38.335 22.869-38.101 32.569.234 9.701 6.35 24.856 8.571 28.674 2.182 3.857 10.285 19.791 14.531 29.141 4.208 9.35 28.557 54.035 33.31 64.087 4.753 10.09 1.831-40.284 1.831-40.284l-24.349-71.41 56.918-55.438c-.039 0-6.895-15.311-52.711-1.832z" fill="#DE9673"/><path d="M178.703 337.498s-15.779 3.506-22.051 7.168c-6.272 3.662-20.181 20.492-20.181 27.738 0 7.247 60.854 14.026 60.854 14.026l11.531 42.114s30.778-7.519 34.44-13.753c3.662-6.233-12.116-50.529-14.298-59.879-2.182-9.35-13.713-15.622-26.531-17.414-12.856-1.792-23.764 0-23.764 0z" fill="#609A3E"/><path d="M216.025 433.453s-1.091 7.207 1.831 10.246c2.922 3.039 16.44 20.843 9.272 38.335-6.545 16.051-19.285 15.739-19.285 15.739H188.13s5.727 28.907 3.857 47.958c-1.831 19.051-10.519 62.528-10.713 64.71-.195 2.182-8.337 9.077-10.714 5.571 0 0-.234-26.18-1.519-36.075-1.286-9.896-6.74-49.439-8.376-55.282-1.637-5.844-11.337-23.609-11.337-25.44 0-1.831-9.467-30.505 11.22-37.829 20.687-7.324 28.011-27.778 55.477-27.933z" fill="#EEA886"/><path d="M160.781 636.232s-13.596 15.856-12.038 18.7c1.52 2.844 14.843 4.285 23.219 1.831 8.377-2.455 10.169-22.479 14.532-30.816 1.831-3.468-.623-14.376-5.181-15.545-4.559-1.13-10.208.857-10.208.857s3.74 12.662-10.324 24.973z" fill="#E6D3CC"/><path d="M171.105 611.298s-1.597 7.87-3.584 13.363c-1.987 5.493-11.337 17.609-11.064 19.207.273 1.597 10.597 3.818 15.194.155 4.558-3.662 8.805-14.96 9.74-21.933.935-6.974-.039-11.649-.039-11.649s-5.844-3.077-10.247.857z" fill="#EEA886"/><path d="M186.494 625.985l-1.441 17.882-2.299-.156 1.091-13.869 2.649-3.857z" fill="#E6D3CC"/><path d="M227.128 482.034c-6.194 16.284-19.284 15.739-19.284 15.739h-19.713s-8.221-13.012-28.323-15.272c-4.441-.506-9.506-.467-15.155.351-.078 0-.156 0-.195.039-26.725 3.974-21.583 13.752-21.505 14.025-2.221-5.415-4.558-14.064-3.974-18.7 2.572-21.155 33.154-25.596 38.102-31.712 4.947-6.117 0-14.493 0-14.493 45.776-13.519 52.672 1.831 52.672 1.831 2.025-.273 7.168-3.233 9.35-3.272 0 0 2.298 4.986 3.895 9.505 1.403 4.052 10.831 24.311 4.13 41.959z" fill="#292C47"/><path d="M208.116 365.548l6.779 62.996h-89.176l-6.779-62.996h89.176z" fill="#DED1C5"/><path d="M221.985 422.856h-14.882v5.649h14.882v-5.649z" fill="#DED1C5"/><path d="M311.434 428.544H33.192v8.571h278.242v-8.571z" fill="#BC8551"/><path d="M188.559 268.736s19.986 5.922 17.142 33.621c-2.844 27.739-15.895 26.297-17.142 26.492-1.208.195-16.713 1.208-21.622-32.413-4.87-33.621 21.622-27.7 21.622-27.7z" fill="#EEA886"/><path d="M198.065 323.784s-1.052 9.195.701 14.883c1.753 5.726-23.258 5.882-23.258 1.168 0-5.337 2.571-9.778.156-18.934-2.377-9.116 22.401 2.883 22.401 2.883z" fill="#EEA886"/><path d="M183.416 281.086s10.87 17.258 22.285 21.271c0 0 6.233-28.985-19.519-35.063-25.751-6.077-21.738 29.258-19.79 38.686-.039.039 5.337-13.83 17.024-24.894z" fill="#292C47"/><path d="M178.664 324.953s7.908 8.22 17.998.857c0 0-.818 5.26-8.103 5.961-7.246.662-9.895-6.818-9.895-6.818z" fill="#A77860"/><path opacity=".72" d="M168.846 278.515s5.727-11.064 15.35-11.571c9.661-.506 15.388 7.87 15.388 7.87s-3.779-9.428-15.388-9.428c-11.571 0-15.35 13.129-15.35 13.129z" fill="#fff"/><path d="M201.337 337.342s-.35 19.206-15.583 19.752c-15.233.584-12.038-18.389-12.038-18.389s11.142-4.519 27.621-1.363z" fill="#EEA886"/><path d="M311.434 437.115h-6.311V634.05h6.311V437.115zm-262.502 0H42.62V634.05h6.312V437.115z" fill="#807066"/><path d="M333.29 257.905h-54.035v4.948h54.035v-4.948zm39.348 22.363h-93.383v4.947h93.383v-4.947zm-19.947-11.182h-73.436v4.948h73.436v-4.948zm-32.725 22.402h-40.711v4.948h40.711v-4.948z" fill="#E0E0E0"/><path d="M90.227 406.26s5.338 2.532 3.935 1.402c-1.402-1.169 3.467-7.636 10.207-16.207 6.701-8.571 2.299-12.272-1.87-22.245-1.675-3.974-4.558-5.415-7.324-5.376-4.207.117-8.103 3.779-6.934 7.675 1.947 6.506 4.558 12.739-.312 19.245-4.831 6.428 2.181 15.35 2.298 15.506z" fill="#CFC147"/><path d="M104.681 371.391c3.273-1.636 7.207-7.402 3.935-8.804-3.234-1.403-.701-5.571-3.935-5.571-3.233 0-4.87 5.025-3 7.83 0 .039-.233 8.182 3 6.545z" fill="#CFC147"/><path d="M105.538 357.172s5.104-4.403 0-5.338c-5.104-.935-3.701 4.637-3.234 5.338.429.701 3.234 0 3.234 0z" fill="#CFC147"/><path d="M85.357 372.56c3.935-.701 3.935-4.636 3.935-4.636s-3.117-5.805-5.805-3.117c-2.649 2.649-2.064 8.454 1.87 7.753z" fill="#A09832"/><path d="M90.227 406.259s7.753-14.142 3.701-24.115c-2.843-6.974-.467-14.493 1.247-18.35-4.207.117-8.103 3.779-6.934 7.675 1.947 6.506 4.558 12.74-.312 19.246-4.831 6.467 2.181 15.388 2.298 15.544z" fill="#A09832"/><path d="M103.785 406.104H80.8l.974 3.35h21.154l.857-3.35z" fill="#727643"/><path d="M98.876 428.544l1.909-15.272.468-3.818H83.605l2.22 19.09h13.051z" fill="#4B4C37"/><path d="M104.759 381.014l5.103-3.467-5.103 2.766v.701zm-5.805-22.829l2.805 2.493.234-.584-3.039-1.909zm6.857 2.025l3.35-.467h-3.077l-.273.467zm-3.351-11.181l.974 3.39h.39l-1.364-3.39zm3.935 3.39l.273.467 2.221-1.87-2.494 1.403zm-1.636-.468l.623.234-.623-2.221v1.987zm-1.48 36.309l2.103 5.338-1.013-5.338h-1.09zm-19.324-20.375l-4.402-3 4.013 3.468.39-.468zm3.428 25.713l-6.35 1.013h6.35v-1.013z" fill="#727643"/><path d="M100.785 413.272l.468-3.818H83.605l2.26 19.051h4.285c-.39-10.441 7.168-14.103 10.635-15.233z" fill="#444532"/><path d="M93.383 398.974l-.156 1.52-.467 5.025-.117 1.286-.195 2.065-.117 1.285-1.013 10.792-.662 7.012-.078.585H57.541l-.117-1.676-1.246-19.985-.429-6.389-.039-.857-.039-.312-.156-2.883 17.532 1.169.974.078 2.844.155 9.467.663h.311l6.467.428.273.039z" fill="#7D776B"/><path d="M89.097 390.169l5.61-25.985s-10.129 19.752-10.129 28.011 4.52-2.026 4.52-2.026z" fill="#736D38"/><path d="M86.448 388.728s5.61-36.543 1.598-47.49c0 0-7.987 36.426-7.208 48.932.819 12.544 5.61-1.442 5.61-1.442z" fill="#477830"/><path d="M64.826 392.196c-1.051-6.39-9.35-23.882-9.35-23.882-.545 8.921 4.013 23.882 4.013 23.882s6.428 6.389 5.337 0z" fill="#92B856"/><path d="M67.787 391.65c-.818-7.48-9.35-35.452-9.35-35.452-1.052 7.207 4.013 35.452 4.013 35.452s6.117 7.48 5.337 0z" fill="#367031"/><path d="M70.437 391.923c-.546-3.195-7.363-53.062-7.363-53.062-2.844 7.48 1.909 51.309 1.909 51.309.272 2.727 6 4.947 5.454 1.753z" fill="#5B802A"/><path d="M73.125 390.17c0-4.13-5.26-63.347-5.26-63.347-.74 3.74-2.883 39.309-2.883 39.309l2.805 25.479c0 .039 5.338 2.727 5.338-1.441z" fill="#4B5E26"/><path d="M82.748 337.809s-8.844 47.296-8.299 54.737c.546 7.441 9.117 10.402 8.299-23.103 0-.039.545-25.517 0-31.634z" fill="#3A472D"/><path d="M80.8 364.184s-.74-14.921-2.104-19.985c0 0-6.39 45.542-5.61 49.321.818 3.74 6.545-7.246 7.714-29.336z" fill="#6A8F39"/><path d="M76.904 375.599c1.402-16.284-5.143-41.257-5.143-41.257-1.87 3.74-2.727 25.362-2.727 25.362s2.454 35.453 4.013 37.907c1.52 2.454 2.454-5.727 3.857-22.012z" fill="#46402B"/><path d="M93.383 398.974l-.156 1.52-.467 5.025-.117 1.286-.195 2.104-.117 1.285c-1.909.39-4.792 1.442-8.103 4.091-3.39 2.727-7.246 7.129-10.908 14.298H57.54l-.117-1.675-1.285-19.986-.39-6.389-.039-.857v-.312l21.194-.584 9.467-.273h.311l6.467.428.234.039z" fill="#706C3A"/><path d="M55.126 390.17l-2.455 10.324h43.556l-2.766-10.324H55.126z" fill="#858045"/><path d="M288.682 404.312c-1.948-1.286-4.597-.974-6.428-.507l.663-4.83h-25.752l4.13 29.608h17.531l.39-2.766.35-2.649c2.649-.039 5.026-.974 6.935-2.727 2.766-2.533 4.363-6.662 4.363-11.259.039-2.844-1.169-4.208-2.182-4.87zm-4.09 13.986c-1.325 1.208-2.883 1.87-4.636 1.987l1.87-13.441c1.363-.467 3.973-1.091 5.298-.195.234.156.935.624.935 2.455 0 3.818-1.247 7.168-3.467 9.194z" fill="url(#I)"/><mask id="K" maskUnits="userSpaceOnUse" x="257" y="398" width="22" height="31"><path d="M278.787 428.544h-17.531l-4.13-29.609h9.467c.039 0-3.35 26.726 12.194 29.609z" fill="url(#J)"/></mask><g mask="url(#K)"><path d="M278.787 428.544h-17.531l-4.13-29.609h9.467c.039 0-3.35 26.726 12.194 29.609z" fill="url(#L)"/><path d="M269.008 378.56s-5.415 1.792-3.428 6.623 5.454 7.831 2.221 13.752c0 0 5.999-3.623 3.194-9.622-2.766-6.039-4.48-7.714-1.987-10.753z" fill="url(#M)"/><path d="M276.8 384.014s-3.974 1.325-2.493 4.87c1.48 3.545 4.012 5.766 1.636 10.09 0 0 4.402-2.649 2.337-7.09-2.103-4.441-3.35-5.688-1.48-7.87z" fill="url(#N)"/><path d="M262.346 384.014s-3.974 1.325-2.493 4.87c1.48 3.545 4.012 5.766 1.636 10.09 0 0 4.402-2.649 2.337-7.09-2.064-4.441-3.311-5.688-1.48-7.87z" fill="url(#O)"/></g><path d="M410.038 574.287c-5.493-25.167 6.389-31.478 17.921-37.517 9.389-4.947 18.311-9.661 17.804-24.505-.623-19.674 12.779-26.842 24.583-33.153 8.805-4.714 17.103-9.117 18.35-18.077 2.999-21.544 22.829-48.309 23.063-48.581l1.247.935c-.195.272-19.83 26.725-22.752 47.841-1.364 9.739-9.974 14.336-19.129 19.245-11.999 6.389-24.388 13.012-23.764 31.751.506 15.818-9.234 20.921-18.623 25.908-11.492 6.077-22.362 11.804-17.102 35.842l-1.598.311z" fill="url(#P)"/><path d="M416.077 567.898c-.273 0-.546 0-.779-.039-4.987-.351-9.857-4.168-15.35-11.921l-.351-.468.39-.467c.078-.117 8.921-10.831 5.649-31.011-.74-4.714-1.753-8.298-2.571-11.22-1.169-4.208-1.948-7.013-.663-9.233 1.676-2.805 6.156-4.286 18.817-7.325 13.48-3.194 17.999-18.388 21.973-31.79 3.74-12.622 7.285-24.505 17.765-24.154 9.623.351 24.271-14.726 37.205-28.05 12-12.35 23.298-23.999 30.505-23.765 1.753.078 3.195.779 4.363 2.182 6.428 7.675.429 19.323-5.376 30.582-4.948 9.623-9.662 18.7-6.623 24.661 3.779 7.519 4.325 14.337 1.519 19.674-3.311 6.35-10.986 10.402-22.868 12.155-10.831 1.558-12.038 13.402-13.246 25.946-1.442 14.61-3.078 31.167-21.31 32.765-13.519 1.168-22.635 10.674-30.661 19.05-6.389 6.623-11.96 12.428-18.388 12.428zm-14.571-12.389c5.026 6.935 9.545 10.48 13.87 10.792 6.038.467 11.57-5.299 17.96-11.961 8.22-8.57 17.57-18.271 31.634-19.518 16.947-1.48 18.427-16.674 19.908-31.361 1.285-13.129 2.532-25.557 14.57-27.31 11.337-1.637 18.661-5.454 21.7-11.337 2.532-4.909 2.026-11.22-1.558-18.272-3.39-6.701 1.48-16.09 6.623-26.063 5.571-10.83 11.375-22.012 5.571-28.907-.857-1.052-1.948-1.559-3.234-1.597-6.545-.234-17.609 11.181-29.375 23.297-13.596 14.025-27.66 28.517-37.945 28.517h-.39c-9.311-.35-12.505 10.48-16.246 23.064-4.09 13.791-8.726 29.452-23.063 32.842-11.454 2.727-16.44 4.246-17.843 6.584-.974 1.675-.312 4.051.818 8.025.818 2.922 1.831 6.584 2.61 11.376 3.039 18.817-3.856 29.492-5.61 31.829z" fill="url(#Q)"/><path d="M416.661 562.599c-.195 0-.35 0-.545-.038-8.182-.741-14.454-18.623-20.531-35.92-2.883-8.22-5.61-15.973-8.26-20.921-2.064-3.857-4.675-7.87-7.207-11.765-6.74-10.363-13.674-21.077-11.415-30.505 1.208-4.948 4.753-9.077 10.87-12.583 13.362-7.714 11.337-12.078 6.817-21.622-3.311-7.013-7.83-16.597-8.025-31.674-.078-6.506-.234-12.077-.351-17.025-.428-15.895-.623-23.881 2.766-26.764 1.403-1.208 3.39-1.52 6.195-.974 4.831.935 6.895 4.792 9.116 8.921 2.805 5.26 6 11.22 15.622 13.207 9.039 1.909 17.727 4.481 20.103 10.48 1.675 4.208.078 9.779-4.87 16.947-1.207 1.753-1.636 3.234-1.246 4.519.779 2.883 5.298 4.987 10.479 7.441 7.402 3.468 16.636 7.753 19.246 16.675 2.104 7.168-.351 16.167-7.441 27.387-16.83 26.609-16.168 44.686-15.584 60.62.429 11.804.858 22.946-6.272 35.413-3.117 5.493-6.233 8.181-9.467 8.181zm-32.102-208.505c-1.207 0-2.103.272-2.766.857-2.844 2.415-2.61 10.635-2.22 25.556.117 4.948.272 10.558.35 17.064.156 14.766 4.636 24.154 7.87 31.05 4.48 9.467 7.168 15.194-7.441 23.609-5.727 3.312-9.039 7.09-10.129 11.61-2.104 8.765 4.675 19.206 11.22 29.296 2.532 3.935 5.181 7.987 7.246 11.883 2.688 5.064 5.454 12.895 8.337 21.154 5.649 16.051 12.038 34.245 19.207 34.907 2.727.234 5.61-2.221 8.571-7.402 6.895-12.077 6.506-22.518 6.038-34.595-.623-16.168-1.286-34.478 15.817-61.477 6.857-10.869 9.233-19.401 7.285-26.141-2.415-8.259-10.908-12.233-18.427-15.7-5.571-2.61-10.363-4.831-11.337-8.415-.467-1.753 0-3.662 1.481-5.805 4.636-6.74 6.194-11.804 4.714-15.505-2.143-5.338-10.792-7.831-19.012-9.545-10.324-2.143-13.83-8.727-16.674-13.986-2.104-3.935-3.935-7.364-8.026-8.143-.779-.234-1.48-.272-2.104-.272z" fill="url(#R)"/><path d="M416.817 572.145l-1.48-.468c8.22-26.024-6.662-84.384-11.103-98.604-2.182-6.973-.156-17.492 1.792-27.66 2.532-13.129 5.142-26.726-1.52-31.791-12.466-9.544-11.804-31.673-11.765-32.608l1.558.039c0 .234-.662 22.284 11.181 31.362 7.402 5.688 4.714 19.713 2.104 33.309-1.909 9.974-3.896 20.298-1.831 26.921 5.454 17.57 19.284 73.553 11.064 99.5z" fill="url(#S)"/><path d="M354.561 403.143c-3.428-8.688-16.83-7.364-15.583 4.908 1.247 12.272 9.857 25.44-3.272 46.322s16.83 25.011 27.465 38.14c10.675 13.129 14.337 31.167 23.375 42.66 9.039 11.493 15.155 38.959 22.557 28.712 7.364-10.246.429-23.569 1.247-42.036.818-18.466 17.259-30.115.818-42.036-16.44-11.882-32.959-15.544-27.504-42.348 2.376-11.804-18.467-7.246-29.103-34.322z" fill="url(#T)"/><path d="M421.024 566.262c-.077-.546-9.194-54.581-29.608-69.385-20.804-15.116-24.583-29.063-31.868-61.944l1.519-.351c7.169 32.491 10.909 46.283 31.284 61.048 20.921 15.194 29.881 68.138 30.232 70.398l-1.559.234z" fill="#fff"/><path d="M402.597 564.314s6.078-14.999-4.986-36.31c-11.026-21.31-19.986-18.037 6.623-34.439 26.608-16.401.155-68.06 22.829-74.644 22.674-6.545 42.348-90.189 59.568-79.554 17.219 10.636-5.727 51.659 6.545 63.97 12.311 12.311 13.947 27.972-11.493 40.634-25.44 12.661 18.038 61.048-16.401 75.813-34.44 14.765-24.505 72.658-62.685 44.53z" fill="url(#U)"/><path d="M413.155 580.248c-.039-.195-3.74-19.402 7.947-44.218 11.922-25.284 17.61-52.906 15.272-73.944-1.285-11.376 6-15.817 13.051-20.141 6.935-4.247 14.103-8.61 13.714-19.83-.351-10.129 3.934-33.894 4.129-34.868l1.52.273c-.039.234-4.442 24.583-4.091 34.556.429 12.116-7.129 16.752-14.454 21.193-6.934 4.247-13.518 8.26-12.349 18.662 2.376 21.271-3.351 49.243-15.389 74.761-11.454 24.31-7.87 43.088-7.831 43.244l-1.519.312z" fill="#fff"/><path d="M440.971 474.242c7.753-7.168 17.96-8.22 15.818 2.454-2.143 10.675-9.428 13.714-5.805 20.415 3.623 6.7 9.739 13.401-.624 21.621-10.363 8.221-16.128 9.156-19.167 24.661-3.039 15.545-2.455 26.141-15.817 26.804-13.402.662-8.221-18.895-3.974-27.7 0 0 6.389-10.09 2.143-23.297-4.247-13.246-12.467-20.375 4.869-24.894 17.376-4.52 17.337-15.233 22.557-20.064z" fill="#fff"/><path d="M416.35 580.092c-.039-1.909-.974-46.633 7.402-54.152 8.532-7.675 10.207-21.272 10.402-28.713.272-9.661 12.778-15.388 13.285-15.622l.623 1.403c-.117.038-12.155 5.571-12.389 14.297-.273 9.35-2.376 22.129-10.908 29.804-7.831 7.051-6.896 52.516-6.896 52.983h-1.519z" fill="url(#V)"/><path d="M447.789 561.86l-13.869 52.633h-31.05l-13.869-52.633h58.788z" fill="url(#W)"/><path d="M447.789 561.86s-30.543 5.727-30.543 52.672h-14.337L389.04 561.86h58.749z" fill="url(#X)"/><path d="M147.79 123.306l-15.078 4.78 1.524-3.508c.281-.645-.024-1.339-.682-1.548-.655-.209-1.416.144-1.696.79l-2.287 5.262-6.134 1.945-3.226-3.323c-.463-.476-1.279-.467-1.824.015-.545.484-.611 1.263-.149 1.739l2.389 2.46-15.557 4.932c-2.079.659-3.356 2.761-2.847 4.684l15.374 58.156c.509 1.924 2.614 2.954 4.692 2.295l42.721-13.544c2.078-.659 3.355-2.761 2.847-4.684l-15.375-58.156c-.509-1.924-2.614-2.954-4.692-2.295zm-42.105 15.87l16.814-5.33 1.871 1.927c-.829 1.189-1.183 2.643-.814 4.04.679 2.566 3.484 3.938 6.256 3.059 2.772-.878 4.475-3.68 3.796-6.245-.678-2.566-3.484-3.938-6.256-3.06a5.86 5.86 0 0 0-1.022.439l-1.022-1.051 23.097-7.322c.694-.22 1.394.122 1.564.764l10.147 38.383-10.237 3.246c-.747-1.255-2.051-2.116-3.623-2.321l-5.149-.712-.119-.45c1.773-1.683 2.761-3.842 2.946-6.435 1.059-.984 1.529-2.395 1.184-3.7l-.307-1.163c-.285-1.077-1.091-1.905-2.169-2.274-1.946-4.148-5.85-5.326-11.614-3.498-.272.086-.536.18-.791.281-1.064.422-2.676.844-4.279.423-.599-.158-1.069-.346-1.393-.558-.555-.366-1.309-.316-1.877.125-.567.44-.783 1.141-.538 1.743.167.418.38.899.646 1.416.543 1.057.543 1.057.381 1.843-.06.298-.135.661-.21 1.142a13.081 13.081 0 0 0-.067 3.358c-.718.939-.988 2.102-.706 3.169l.307 1.163c.345 1.305 1.431 2.223 2.807 2.435 1.421 2.085 3.31 3.332 5.629 3.716l.115.438-4.164 3.662c-1.173 1.112-1.806 2.587-1.797 4.055l-10.208 3.237-10.147-38.383c-.17-.642.255-1.342.949-1.562zm20.464-1.57l1.446 1.49c.329.339.835.433 1.296.287.189-.06.37-.161.528-.3.545-.484.611-1.263.149-1.739l-1.441-1.485c1.332-.34 2.642.331 2.968 1.564.339 1.283-.512 2.684-1.898 3.123-1.386.44-2.789-.246-3.128-1.529a2.336 2.336 0 0 1 .08-1.411zm6.705 32.173c.666-.582.962-1.461.755-2.242l-.554-2.097-.839-.061c-2.107-.157-3.729-1.214-4.961-3.236l-.343-.563-.712.019c-.566.016-1.054-.32-1.186-.818l-.307-1.163c-.111-.421.045-.894.41-1.234l.513-.478-.094-.637a10.91 10.91 0 0 1-.009-3.237c.068-.431.135-.759.189-1.027.202-.981.241-1.468-.103-2.331 1.685.313 3.547.081 5.438-.663.191-.077.389-.148.594-.213 4.704-1.491 7.418-.642 8.802 2.754l.238.582.66.101c.474.074.841.383.953.806l.307 1.164c.132.497-.117 1.067-.603 1.385l-.611.4-.016.677c-.055 2.429-.91 4.272-2.615 5.637l-.679.544.557 2.107c.206.778.856 1.332 1.696 1.448l5.336.739c.608.08 1.141.341 1.541.731l-19.48 6.176a2.942 2.942 0 0 1 .861-1.52l4.262-3.75zm31.541 16.336l-42.721 13.543c-.693.22-1.394-.122-1.564-.764l-4.612-17.447 10.052-3.187 25.152-7.974 10.029-3.18 4.613 17.447c.17.642-.256 1.342-.949 1.562z" fill="#EAA0A0"/><path d="M151.892 179.964l-21.648 6.499c-.666.2-1.072.833-.909 1.416.163.584.832.894 1.497.695l21.649-6.5c.665-.199 1.071-.833.908-1.416-.162-.584-.832-.894-1.497-.694zm-17.653 2.425l12.061-3.674c.667-.204 1.074-.848.911-1.442-.163-.593-.834-.909-1.501-.706l-12.061 3.675c-.667.203-1.074.847-.911 1.441.163.594.834.91 1.501.706zm-1.354 8.288l-1.228.389c-.68.215-1.095.895-.928 1.523.166.627.849.961 1.529.746l1.228-.389c.68-.215 1.095-.896.928-1.523-.166-.628-.849-.961-1.529-.746zm7.195-2.085l-2.443.768c-.676.213-1.088.887-.923 1.507.166.621.845.951 1.521.738l2.442-.768c.676-.213 1.088-.886.923-1.507-.165-.621-.845-.951-1.52-.738zm5.977-1.73l-1.228.388c-.68.215-1.095.896-.929 1.523.167.628.85.961 1.53.746l1.228-.389c.68-.214 1.094-.895.928-1.523-.166-.627-.849-.96-1.529-.745zm7.195-2.086l-2.443.769c-.676.213-1.088.886-.923 1.507.165.621.845.951 1.52.738l2.443-.768c.676-.213 1.088-.886.923-1.507-.165-.621-.845-.951-1.52-.739zm122.22-23.495a4.804 4.804 0 1 0 2.976-9.136 4.804 4.804 0 0 0-2.976 9.136zm2.232-6.852a2.403 2.403 0 1 1-1.49 4.569 2.403 2.403 0 0 1 1.49-4.569zm-10.406-22.337l-4.568-1.488a2.402 2.402 0 0 0-3.028 1.54l-1.488 4.567a1.2 1.2 0 0 0 .77 1.514l6.851 2.233a1.202 1.202 0 0 0 1.514-.77l1.488-4.568a2.402 2.402 0 0 0-1.539-3.028zm-1.861 5.71l-4.567-1.488 1.116-3.426 4.568 1.488-1.117 3.426z" fill="#EAA0A0"/><path d="M269.659 162.938a9.588 9.588 0 0 0 16.436-3.249 9.672 9.672 0 0 0-2.951-10.326l1.706-5.237 2.284.744a1.2 1.2 0 0 0 1.514-.77l1.488-4.567a1.2 1.2 0 0 0-.77-1.514l-2.284-.744.744-2.284 1.142.372a1.2 1.2 0 0 0 1.514-.77l1.116-3.426a1.2 1.2 0 0 0-.77-1.514l-1.142-.372.372-1.142a1.2 1.2 0 0 0-.769-1.513l-4.568-1.489a1.202 1.202 0 0 0-1.514.77l-6.915 21.224c-.446.034-.89.101-1.328.199l1.149-3.524a2.403 2.403 0 0 0-1.54-3.028l-2.284-.744 1.488-4.568a6.011 6.011 0 0 0-3.849-7.569l-6.852-2.233a6.013 6.013 0 0 0-7.57 3.85l-1.488 4.567-2.284-.744a2.401 2.401 0 0 0-3.027 1.54l-5.953 18.271a2.403 2.403 0 0 0 1.54 3.028l22.838 7.44a2.404 2.404 0 0 0 2.527-.678zm7.481-13.427a1.2 1.2 0 0 0 1.173-.828l6.806-20.89 2.284.744-.372 1.142a1.2 1.2 0 0 0 .769 1.514l1.142.372-.372 1.142-1.142-.372a1.202 1.202 0 0 0-1.514.77l-1.488 4.568c-.205.63.14 1.308.77 1.514l2.284.744-.744 2.284-2.284-.745a1.203 1.203 0 0 0-1.514.77l-2.341 7.187a1.198 1.198 0 0 0 .46 1.36 7.206 7.206 0 1 1-3.917-1.276zm-26.15-13.89l3.426 1.116a1.2 1.2 0 0 0 1.514-.77l1.86-5.709a3.604 3.604 0 0 1 4.542-2.31l6.852 2.232a3.603 3.603 0 0 1 2.309 4.542l-1.86 5.71c-.205.63.139 1.308.77 1.514l3.426 1.116-1.765 5.416a9.524 9.524 0 0 0-3.918 12.025l-.27.83-22.838-7.441 5.952-18.271z" fill="#EAA0A0"/><path d="M261.665 141.625a4.79 4.79 0 1 0-5.892 6.455l-1.626 4.99c-.205.631.14 1.309.77 1.514l4.568 1.488a1.201 1.201 0 0 0 1.514-.769l1.626-4.991a4.79 4.79 0 0 0-.96-8.687zm-.519 6.752a1.202 1.202 0 0 0-.654.726l-1.405 4.314-2.284-.744 1.406-4.314a1.203 1.203 0 0 0-.101-.972 2.374 2.374 0 0 1-.215-1.938 2.403 2.403 0 0 1 4.568 1.488 2.37 2.37 0 0 1-1.315 1.44zm-23.396 16.254l-9.889 1.481a1.2 1.2 0 0 0-.965.816l-1.541 4.73a4.805 4.805 0 1 0 2.284.744l1.311-4.024 9.887-1.475c.452-.068.827-.387.967-.822l2.604-7.994-2.284-.744-2.374 7.288zm-10.404 12.549a2.402 2.402 0 1 1-4.567-1.49 2.402 2.402 0 0 1 4.567 1.49zm19.466-5.47l3.589-11.019-2.283-.744-3.721 11.42c-.084.259-.078.54.018.795l2.559 6.803-2.845 8.735 2.283.744 2.977-9.136c.084-.259.078-.54-.018-.795l-2.559-6.803zm31.099 13.102a4.803 4.803 0 0 0-5.177 1.503l-4.1-4.044 4.606-14.139-2.284-.744-4.836 14.845c-.144.434-.029.913.297 1.234l5.269 5.198a4.795 4.795 0 1 0 9.381 1.936 4.795 4.795 0 0 0-3.156-5.789zm-2.232 6.851a2.402 2.402 0 1 1 1.487-4.568 2.402 2.402 0 0 1-1.487 4.568zm12.967-12.853a4.62 4.62 0 0 0 .234-.529 4.854 4.854 0 1 0-1.848 2.448l3.235 4.925-5.03 15.439 2.284.744 5.209-15.987a1.201 1.201 0 0 0-.138-1.031l-3.946-6.009zm-5.077.266a2.401 2.401 0 1 1 1.486-4.567 2.401 2.401 0 0 1-1.486 4.567zm-21.42 5.865l-3.844-4.874a4.785 4.785 0 0 0 1.231-8.641l2.285-7.014-2.284-.744-2.285 7.014a4.78 4.78 0 0 0-2.176 9.171l4.789 6.071-2.033 6.24 2.283.744 2.233-6.851c.124-.382.05-.801-.199-1.116zm-7.474-10.226a2.402 2.402 0 1 1 4.568 1.488 2.402 2.402 0 0 1-4.568-1.488zm149.704 40.39l-49.221-29.812a4.426 4.426 0 0 0-6.079 1.493l-16.053 26.504a4.427 4.427 0 0 0 1.493 6.079l30.29 18.346-3.44 5.679a4.426 4.426 0 0 0 1.493 6.079l15.145 9.173a4.426 4.426 0 0 0 6.079-1.493l21.786-35.969a4.426 4.426 0 0 0-1.493-6.079zm-4.987 12.505l-53.007-32.105 2.294-3.786 53.006 32.105-2.293 3.786zm-45.38-40.424l49.22 29.812a2.213 2.213 0 0 1 .747 3.04l-1.147 1.893-53.007-32.105 1.147-1.893a2.213 2.213 0 0 1 3.04-.747zm13.09 46.742l-1.147 1.894-30.289-18.346a2.213 2.213 0 0 1-.747-3.04l10.32-17.038 53.007 32.105-8.346 13.778a4.385 4.385 0 0 0-1.574-1.673l2.293-3.786a5.538 5.538 0 0 0-1.866-7.599l-5.679-3.44a5.54 5.54 0 0 0-7.599 1.866l-2.294 3.786a4.428 4.428 0 0 0-6.079 1.493zm15.091 22.079a2.214 2.214 0 0 1-3.04.746l-15.144-9.173a2.212 2.212 0 0 1-.747-3.039l5.733-9.466a2.213 2.213 0 0 1 3.04-.746l10.412 6.306a1.107 1.107 0 0 0 1.52-.373l2.293-3.787a2.212 2.212 0 0 0-.747-3.039l-3.786-2.293a2.212 2.212 0 0 0-3.039.746l-1.72 2.84-1.893-1.147 2.293-3.786a3.32 3.32 0 0 1 4.559-1.12l5.68 3.44a3.32 3.32 0 0 1 1.119 4.56l-2.866 4.732a1.106 1.106 0 0 0 .373 1.52l.947.573a2.214 2.214 0 0 1 .746 3.04l-5.733 9.466zm-3.332-20.132l1.72-2.839 3.786 2.293-1.72 2.84-3.786-2.294z" fill="#EAA0A0"/><path d="M380.354 241.954l-.947-.573.574-.947-1.893-1.146-.574.946-.946-.573a1.107 1.107 0 0 0-1.52.373l-2.293 3.787a1.105 1.105 0 0 0 .373 1.519l2.84 1.72-1.147 1.893-1.893-1.146.573-.947-1.893-1.146-1.146 1.893a1.106 1.106 0 0 0 .373 1.52l.946.573-.573.946 1.893 1.147.573-.947.947.574a1.108 1.108 0 0 0 1.52-.373l2.293-3.787a1.107 1.107 0 0 0-.373-1.52l-2.84-1.719 1.147-1.894 1.893 1.147-.573.947 1.893 1.146 1.146-1.893a1.106 1.106 0 0 0-.373-1.52zm-3.132-22.597l-30.29-18.346a1.107 1.107 0 0 0-1.52.373l-2.293 3.787a1.107 1.107 0 0 0 .373 1.519l30.29 18.346c.523.317 1.203.15 1.52-.373l2.293-3.786a1.106 1.106 0 0 0-.373-1.52zm-3.24 3.213l-28.396-17.199 1.146-1.894 28.397 17.2-1.147 1.893zM48.094 183.212l-5.982 8.154-5.436-3.988a6.749 6.749 0 0 0-9.424 1.447L5.318 218.723a6.749 6.749 0 0 0 1.447 9.424l19.932 14.623a2.247 2.247 0 0 0 .482 3.141l25.368 18.612c1 .734 2.407.518 3.141-.483l26.588-36.239a2.247 2.247 0 0 0-.483-3.141l-24.461-17.947a2.247 2.247 0 0 0-3.142.483l-3.323 4.529-1.812-1.329 9.306-12.684a6.749 6.749 0 0 0-1.448-9.424l-7.248-5.317a1.124 1.124 0 0 0-1.57.241zm-40 43.123a4.495 4.495 0 0 1-.965-6.283l18.97-25.857a6.705 6.705 0 0 0 2.601 4.054l24.461 17.947-11.553 15.748-4.823-.825a2.237 2.237 0 0 0-2.19.886l-6.569 8.953-19.931-14.623zm72.37.137l-26.588 36.239-25.367-18.612 7.898-10.764 4.827.828a2.238 2.238 0 0 0 2.186-.89l16.206-22.089 20.838 15.288zm-24.462-17.947l1.812 1.329-3.323 4.53-1.812-1.329 3.323-4.53zM30.03 196.438a4.495 4.495 0 0 1 5.318-7.248l14.496 10.635.06-.082a6.726 6.726 0 0 0 3.681.681l-6.34 8.643-17.215-12.629zm25.555-6.338a4.495 4.495 0 0 1-5.318 7.248l-6.342-4.653 5.318-7.248 6.342 4.653z" fill="#EAA0A0"/><path d="M51.065 230.372a2.247 2.247 0 0 0-2.292 3.124l7.224 16.799a2.247 2.247 0 0 0 3.877.442l10.967-14.949a2.248 2.248 0 0 0-1.584-3.566l-18.192-1.85zm6.997 19.035l-7.224-16.799 18.193 1.849-10.969 14.95z" fill="#EAA0A0"/><path d="M53.821 236.191l1.33-1.812 4.53 3.324-1.33 1.812-4.53-3.324zm6.342 4.653l1.33-1.812 1.812 1.329-1.33 1.812-1.812-1.329zm-48.927-14.992l1.994-2.718 1.812 1.33-1.994 2.717-1.812-1.329zm5.982-8.154l1.33-1.812 1.812 1.329-1.33 1.812-1.812-1.329zm2.659-3.624l4.653-6.342 1.812 1.33-4.653 6.342-1.812-1.33zm5.983-8.154l3.323-4.529 1.812 1.329-3.324 4.53-1.812-1.33zm-11 22.591l4.653-6.342 1.812 1.329-4.653 6.342-1.812-1.329zm5.982-8.154l1.33-1.812 1.811 1.329-1.329 1.812-1.812-1.329zm2.658-3.624l3.324-4.53 1.812 1.33-3.323 4.529-1.812-1.329zm4.654-6.342l4.653-6.342 1.812 1.33-4.653 6.341-1.812-1.329zm-9.67 20.778l2.659-3.624 1.812 1.33-2.66 3.624-1.811-1.33zm3.988-5.435l3.323-4.53 1.812 1.329-3.323 4.53-1.812-1.329zm4.653-6.342l1.33-1.812 1.811 1.329-1.33 1.812-1.811-1.329zm2.659-3.624l6.647-9.06 1.812 1.329-6.647 9.06-1.812-1.329zm-7.676 18.06l3.988-5.436 1.812 1.33-3.988 5.436-1.812-1.33zm5.317-7.248l1.994-2.718 1.812 1.33-1.994 2.718-1.812-1.33zm3.324-4.529l1.994-2.718 1.812 1.329-1.994 2.718-1.812-1.329zm3.323-4.53l5.982-8.154 1.813 1.329-5.983 8.154-1.812-1.329zm-19.512 3.801l1.329-1.812 1.812 1.329-1.33 1.812-1.811-1.329zm11.172 15.165l4.653-6.342 1.811 1.33-4.652 6.341-1.812-1.329zm5.982-8.154l1.33-1.812 1.811 1.33-1.33 1.812-1.811-1.33zm2.659-3.624l3.323-4.529 1.812 1.329-3.324 4.53-1.811-1.33zm4.653-6.342l4.653-6.342 1.812 1.33-4.653 6.342-1.812-1.33z" fill="#EAA0A0"/><defs><linearGradient id="a" x1="142.094" y1="579.326" x2="538.069" y2="167.368" gradientUnits="userSpaceOnUse"><stop stop-color="#00F7E7"/><stop offset="1" stop-color="#1B0052"/></linearGradient><linearGradient id="b" x1="415.669" y1="437.117" x2="249.909" y2="28.95" gradientUnits="userSpaceOnUse"><stop stop-color="#D9D9D9"/><stop offset=".322" stop-color="#E5E5E5"/><stop offset="1" stop-color="#fff"/></linearGradient><linearGradient id="c" x1="484.781" y1="409.05" x2="319.021" y2=".881" gradientUnits="userSpaceOnUse"><stop stop-color="#D9D9D9"/><stop offset=".322" stop-color="#E5E5E5"/><stop offset="1" stop-color="#fff"/></linearGradient><linearGradient id="d" x1="544.316" y1="384.871" x2="378.556" y2="-23.296" gradientUnits="userSpaceOnUse"><stop stop-color="#D9D9D9"/><stop offset=".322" stop-color="#E5E5E5"/><stop offset="1" stop-color="#fff"/></linearGradient><linearGradient id="e" x1="620.515" y1="353.926" x2="454.755" y2="-54.24" gradientUnits="userSpaceOnUse"><stop stop-color="#D9D9D9"/><stop offset=".322" stop-color="#E5E5E5"/><stop offset="1" stop-color="#fff"/></linearGradient><linearGradient id="f" x1="327.181" y1="473.051" x2="161.421" y2="64.884" gradientUnits="userSpaceOnUse"><stop stop-color="#D9D9D9"/><stop offset=".322" stop-color="#E5E5E5"/><stop offset="1" stop-color="#fff"/></linearGradient><linearGradient id="g" x1="503.294" y1="401.529" x2="337.534" y2="-6.638" gradientUnits="userSpaceOnUse"><stop stop-color="#D9D9D9"/><stop offset=".322" stop-color="#E5E5E5"/><stop offset="1" stop-color="#fff"/></linearGradient><linearGradient id="h" x1="464.081" y1="417.457" x2="298.321" y2="9.287" gradientUnits="userSpaceOnUse"><stop stop-color="#D9D9D9"/><stop offset=".322" stop-color="#E5E5E5"/><stop offset="1" stop-color="#fff"/></linearGradient><linearGradient id="i" x1="404.4" y1="441.695" x2="238.639" y2="33.525" gradientUnits="userSpaceOnUse"><stop stop-color="#D9D9D9"/><stop offset=".322" stop-color="#E5E5E5"/><stop offset="1" stop-color="#fff"/></linearGradient><linearGradient id="j" x1="381.588" y1="450.956" x2="215.829" y2="42.79" gradientUnits="userSpaceOnUse"><stop stop-color="#D9D9D9"/><stop offset=".322" stop-color="#E5E5E5"/><stop offset="1" stop-color="#fff"/></linearGradient><linearGradient id="k" x1="457.895" y1="419.967" x2="292.136" y2="11.802" gradientUnits="userSpaceOnUse"><stop stop-color="#D9D9D9"/><stop offset=".322" stop-color="#E5E5E5"/><stop offset="1" stop-color="#fff"/></linearGradient><linearGradient id="l" x1="352.12" y1="462.921" x2="186.362" y2="54.756" gradientUnits="userSpaceOnUse"><stop stop-color="#D9D9D9"/><stop offset=".322" stop-color="#E5E5E5"/><stop offset="1" stop-color="#fff"/></linearGradient><linearGradient id="m" x1="326.901" y1="473.164" x2="161.141" y2="64.997" gradientUnits="userSpaceOnUse"><stop stop-color="#D9D9D9"/><stop offset=".322" stop-color="#E5E5E5"/><stop offset="1" stop-color="#fff"/></linearGradient><linearGradient id="n" x1="445.495" y1="425.002" x2="279.737" y2="16.837" gradientUnits="userSpaceOnUse"><stop stop-color="#D9D9D9"/><stop offset=".322" stop-color="#E5E5E5"/><stop offset="1" stop-color="#fff"/></linearGradient><linearGradient id="o" x1="378.122" y1="452.361" x2="212.363" y2="44.194" gradientUnits="userSpaceOnUse"><stop stop-color="#D9D9D9"/><stop offset=".322" stop-color="#E5E5E5"/><stop offset="1" stop-color="#fff"/></linearGradient><linearGradient id="p" x1="377.663" y1="452.551" x2="211.904" y2="44.383" gradientUnits="userSpaceOnUse"><stop stop-color="#D9D9D9"/><stop offset=".322" stop-color="#E5E5E5"/><stop offset="1" stop-color="#fff"/></linearGradient><linearGradient id="q" x1="586.647" y1="367.679" x2="420.888" y2="-40.488" gradientUnits="userSpaceOnUse"><stop stop-color="#D9D9D9"/><stop offset=".322" stop-color="#E5E5E5"/><stop offset="1" stop-color="#fff"/></linearGradient><linearGradient id="r" x1="762.124" y1="296.417" x2="596.365" y2="-111.749" gradientUnits="userSpaceOnUse"><stop stop-color="#D9D9D9"/><stop offset=".322" stop-color="#E5E5E5"/><stop offset="1" stop-color="#fff"/></linearGradient><linearGradient id="s" x1="650.734" y1="341.655" x2="484.974" y2="-66.515" gradientUnits="userSpaceOnUse"><stop stop-color="#D9D9D9"/><stop offset=".322" stop-color="#E5E5E5"/><stop offset="1" stop-color="#fff"/></linearGradient><linearGradient id="t" x1="718.017" y1="314.33" x2="552.257" y2="-93.838" gradientUnits="userSpaceOnUse"><stop stop-color="#D9D9D9"/><stop offset=".322" stop-color="#E5E5E5"/><stop offset="1" stop-color="#fff"/></linearGradient><linearGradient id="u" x1="577.016" y1="371.593" x2="411.256" y2="-36.576" gradientUnits="userSpaceOnUse"><stop stop-color="#D9D9D9"/><stop offset=".322" stop-color="#E5E5E5"/><stop offset="1" stop-color="#fff"/></linearGradient><linearGradient id="v" x1="652.19" y1="341.063" x2="486.43" y2="-67.104" gradientUnits="userSpaceOnUse"><stop stop-color="#D9D9D9"/><stop offset=".322" stop-color="#E5E5E5"/><stop offset="1" stop-color="#fff"/></linearGradient><linearGradient id="w" x1="523.497" y1="393.328" x2="357.737" y2="-14.841" gradientUnits="userSpaceOnUse"><stop stop-color="#D9D9D9"/><stop offset=".322" stop-color="#E5E5E5"/><stop offset="1" stop-color="#fff"/></linearGradient><linearGradient id="x" x1="382.471" y1="450.599" x2="216.711" y2="42.431" gradientUnits="userSpaceOnUse"><stop stop-color="#D9D9D9"/><stop offset=".322" stop-color="#E5E5E5"/><stop offset="1" stop-color="#fff"/></linearGradient><linearGradient id="y" x1="427.559" y1="432.287" x2="261.799" y2="24.12" gradientUnits="userSpaceOnUse"><stop stop-color="#D9D9D9"/><stop offset=".322" stop-color="#E5E5E5"/><stop offset="1" stop-color="#fff"/></linearGradient><linearGradient id="z" x1="421.69" y1="434.675" x2="255.929" y2="26.504" gradientUnits="userSpaceOnUse"><stop stop-color="#D9D9D9"/><stop offset=".322" stop-color="#E5E5E5"/><stop offset="1" stop-color="#fff"/></linearGradient><linearGradient id="A" x1="759.067" y1="297.66" x2="593.307" y2="-110.507" gradientUnits="userSpaceOnUse"><stop stop-color="#D9D9D9"/><stop offset=".322" stop-color="#E5E5E5"/><stop offset="1" stop-color="#fff"/></linearGradient><linearGradient id="B" x1="671.819" y1="333.093" x2="506.059" y2="-75.076" gradientUnits="userSpaceOnUse"><stop stop-color="#D9D9D9"/><stop offset=".322" stop-color="#E5E5E5"/><stop offset="1" stop-color="#fff"/></linearGradient><linearGradient id="C" x1="696.505" y1="323.065" x2="530.747" y2="-85.098" gradientUnits="userSpaceOnUse"><stop stop-color="#D9D9D9"/><stop offset=".322" stop-color="#E5E5E5"/><stop offset="1" stop-color="#fff"/></linearGradient><linearGradient id="D" x1="602.775" y1="361.132" x2="437.015" y2="-47.036" gradientUnits="userSpaceOnUse"><stop stop-color="#D9D9D9"/><stop offset=".322" stop-color="#E5E5E5"/><stop offset="1" stop-color="#fff"/></linearGradient><linearGradient id="E" x1="537.386" y1="387.688" x2="371.627" y2="-20.481" gradientUnits="userSpaceOnUse"><stop stop-color="#D9D9D9"/><stop offset=".322" stop-color="#E5E5E5"/><stop offset="1" stop-color="#fff"/></linearGradient><linearGradient id="F" x1="431.272" y1="430.779" x2="265.513" y2="22.614" gradientUnits="userSpaceOnUse"><stop stop-color="#D9D9D9"/><stop offset=".322" stop-color="#E5E5E5"/><stop offset="1" stop-color="#fff"/></linearGradient><linearGradient id="G" x1="384.11" y1="449.933" x2="218.349" y2="41.764" gradientUnits="userSpaceOnUse"><stop stop-color="#D9D9D9"/><stop offset=".322" stop-color="#E5E5E5"/><stop offset="1" stop-color="#fff"/></linearGradient><linearGradient id="H" x1="488.941" y1="407.36" x2="323.181" y2="-.808" gradientUnits="userSpaceOnUse"><stop stop-color="#D9D9D9"/><stop offset=".322" stop-color="#E5E5E5"/><stop offset="1" stop-color="#fff"/></linearGradient><linearGradient id="I" x1="257.165" y1="413.739" x2="290.884" y2="413.739" gradientUnits="userSpaceOnUse"><stop stop-color="#FF9F55"/><stop offset="1" stop-color="#FFD255"/></linearGradient><linearGradient id="J" x1="258.194" y1="431.669" x2="270.722" y2="408.721" gradientUnits="userSpaceOnUse"><stop stop-color="#fff"/><stop offset="1"/></linearGradient><linearGradient id="L" x1="258.194" y1="431.669" x2="270.722" y2="408.721" gradientUnits="userSpaceOnUse"><stop stop-color="#FFA155"/><stop offset="1" stop-color="#FFA155"/></linearGradient><linearGradient id="M" x1="262.449" y1="399.138" x2="270.552" y2="384.295" gradientUnits="userSpaceOnUse"><stop offset=".005" stop-color="#E6E6E6"/><stop offset="1" stop-color="#FFDCC2"/></linearGradient><linearGradient id="N" x1="271.965" y1="399.086" x2="277.909" y2="388.198" gradientUnits="userSpaceOnUse"><stop offset=".005" stop-color="#E6E6E6"/><stop offset="1" stop-color="#FFDCC2"/></linearGradient><linearGradient id="O" x1="257.521" y1="399.086" x2="263.464" y2="388.198" gradientUnits="userSpaceOnUse"><stop offset=".005" stop-color="#E6E6E6"/><stop offset="1" stop-color="#FFDCC2"/></linearGradient><linearGradient id="P" x1="408.655" y1="493.391" x2="512.985" y2="493.391" gradientUnits="userSpaceOnUse"><stop stop-color="#3076A1"/><stop offset="1" stop-color="#639C38"/></linearGradient><linearGradient id="Q" x1="399.591" y1="478.182" x2="535.811" y2="478.182" gradientUnits="userSpaceOnUse"><stop stop-color="#3076A1"/><stop offset="1" stop-color="#639C38"/></linearGradient><linearGradient id="R" x1="368.295" y1="457.573" x2="456.16" y2="457.573" gradientUnits="userSpaceOnUse"><stop stop-color="#3076A1"/><stop offset="1" stop-color="#639C38"/></linearGradient><linearGradient id="S" x1="392.717" y1="476.574" x2="419.357" y2="476.574" gradientUnits="userSpaceOnUse"><stop stop-color="#3076A1"/><stop offset="1" stop-color="#639C38"/></linearGradient><linearGradient id="T" x1="332.422" y1="481.853" x2="418.426" y2="481.853" gradientUnits="userSpaceOnUse"><stop stop-color="#3076A1"/><stop offset="1" stop-color="#639C38"/></linearGradient><linearGradient id="U" x1="390.008" y1="676.715" x2="462.368" y2="395.318" gradientUnits="userSpaceOnUse"><stop stop-color="#3076A1"/><stop offset="1" stop-color="#639C38"/></linearGradient><linearGradient id="V" x1="416.31" y1="530.845" x2="448.105" y2="530.845" gradientUnits="userSpaceOnUse"><stop stop-color="#3076A1"/><stop offset="1" stop-color="#639C38"/></linearGradient><linearGradient id="W" x1="389.008" y1="588.171" x2="447.788" y2="588.171" gradientUnits="userSpaceOnUse"><stop stop-color="#FF9340"/><stop offset="1" stop-color="#FFCE45"/></linearGradient><linearGradient id="X" x1="389.008" y1="588.171" x2="447.788" y2="588.171" gradientUnits="userSpaceOnUse"><stop stop-color="#C97332"/><stop offset="1" stop-color="#FFCE45"/></linearGradient></defs></svg>