<svg width="850" height="642" viewBox="0 0 850 642" fill="none" xmlns="http://www.w3.org/2000/svg"><path d="M322.06 301.876a115.305 115.305 0 0 0-14.043-26.424c-40.377-57.791-124.936-69.728-189.026-26.713-66.057 44.371-86.25 129.503-45.081 189.232 11.53 16.729 26.621 29.679 43.792 38.545 29.621 15.356 56.47 35.106 77.547 60.161 33.849 40.429 98.92 50.396 151.283 14.305 62.073-42.784 68.072-121.941 25.924-166.256-22.442-23.617-38.757-52.284-50.396-82.85z" fill="url(#a)"/><path d="M552.793 33.07h-61.882v8.786h61.882v-8.787z" fill="url(#b)"/><path d="M603.452 33.07h-41.049v8.786h41.049v-8.787z" fill="url(#c)"/><path d="M710.708 33.07h-99.121v8.786h99.121v-8.787z" fill="url(#d)"/><path d="M445.915 165.929h-63.701v8.786h63.701v-8.786z" fill="url(#e)"/><path d="M544.419 66.087H483.6v8.786h60.819v-8.786z" fill="url(#f)"/><path d="M479.139 99.104h-25.982v8.787h25.982v-8.787z" fill="url(#g)"/><path d="M485.557 132.637h-58.381v8.786h58.381v-8.786z" fill="url(#h)"/><path d="M574.965 132.637h-80.587v8.786h80.587v-8.786z" fill="url(#i)"/><path d="M443.032 99.38h-60.818v8.786h60.818v-8.787z" fill="url(#j)"/><path d="M418.32 132.637h-36.106v8.786h36.106v-8.786z" fill="url(#k)"/><path d="M525.473 99.38h-34.047v8.786h34.047v-8.787z" fill="url(#l)"/><path d="M442.758 33.07H381.94v8.786h60.818v-8.787z" fill="url(#m)"/><path d="M468.671 66.087H381.94v8.786h86.731v-8.786z" fill="url(#n)"/><path d="M845.215 33.07h-77.499v8.786h77.499v-8.787z" fill="url(#o)"/><path d="M744.309 66.087H666.81v8.786h77.499v-8.786z" fill="url(#p)"/><path d="M652.636 66.087h-45.442v8.786h45.442v-8.786z" fill="url(#q)"/><path d="M589.174 66.087H560.79v8.786h28.384v-8.786z" fill="url(#r)"/><path d="M425.597.018h-44.378v8.786h44.378V.018z" fill="url(#s)"/><path d="M534.671 166.169h-35.043v8.787h35.043v-8.787z" fill="url(#t)"/><path d="M450.857.018h-14.346v8.786h14.346V.018z" fill="url(#u)"/><path d="M849.127.018H730.683v8.786h118.444V.018z" fill="url(#v)"/><path d="M719.734.018h-38.749v8.786h38.749V.018z" fill="url(#w)"/><path d="M758.483 33.07h-38.749v8.786h38.749v-8.787z" fill="url(#x)"/><path d="M670.723.018h-82.441v8.786h82.441V.018z" fill="url(#y)"/><path d="M576.612.018h-28.384v8.786h28.384V.018z" fill="url(#z)"/><path d="M481.13 33.07h-28.384v8.786h28.384v-8.787z" fill="url(#A)"/><path d="M486.758 166.169h-28.384v8.787h28.384v-8.787z" fill="url(#B)"/><path d="M537.383.018H487.96v8.786h49.423V.018z" fill="url(#C)"/><path d="M323.459 156.402l-1.013-21.429 7.897-.371 1.012 21.429-7.896.371zm.629 13.911l-.371-8.173 7.896-.371.371 8.173-7.896.371zm33.357-1.979l9.167-19.396-7.149-3.376-9.166 19.396 7.148 3.376zm-5.925 12.602l3.483-7.403-7.148-3.376-3.483 7.403 7.148 3.376zm-54.492-16.929l-11.018-18.396 6.762-4.05 11.017 18.396-6.761 4.05zm7.139 11.944l-4.222-7.036 6.762-4.05 4.221 7.036-6.761 4.05z" fill="#D44040"/><path opacity=".72" d="M410.29 295.082h33.978c4.359 0 7.86-3.535 7.86-7.86v-33.979c0-4.358-3.535-7.859-7.86-7.859H410.29a7.858 7.858 0 0 0-7.86 7.859v33.979c0 4.359 3.535 7.86 7.86 7.86z" fill="#E0E0E0"/><path d="M420.243 311.625c-1.716-1.132-4.05-.858-5.663-.446l.584-4.256h-22.687l3.638 26.05h15.445l.343-2.437.309-2.333c2.334-.035 4.428-.858 6.109-2.403 2.437-2.231 3.844-5.869 3.844-9.919 0-2.471-1.064-3.672-1.922-4.256zm-3.603 12.322c-1.167 1.064-2.54 1.647-4.085 1.75l1.648-11.841c1.201-.412 3.501-.961 4.668-.172.205.138.823.55.823 2.163 0 3.363-1.132 6.315-3.054 8.1z" fill="url(#D)"/><mask id="F" maskUnits="userSpaceOnUse" x="392" y="306" width="20" height="27"><path d="M411.525 332.973H396.08l-3.638-26.085h8.34c.034 0-2.986 23.545 10.743 26.085z" fill="url(#E)"/></mask><g mask="url(#F)"><path d="M411.525 332.973H396.08l-3.638-26.085h8.34c.034 0-2.986 23.545 10.743 26.085z" fill="url(#G)"/><path d="M402.909 288.938s-4.77 1.579-3.02 5.835c1.75 4.256 4.805 6.899 1.956 12.115 0 0 5.286-3.191 2.815-8.477-2.471-5.32-3.982-6.796-1.751-9.473z" fill="url(#H)"/><path d="M409.74 293.743s-3.501 1.167-2.197 4.291c1.304 3.123 3.535 5.079 1.442 8.889 0 0 3.878-2.334 2.059-6.247-1.819-3.912-2.917-5.011-1.304-6.933z" fill="url(#I)"/><path d="M397.006 293.743s-3.5 1.167-2.196 4.291c1.304 3.123 3.535 5.079 1.441 8.889 0 0 3.879-2.334 2.06-6.247-1.819-3.912-2.918-5.011-1.305-6.933z" fill="url(#J)"/></g><path d="M623.221 465.352c-4.839-22.172 5.629-27.732 15.788-33.052 8.272-4.359 16.131-8.512 15.685-21.588-.549-17.333 11.258-23.648 21.657-29.208 7.757-4.153 15.068-8.031 16.166-15.925 2.643-18.98 20.112-42.559 20.318-42.8l1.099.824c-.172.24-17.47 23.545-20.044 42.147-1.202 8.581-8.787 12.631-16.852 16.955-10.571 5.629-21.486 11.464-20.937 27.972.447 13.935-8.134 18.431-16.405 22.824-10.125 5.354-19.701 10.4-15.068 31.576l-1.407.275z" fill="url(#K)"/><path d="M628.575 459.689c-.24 0-.48 0-.686-.034-4.393-.309-8.684-3.673-13.523-10.503l-.309-.412.343-.412c.069-.103 7.86-9.541 4.977-27.32-.652-4.153-1.544-7.31-2.265-9.884-1.03-3.707-1.716-6.178-.584-8.135 1.476-2.505 5.423-3.775 16.578-6.452 11.875-2.814 15.856-16.2 19.357-28.007 3.295-11.12 6.418-21.588 15.651-21.279 8.477.309 21.382-12.974 32.777-24.712 10.571-10.88 20.525-21.142 26.874-20.936 1.545.069 2.815.686 3.844 1.922 5.663 6.761.378 17.024-4.736 26.942-4.359 8.478-8.512 16.475-5.835 21.726 3.329 6.624 3.81 12.631 1.339 17.333-2.918 5.594-9.679 9.164-20.147 10.708-9.542 1.373-10.606 11.807-11.67 22.858-1.27 12.871-2.711 27.458-18.774 28.865-11.909 1.03-19.941 9.404-27.011 16.783-5.663 5.835-10.537 10.949-16.2 10.949zm-12.836-10.88c4.427 6.109 8.409 9.232 12.219 9.507 5.319.412 10.193-4.668 15.822-10.537 7.242-7.551 15.479-16.097 27.869-17.195 14.93-1.304 16.234-14.69 17.538-27.629 1.133-11.566 2.231-22.515 12.837-24.06 9.987-1.441 16.44-4.805 19.117-9.987 2.231-4.325 1.785-9.885-1.373-16.097-2.986-5.903 1.304-14.175 5.835-22.961 4.908-9.542 10.022-19.392 4.908-25.467-.755-.927-1.716-1.373-2.849-1.407-5.766-.206-15.513 9.85-25.878 20.524-11.979 12.356-24.369 25.124-33.43 25.124h-.343c-8.203-.309-11.017 9.232-14.312 20.318-3.604 12.15-7.688 25.947-20.319 28.933-10.09 2.403-14.483 3.741-15.719 5.801-.858 1.476-.275 3.569.721 7.07.72 2.574 1.613 5.8 2.299 10.022 2.677 16.543-3.398 25.982-4.942 28.041z" fill="url(#L)"/><path d="M629.056 455.056c-.172 0-.309 0-.481-.035-7.208-.652-12.733-16.406-18.088-31.644-2.539-7.242-4.942-14.072-7.276-18.431-1.819-3.398-4.118-6.933-6.349-10.365-5.938-9.13-12.047-18.568-10.057-26.874 1.064-4.359 4.188-7.997 9.576-11.086 11.773-6.796 9.988-10.64 6.007-19.049-2.918-6.178-6.899-14.621-7.071-27.903-.068-5.698-.206-10.64-.309-14.999-.377-14.003-.549-21.039 2.437-23.579 1.236-1.064 2.986-1.339 5.457-.858 4.256.824 6.075 4.221 8.032 7.86 2.471 4.633 5.285 9.884 13.763 11.635 7.962 1.681 15.616 3.947 17.71 9.232 1.476 3.707.068 8.615-4.291 14.93-1.063 1.545-1.441 2.849-1.098 3.981.687 2.54 4.668 4.394 9.233 6.556 6.521 3.055 14.655 6.83 16.955 14.69 1.853 6.315-.309 14.243-6.556 24.128-14.827 23.442-14.243 39.367-13.728 53.405.377 10.399.755 20.215-5.526 31.198-2.746 4.839-5.492 7.208-8.34 7.208zm-28.282-183.725c-1.064 0-1.853.24-2.436.755-2.506 2.128-2.3 9.37-1.957 22.515.103 4.359.24 9.301.309 15.033.137 13.008 4.084 21.28 6.933 27.355 3.947 8.34 6.315 13.385-6.555 20.799-5.046 2.917-7.963 6.246-8.924 10.228-1.853 7.722 4.119 16.92 9.885 25.81 2.231 3.466 4.564 7.035 6.383 10.468 2.369 4.462 4.806 11.36 7.345 18.636 4.977 14.141 10.606 30.169 16.921 30.753 2.403.206 4.942-1.957 7.551-6.521 6.075-10.64 5.732-19.838 5.32-30.478-.549-14.244-1.133-30.375 13.934-54.16 6.041-9.576 8.135-17.092 6.418-23.03-2.128-7.276-9.61-10.777-16.234-13.831-4.908-2.3-9.129-4.256-9.987-7.414-.412-1.544 0-3.226 1.304-5.114 4.084-5.938 5.457-10.399 4.153-13.66-1.888-4.702-9.507-6.899-16.749-8.409-9.095-1.888-12.184-7.688-14.69-12.321-1.853-3.467-3.466-6.487-7.07-7.174a7.662 7.662 0 0 0-1.854-.24z" fill="url(#M)"/><path d="M629.193 463.464l-1.304-.412c7.242-22.927-5.869-74.341-9.782-86.868-1.922-6.144-.137-15.411 1.579-24.369 2.231-11.566 4.53-23.544-1.339-28.006-10.983-8.409-10.399-27.904-10.365-28.727l1.373.034c0 .206-.584 19.632 9.85 27.629 6.521 5.011 4.153 17.367 1.854 29.345-1.682 8.786-3.433 17.882-1.614 23.716 4.806 15.445 16.99 64.765 9.748 87.658z" fill="url(#N)"/><path d="M574.347 314.576c-3.021-7.653-14.827-6.486-13.729 4.325 1.098 10.846 8.683 22.412-2.883 40.809-11.566 18.43 14.827 22.034 24.197 33.601 9.404 11.566 12.63 27.457 20.593 37.582 7.963 10.125 13.351 34.322 19.872 25.295 6.487-9.027.378-20.765 1.099-37.033.72-16.269 15.204-26.531.72-37.033-14.483-10.468-29.036-13.695-24.231-37.308 2.094-10.434-16.234-6.418-25.638-30.238z" fill="url(#O)"/><path d="M632.934 458.247c-.069-.48-8.1-48.084-26.085-61.127-18.328-13.317-21.657-25.604-28.075-54.571l1.338-.309c6.316 28.624 9.61 40.774 27.561 53.782 18.43 13.385 26.325 60.029 26.633 62.019l-1.372.206z" fill="#fff"/><path d="M616.7 456.566s5.354-13.214-4.393-31.988c-9.713-18.774-17.607-15.891 5.834-30.341 23.442-14.449.138-59.96 20.113-65.76 19.975-5.766 37.308-79.455 52.478-70.085 15.17 9.37-5.045 45.51 5.766 56.356 10.846 10.846 12.287 24.643-10.125 35.798-22.412 11.154 15.891 53.782-14.449 66.79-30.341 13.008-21.623 63.976-55.224 39.23z" fill="url(#P)"/><path d="M625.967 470.569c-.034-.172-3.295-17.092 7.002-38.955 10.502-22.275 15.547-46.609 13.454-65.143-1.133-10.022 5.285-13.935 11.497-17.744 6.11-3.741 12.425-7.586 12.082-17.47-.309-8.924 3.466-29.86 3.638-30.718l1.338.24c-.034.206-3.912 21.657-3.603 30.443.377 10.675-6.281 14.759-12.734 18.672-6.109 3.741-11.909 7.276-10.88 16.44 2.094 18.739-2.951 43.382-13.557 65.863-10.09 21.417-6.933 37.96-6.899 38.097l-1.338.275z" fill="#fff"/><path d="M650.472 377.179c6.83-6.315 15.823-7.241 13.935 2.163s-8.306 12.081-5.114 17.984c3.226 5.904 8.58 11.807-.549 19.049-9.13 7.242-14.209 8.066-16.887 21.726-2.677 13.694-2.162 23.03-13.934 23.613-11.773.583-7.242-16.646-3.501-24.403 0 0 5.629-8.889 1.888-20.524-3.741-11.67-10.983-17.951 4.29-21.932 15.307-3.981 15.273-13.385 19.872-17.676z" fill="#fff"/><path d="M628.816 470.466c-.035-1.682-.858-41.083 6.521-47.707 7.516-6.762 8.992-18.74 9.164-25.296.24-8.511 11.257-13.557 11.703-13.763l.549 1.236c-.103.034-10.708 4.908-10.914 12.596-.24 8.237-2.093 19.495-9.61 26.256-6.899 6.213-6.075 46.266-6.075 46.678h-1.338z" fill="url(#Q)"/><path d="M656.479 454.369l-12.219 46.403h-27.32l-12.253-46.403h51.792z" fill="url(#R)"/><path d="M656.479 454.369s-26.909 5.045-26.909 46.403h-12.63l-12.219-46.403h51.758z" fill="url(#S)"/><path d="M444.92 258.152v24.162l-35.248-.034v-24.128h35.248z" fill="#FFC655"/><path d="M444.92 282.314l-17.607-13.522-17.641 13.488 35.248.034z" fill="#FFBC55"/><path d="M444.92 258.152l-14.896 12.733-2.711 2.3-2.746-2.3-14.895-12.733h35.248z" fill="#FFA655"/><path d="M373.874 367.913c.308-1.202.137-3.089-3.673-5.217-3.81-2.128-12.287-8.272-15.204-8.443-2.918-.172-7.345.926-8.547.892-1.166-.034-3.466 7.825-3.466 7.825l30.89 4.943z" fill="#EEA886"/><path d="M272.247 290.483l25.467 49.972 52.169 13.42-5.045 13.214-56.082-3.981-27.526-45.82 11.017-26.805z" fill="#B53737"/><path d="M426.867 493.29s11.669 4.908 16.886 6.624c5.217 1.716 24.3-.206 26.428 1.305 2.128 1.544 2.196 7.31-.858 8.305-3.055.996-25.879 6.247-33.842 5.492-7.962-.755-21.931 4.256-25.295 3.604-3.329-.652-3.638-18.122-2.917-22.172.721-3.981 19.598-3.158 19.598-3.158z" fill="#202338"/><path d="M424.19 486.288l2.677 7.002s-14.072 4.668-19.598 3.192l-1.853-7.139 18.774-3.055zm-28.796 13.249s11.017 6.246 15.994 8.58c4.976 2.3 24.162 2.677 26.084 4.428 1.922 1.75 1.339 7.516-1.853 8.134-3.158.652-26.428 3.158-34.253 1.476-7.791-1.682-22.309 1.613-25.536.583-3.226-1.029-1.475-18.431-.274-22.343 1.201-3.947 19.838-.858 19.838-.858z" fill="#292C47"/><path d="M393.746 492.26l1.648 7.277s-14.518 2.986-19.838.858l-.996-7.311 19.186-.824z" fill="#3D416B"/><path d="M283.402 361.151s50.213.412 56.356 1.236c6.659.892 31.885 1.133 35.043 5.594 31.851 45.031 53.508 119.303 53.508 119.303l-25.158 4.633s-24.334-43.966-34.528-66.79c-9.164-20.49-16.989-25.776-36.209-25.329-19.221.446-80.657-3.501-116.111-7.585l67.099-31.062z" fill="#202338"/><path d="M294.247 258.461s4.908 21.588 3.707 33.498c-1.201 11.909-20.216 41.769-21.108 48.393-.892 6.624 4.29 20.353 4.29 20.353l-65.795 30.444s.103-19.049 2.815-41.667c2.711-22.618 11.223-40.5 14.209-53.267 10.159-43.589 47.398-49.664 47.398-49.664l14.484 11.91z" fill="#CFBEB6"/><path d="M280.93 360.087s51.689.412 57.867 1.236c6.658.892 33.395 1.304 35.935 6.109 18.225 34.322 22.343 125.995 22.343 125.995l-23.476 2.643s-11.532-46.506-15.136-68.678c-3.604-22.137-8.134-25.363-27.354-24.917-19.22.446-94.488 20.49-115.733-11.326l65.554-31.062z" fill="#292C47"/><path d="M344.014 223.727s-.618 13.248-4.222 13.18c-2.986-.035-4.084 12.664-4.427 14.655-.343 1.991-5.663.378-7.276.824-1.614.446-12.15 11.395-16.2 9.473-4.05-1.922-17.642-18.191-19.392-25.879-1.751-7.688 7.619-31.954 16.303-39.367 8.683-7.379 36.175 3.913 35.214 27.114z" fill="#EEA886"/><path d="M305.299 251.287s-.618 1.064-1.545 2.712a266.429 266.429 0 0 0-2.437 4.461c-2.436 4.565-5.182 10.125-5.8 12.974-1.167 5.32-13.248-24.471-13.248-24.471s8.752-15.205 15.685-33.567c6.933-18.362 7.345 37.891 7.345 37.891z" fill="#EEA886"/><path d="M343.774 226.541s12.013-7.482 6.796-21.519c-5.183-14.038-32.091-11.052-34.494-11.738-2.402-.721-14.518-6.933-21.176 17.298-6.659 24.231-4.531 20.833-4.531 20.833s8.066-8.443 12.322-7.07c4.633 1.51 11.909 4.599 11.909 4.599s2.094-11.498 8.409-9.507c6.35 1.99 16.44 1.682 20.765 7.104z" fill="#754836"/><path d="M311.992 220.054c.275-1.578 2.025-8.031-4.668-7.653-6.692.412-5.251 15.444-4.496 16.062.755.618 6.762 4.874 9.164-8.409z" fill="#EEA886"/><path d="M303.72 253.999a262.975 262.975 0 0 0-2.437 4.462c-4.633-8.306-7.31-17.299-8.1-20.079 1.682 4.771 10.537 15.617 10.537 15.617z" fill="#A77860"/><path d="M308.216 255.852s-.103-4.427-.274-5.766c-.172-1.338 2.677-.446 3.226 1.133.515 1.579-2.952 4.633-2.952 4.633z" fill="#C98462"/><path d="M329.29 253.45s.446 1.922.24 2.883c0 0-.514 1.682-.823 2.883a8.21 8.21 0 0 0-.206.961c-.103.926-.035 3.02-.927 5.182-.858 2.163-5.286 11.635-5.286 11.635l-6.212-1.853-4.908-1.647s-3.844-14.93-3.26-17.058c.068-.206.137-.412.206-.584.652-1.75 1.887-2.78 2.333-3.638.172-.309 2.06-3.398 3.124-3.569 1.476-.206 2.608.24 3.295.995 0 0 2.917-.309 4.564.789 0 0 2.678-.343 4.359 1.579 0 .035 2.78-.034 3.501 1.442z" fill="#DE9D7D"/><path d="M283.573 244.526s7.62 17.744 14.107 23.751l-3.055 10.536-14.861-32.262 3.809-2.025z" fill="#EDDAD3"/><path d="M280.93 360.087s-.961-2.54-1.681-5.011c-.721-2.505-20.216 7.791-20.216 7.791l4.702 5.423 17.195-8.203z" fill="#323657"/><path d="M292.291 300.059a293.35 293.35 0 0 0-5.32 11.566c-3.707 8.546-7.001 17.264-9.919 25.776a344.19 344.19 0 0 0-2.951 9.026c-11.189 35.455-15.651 65.521-15.651 65.521s-41.873-11.155-48.154-16.681c0 0 10.228-148.373 69.468-148.716.377.583 22.309 33.532 12.527 53.508z" fill="#D44040"/><path d="M277.087 337.401c-1.03 3.02-2.025 6.04-2.952 9.026-9.232-14.586-25.501-49.663-25.741-50.212l28.693 41.186z" fill="#631E1E"/><path d="M309.04 270.988l15.891 5.286-14.655 77.224c-1.648 7.31-10.88 9.713-15.857 4.118-13.694-15.342-35.386-40.946-44.859-59.033-14.38-27.423 9.645-36.965 15.411-30.066 5.766 6.899 31.233 53.473 31.233 53.473l12.836-51.002z" fill="#D44040"/><path d="M188.571 233.68l24.608 72.179c.172.549.309 1.132.344 1.716l5.903 94.9 102.897 2.299 29.997 109.143c.892 3.295.343 6.83-1.648 9.645-1.304 1.853-3.157 3.501-5.766 3.809-6.521.79-138.66 0-138.66 0v-5.457c0-2.711 2.266-4.942 5.046-4.942h123.524c2.025 0 3.981-.892 5.251-2.471.721-.927 1.27-2.059 1.064-3.364-.549-3.466-26.908-92.428-26.908-92.428l-99.499-1.751c-4.531-.068-8.203-3.603-8.409-8.031l-4.324-102.141a9.05 9.05 0 0 0-.309-1.922l-20.113-69.022s-2.094-4.805 1.751-5.285c3.844-.412 4.839 1.853 5.251 3.123z" fill="#5E5E5B"/><path d="M322.906 406.765s.069-7.894-10.708-8.443c-12.39-.618-93.081-1.202-93.081-1.202l.549 8.375 103.24 1.27zm53.336-67.648v3.741h178.542v-3.741c0-3.501-2.334-6.315-5.251-6.315H381.494c-2.883 0-5.252 2.814-5.252 6.315z" fill="#D6985E"/><path d="M490.705 525.484h53.954v-8.615h-48.668a5.288 5.288 0 0 0-5.286 5.286v3.329z" fill="#807066"/><path d="M534.095 525.501h7.139V342.875h-7.139v182.626zm-14.302 0h7.139V342.875h-7.139v182.626z" fill="#807066"/><path d="M473.373 194.245h-5.697v126.544h5.697V194.245z" fill="#6E6760"/><path d="M479.482 332.801h31.404v-1.887h-31.404c-1.648 0-2.815-.378-3.501-1.167-.824-.927-.686-2.163-.686-2.197v-40.706h-1.888v40.534c-.034.378-.103 2.163 1.167 3.57 1.029 1.236 2.677 1.853 4.908 1.853z" fill="#918880"/><path d="M437.541 329.472h32.297v3.329h-35.352v-.274a3.062 3.062 0 0 1 3.055-3.055z" fill="#6E6760"/><path d="M451.99 342.858h102.794v-3.741c0-3.501-2.402-6.315-5.388-6.315h-81.309l-16.097 10.056z" fill="#BC8551"/><path d="M544.384 296.386s-9.85 1.476-24.231 9.13c-14.381 7.653 11.258 2.299 24.231-9.13z" fill="#757D28"/><path d="M518.197 306.614s7.139-13.626 18.259-19.872c0 0-3.226 9.472-14.964 19.632-11.738 10.159-3.295.24-3.295.24z" fill="#5C9E33"/><path d="M512.5 297.278s-7.38-9.026-10.331-13.145c-2.952-4.118 6.212 19.186 6.967 21.657.755 2.471 3.844 4.634 3.364-8.512z" fill="#4D8B33"/><path d="M519.536 311.247c3.295-4.908 5.594-27.08 5.594-27.08-5.732 4.771-11.154 26.154-11.154 26.154s2.299 5.834 5.56.926z" fill="#B1C265"/><path d="M518.814 309.017c.995-2.094-.343-29.243-1.098-26.806-.79 2.471-5.252 12.631-5.252 12.631-.686 6.178 5.355 16.268 6.35 14.175z" fill="#92A05B"/><path d="M511.229 302.976c-1.75-3.158-18.945-20.147-18.945-20.147.171 5.251 10.845 17.71 10.845 17.71s9.851 5.629 8.1 2.437z" fill="#C7CA7F"/><path d="M519.535 310.87c-19.872-7.311-38.577-3.501-38.577-3.501 2.745 3.741 28.727 3.501 28.727 3.501h9.85z" fill="#5C9E33"/><path d="M515.383 311.522c-10.091-10.983-33.876-16.268-33.876-16.268 7.036 7.173 17.126 13.488 17.126 13.488s26.84 13.763 16.75 2.78z" fill="#518330"/><path d="M517.407 310.321c-5.903-10.915-28.418-21.726-28.418-21.726 0 3.432 18.225 19.495 18.225 19.495s16.097 13.179 10.193 2.231z" fill="#6C9F44"/><path d="M517.27 311.419c4.428-.824 20.833-16.92 20.833-16.92-4.255.823-20.833 11.326-20.833 11.326s-4.427 6.384 0 5.594z" fill="#4A8A33"/><path d="M525.13 311.488c5.594.24 23.476-10.915 23.476-10.915-5.354 0-17.641 3.261-23.648 4.908a8.838 8.838 0 0 0-5.354 4.188c-3.192 5.697.652 1.613 5.526 1.819z" fill="#689C2F"/><path d="M545.826 306.648c-1.682-.137-12.39.344-17.024.549a8.14 8.14 0 0 0-4.976 1.957c-1.991 1.716-1.408 3.02 1.304 3.569 3.604.721 22.824-5.903 20.696-6.075z" fill="#478B33"/><path d="M516.789 309.565c.412-1.681.446-3.432.24-5.148-.789-5.835-3.5-23.956-7.482-26.702 0 0-1.784 23.442 1.957 31.336 2.848 5.937 4.53 3.741 5.285.514z" fill="#61A23E"/><path d="M516.755 312.758c2.265-2.163 11.463-23.03 11.463-23.03-8.614 5.045-12.424 15.239-12.424 15.239s-1.304 9.953.961 7.791z" fill="#5C9B3B"/><path d="M495.578 314.336l2.815 18.466h33.498l2.848-18.466h-39.161z" fill="#31535F"/><path d="M534.739 314.336h-39.161l2.849 18.431h7.036s6.006-11.806 28.453-13.111l.823-5.32z" fill="#27434C"/><path d="M536.284 310.389H494v6.178h42.284v-6.178z" fill="#31535F"/><defs><linearGradient id="a" x1="285.5" y1="598" x2="158.242" y2="86.975" gradientUnits="userSpaceOnUse"><stop stop-color="#00F7E7"/><stop offset="1" stop-color="#1B0052"/></linearGradient><linearGradient id="b" x1="639.572" y1="327.366" x2="493.54" y2="-32.224" gradientUnits="userSpaceOnUse"><stop stop-color="#D9D9D9"/><stop offset=".322" stop-color="#E5E5E5"/><stop offset="1" stop-color="#fff"/></linearGradient><linearGradient id="c" x1="692.021" y1="306.065" x2="545.99" y2="-53.524" gradientUnits="userSpaceOnUse"><stop stop-color="#D9D9D9"/><stop offset=".322" stop-color="#E5E5E5"/><stop offset="1" stop-color="#fff"/></linearGradient><linearGradient id="d" x1="759.151" y1="278.803" x2="613.12" y2="-80.785" gradientUnits="userSpaceOnUse"><stop stop-color="#D9D9D9"/><stop offset=".322" stop-color="#E5E5E5"/><stop offset="1" stop-color="#fff"/></linearGradient><linearGradient id="e" x1="500.728" y1="383.749" x2="354.698" y2="24.163" gradientUnits="userSpaceOnUse"><stop stop-color="#D9D9D9"/><stop offset=".322" stop-color="#E5E5E5"/><stop offset="1" stop-color="#fff"/></linearGradient><linearGradient id="f" x1="621.335" y1="334.771" x2="475.303" y2="-24.818" gradientUnits="userSpaceOnUse"><stop stop-color="#D9D9D9"/><stop offset=".322" stop-color="#E5E5E5"/><stop offset="1" stop-color="#fff"/></linearGradient><linearGradient id="g" x1="568.757" y1="356.127" x2="422.724" y2="-3.465" gradientUnits="userSpaceOnUse"><stop stop-color="#D9D9D9"/><stop offset=".322" stop-color="#E5E5E5"/><stop offset="1" stop-color="#fff"/></linearGradient><linearGradient id="h" x1="548.66" y1="364.284" x2="402.63" y2="4.697" gradientUnits="userSpaceOnUse"><stop stop-color="#D9D9D9"/><stop offset=".322" stop-color="#E5E5E5"/><stop offset="1" stop-color="#fff"/></linearGradient><linearGradient id="i" x1="615.886" y1="336.983" x2="469.856" y2="-22.603" gradientUnits="userSpaceOnUse"><stop stop-color="#D9D9D9"/><stop offset=".322" stop-color="#E5E5E5"/><stop offset="1" stop-color="#fff"/></linearGradient><linearGradient id="j" x1="522.7" y1="374.826" x2="376.669" y2="15.239" gradientUnits="userSpaceOnUse"><stop stop-color="#D9D9D9"/><stop offset=".322" stop-color="#E5E5E5"/><stop offset="1" stop-color="#fff"/></linearGradient><linearGradient id="k" x1="500.482" y1="383.848" x2="354.452" y2="24.262" gradientUnits="userSpaceOnUse"><stop stop-color="#D9D9D9"/><stop offset=".322" stop-color="#E5E5E5"/><stop offset="1" stop-color="#fff"/></linearGradient><linearGradient id="l" x1="604.961" y1="341.418" x2="458.931" y2="-18.166" gradientUnits="userSpaceOnUse"><stop stop-color="#D9D9D9"/><stop offset=".322" stop-color="#E5E5E5"/><stop offset="1" stop-color="#fff"/></linearGradient><linearGradient id="m" x1="545.608" y1="365.524" x2="399.576" y2="5.934" gradientUnits="userSpaceOnUse"><stop stop-color="#D9D9D9"/><stop offset=".322" stop-color="#E5E5E5"/><stop offset="1" stop-color="#fff"/></linearGradient><linearGradient id="n" x1="545.203" y1="365.69" x2="399.171" y2="6.101" gradientUnits="userSpaceOnUse"><stop stop-color="#D9D9D9"/><stop offset=".322" stop-color="#E5E5E5"/><stop offset="1" stop-color="#fff"/></linearGradient><linearGradient id="o" x1="883.906" y1="228.139" x2="737.874" y2="-131.45" gradientUnits="userSpaceOnUse"><stop stop-color="#D9D9D9"/><stop offset=".322" stop-color="#E5E5E5"/><stop offset="1" stop-color="#fff"/></linearGradient><linearGradient id="p" x1="785.773" y1="267.992" x2="639.741" y2="-91.598" gradientUnits="userSpaceOnUse"><stop stop-color="#D9D9D9"/><stop offset=".322" stop-color="#E5E5E5"/><stop offset="1" stop-color="#fff"/></linearGradient><linearGradient id="q" x1="720.829" y1="294.367" x2="574.797" y2="-65.222" gradientUnits="userSpaceOnUse"><stop stop-color="#D9D9D9"/><stop offset=".322" stop-color="#E5E5E5"/><stop offset="1" stop-color="#fff"/></linearGradient><linearGradient id="r" x1="673.68" y1="313.517" x2="527.647" y2="-46.076" gradientUnits="userSpaceOnUse"><stop stop-color="#D9D9D9"/><stop offset=".322" stop-color="#E5E5E5"/><stop offset="1" stop-color="#fff"/></linearGradient><linearGradient id="s" x1="549.436" y1="363.965" x2="403.406" y2="4.382" gradientUnits="userSpaceOnUse"><stop stop-color="#D9D9D9"/><stop offset=".322" stop-color="#E5E5E5"/><stop offset="1" stop-color="#fff"/></linearGradient><linearGradient id="t" x1="589.159" y1="347.835" x2="443.13" y2="-11.748" gradientUnits="userSpaceOnUse"><stop stop-color="#D9D9D9"/><stop offset=".322" stop-color="#E5E5E5"/><stop offset="1" stop-color="#fff"/></linearGradient><linearGradient id="u" x1="583.986" y1="349.933" x2="437.957" y2="-9.65" gradientUnits="userSpaceOnUse"><stop stop-color="#D9D9D9"/><stop offset=".322" stop-color="#E5E5E5"/><stop offset="1" stop-color="#fff"/></linearGradient><linearGradient id="v" x1="881.212" y1="229.232" x2="735.182" y2="-130.354" gradientUnits="userSpaceOnUse"><stop stop-color="#D9D9D9"/><stop offset=".322" stop-color="#E5E5E5"/><stop offset="1" stop-color="#fff"/></linearGradient><linearGradient id="w" x1="804.347" y1="260.445" x2="658.318" y2="-99.138" gradientUnits="userSpaceOnUse"><stop stop-color="#D9D9D9"/><stop offset=".322" stop-color="#E5E5E5"/><stop offset="1" stop-color="#fff"/></linearGradient><linearGradient id="x" x1="826.097" y1="251.616" x2="680.066" y2="-107.971" gradientUnits="userSpaceOnUse"><stop stop-color="#D9D9D9"/><stop offset=".322" stop-color="#E5E5E5"/><stop offset="1" stop-color="#fff"/></linearGradient><linearGradient id="y" x1="743.521" y1="285.149" x2="597.491" y2="-74.437" gradientUnits="userSpaceOnUse"><stop stop-color="#D9D9D9"/><stop offset=".322" stop-color="#E5E5E5"/><stop offset="1" stop-color="#fff"/></linearGradient><linearGradient id="z" x1="685.914" y1="308.544" x2="539.884" y2="-51.042" gradientUnits="userSpaceOnUse"><stop stop-color="#D9D9D9"/><stop offset=".322" stop-color="#E5E5E5"/><stop offset="1" stop-color="#fff"/></linearGradient><linearGradient id="A" x1="592.433" y1="346.513" x2="446.4" y2="-13.078" gradientUnits="userSpaceOnUse"><stop stop-color="#D9D9D9"/><stop offset=".322" stop-color="#E5E5E5"/><stop offset="1" stop-color="#fff"/></linearGradient><linearGradient id="B" x1="550.881" y1="363.379" x2="404.853" y2="3.796" gradientUnits="userSpaceOnUse"><stop stop-color="#D9D9D9"/><stop offset=".322" stop-color="#E5E5E5"/><stop offset="1" stop-color="#fff"/></linearGradient><linearGradient id="C" x1="643.235" y1="325.873" x2="497.206" y2="-33.711" gradientUnits="userSpaceOnUse"><stop stop-color="#D9D9D9"/><stop offset=".322" stop-color="#E5E5E5"/><stop offset="1" stop-color="#fff"/></linearGradient><linearGradient id="D" x1="392.457" y1="319.933" x2="422.164" y2="319.933" gradientUnits="userSpaceOnUse"><stop stop-color="#FF9F55"/><stop offset="1" stop-color="#FFD255"/></linearGradient><linearGradient id="E" x1="393.363" y1="335.73" x2="404.4" y2="315.513" gradientUnits="userSpaceOnUse"><stop stop-color="#fff"/><stop offset="1"/></linearGradient><linearGradient id="G" x1="393.363" y1="335.73" x2="404.4" y2="315.513" gradientUnits="userSpaceOnUse"><stop stop-color="#FFA155"/><stop offset="1" stop-color="#FFA155"/></linearGradient><linearGradient id="H" x1="397.111" y1="307.07" x2="404.249" y2="293.994" gradientUnits="userSpaceOnUse"><stop offset=".005" stop-color="#E6E6E6"/><stop offset="1" stop-color="#FFDCC2"/></linearGradient><linearGradient id="I" x1="405.495" y1="307.025" x2="410.731" y2="297.433" gradientUnits="userSpaceOnUse"><stop offset=".005" stop-color="#E6E6E6"/><stop offset="1" stop-color="#FFDCC2"/></linearGradient><linearGradient id="J" x1="392.77" y1="307.025" x2="398.006" y2="297.433" gradientUnits="userSpaceOnUse"><stop offset=".005" stop-color="#E6E6E6"/><stop offset="1" stop-color="#FFDCC2"/></linearGradient><linearGradient id="K" x1="622.012" y1="394.061" x2="713.926" y2="394.061" gradientUnits="userSpaceOnUse"><stop stop-color="#3076A1"/><stop offset="1" stop-color="#639C38"/></linearGradient><linearGradient id="L" x1="614.027" y1="380.662" x2="734.034" y2="380.662" gradientUnits="userSpaceOnUse"><stop stop-color="#3076A1"/><stop offset="1" stop-color="#639C38"/></linearGradient><linearGradient id="M" x1="586.456" y1="362.506" x2="663.863" y2="362.506" gradientUnits="userSpaceOnUse"><stop stop-color="#3076A1"/><stop offset="1" stop-color="#639C38"/></linearGradient><linearGradient id="N" x1="607.971" y1="379.245" x2="631.441" y2="379.245" gradientUnits="userSpaceOnUse"><stop stop-color="#3076A1"/><stop offset="1" stop-color="#639C38"/></linearGradient><linearGradient id="O" x1="554.853" y1="383.895" x2="630.621" y2="383.895" gradientUnits="userSpaceOnUse"><stop stop-color="#3076A1"/><stop offset="1" stop-color="#639C38"/></linearGradient><linearGradient id="P" x1="605.585" y1="555.566" x2="669.332" y2="307.66" gradientUnits="userSpaceOnUse"><stop stop-color="#3076A1"/><stop offset="1" stop-color="#639C38"/></linearGradient><linearGradient id="Q" x1="628.756" y1="427.057" x2="656.767" y2="427.057" gradientUnits="userSpaceOnUse"><stop stop-color="#3076A1"/><stop offset="1" stop-color="#639C38"/></linearGradient><linearGradient id="R" x1="604.704" y1="477.559" x2="656.488" y2="477.559" gradientUnits="userSpaceOnUse"><stop stop-color="#FF9340"/><stop offset="1" stop-color="#FFCE45"/></linearGradient><linearGradient id="S" x1="604.704" y1="477.559" x2="656.488" y2="477.559" gradientUnits="userSpaceOnUse"><stop stop-color="#C97332"/><stop offset="1" stop-color="#FFCE45"/></linearGradient></defs></svg>