<svg width="705" height="675" viewBox="0 0 705 675" fill="none" xmlns="http://www.w3.org/2000/svg"><path d="M251.978.367H150.397V10.78h101.581V.367z" fill="url(#a)"/><path d="M353.719 78.677h-73.347v10.415h73.347V78.677z" fill="url(#b)"/><path d="M413.805 78.677h-48.654v10.415h48.654V78.677z" fill="url(#c)"/><path d="M540.893 78.677H423.406v10.415h117.487V78.677z" fill="url(#d)"/><path d="M227.039 236.153h-75.503v10.415h75.503v-10.415z" fill="url(#e)"/><path d="M343.794.367h-72.087V10.78h72.087V.367z" fill="url(#f)"/><path d="M343.794 117.812h-72.087v10.415h72.087v-10.415z" fill="url(#g)"/><path d="M266.46 156.988h-30.796v10.415h30.796v-10.415z" fill="url(#h)"/><path d="M274.067 196.693h-69.199v10.414h69.199v-10.414z" fill="url(#i)"/><path d="M380.04 196.693h-95.519v10.414h95.519v-10.414z" fill="url(#j)"/><path d="M223.622 157.273h-72.086v10.414h72.086v-10.414z" fill="url(#k)"/><path d="M194.332 196.693h-42.796v10.414h42.796v-10.414z" fill="url(#l)"/><path d="M321.338 157.273h-40.355v10.414h40.355v-10.414z" fill="url(#m)"/><path d="M223.337 78.677h-72.086v10.415h72.086V78.677z" fill="url(#n)"/><path d="M254.052 117.812H151.251v10.415h102.801v-10.415z" fill="url(#o)"/><path d="M455.097.367h-91.858V10.78h91.858V.367z" fill="url(#p)"/><path d="M700.321 78.677h-91.857v10.415h91.857V78.677z" fill="url(#q)"/><path d="M580.76 117.812h-91.857v10.415h91.857v-10.415z" fill="url(#r)"/><path d="M614.891.367h-91.858V10.78h91.858V.367z" fill="url(#s)"/><path d="M472.061 117.812h-53.862v10.415h53.862v-10.415z" fill="url(#t)"/><path d="M505.704.367h-33.643V10.78h33.643V.367z" fill="url(#u)"/><path d="M396.882 117.812h-33.643v10.415h33.643v-10.415z" fill="url(#v)"/><path d="M202.997 39.502h-52.601v10.414h52.601V39.502z" fill="url(#w)"/><path d="M332.28 236.438h-41.535v10.414h41.535v-10.414z" fill="url(#x)"/><path d="M232.897 39.502h-17.004v10.414h17.004V39.502z" fill="url(#y)"/><path d="M705 39.502H564.61v10.414H705V39.502z" fill="url(#z)"/><path d="M551.632 39.502h-45.929v10.414h45.929V39.502z" fill="url(#A)"/><path d="M597.561 78.677h-45.928v10.415h45.928V78.677z" fill="url(#B)"/><path d="M493.541 39.502h-97.716v10.414h97.716V39.502z" fill="url(#C)"/><path d="M381.953 39.502H348.31v10.414h33.643V39.502z" fill="url(#D)"/><path d="M268.778 78.677h-33.643v10.415h33.643V78.677z" fill="url(#E)"/><path d="M275.49 236.438h-33.643v10.414h33.643v-10.414z" fill="url(#F)"/><path d="M335.494 39.502h-58.58v10.414h58.58V39.502z" fill="url(#G)"/><path d="M256.452 351.768a1.877 1.877 0 0 0 .285 2.645c.244.203.528.325.773.366.366 10.496-.326 16.923-4.15 17.086-3.702.163-4.109-5.411-4.109-5.411-.569 2.4.407 7.526 5.248 6.306 4.19-1.017 4.109-13.425 3.946-18.062.326-.123.651-.326.895-.611a1.876 1.876 0 0 0-.285-2.644c-.773-.569-1.952-.447-2.603.325z" fill="#878787"/><path d="M415.229 371.743c1.912 8.339 1.587 27.785 1.587 27.785.529 18.428-1.546 37.345-2.034 47.881 0 .326-.041.651-.041.976a295.009 295.009 0 0 1-.488 7.811h137.786l-.122-7.811c-.284-15.58-.528-32.666-.528-44.871 31.487-8.299 65.496-19.16 64.845-27.093-.651-8.177-25.182-128.43-32.057-133.352-4.678-3.377-34.05-15.133-49.264-20.91-7.038-2.685-12.408-4.556-13.506-4.638-3.499-.203-44.465 2.929-44.465 2.929s-8.136 3.092-14.401 5.98c-10.739 4.923-27.5 12.652-39.501 18.347-3.864 1.831-8.746 4.353-12.774 6.469.489 14.604 1.343 30.226 2.604 46.986-.081.041 2.156 36.572 2.359 73.511zm136.526 13.912c1.708-22.903 8.583-62.241 9.356-65.008.041 0 3.255 3.051 3.255 3.051s1.057.163 1.057.122c0-.04.977.367.977.367s20.869 29.127 21.073 44.789c.122 7.486-16.151 12.815-35.718 16.679z" fill="#323657"/><path d="M409.128 456.196h18.062c.407-2.563.854-5.166 1.342-7.811 3.052-17.248 7.079-36.694 9.235-55.814 3.946-35.433 9.438-70.134 12.367-90.759 7.689-53.699 17.9-77.701 17.9-77.701-4.882 1.465-58.825 26.931-58.825 26.931.488 14.849 1.22 30.755 2.482 47.8 0 0 1.179 41.617 3.579 81.118.814 5.655 1.221 11.431.773 17.33a692.178 692.178 0 0 1-2.44 24.937c0 .122-.041.244-.041.326-.244 2.075-.488 4.19-.732 6.305v.082a1212.695 1212.695 0 0 1-2.523 19.405c-.447 2.644-.813 5.247-1.179 7.851zm51.623-59.394c4.109 9.682 18.225 33.562 18.225 33.562s10.211-2.522 25.263-6.387c.976 8.543 1.993 16.557 2.929 24.408.325 2.604.651 5.208.936 7.811h53.658a355.335 355.335 0 0 1-1.831-7.811c-3.295-14.523-5.573-28.069-5.899-37.914 36.003-10.292 71.273-21.805 70.744-27.297-.813-8.136-27.866-134.247-34.7-139.129-3.946-2.848-33.277-13.221-47.678-18.916-2.645-1.058-11.594-4.394-13.954-5.33-3.051 3.418-24.083 26.646-31.528 114.395-.935 10.903.977 30.836 3.133 50.811-21.805 5.776-39.99 10.17-39.298 11.797zm98.163-31.324c2.156-17.493 4.638-35.067 6.387-41.21 0 0 6.061 12.245 5.614 30.226-.122 3.62-4.719 7.322-12.001 10.984z" fill="#323657"/><path d="M523.604 218.945s-5.452-10.333-3.946-39.623c.406-8.136-42.634 19.242-42.634 19.242s.163 2.807.244 6.59c.041 1.587.081 3.295.081 5.085v1.465c0 .813 0 1.586-.04 2.4-.041.976-.041 1.953-.122 2.888a59.922 59.922 0 0 1-.204 2.97c-.162 1.79-1.22 4.882-1.586 5.736-1.994 4.516 32.097 4.76 48.207-6.753z" fill="#EEA987"/><path d="M318.287 411.61s26.157-25.385 43.325-29.616c7.933-1.952 18.388-12.896 28.314-25.791 3.254-4.231 6.468-8.706 9.56-13.1 12.204-17.615 21.723-34.456 21.723-34.456s36.003-42.227 7.12-61.022c0 0-12.408-.285-19.202 3.417-6.997 3.784-21.886 34.905-24.408 40.397-2.523 5.491-29.901 56.668-31.732 57.807-1.83 1.139-4.881 5.37-15.824 11.269-13.425 7.2-34.457 28.354-34.457 28.354l15.581 22.741z" fill="#323657"/><path d="M443.95 440.982s3.661-.163 5.207-.977c0 0 2.726-1.749 4.76-2.888.651-.366 1.22-.651 1.586-.814 1.628-.65 5.33-1.545 8.787-4.19 3.458-2.603 14.646-13.14 14.646-13.14l-7.242-11.146-3.335-11.025s-26.158 2.604-29.657 4.679c-.325.203-.651.406-.976.65-2.766 2.034-3.987 4.719-5.329 5.981-.489.447-5.045 5.329-4.801 7.322.366 2.766 1.709 4.516 3.418 5.329 0 0 .935 5.33 3.701 7.73 0 0 .692 4.963 4.964 6.956.04 0 1.301 4.963 4.271 5.533z" fill="#EFAA88"/><path d="M485.607 103.696s-47.272-11.39-37.345 48.451c9.966 59.882 21.316 64.723 50.118 52.804 28.803-11.92 26.809-50.241 28.518-68.954 1.708-18.714-26.158-31.447-41.291-32.301z" fill="#EEA886"/><path d="M524.132 166.589s-.935-18.836-7.811-19.527c-6.875-.692-8.014 6.875-8.014 6.875l-6.956 1.22s2.441-16.475-4.394-19.445c-6.834-2.97-44.586 8.421-50.037 3.498-5.451-4.922-2.36-38.321 7.689-42.755 10.007-4.434 37.67-14.28 57.644-.366 0 0 15.744-1.546 17.9 11.146 2.115 12.733-1.587 49.997-6.021 59.354z" fill="#3A3F47"/><path d="M459.449 396.802l19.527 33.562s51.705-13.343 63.788-16.72l-27.582-32.83s-40.681 9.276-55.733 15.988z" fill="#323657"/><path d="M477.187 216.911c25.385-2.604 35.189-22.131 35.189-22.131-15.947 15.825-35.067 15.378-35.067 15.378v1.464c0 .814 0 1.587-.041 2.4 0 1.017-.041 1.994-.081 2.889z" fill="#A77860"/><path d="M511.968 148.323s-12.692 2.278-17.94 2.644c-5.248.366-18.55 2.319-23.676 3.336-5.126 1.017-19.568 1.22-22.578 2.97l1.586 7.851s4.475 9.601 14.727 5.248c10.252-4.353 14.523.895 24.49-3.092 10.007-3.987 26.28-14.604 26.28-14.604l-2.889-4.353z" fill="#16202E"/><path d="M510.463 145.15c.692-5.248 11.147-7.038 11.879.854.732 7.892-5.045 21.683-8.991 20.259-3.946-1.383-3.864-13.872-2.888-21.113z" fill="#EEA886"/><path d="M468.441 440.005h-30.308v11.554h30.308v-11.554z" fill="#E6DFDD"/><path d="M570.753 451.314H222.524v7.811h348.229v-7.811z" fill="#FFC055"/><path d="M358.928 400.355c5.569-1.138 8.902-7.841 7.444-14.973-1.457-7.132-7.153-11.991-12.722-10.853s-8.902 7.842-7.444 14.974c1.457 7.132 7.153 11.99 12.722 10.852z" fill="#CFA345"/><path d="M208.775 6.103S412.749 335.74 445.416 441.999l5.777-4.638c.04.041-42.349-122.612-242.418-431.258z" fill="#875835"/><path d="M410.774 385.684c7.197-5.75 8.37-16.246 2.62-23.443-5.75-7.197-16.245-8.37-23.442-2.62-7.197 5.75-8.37 16.246-2.621 23.443 5.75 7.197 16.246 8.37 23.443 2.62z" fill="#5E8FDF"/><path d="M401.165 373.962l-3.622-1.225-11.741 34.722 3.623 1.225 11.74-34.722z" fill="#486EAB"/><path d="M391.395 412.787a6.062 6.062 0 1 0-7.57-9.472 6.062 6.062 0 0 0 7.57 9.472z" fill="#5E8FDF"/><path d="M402.905 375.819a4.068 4.068 0 1 0-5.079-6.356 4.068 4.068 0 0 0 5.079 6.356z" fill="#689FF7"/><path d="M440.208 323.333l13.79 128.226H272.48l-13.831-128.226h181.559z" fill="#E6DFDD"/><path d="M131.155 520.798l-14.32-150.642s33.115-1.017 47.922-2.319L239 520.838l-107.845-.04z" fill="#E2D2CA"/><path d="M239.001 520.798l-19.853-149.747s-63.381-6.875-102.353-.936l122.206 150.683z" fill="#E2D2CA"/><path d="M75.992 159.511s25.425 11.675 54.105 43.203l-30.226 25.303s-32.83-37.101-55.57-46.905l31.69-21.601z" fill="#EDE6E4"/><path d="M73.266 105.445s-33.358 3.133-71.028 21.968l28.436 35.392s34.904-20.137 68.75-25.832l-26.158-31.528z" fill="#F5EEEC"/><path d="M303.218 647.124h6.143V455.598h-6.143v191.526zm-232.748.01h6.143L76.6 455.608h-6.142l.012 191.526z" fill="#807066"/><path d="M118.626 641.173l18.266-121.596-3.54-.528-18.265 121.595 3.539.529zm17.451 0l18.307-121.596-3.539-.528-18.266 121.595 3.498.529zm119.765 0l3.499-.529-18.266-121.595-3.539.528 18.306 121.596zm-10.902 0l3.498-.529-18.265-121.595-3.54.528 18.307 121.596z" fill="#5C5049"/><path d="M131.172 520.812l107.845-.002v-12.652l-107.845.003v12.651z" fill="#C9BBB4"/><path d="M248.438 638.651s5.126 4.474 9.682 11.35c4.597 6.875 16.761 7.241 17.29 16.638.529 9.397-16.557 9.682-25.507 6.631-8.95-3.051-10.333-12.204-15.744-14.523-5.41-2.278-8.217-4.15-7.81-8.624.406-4.475 3.417-11.757 3.417-11.757s3.376 1.057 5.329 1.302c1.993.244 8.665.325 13.343-1.017zm-126.111-5.574s-4.719 5.207-7.485 8.34c-2.766 3.132-13.425 8.787-13.465 18.143-.082 10.13 7.851 9.276 14.889 8.91 7.038-.367 12.774-5.248 15.743-10.984 2.97-5.736 10.862-7.242 11.432-11.879.569-4.638-3.661-12.977-3.661-12.977l-17.453.447z" fill="#505459"/><path d="M138.844 623.965l.895 8.624s-14.686 6.428-17.412.488l.651-7.689 15.866-1.423zm108.78 8.461l.814 6.265s-8.868 3.133-18.673-.285l-.203-5.573 18.062-.407z" fill="#EEA886"/><path d="M134.654 470.72s-25.995 23.798-26.158 36.694c-.163 12.896 4.76 48.695 5.126 55.773.366 7.079 7.037 66.148 7.037 66.148s5.167 4.8 20.585-1.221c0 0 3.417-56.017 3.783-62.038.366-5.98.366-33.643 3.824-37.63 3.458-3.987 24.368-16.557 27.094-18.917 2.725-2.359 50.241 8.991 55.204 10.252 12.896 3.336 6.997 25.751 4.149 35.799-4.759 16.801-8.949 77.538-8.949 77.538s9.193 3.905 24.571.61c0 0 30.185-109.676 31.161-120.578.977-10.903 1.465-28.884-72.94-42.552l-74.487.122z" fill="#35385C"/><path d="M193.235 418.241c1.139 5.452 2.156 9.804 2.766 11.147 3.01-14.645.285-33.44.285-33.44-.407 8.991-3.051 22.293-3.051 22.293z" fill="#2F5485"/><path d="M41.21 276.793s-2.4-8.543-2.645-9.641c-.244-1.099-2.522-3.336-5.329-5.614-2.847-2.319-7.689-4.15-8.299-3.987-.61.203-1.302.081-2.278 1.383-.976 1.261-1.139 2.889-1.139 2.889s-1.953 1.017-1.993 3.01c0 0-1.79 1.017-1.465 3.336 0 0-1.75 1.058-1.342 2.685 0 0 2.278 2.197 2.888 3.295.61 1.058 5.655 5.329 11.147 8.706 0 0 6.997 5.166 10.455-6.062z" fill="#EEA886"/><path d="M30.755 270.041s-1.017 3.579-.814 4.759c.203 1.139-8.177 1.343-8.177 1.343s4.597-7.242 8.99-6.102z" fill="#CF8C6C"/><path d="M227.324 224.071s2.807-18.51 4.028-19.527c1.22-1.017 2.237-.732 2.034 1.017-.203 1.749-2.197 17.981-2.197 17.981s6.997-21.073 7.811-22.13c.488-.611 2.441-.204 2.4.773 0 .935-5.736 22.333-5.736 22.333s6.59-19.689 7.526-20.34c.814-.57 2.563.285 2.197 1.749-.366 1.505-5.451 20.178-5.451 20.178s5.695-13.954 6.875-13.994c.732-.041 2.4.244.813 3.824-1.586 3.539-4.434 12.367-4.434 12.367l-15.866-4.231z" fill="#EEA886"/><path d="M227.447 246.079s.529-6.183-2.522-8.177c-2.604-1.708-4.882-5.695-5.574-6.956-.935-1.668-5.613-5.777-3.661-6.834 1.953-1.058 8.014 6.427 9.601 7.77 1.546 1.342 1.261-7.608 2.522-9.194 1.221-1.587 15.947-.204 15.459 5.899-.488 6.102-5.085 12-4.963 13.139.122 1.14-.204 4.475-.204 4.475l-10.658-.122z" fill="#EEA886"/><path d="M207.879 460.63l1.221 10.089s-23.392 5.655-74.446 0l1.057-8.461 72.168-1.628z" fill="#FF7E55"/><path d="M170.9 321.624s15.663 3.091 22.66-1.18c2.685 1.871 8.339 26.971 9.234 32.707.895 5.736.936 30.145-.569 39.42-1.465 9.235 10.658 63.3 6.834 70.093 0 0-36.328.814-74.324-.04 0 0 .407-37.508-2.4-49.631-3.621-15.581-12.123-51.421-12.123-51.421s-3.58-30.063.814-30.226c11.065-.366 30.348-8.258 30.348-8.258l19.526-1.464z" fill="#FF7E55"/><path d="M179.688 322.641s.569-5.289-15.784-4.76c-16.354.529-26.931 5.37-26.728 10.048.204 4.678 42.837 11.879 42.837 11.879l-.325-17.167z" fill="#FF7E55"/><path d="M156.785 263.898s21.886-10.862 23.717 19.567c1.83 30.43-3.173 34.091-18.632 31.447-15.459-2.604-18.754-21.602-21.683-30.592-2.929-8.991 9.316-18.307 16.598-20.422z" fill="#EEA987"/><path d="M175.172 326.017s-5.207 3.011-23.839-2.929c0 0-.814-12.245-5.533-23.269-4.719-11.025 25.467 12.611 25.467 12.611-.285.244-.204 1.383.122 2.929.284 1.342.773 2.97 1.383 4.597 1.464 3.743 1.18 3.092 2.4 6.061z" fill="#EEA987"/><path d="M144.987 299.005s-.936-8.095 2.36-9.194c3.295-1.098 5.532 3.377 5.532 3.377l2.685-.448s-3.295-7.932-.285-10.17c3.011-2.237 22.375-2.644 24.49-5.655 2.116-3.01-3.132-19.038-8.543-20.096-5.41-1.058-20.055-2.766-28.273 6.265 0 0-7.445 4.19-7.078 10.658.325 6.55 5.898 21.154 9.112 25.263z" fill="#3A3F47"/><path d="M172.853 319.997c-17.981-1.058-21.683-10.822-21.764-10.984 7.811 8.136 20.381 6.346 20.381 6.346.285 1.342.733 3.01 1.383 4.638z" fill="#A77860"/><path d="M150.763 285.987c-1.301-2.563-6.956-1.627-5.898 2.563 1.017 4.15 6.427 10.17 8.177 8.747 1.749-1.424-.489-7.771-2.279-11.31z" fill="#EEA987"/><path d="M243.719 296.849c3.662-9.479-1.912-58.133-1.912-58.133l-16.313 3.254s-.284 11.066.936 31.203c.366 6.142-3.01 17.086-3.458 18.062-.447.976-17.208 21.764-23.92 25.548-3.133 1.749-9.886 6.305-14.279 11.797-4.353 5.492-1.261 12.042-1.261 12.042 11.797 12.244 29.087-7.16 29.087-7.16s25.995-23.351 31.12-36.613z" fill="#FF7E55"/><path d="M220.572 323.902s-18.713 24.53-17.167 37.589c.773 6.55-10.008-19.852-10.008-19.852l27.175-17.737zm-157.517 1.749c-6.63-7.688-39.175-40.274-39.175-40.274l17.859-9.356s8.38 9.275 24.164 25.1c4.353 4.393 14.035 11.431 14.767 12.204.733.773 23.717 13.913 31.121 15.988 2.929.813 9.926 3.01 17.656 2.074 6.956-.854 5.003 15.093 5.003 15.093-6.997 15.499-29.819 3.092-29.819 3.092s-32.26-13.14-41.576-23.921z" fill="#FF7E55"/><path d="M93.973 343.266s25.914 16.761 28.883 29.575c1.506 6.428 2.726-22.049 2.726-22.049l-31.61-7.526z" fill="#FF7E55"/><path d="M27.907 254.582v-12.286s1.465 2.278 2.807 2.115c1.343-.162 3.865.651 3.865.651v5.248l6.63 2.97 7.323 7.404-16.11 7.566-10.698 3.58 6.183-17.248z" fill="#F5EEEC"/><path d="M18.835 270.935L1.75 282.57 0 286.923l3.702 3.173 2.929 7.16 6.428.935s6.834-21.56 11.553-26.117c4.678-4.556-5.777-1.139-5.777-1.139z" fill="#F5EEEC"/><path d="M6.59 297.256l17.738-29.901 2.766 1.302-14.076 29.494-6.427-.895z" fill="#E0DAD8"/><path d="M48.532 260.684l-7.322-7.404-18.063 15.865 1.017 2.645c.04.04 17.452-6.631 24.368-11.106z" fill="#E0DAD8"/><path d="M25.71 258.121s7.038 6.021 6.225 7.282c-.814 1.261-1.912 1.22-1.912 1.22l1.79 3.783s-.244 3.174-3.621 1.994c0 0 .081 2.97-3.051 1.464 0 0-.814 1.994-2.4 1.546-1.587-.447-5.94-4.515-5.94-4.515s-.854-1.261 1.017-2.685c0 0-.325-2.319 1.587-3.458 0 0-.163-1.749 1.912-2.97 0 0 .325-3.987 3.661-4.231-.04 0 .407.326.732.57z" fill="#DB9C7C"/><path d="M38.484 267.233s-4.72-4.271-8.299-5.451c-.814-.285-1.668-.366-2.197.285-.57.651-.325 2.278 1.628 4.231 1.952 1.952 3.58 5.37 3.58 5.37s2.562 1.423 5.288-4.435z" fill="#EEA886"/><path d="M145.084 454.08h14.482v-5.492l-14.482.001v5.491z" fill="#F5EEEC"/><path d="M70.45 462.44l238.878-.005-.001-8.34-238.878.005v8.34z" fill="#BC8551"/><path d="M140.309 210.931l-5.574-32.544 11.96-2.034 5.574 32.544-11.96 2.034zm3.62 21.114l-2.115-12.408 11.96-2.075 2.115 12.408-11.96 2.075z" fill="url(#H)"/><path d="M106.217 214.389l-16.964-28.314 10.415-6.224 16.964 28.314-10.415 6.224zm11.025 18.388l-6.509-10.821 10.414-6.224 6.468 10.821-10.373 6.224z" fill="url(#I)"/><path d="M274.921 358.562v45.888h-67.042v-45.888h67.042z" fill="#FFC655"/><path d="M274.922 404.45L241.4 378.78l-33.521 25.67h67.043z" fill="#FFBC55"/><path d="M274.921 358.562l-28.354 24.205-5.167 4.394-5.166-4.435-28.355-24.164h67.042z" fill="#FFA655"/><path d="M259.288 454.085l45.278-.001-.002-58.092-45.278.001.002 58.092z" fill="#FFF7F5"/><path d="M270.446 435.693s-8.787.041-12.814 2.685c0 0-.285-1.342 1.668-2.685h11.146zm31.487-15.987s-41.047 2.847-47.474 6.956c0 0 1.383-4.841 4.068-6.956h43.406z" fill="#DED7D5"/><path d="M258.461 419.694l47.637-.002v-13.221l-47.638.001.001 13.222z" fill="#FFF7F5"/><path d="M279.6 448.467s-16.639.529-23.026 4.637c0 0 .977-2.685 2.685-4.637H279.6z" fill="#DED7D5"/><path d="M257.565 448.451l38.362-.001v-8.38l-38.362.001v8.38z" fill="#FFF7F5"/><path d="M258.365 352.623l-1.221-.325c14.93-53.374-7.81-85.105-34.172-121.84-20.503-28.599-43.732-61.021-49.671-108.414-6.875-54.879 3.01-83.6 12.53-98.041 10.414-15.785 22.293-18.388 22.781-18.51l.244 1.22c-.122.04-11.96 2.685-22.09 18.062-9.356 14.28-19.079 42.715-12.285 97.106 5.898 47.068 28.029 77.944 49.468 107.804 26.605 37.02 49.508 68.995 34.416 122.938z" fill="#878787"/><path d="M158.574 392.815l-6.59 61.266h86.732l6.59-61.266h-86.732z" fill="#F5EEEC"/><path d="M207.898 427.341c1.568-4.043.172-8.354-3.116-9.63-3.289-1.275-7.226.969-8.794 5.012-1.567 4.043-.172 8.355 3.117 9.63 3.289 1.275 7.226-.969 8.793-5.012z" fill="#DED7D5"/><path d="M256.696 380.164c-.569 1.383-1.302 2.359-2.319 2.603-4.637 1.139-5.573-3.702-5.003-6.02 0 0 .406 5.288 3.905 5.125 1.18-.081 2.034-.732 2.644-1.912.204.122.488.163.773.204z" fill="#878787"/><path d="M378.576 600.085c-5.736-26.28 6.672-32.87 18.713-39.176 9.805-5.166 19.12-10.089 18.592-25.588-.651-20.544 13.343-28.029 25.669-34.62 9.194-4.922 17.859-9.519 19.161-18.876 3.132-22.496 23.839-50.444 24.083-50.729l1.302.977c-.204.284-20.707 27.907-23.758 49.956-1.424 10.17-10.414 14.97-19.974 20.096-12.53 6.672-25.466 13.588-24.815 33.155.528 16.517-9.642 21.846-19.446 27.053-12.001 6.346-23.351 12.326-17.859 37.426l-1.668.326z" fill="url(#J)"/><path d="M384.882 593.373c-.285 0-.57 0-.814-.041-5.207-.366-10.292-4.353-16.028-12.448l-.366-.489.406-.488c.082-.122 9.316-11.309 5.899-32.382-.773-4.922-1.83-8.665-2.685-11.716-1.22-4.393-2.034-7.322-.691-9.641 1.749-2.97 6.427-4.475 19.649-7.648 14.075-3.336 18.794-19.202 22.944-33.196 3.905-13.181 7.607-25.588 18.55-25.222 10.048.366 25.344-15.377 38.85-29.29 12.53-12.896 24.328-25.06 31.854-24.816 1.83.082 3.335.814 4.556 2.278 6.712 8.015.447 20.178-5.614 31.935-5.167 10.048-10.089 19.527-6.916 25.751 3.946 7.851 4.516 14.971 1.587 20.544-3.458 6.631-11.472 10.862-23.88 12.692-11.309 1.628-12.57 13.995-13.832 27.094-1.505 15.255-3.213 32.545-22.252 34.212-14.116 1.221-23.636 11.147-32.016 19.893-6.672 6.916-12.489 12.978-19.201 12.978zm-15.215-12.896c5.248 7.241 9.967 10.943 14.482 11.268 6.306.489 12.083-5.532 18.754-12.489 8.584-8.949 18.347-19.079 33.033-20.381 17.696-1.546 19.242-17.411 20.788-32.748 1.343-13.709 2.644-26.687 15.215-28.517 11.838-1.709 19.486-5.696 22.659-11.838 2.644-5.126 2.116-11.717-1.627-19.08-3.539-6.997 1.546-16.801 6.916-27.215 5.817-11.31 11.879-22.985 5.817-30.186-.895-1.098-2.034-1.627-3.376-1.667-6.835-.245-18.388 11.675-30.674 24.327-14.198 14.645-28.883 29.778-39.623 29.778h-.407c-9.723-.366-13.059 10.984-16.964 24.083-4.271 14.401-9.112 30.755-24.083 34.294-11.96 2.848-17.167 4.435-18.632 6.875-1.017 1.75-.325 4.231.854 8.381.855 3.051 1.912 6.875 2.726 11.878 3.173 19.609-4.027 30.755-5.858 33.237z" fill="url(#K)"/><path d="M385.451 587.84c-.203 0-.366 0-.569-.041-8.543-.773-15.093-19.445-21.439-37.508-3.011-8.583-5.858-16.679-8.625-21.845-2.156-4.028-4.881-8.218-7.526-12.286-7.037-10.821-14.279-22.008-11.919-31.853 1.261-5.167 4.963-9.479 11.35-13.14 13.953-8.055 11.838-12.611 7.119-22.578-3.458-7.323-8.177-17.33-8.38-33.074-.082-6.753-.244-12.611-.366-17.777-.448-16.598-.651-24.938 2.888-27.948 1.464-1.261 3.539-1.587 6.468-1.017 5.045.976 7.201 5.004 9.52 9.316 2.929 5.492 6.264 11.716 16.313 13.791 9.438 1.993 18.509 4.678 20.991 10.943 1.749 4.393.081 10.211-5.085 17.696-1.261 1.831-1.709 3.377-1.302 4.719.814 3.011 5.533 5.207 10.943 7.77 7.73 3.621 17.371 8.096 20.097 17.412 2.196 7.485-.326 16.882-7.771 28.598-17.574 27.785-16.882 46.661-16.272 63.3.448 12.326.895 23.961-6.549 36.979-3.214 5.776-6.469 8.543-9.886 8.543zm-33.48-217.725c-1.261 0-2.197.285-2.889.895-2.969 2.523-2.725 11.106-2.318 26.687.122 5.167.284 11.025.366 17.818.162 15.418 4.841 25.223 8.217 32.423 4.678 9.886 7.485 15.866-7.77 24.653-5.98 3.458-9.438 7.404-10.577 12.123-2.197 9.153 4.882 20.055 11.716 30.592 2.644 4.108 5.411 8.339 7.567 12.407 2.807 5.289 5.695 13.466 8.706 22.09 5.898 16.761 12.57 35.759 20.055 36.45 2.848.244 5.858-2.319 8.95-7.729 7.201-12.611 6.794-23.514 6.306-36.125-.651-16.882-1.343-36.002 16.516-64.194 7.16-11.35 9.641-20.259 7.607-27.297-2.522-8.625-11.39-12.774-19.242-16.395-5.817-2.725-10.821-5.044-11.838-8.787-.488-1.83 0-3.824 1.546-6.061 4.841-7.038 6.468-12.326 4.922-16.191-2.237-5.573-11.268-8.177-19.852-9.967-10.78-2.237-14.442-9.113-17.411-14.604-2.197-4.109-4.109-7.689-8.381-8.503a9.055 9.055 0 0 0-2.196-.285z" fill="url(#L)"/><path d="M385.655 597.847l-1.546-.488c8.583-27.175-6.957-88.115-11.594-102.963-2.278-7.282-.163-18.266 1.871-28.884 2.644-13.709 5.37-27.907-1.586-33.195-13.018-9.967-12.327-33.074-12.286-34.05l1.627.04c0 .244-.691 23.27 11.676 32.748 7.729 5.94 4.922 20.585 2.196 34.783-1.993 10.414-4.068 21.194-1.912 28.11 5.696 18.307 20.097 76.765 11.554 103.899z" fill="url(#M)"/><path d="M320.606 421.374c-3.58-9.072-17.574-7.689-16.272 5.126 1.301 12.814 10.292 26.564-3.418 48.369-13.709 21.846 17.575 26.117 28.68 39.827 11.147 13.709 14.971 32.544 24.409 44.545 9.438 12.001 15.825 40.681 23.554 29.982 7.689-10.699.448-24.612 1.302-43.895.854-19.282 18.022-31.446.854-43.894-17.167-12.408-34.416-16.232-28.72-44.22 2.481-12.367-19.243-7.608-30.389-35.84z" fill="url(#N)"/><path d="M390.048 591.664c-.082-.569-9.601-56.994-30.918-72.453-21.723-15.784-25.669-30.348-33.277-64.682l1.587-.366c7.485 33.927 11.391 48.329 32.667 63.747 21.845 15.865 31.202 71.151 31.568 73.51l-1.627.244z" fill="#fff"/><path d="M370.806 589.63s6.347-15.662-5.207-37.915c-11.513-22.252-20.869-18.835 6.916-35.962 27.785-17.126.163-71.069 23.839-77.944 23.676-6.835 44.22-94.177 62.201-83.071 17.981 11.106-5.98 53.943 6.834 66.798 12.815 12.855 14.564 29.209-12 42.43-26.565 13.222 18.835 63.747-17.127 79.166-35.921 15.418-25.588 75.869-65.456 46.498z" fill="url(#O)"/><path d="M381.789 606.268c-.04-.203-3.905-20.259 8.299-46.173 12.449-26.402 18.388-55.244 15.947-77.212-1.342-11.879 6.265-16.517 13.628-21.032 7.242-4.434 14.727-8.991 14.32-20.707-.366-10.577 4.109-35.392 4.312-36.409l1.587.285c-.041.244-4.638 25.669-4.272 36.084.448 12.651-7.444 17.492-15.092 22.13-7.241 4.434-14.117 8.624-12.896 19.486 2.481 22.212-3.499 51.421-16.069 78.067-11.96 25.385-8.218 44.993-8.177 45.156l-1.587.325z" fill="#fff"/><path d="M410.877 495.576c8.096-7.486 18.754-8.584 16.517 2.563-2.238 11.146-9.845 14.319-6.062 21.316 3.824 6.998 10.17 13.995-.651 22.578-10.821 8.584-16.842 9.56-20.015 25.751-3.173 16.232-2.563 27.297-16.516 27.989-13.994.691-8.584-19.73-4.15-28.924 0 0 6.672-10.537 2.238-24.328-4.434-13.831-13.018-21.276 5.085-25.995 18.144-4.719 18.103-15.865 23.554-20.95z" fill="#fff"/><path d="M385.167 606.106c-.041-1.994-1.017-48.696 7.729-56.547 8.909-8.014 10.658-22.212 10.862-29.982.285-10.089 13.343-16.069 13.872-16.313l.651 1.465c-.122.04-12.693 5.817-12.937 14.93-.284 9.763-2.481 23.106-11.39 31.121-8.177 7.363-7.201 54.837-7.201 55.326h-1.586z" fill="url(#P)"/><path d="M417.996 587.067l-14.523 54.96h-32.382l-14.483-54.96h61.388z" fill="url(#Q)"/><path d="M417.996 587.067s-31.894 5.98-31.894 55.001h-14.97l-14.483-55.001h61.347z" fill="url(#R)"/><defs><linearGradient id="a" x1="384.422" y1="456.802" x2="211.342" y2="30.609" gradientUnits="userSpaceOnUse"><stop stop-color="#D9D9D9"/><stop offset=".322" stop-color="#E5E5E5"/><stop offset="1" stop-color="#fff"/></linearGradient><linearGradient id="b" x1="456.593" y1="427.494" x2="283.513" y2="1.301" gradientUnits="userSpaceOnUse"><stop stop-color="#D9D9D9"/><stop offset=".322" stop-color="#E5E5E5"/><stop offset="1" stop-color="#fff"/></linearGradient><linearGradient id="c" x1="518.763" y1="402.252" x2="345.68" y2="-23.947" gradientUnits="userSpaceOnUse"><stop stop-color="#D9D9D9"/><stop offset=".322" stop-color="#E5E5E5"/><stop offset="1" stop-color="#fff"/></linearGradient><linearGradient id="d" x1="598.329" y1="369.934" x2="425.25" y2="-56.258" gradientUnits="userSpaceOnUse"><stop stop-color="#D9D9D9"/><stop offset=".322" stop-color="#E5E5E5"/><stop offset="1" stop-color="#fff"/></linearGradient><linearGradient id="e" x1="292.032" y1="494.334" x2="118.952" y2="68.14" gradientUnits="userSpaceOnUse"><stop stop-color="#D9D9D9"/><stop offset=".322" stop-color="#E5E5E5"/><stop offset="1" stop-color="#fff"/></linearGradient><linearGradient id="f" x1="475.922" y1="419.639" x2="302.842" y2="-6.553" gradientUnits="userSpaceOnUse"><stop stop-color="#D9D9D9"/><stop offset=".322" stop-color="#E5E5E5"/><stop offset="1" stop-color="#fff"/></linearGradient><linearGradient id="g" x1="434.979" y1="436.275" x2="261.899" y2="10.081" gradientUnits="userSpaceOnUse"><stop stop-color="#D9D9D9"/><stop offset=".322" stop-color="#E5E5E5"/><stop offset="1" stop-color="#fff"/></linearGradient><linearGradient id="h" x1="372.661" y1="461.586" x2="199.581" y2="35.393" gradientUnits="userSpaceOnUse"><stop stop-color="#D9D9D9"/><stop offset=".322" stop-color="#E5E5E5"/><stop offset="1" stop-color="#fff"/></linearGradient><linearGradient id="i" x1="348.843" y1="471.258" x2="175.764" y2="45.067" gradientUnits="userSpaceOnUse"><stop stop-color="#D9D9D9"/><stop offset=".322" stop-color="#E5E5E5"/><stop offset="1" stop-color="#fff"/></linearGradient><linearGradient id="j" x1="428.523" y1="438.899" x2="255.445" y2="12.709" gradientUnits="userSpaceOnUse"><stop stop-color="#D9D9D9"/><stop offset=".322" stop-color="#E5E5E5"/><stop offset="1" stop-color="#fff"/></linearGradient><linearGradient id="k" x1="318.073" y1="483.758" x2="144.991" y2="57.559" gradientUnits="userSpaceOnUse"><stop stop-color="#D9D9D9"/><stop offset=".322" stop-color="#E5E5E5"/><stop offset="1" stop-color="#fff"/></linearGradient><linearGradient id="l" x1="291.74" y1="494.454" x2="118.658" y2="68.255" gradientUnits="userSpaceOnUse"><stop stop-color="#D9D9D9"/><stop offset=".322" stop-color="#E5E5E5"/><stop offset="1" stop-color="#fff"/></linearGradient><linearGradient id="m" x1="415.576" y1="444.161" x2="242.494" y2="17.963" gradientUnits="userSpaceOnUse"><stop stop-color="#D9D9D9"/><stop offset=".322" stop-color="#E5E5E5"/><stop offset="1" stop-color="#fff"/></linearGradient><linearGradient id="n" x1="345.221" y1="472.726" x2="172.139" y2="46.53" gradientUnits="userSpaceOnUse"><stop stop-color="#D9D9D9"/><stop offset=".322" stop-color="#E5E5E5"/><stop offset="1" stop-color="#fff"/></linearGradient><linearGradient id="o" x1="344.74" y1="472.919" x2="171.661" y2="46.73" gradientUnits="userSpaceOnUse"><stop stop-color="#D9D9D9"/><stop offset=".322" stop-color="#E5E5E5"/><stop offset="1" stop-color="#fff"/></linearGradient><linearGradient id="p" x1="562.961" y1="384.294" x2="389.881" y2="-41.9" gradientUnits="userSpaceOnUse"><stop stop-color="#D9D9D9"/><stop offset=".322" stop-color="#E5E5E5"/><stop offset="1" stop-color="#fff"/></linearGradient><linearGradient id="q" x1="746.198" y1="309.882" x2="573.118" y2="-116.311" gradientUnits="userSpaceOnUse"><stop stop-color="#D9D9D9"/><stop offset=".322" stop-color="#E5E5E5"/><stop offset="1" stop-color="#fff"/></linearGradient><linearGradient id="r" x1="629.885" y1="357.12" x2="456.806" y2="-69.072" gradientUnits="userSpaceOnUse"><stop stop-color="#D9D9D9"/><stop offset=".322" stop-color="#E5E5E5"/><stop offset="1" stop-color="#fff"/></linearGradient><linearGradient id="s" x1="700.138" y1="328.583" x2="527.059" y2="-97.609" gradientUnits="userSpaceOnUse"><stop stop-color="#D9D9D9"/><stop offset=".322" stop-color="#E5E5E5"/><stop offset="1" stop-color="#fff"/></linearGradient><linearGradient id="t" x1="552.908" y1="388.384" x2="379.828" y2="-37.81" gradientUnits="userSpaceOnUse"><stop stop-color="#D9D9D9"/><stop offset=".322" stop-color="#E5E5E5"/><stop offset="1" stop-color="#fff"/></linearGradient><linearGradient id="u" x1="631.402" y1="356.501" x2="458.322" y2="-69.693" gradientUnits="userSpaceOnUse"><stop stop-color="#D9D9D9"/><stop offset=".322" stop-color="#E5E5E5"/><stop offset="1" stop-color="#fff"/></linearGradient><linearGradient id="v" x1="497.022" y1="411.08" x2="323.942" y2="-15.115" gradientUnits="userSpaceOnUse"><stop stop-color="#D9D9D9"/><stop offset=".322" stop-color="#E5E5E5"/><stop offset="1" stop-color="#fff"/></linearGradient><linearGradient id="w" x1="349.758" y1="470.881" x2="176.678" y2="44.688" gradientUnits="userSpaceOnUse"><stop stop-color="#D9D9D9"/><stop offset=".322" stop-color="#E5E5E5"/><stop offset="1" stop-color="#fff"/></linearGradient><linearGradient id="x" x1="396.848" y1="451.768" x2="223.767" y2="25.571" gradientUnits="userSpaceOnUse"><stop stop-color="#D9D9D9"/><stop offset=".322" stop-color="#E5E5E5"/><stop offset="1" stop-color="#fff"/></linearGradient><linearGradient id="y" x1="390.716" y1="454.264" x2="217.63" y2="28.056" gradientUnits="userSpaceOnUse"><stop stop-color="#D9D9D9"/><stop offset=".322" stop-color="#E5E5E5"/><stop offset="1" stop-color="#fff"/></linearGradient><linearGradient id="z" x1="743.004" y1="311.176" x2="569.926" y2="-115.013" gradientUnits="userSpaceOnUse"><stop stop-color="#D9D9D9"/><stop offset=".322" stop-color="#E5E5E5"/><stop offset="1" stop-color="#fff"/></linearGradient><linearGradient id="A" x1="651.899" y1="348.179" x2="478.819" y2="-78.016" gradientUnits="userSpaceOnUse"><stop stop-color="#D9D9D9"/><stop offset=".322" stop-color="#E5E5E5"/><stop offset="1" stop-color="#fff"/></linearGradient><linearGradient id="B" x1="677.681" y1="337.713" x2="504.599" y2="-88.484" gradientUnits="userSpaceOnUse"><stop stop-color="#D9D9D9"/><stop offset=".322" stop-color="#E5E5E5"/><stop offset="1" stop-color="#fff"/></linearGradient><linearGradient id="C" x1="579.803" y1="377.457" x2="406.723" y2="-48.736" gradientUnits="userSpaceOnUse"><stop stop-color="#D9D9D9"/><stop offset=".322" stop-color="#E5E5E5"/><stop offset="1" stop-color="#fff"/></linearGradient><linearGradient id="D" x1="511.523" y1="405.188" x2="338.443" y2="-21.006" gradientUnits="userSpaceOnUse"><stop stop-color="#D9D9D9"/><stop offset=".322" stop-color="#E5E5E5"/><stop offset="1" stop-color="#fff"/></linearGradient><linearGradient id="E" x1="400.72" y1="450.189" x2="227.64" y2="23.994" gradientUnits="userSpaceOnUse"><stop stop-color="#D9D9D9"/><stop offset=".322" stop-color="#E5E5E5"/><stop offset="1" stop-color="#fff"/></linearGradient><linearGradient id="F" x1="351.478" y1="470.191" x2="178.398" y2="43.998" gradientUnits="userSpaceOnUse"><stop stop-color="#D9D9D9"/><stop offset=".322" stop-color="#E5E5E5"/><stop offset="1" stop-color="#fff"/></linearGradient><linearGradient id="G" x1="460.935" y1="425.729" x2="287.856" y2="-.463" gradientUnits="userSpaceOnUse"><stop stop-color="#D9D9D9"/><stop offset=".322" stop-color="#E5E5E5"/><stop offset="1" stop-color="#fff"/></linearGradient><linearGradient id="H" x1="156.6" y1="219.93" x2="57.042" y2="81.33" gradientUnits="userSpaceOnUse"><stop stop-color="#FF9F55"/><stop offset="1" stop-color="#FFD255"/></linearGradient><linearGradient id="I" x1="131.302" y1="238.103" x2="31.744" y2="99.503" gradientUnits="userSpaceOnUse"><stop stop-color="#FF9F55"/><stop offset="1" stop-color="#FFD255"/></linearGradient><linearGradient id="J" x1="377.12" y1="515.578" x2="486.058" y2="515.578" gradientUnits="userSpaceOnUse"><stop stop-color="#3076A1"/><stop offset="1" stop-color="#639C38"/></linearGradient><linearGradient id="K" x1="367.655" y1="499.696" x2="509.893" y2="499.696" gradientUnits="userSpaceOnUse"><stop stop-color="#3076A1"/><stop offset="1" stop-color="#639C38"/></linearGradient><linearGradient id="L" x1="334.973" y1="478.177" x2="426.721" y2="478.177" gradientUnits="userSpaceOnUse"><stop stop-color="#3076A1"/><stop offset="1" stop-color="#639C38"/></linearGradient><linearGradient id="M" x1="360.473" y1="498.017" x2="388.295" y2="498.017" gradientUnits="userSpaceOnUse"><stop stop-color="#3076A1"/><stop offset="1" stop-color="#639C38"/></linearGradient><linearGradient id="N" x1="297.515" y1="503.531" x2="387.321" y2="503.531" gradientUnits="userSpaceOnUse"><stop stop-color="#3076A1"/><stop offset="1" stop-color="#639C38"/></linearGradient><linearGradient id="O" x1="357.646" y1="707.006" x2="433.205" y2="413.169" gradientUnits="userSpaceOnUse"><stop stop-color="#3076A1"/><stop offset="1" stop-color="#639C38"/></linearGradient><linearGradient id="P" x1="385.113" y1="554.688" x2="418.312" y2="554.688" gradientUnits="userSpaceOnUse"><stop stop-color="#3076A1"/><stop offset="1" stop-color="#639C38"/></linearGradient><linearGradient id="Q" x1="356.604" y1="614.547" x2="417.982" y2="614.547" gradientUnits="userSpaceOnUse"><stop stop-color="#FF9340"/><stop offset="1" stop-color="#FFCE45"/></linearGradient><linearGradient id="R" x1="356.604" y1="614.547" x2="417.983" y2="614.547" gradientUnits="userSpaceOnUse"><stop stop-color="#C97332"/><stop offset="1" stop-color="#FFCE45"/></linearGradient></defs></svg>