<svg width="370" height="130" viewBox="0 0 370 130" fill="none" xmlns="http://www.w3.org/2000/svg"><rect opacity=".2" x=".5" y=".5" width="299" height="49" rx="4.5" stroke="#000"/><rect opacity=".2" x=".5" y="80.5" width="299" height="49" rx="4.5" stroke="#000"/><circle opacity=".15" cx="345" cy="25" r="25" fill="#C4C4C4"/><circle opacity=".15" cx="345" cy="105" r="25" fill="#C4C4C4"/><path d="M334 23.333L342.8 32 356 19" stroke="#23C431" stroke-width="3"/><path d="M335 95l20 20m-20 0l20-20" stroke="#D44040" stroke-width="3"/><path opacity=".8" d="M52.782 30v-5.193c0-.654-.149-1.142-.447-1.465-.297-.322-.764-.483-1.398-.483-.84 0-1.456.227-1.846.681-.39.454-.586 1.204-.586 2.249V30h-1.216v-8.027h.989l.198 1.098h.058c.25-.395.598-.7 1.047-.915.45-.22.95-.33 1.502-.33.967 0 1.694.235 2.183.703.488.464.732 1.209.732 2.234V30h-1.216zm10.8-4.021c0 1.309-.33 2.332-.99 3.069-.658.732-1.569 1.099-2.731 1.099-.718 0-1.355-.169-1.912-.506-.556-.337-.986-.82-1.289-1.45-.302-.63-.454-1.367-.454-2.212 0-1.309.327-2.327.982-3.054.654-.733 1.562-1.099 2.724-1.099 1.123 0 2.014.374 2.674 1.12.664.748.996 1.759.996 3.033zm-6.116 0c0 1.025.205 1.807.615 2.344.41.537 1.013.805 1.81.805.795 0 1.398-.266 1.808-.798.415-.537.623-1.32.623-2.351 0-1.02-.208-1.794-.623-2.322-.41-.532-1.018-.798-1.823-.798-.796 0-1.397.261-1.802.784-.405.522-.608 1.3-.608 2.336zm7.73.557v-1.114h3.597v1.114h-3.597zm9.32-4.71c.357 0 .677.03.96.088l-.169 1.128a4.144 4.144 0 0 0-.879-.11c-.649 0-1.206.264-1.67.791-.458.527-.688 1.184-.688 1.97V30h-1.216v-8.027h1.004l.139 1.486h.058c.298-.522.657-.925 1.077-1.208.42-.283.881-.425 1.384-.425zm6.002 8.32c-1.186 0-2.124-.36-2.812-1.084-.684-.722-1.025-1.726-1.025-3.01 0-1.294.317-2.322.952-3.083.64-.762 1.496-1.143 2.57-1.143 1.006 0 1.802.332 2.388.996.586.66.88 1.531.88 2.615v.77h-5.53c.024.941.26 1.657.71 2.145.454.488 1.091.732 1.911.732.865 0 1.72-.18 2.564-.541v1.084c-.43.185-.838.317-1.223.395a6.61 6.61 0 0 1-1.385.125zm-.33-7.302c-.644 0-1.159.21-1.544.63-.381.42-.606 1.001-.674 1.743h4.196c0-.766-.17-1.352-.512-1.758-.342-.41-.83-.615-1.465-.615zm9.248 7.302A3.547 3.547 0 0 1 88 29.861a2.728 2.728 0 0 1-1.084-.894h-.088c.059.469.088.913.088 1.333v3.303H85.7v-11.63h.989l.168 1.098h.059c.313-.44.676-.757 1.091-.952.415-.195.891-.293 1.428-.293 1.065 0 1.885.364 2.462 1.091.58.728.871 1.748.871 3.062 0 1.318-.295 2.344-.886 3.076-.586.728-1.401 1.091-2.447 1.091zm-.176-7.287c-.82 0-1.414.227-1.78.681-.366.454-.554 1.177-.564 2.168v.271c0 1.128.188 1.936.564 2.424.376.484.979.725 1.81.725.692 0 1.234-.28 1.625-.842.395-.561.593-1.335.593-2.322 0-1-.197-1.767-.593-2.3-.39-.537-.942-.805-1.655-.805zM96.265 30H95.05V18.604h1.216V30zm1.454-8.027h1.304l1.757 4.577c.386 1.045.625 1.8.718 2.264h.059c.063-.25.195-.674.395-1.275.205-.605.869-2.46 1.993-5.566h1.303l-3.449 9.14c-.342.904-.743 1.543-1.202 1.92-.454.38-1.013.57-1.677.57a4.9 4.9 0 0 1-1.099-.124v-.974c.269.058.57.088.901.088.835 0 1.431-.469 1.787-1.407l.447-1.142-3.237-8.071zm20.292 2.688c0 .693-.108 1.328-.323 1.904-.215.576-.517 1.023-.908 1.34-.391.318-.84.476-1.348.476-.419 0-.774-.127-1.062-.38a1.525 1.525 0 0 1-.512-.975h-.059a2.311 2.311 0 0 1-.842.997c-.361.239-.791.358-1.289.358-.733 0-1.306-.249-1.721-.747-.411-.503-.616-1.184-.616-2.043 0-.996.288-1.804.865-2.425.576-.625 1.333-.937 2.27-.937.332 0 .708.032 1.128.095.42.059.798.142 1.135.25l-.183 3.442v.16c0 .87.325 1.305.974 1.305.445 0 .806-.262 1.084-.784.279-.528.418-1.211.418-2.051 0-.884-.181-1.658-.542-2.322a3.712 3.712 0 0 0-1.546-1.53c-.664-.362-1.428-.543-2.292-.543-1.089 0-2.036.227-2.842.682a4.47 4.47 0 0 0-1.846 1.933c-.424.835-.637 1.802-.637 2.9 0 1.49.393 2.635 1.179 3.436.787.8 1.919 1.2 3.399 1.2 1.025 0 2.09-.21 3.193-.63v.975c-.937.41-2.002.615-3.193.615-1.773 0-3.15-.485-4.131-1.457-.977-.977-1.465-2.34-1.465-4.087 0-1.27.261-2.4.784-3.391a5.538 5.538 0 0 1 2.234-2.3c.966-.547 2.075-.82 3.325-.82 1.05 0 1.982.222 2.798.666a4.583 4.583 0 0 1 1.897 1.883c.449.81.674 1.745.674 2.805zm-7.574.96c0 1.24.476 1.86 1.429 1.86 1.01 0 1.56-.765 1.647-2.293l.103-1.912a4.287 4.287 0 0 0-1.15-.146c-.635 0-1.133.22-1.494.66-.356.439-.535 1.049-.535 1.83zM125.28 30l-.242-1.143h-.059c-.4.503-.8.845-1.201 1.026-.395.176-.891.264-1.487.264-.795 0-1.42-.206-1.875-.616-.449-.41-.673-.993-.673-1.75 0-1.621 1.296-2.47 3.889-2.55l1.362-.043v-.498c0-.63-.137-1.094-.41-1.392-.269-.302-.701-.454-1.297-.454-.668 0-1.425.205-2.27.615l-.374-.93a5.741 5.741 0 0 1 1.297-.505 5.671 5.671 0 0 1 1.421-.183c.957 0 1.665.212 2.124.637.464.425.696 1.106.696 2.043V30h-.901zm-2.747-.857c.757 0 1.35-.207 1.78-.623.434-.415.652-.996.652-1.743v-.725l-1.216.052c-.967.034-1.665.185-2.095.454-.425.263-.637.676-.637 1.237 0 .44.132.774.395 1.004.269.23.643.344 1.121.344zm9.518 1.003c-1.162 0-2.063-.356-2.703-1.069-.635-.718-.952-1.73-.952-3.04 0-1.342.322-2.38.967-3.112.649-.733 1.572-1.099 2.768-1.099.386 0 .772.042 1.158.125.385.083.688.18.908.293l-.374 1.032a5.422 5.422 0 0 0-.879-.263 3.799 3.799 0 0 0-.842-.11c-1.631 0-2.446 1.04-2.446 3.12 0 .986.198 1.743.593 2.27.4.528.991.791 1.772.791.669 0 1.355-.144 2.059-.432v1.077c-.538.278-1.214.418-2.029.418zm7.298 0c-1.162 0-2.063-.356-2.702-1.069-.635-.718-.953-1.73-.953-3.04 0-1.342.323-2.38.967-3.112.65-.733 1.572-1.099 2.769-1.099.386 0 .771.042 1.157.125.386.083.688.18.908.293l-.373 1.032a5.483 5.483 0 0 0-.879-.263 3.807 3.807 0 0 0-.843-.11c-1.63 0-2.446 1.04-2.446 3.12 0 .986.198 1.743.593 2.27.401.528.992.791 1.773.791.669 0 1.355-.144 2.058-.432v1.077c-.537.278-1.213.418-2.029.418zm11.019-4.167c0 1.309-.329 2.332-.988 3.069-.66.732-1.57 1.099-2.732 1.099-.718 0-1.355-.169-1.912-.506-.557-.337-.986-.82-1.289-1.45-.303-.63-.454-1.367-.454-2.212 0-1.309.327-2.327.981-3.054.655-.733 1.563-1.099 2.725-1.099 1.123 0 2.014.374 2.673 1.12.664.748.996 1.759.996 3.033zm-6.115 0c0 1.025.205 1.807.615 2.344.41.537 1.013.805 1.809.805s1.399-.266 1.809-.798c.415-.537.623-1.32.623-2.351 0-1.02-.208-1.794-.623-2.322-.41-.532-1.018-.798-1.824-.798-.796 0-1.396.261-1.801.784-.406.522-.608 1.3-.608 2.336zm9.547-4.006v5.207c0 .654.149 1.143.446 1.465.298.322.765.483 1.399.483.84 0 1.453-.23 1.839-.688.39-.459.586-1.209.586-2.249v-4.218h1.215V30h-1.003l-.176-1.077h-.066a2.415 2.415 0 0 1-1.04.909c-.439.21-.942.314-1.508.314-.977 0-1.709-.231-2.198-.695-.483-.464-.725-1.206-.725-2.227v-5.251h1.231zM167.514 30v-5.193c0-.654-.149-1.142-.447-1.465-.298-.322-.764-.483-1.399-.483-.839 0-1.455.227-1.845.681-.391.454-.586 1.204-.586 2.249V30h-1.216v-8.027h.989l.197 1.098h.059c.249-.395.598-.7 1.047-.915.45-.22.95-.33 1.502-.33.967 0 1.694.235 2.182.703.489.464.733 1.209.733 2.234V30h-1.216zm6.464-.857c.214 0 .422-.015.622-.044.2-.034.359-.068.476-.102v.93a2.16 2.16 0 0 1-.586.154 4.074 4.074 0 0 1-.688.066c-1.553 0-2.329-.818-2.329-2.454v-4.776h-1.15v-.586l1.15-.505.512-1.714h.703v1.86h2.33v.945h-2.33v4.725c0 .483.115.854.345 1.113.229.259.544.388.945.388zm8.038-1.333c0 .747-.279 1.323-.835 1.729-.557.405-1.338.607-2.344.607-1.064 0-1.895-.168-2.49-.505v-1.128c.386.195.798.35 1.238.462.444.112.871.168 1.281.168.635 0 1.123-.1 1.465-.3.342-.205.513-.515.513-.93 0-.313-.137-.579-.41-.799-.269-.224-.796-.488-1.582-.79-.747-.28-1.28-.52-1.597-.726a2.25 2.25 0 0 1-.703-.71c-.152-.264-.227-.579-.227-.945 0-.654.266-1.17.798-1.546.532-.38 1.262-.57 2.19-.57.864 0 1.709.175 2.534.526l-.432.99c-.806-.333-1.536-.499-2.19-.499-.576 0-1.011.09-1.304.271-.292.18-.439.43-.439.747a.93.93 0 0 0 .161.55c.112.151.291.295.535.432.244.136.713.334 1.406.593.952.347 1.594.696 1.926 1.047.337.352.506.794.506 1.326zm1.959 1.414c0-.328.073-.574.22-.74.151-.171.366-.257.644-.257.283 0 .503.086.659.257.161.166.242.412.242.74 0 .317-.081.561-.242.732-.161.171-.381.256-.659.256a.888.888 0 0 1-.622-.227c-.162-.156-.242-.41-.242-.761zm10.894-7.251v.769l-1.486.175c.136.171.258.396.366.674.107.274.161.584.161.93 0 .787-.269 1.414-.806 1.883-.537.469-1.274.703-2.212.703-.239 0-.463-.02-.673-.059-.518.274-.777.618-.777 1.033 0 .22.091.383.271.49.181.103.491.155.93.155h1.421c.869 0 1.536.183 2 .549.469.366.703.898.703 1.597 0 .888-.357 1.565-1.069 2.028-.713.47-1.753.703-3.121.703-1.049 0-1.86-.195-2.431-.585-.567-.391-.85-.943-.85-1.656 0-.488.156-.91.469-1.267.312-.356.752-.598 1.318-.725a1.301 1.301 0 0 1-.52-.432 1.163 1.163 0 0 1-.205-.681c0-.293.078-.55.235-.77.156-.219.402-.431.739-.636a2.19 2.19 0 0 1-1.018-.872 2.577 2.577 0 0 1-.388-1.406c0-.88.264-1.555.791-2.03.527-.478 1.275-.717 2.241-.717.42 0 .799.049 1.136.147h2.775zm-6.401 9.375c0 .434.183.764.549.988.367.225.891.337 1.575.337 1.021 0 1.775-.154 2.263-.461.493-.303.74-.715.74-1.238 0-.434-.134-.737-.403-.908-.268-.166-.774-.25-1.516-.25h-1.457c-.552 0-.982.133-1.29.396-.307.264-.461.643-.461 1.136zm.659-6.804c0 .561.159.986.476 1.274.318.288.76.432 1.326.432 1.187 0 1.78-.576 1.78-1.729 0-1.206-.601-1.809-1.802-1.809-.571 0-1.011.154-1.318.462-.308.307-.462.764-.462 1.37zm14.469 1.435c0 1.309-.329 2.332-.989 3.069-.659.732-1.569 1.099-2.732 1.099-.717 0-1.355-.169-1.911-.506-.557-.337-.987-.82-1.289-1.45-.303-.63-.454-1.367-.454-2.212 0-1.309.327-2.327.981-3.054.654-.733 1.563-1.099 2.725-1.099 1.123 0 2.014.374 2.673 1.12.664.748.996 1.759.996 3.033zm-6.116 0c0 1.025.205 1.807.616 2.344.41.537 1.013.805 1.809.805s1.399-.266 1.809-.798c.415-.537.622-1.32.622-2.351 0-1.02-.207-1.794-.622-2.322-.41-.532-1.018-.798-1.824-.798-.796 0-1.396.261-1.802.784-.405.522-.608 1.3-.608 2.336zm15.333 0c0 1.309-.329 2.332-.988 3.069-.659.732-1.57 1.099-2.732 1.099-.718 0-1.355-.169-1.912-.506-.556-.337-.986-.82-1.289-1.45-.303-.63-.454-1.367-.454-2.212 0-1.309.327-2.327.981-3.054.655-.733 1.563-1.099 2.725-1.099 1.123 0 2.014.374 2.673 1.12.664.748.996 1.759.996 3.033zm-6.115 0c0 1.025.205 1.807.615 2.344.41.537 1.013.805 1.809.805s1.399-.266 1.809-.798c.415-.537.623-1.32.623-2.351 0-1.02-.208-1.794-.623-2.322-.41-.532-1.018-.798-1.824-.798-.795 0-1.396.261-1.801.784-.406.522-.608 1.3-.608 2.336zm14.974-4.006v.769l-1.487.175c.137.171.259.396.366.674.108.274.161.584.161.93 0 .787-.268 1.414-.805 1.883-.537.469-1.275.703-2.212.703-.239 0-.464-.02-.674-.059-.517.274-.776.618-.776 1.033 0 .22.09.383.271.49.18.103.49.155.93.155h1.421c.869 0 1.535.183 1.999.549.469.366.703.898.703 1.597 0 .888-.356 1.565-1.069 2.028-.713.47-1.753.703-3.12.703-1.05 0-1.86-.195-2.432-.585-.566-.391-.849-.943-.849-1.656 0-.488.156-.91.468-1.267.313-.356.752-.598 1.319-.725a1.295 1.295 0 0 1-.52-.432 1.156 1.156 0 0 1-.205-.681c0-.293.078-.55.234-.77.156-.219.403-.431.74-.636a2.185 2.185 0 0 1-1.018-.872 2.577 2.577 0 0 1-.388-1.406c0-.88.263-1.555.791-2.03.527-.478 1.274-.717 2.241-.717.42 0 .798.049 1.135.147h2.776zm-6.401 9.375c0 .434.183.764.549.988.366.225.891.337 1.575.337 1.02 0 1.775-.154 2.263-.461.493-.303.74-.715.74-1.238 0-.434-.135-.737-.403-.908-.269-.166-.774-.25-1.516-.25h-1.458c-.552 0-.981.133-1.289.396-.308.264-.461.643-.461 1.136zm.659-6.804c0 .561.158.986.476 1.274.317.288.759.432 1.326.432 1.186 0 1.779-.576 1.779-1.729 0-1.206-.6-1.809-1.801-1.809-.572 0-1.011.154-1.319.462-.307.307-.461.764-.461 1.37zM224.686 30h-1.216V18.604h1.216V30zm6.119.146c-1.187 0-2.124-.36-2.813-1.084-.683-.722-1.025-1.726-1.025-3.01 0-1.294.317-2.322.952-3.083.64-.762 1.497-1.143 2.571-1.143 1.006 0 1.802.332 2.388.996.586.66.879 1.531.879 2.615v.77h-5.53c.024.941.261 1.657.71 2.145.454.488 1.092.732 1.912.732.864 0 1.719-.18 2.563-.541v1.084a6.203 6.203 0 0 1-1.223.395 6.603 6.603 0 0 1-1.384.125zm-.33-7.302c-.644 0-1.159.21-1.545.63-.381.42-.605 1.001-.674 1.743h4.197c0-.766-.171-1.352-.513-1.758-.342-.41-.83-.615-1.465-.615zm5.336 6.38c0-.328.073-.574.22-.74.151-.171.366-.257.644-.257.283 0 .503.086.659.257.162.166.242.412.242.74 0 .317-.08.561-.242.732-.161.171-.38.256-.659.256a.888.888 0 0 1-.622-.227c-.161-.156-.242-.41-.242-.761zm7.533.922c-1.162 0-2.063-.356-2.703-1.069-.635-.718-.952-1.73-.952-3.04 0-1.342.322-2.38.967-3.112.649-.733 1.572-1.099 2.768-1.099.386 0 .772.042 1.158.125.385.083.688.18.908.293l-.374 1.032a5.422 5.422 0 0 0-.879-.263 3.799 3.799 0 0 0-.842-.11c-1.631 0-2.446 1.04-2.446 3.12 0 .986.197 1.743.593 2.27.4.528.991.791 1.772.791.669 0 1.355-.144 2.059-.432v1.077c-.538.278-1.214.418-2.029.418zm11.019-4.167c0 1.309-.33 2.332-.989 3.069-.659.732-1.57 1.099-2.732 1.099-.718 0-1.355-.169-1.911-.506-.557-.337-.987-.82-1.29-1.45-.302-.63-.454-1.367-.454-2.212 0-1.309.328-2.327.982-3.054.654-.733 1.562-1.099 2.724-1.099 1.123 0 2.015.374 2.674 1.12.664.748.996 1.759.996 3.033zm-6.116 0c0 1.025.205 1.807.615 2.344.411.537 1.014.805 1.809.805.796 0 1.399-.266 1.81-.798.415-.537.622-1.32.622-2.351 0-1.02-.207-1.794-.622-2.322-.411-.532-1.019-.798-1.824-.798-.796 0-1.397.261-1.802.784-.405.522-.608 1.3-.608 2.336zM266.883 30v-5.222c0-.64-.136-1.118-.41-1.436-.273-.322-.698-.483-1.274-.483-.757 0-1.316.217-1.677.652-.362.434-.542 1.103-.542 2.007V30h-1.216v-5.222c0-.64-.137-1.118-.41-1.436-.274-.322-.701-.483-1.282-.483-.762 0-1.321.23-1.677.688-.352.454-.528 1.201-.528 2.242V30h-1.215v-8.027h.988l.198 1.098h.059a2.39 2.39 0 0 1 .966-.915c.42-.22.889-.33 1.407-.33 1.255 0 2.075.454 2.461 1.363h.058c.24-.42.586-.753 1.04-.997.454-.244.972-.366 1.553-.366.908 0 1.587.235 2.036.703.454.464.681 1.209.681 2.234V30h-1.216z" fill="#000"/><path d="M21.965 25.686a3.843 3.843 0 1 0 0-7.686 3.843 3.843 0 0 0 0 7.686zm.001.348A6.966 6.966 0 0 0 15 33h13.932a6.966 6.966 0 0 0-6.966-6.966z" opacity=".2" fill="#000"/><path opacity=".8" d="M52.467 107.81c0 .747-.278 1.323-.835 1.729-.556.405-1.338.607-2.343.607-1.065 0-1.895-.168-2.49-.505v-1.128a6.09 6.09 0 0 0 1.237.462c.444.112.872.168 1.282.168.635 0 1.123-.1 1.465-.3.341-.205.512-.515.512-.93 0-.313-.136-.579-.41-.799-.268-.224-.796-.488-1.582-.791-.747-.278-1.28-.52-1.596-.725a2.266 2.266 0 0 1-.704-.71 1.883 1.883 0 0 1-.227-.945c0-.654.266-1.17.799-1.546.532-.38 1.262-.571 2.19-.571a6.4 6.4 0 0 1 2.534.528l-.432.988c-.806-.332-1.536-.498-2.19-.498-.576 0-1.011.091-1.304.271-.293.181-.44.43-.44.747 0 .215.054.398.162.55.112.151.29.295.534.432.245.136.713.334 1.407.593.952.347 1.594.696 1.926 1.047.337.352.505.794.505 1.326zm3.278-5.837v5.207c0 .654.149 1.143.447 1.465.297.322.764.483 1.398.483.84 0 1.453-.229 1.839-.688.39-.459.586-1.209.586-2.249v-4.218h1.216V110h-1.004l-.176-1.077h-.066a2.418 2.418 0 0 1-1.04.909c-.439.21-.942.314-1.508.314-.977 0-1.71-.231-2.198-.695-.483-.464-.725-1.206-.725-2.227v-5.251h1.23zm13.4 5.837c0 .747-.28 1.323-.836 1.729-.556.405-1.338.607-2.343.607-1.065 0-1.895-.168-2.49-.505v-1.128a6.09 6.09 0 0 0 1.237.462 5.24 5.24 0 0 0 1.282.168c.635 0 1.123-.1 1.465-.3.342-.205.512-.515.512-.93 0-.313-.136-.579-.41-.799-.268-.224-.796-.488-1.582-.791-.747-.278-1.28-.52-1.597-.725a2.265 2.265 0 0 1-.703-.71c-.151-.264-.227-.579-.227-.945 0-.654.266-1.17.799-1.546.532-.38 1.262-.571 2.19-.571a6.4 6.4 0 0 1 2.534.528l-.432.988c-.806-.332-1.536-.498-2.19-.498-.576 0-1.011.091-1.304.271-.293.181-.44.43-.44.747 0 .215.054.398.162.55.112.151.29.295.534.432.245.136.713.334 1.407.593.952.347 1.594.696 1.926 1.047.337.352.505.794.505 1.326zm5.87 2.336a3.545 3.545 0 0 1-1.436-.285 2.722 2.722 0 0 1-1.084-.894h-.088c.059.469.088.913.088 1.333v3.304h-1.216v-11.631h.989l.168 1.098h.059c.312-.439.676-.757 1.091-.952.415-.195.891-.293 1.428-.293 1.065 0 1.885.364 2.461 1.091.581.728.872 1.749.872 3.062 0 1.318-.295 2.344-.886 3.076-.586.728-1.402 1.091-2.447 1.091zm-.176-7.287c-.82 0-1.414.227-1.78.681-.366.454-.554 1.177-.564 2.168v.271c0 1.128.188 1.936.564 2.424.376.484.979.725 1.809.725.693 0 1.235-.28 1.626-.842.395-.561.593-1.335.593-2.322 0-1.001-.198-1.767-.593-2.299-.39-.538-.942-.806-1.655-.806zM81.844 110h-1.216v-8.027h1.216V110zm-1.318-10.203c0-.278.068-.48.205-.608a.709.709 0 0 1 .513-.197.72.72 0 0 1 .505.197c.142.132.212.335.212.608 0 .274-.07.479-.212.616a.72.72 0 0 1-.505.197.712.712 0 0 1-.513-.197c-.137-.137-.205-.342-.205-.616zm7.254 10.349c-1.162 0-2.063-.356-2.702-1.069-.635-.718-.953-1.731-.953-3.039 0-1.343.323-2.381.967-3.113.65-.733 1.573-1.099 2.769-1.099.386 0 .771.042 1.157.125.386.083.689.18.908.293l-.373 1.032a5.465 5.465 0 0 0-.88-.263 3.756 3.756 0 0 0-.841-.11c-1.631 0-2.447 1.04-2.447 3.12 0 .986.198 1.743.593 2.27.4.528.992.791 1.773.791.669 0 1.355-.144 2.058-.432v1.077c-.537.278-1.213.417-2.029.417zm8.038-.146h-1.186v-7.632c0-.635.02-1.235.058-1.802-.102.103-.217.21-.344.323-.127.112-.708.588-1.743 1.428l-.644-.835 2.834-2.19h1.025V110zm11.715-4.021c0 1.309-.329 2.332-.988 3.069-.66.732-1.57 1.098-2.732 1.098-.718 0-1.355-.168-1.912-.505-.557-.337-.986-.82-1.289-1.45-.303-.63-.454-1.367-.454-2.212 0-1.309.327-2.327.981-3.054.655-.733 1.563-1.099 2.725-1.099 1.123 0 2.014.374 2.673 1.121.664.747.996 1.758.996 3.032zm-6.115 0c0 1.025.205 1.807.615 2.344.41.537 1.013.805 1.809.805s1.399-.266 1.809-.798c.415-.537.623-1.321.623-2.351 0-1.021-.208-1.794-.623-2.322-.41-.532-1.018-.798-1.824-.798-.796 0-1.396.261-1.801.784-.406.522-.608 1.301-.608 2.336zm9.547-4.006v5.207c0 .654.149 1.143.446 1.465.298.322.765.483 1.399.483.84 0 1.453-.229 1.839-.688.39-.459.586-1.209.586-2.249v-4.218h1.215V110h-1.003l-.176-1.077h-.066a2.414 2.414 0 0 1-1.04.909c-.439.21-.942.314-1.508.314-.977 0-1.709-.231-2.198-.695-.483-.464-.725-1.206-.725-2.227v-5.251h1.231zm13.399 5.837c0 .747-.278 1.323-.835 1.729-.556.405-1.338.607-2.344.607-1.064 0-1.894-.168-2.49-.505v-1.128a6.12 6.12 0 0 0 1.238.462c.444.112.872.168 1.282.168.635 0 1.123-.1 1.465-.3.341-.205.512-.515.512-.93 0-.313-.136-.579-.41-.799-.268-.224-.796-.488-1.582-.791-.747-.278-1.279-.52-1.597-.725a2.278 2.278 0 0 1-.703-.71c-.151-.264-.227-.579-.227-.945 0-.654.266-1.17.799-1.546.532-.38 1.262-.571 2.19-.571a6.4 6.4 0 0 1 2.534.528l-.432.988c-.806-.332-1.536-.498-2.19-.498-.577 0-1.011.091-1.304.271-.293.181-.44.43-.44.747 0 .215.054.398.162.55.112.151.29.295.534.432.244.136.713.334 1.407.593.952.347 1.594.696 1.926 1.047.337.352.505.794.505 1.326zm5.123-8.672c.977 0 1.751.227 2.322.681.571.454.857 1.082.857 1.883 0 .527-.164 1.008-.491 1.443-.327.434-.849.83-1.567 1.186.869.415 1.487.852 1.853 1.311.366.454.549.982.549 1.582 0 .889-.31 1.599-.93 2.131-.62.528-1.47.791-2.549.791-1.142 0-2.021-.249-2.636-.747-.616-.503-.923-1.213-.923-2.131 0-1.226.747-2.18 2.241-2.864-.674-.381-1.157-.791-1.45-1.23a2.645 2.645 0 0 1-.44-1.487c0-.776.286-1.394.857-1.853.576-.464 1.345-.696 2.307-.696zm-2.314 8.159c0 .586.202 1.043.608 1.37.41.327.984.491 1.721.491.727 0 1.294-.171 1.699-.513.405-.342.608-.811.608-1.406 0-.474-.19-.894-.571-1.26-.381-.371-1.045-.73-1.992-1.077-.728.313-1.255.66-1.582 1.04-.328.376-.491.828-.491 1.355zm2.3-7.17c-.611 0-1.089.146-1.436.439-.347.293-.52.684-.52 1.172 0 .45.144.835.432 1.158.288.322.821.644 1.597.966.698-.293 1.191-.608 1.479-.945.293-.336.44-.729.44-1.179 0-.493-.178-.884-.535-1.172-.351-.293-.837-.439-1.457-.439zm17.069 4.534c0 .693-.108 1.328-.323 1.904-.215.576-.517 1.023-.908 1.34-.39.318-.84.476-1.348.476-.419 0-.773-.127-1.062-.381a1.521 1.521 0 0 1-.512-.974h-.059a2.308 2.308 0 0 1-.842.996c-.361.24-.791.359-1.289.359-.733 0-1.306-.249-1.721-.747-.411-.503-.616-1.184-.616-2.043 0-.996.288-1.804.865-2.424.576-.625 1.333-.938 2.27-.938.332 0 .708.032 1.128.095.42.059.798.142 1.135.249l-.183 3.443v.161c0 .869.325 1.303.974 1.303.445 0 .806-.261 1.084-.783.279-.528.418-1.211.418-2.051 0-.884-.181-1.658-.542-2.322a3.71 3.71 0 0 0-1.546-1.531c-.664-.361-1.428-.542-2.292-.542-1.089 0-2.036.228-2.842.682a4.467 4.467 0 0 0-1.846 1.933c-.424.835-.637 1.802-.637 2.901 0 1.489.393 2.634 1.179 3.435.787.8 1.919 1.201 3.399 1.201 1.025 0 2.09-.21 3.193-.63v.974c-.937.41-2.002.615-3.193.615-1.773 0-3.15-.486-4.131-1.457-.977-.977-1.465-2.339-1.465-4.087 0-1.27.261-2.4.784-3.391a5.54 5.54 0 0 1 2.234-2.3c.967-.547 2.075-.82 3.325-.82 1.05 0 1.982.222 2.798.666a4.587 4.587 0 0 1 1.897 1.882c.449.811.674 1.746.674 2.806zm-7.574.959c0 1.24.476 1.86 1.429 1.86 1.01 0 1.56-.764 1.648-2.292l.102-1.912a4.31 4.31 0 0 0-1.15-.146c-.635 0-1.133.22-1.494.659-.356.44-.535 1.05-.535 1.831zm16.476-3.647v.769l-1.487.175c.137.171.259.396.366.674.108.274.162.584.162.93 0 .787-.269 1.414-.806 1.883-.537.469-1.275.703-2.212.703-.239 0-.464-.02-.674-.059-.517.274-.776.618-.776 1.033 0 .22.09.383.271.491.18.102.491.154.93.154h1.421c.869 0 1.536.183 1.999.549.469.366.704.898.704 1.597 0 .888-.357 1.565-1.07 2.028-.713.469-1.753.704-3.12.704-1.05 0-1.86-.196-2.432-.586-.566-.391-.849-.943-.849-1.656 0-.488.156-.91.469-1.267.312-.356.752-.598 1.318-.725a1.298 1.298 0 0 1-.52-.432 1.154 1.154 0 0 1-.205-.681c0-.293.078-.549.234-.769.156-.22.403-.432.74-.637a2.192 2.192 0 0 1-1.018-.872 2.577 2.577 0 0 1-.388-1.406c0-.879.263-1.555.791-2.029.527-.479 1.274-.718 2.241-.718.42 0 .798.049 1.135.147h2.776zm-6.401 9.375c0 .434.183.764.549.988.366.225.891.337 1.575.337 1.02 0 1.775-.153 2.263-.461.493-.303.74-.715.74-1.238 0-.434-.135-.737-.403-.908-.269-.166-.774-.249-1.516-.249h-1.458c-.552 0-.981.132-1.289.395-.308.264-.461.642-.461 1.136zm.659-6.805c0 .562.159.987.476 1.275.317.288.759.432 1.326.432 1.186 0 1.779-.576 1.779-1.729 0-1.206-.6-1.809-1.801-1.809-.572 0-1.011.154-1.319.462-.307.307-.461.764-.461 1.369zM167.474 110v-5.222c0-.64-.137-1.118-.41-1.436-.274-.322-.698-.483-1.275-.483-.756 0-1.316.217-1.677.652-.361.434-.542 1.103-.542 2.007V110h-1.216v-5.222c0-.64-.136-1.118-.41-1.436-.273-.322-.701-.483-1.282-.483-.761 0-1.32.229-1.677.688-.351.454-.527 1.202-.527 2.242V110h-1.216v-8.027h.989l.198 1.098h.058c.23-.39.552-.696.967-.915.42-.22.889-.33 1.406-.33 1.255 0 2.075.454 2.461 1.362h.059a2.57 2.57 0 0 1 1.04-.996c.454-.244.971-.366 1.552-.366.909 0 1.587.235 2.037.703.454.464.681 1.209.681 2.234V110h-1.216zm8.814 0l-.241-1.143h-.059c-.4.503-.801.845-1.201 1.026-.395.176-.891.263-1.487.263-.796 0-1.421-.205-1.875-.615-.449-.41-.674-.993-.674-1.75 0-1.621 1.297-2.471 3.89-2.549l1.362-.044v-.498c0-.63-.137-1.094-.41-1.392-.269-.302-.701-.454-1.297-.454-.669 0-1.425.205-2.27.615l-.374-.93a5.726 5.726 0 0 1 1.297-.505 5.671 5.671 0 0 1 1.421-.183c.957 0 1.665.212 2.124.637.463.425.695 1.106.695 2.043V110h-.901zm-2.746-.857c.757 0 1.35-.207 1.78-.622.434-.416.652-.997.652-1.744v-.725l-1.216.052c-.967.034-1.665.185-2.095.454-.425.263-.637.676-.637 1.237 0 .44.132.774.395 1.004.269.229.642.344 1.121.344zm7.525.857h-1.215v-8.027h1.215V110zm-1.318-10.203c0-.278.068-.48.205-.608a.71.71 0 0 1 .513-.197c.195 0 .364.066.505.197.142.132.213.335.213.608 0 .274-.071.479-.213.616a.718.718 0 0 1-.505.197.713.713 0 0 1-.513-.197c-.137-.137-.205-.342-.205-.616zM185.011 110h-1.215V98.603h1.215V110zm2.553-.776c0-.328.073-.574.219-.74.152-.171.367-.256.645-.256.283 0 .503.085.659.256.161.166.242.412.242.74 0 .317-.081.561-.242.732-.161.171-.381.256-.659.256a.887.887 0 0 1-.623-.227c-.161-.156-.241-.41-.241-.761zm7.532.922c-1.162 0-2.063-.356-2.702-1.069-.635-.718-.952-1.731-.952-3.039 0-1.343.322-2.381.966-3.113.65-.733 1.573-1.099 2.769-1.099.386 0 .772.042 1.157.125.386.083.689.18.908.293l-.373 1.032a5.494 5.494 0 0 0-.879-.263 3.753 3.753 0 0 0-.842-.11c-1.631 0-2.447 1.04-2.447 3.12 0 .986.198 1.743.594 2.27.4.528.991.791 1.772.791.669 0 1.355-.144 2.058-.432v1.077c-.537.278-1.213.417-2.029.417zm11.02-4.167c0 1.309-.33 2.332-.989 3.069-.659.732-1.57 1.098-2.732 1.098-.718 0-1.355-.168-1.912-.505-.556-.337-.986-.82-1.289-1.45-.302-.63-.454-1.367-.454-2.212 0-1.309.327-2.327.982-3.054.654-.733 1.562-1.099 2.724-1.099 1.123 0 2.014.374 2.674 1.121.664.747.996 1.758.996 3.032zm-6.116 0c0 1.025.205 1.807.615 2.344.41.537 1.013.805 1.809.805s1.399-.266 1.809-.798c.415-.537.623-1.321.623-2.351 0-1.021-.208-1.794-.623-2.322-.41-.532-1.018-.798-1.823-.798-.796 0-1.397.261-1.802.784-.405.522-.608 1.301-.608 2.336zM218.636 110v-5.222c0-.64-.136-1.118-.41-1.436-.273-.322-.698-.483-1.274-.483-.757 0-1.316.217-1.678.652-.361.434-.542 1.103-.542 2.007V110h-1.215v-5.222c0-.64-.137-1.118-.411-1.436-.273-.322-.7-.483-1.281-.483-.762 0-1.321.229-1.678.688-.351.454-.527 1.202-.527 2.242V110h-1.216v-8.027h.989l.198 1.098h.058c.23-.39.552-.696.967-.915.42-.22.889-.33 1.406-.33 1.255 0 2.076.454 2.461 1.362h.059a2.57 2.57 0 0 1 1.04-.996c.454-.244.972-.366 1.553-.366.908 0 1.587.235 2.036.703.454.464.681 1.209.681 2.234V110h-1.216z" fill="#000"/><path d="M21.965 105.686a3.843 3.843 0 1 0 .002-7.685 3.843 3.843 0 0 0-.002 7.685zm.001.348A6.966 6.966 0 0 0 15 113h13.932a6.966 6.966 0 0 0-6.966-6.966z" opacity=".2" fill="#000"/></svg>