<svg width="370" height="188" viewBox="0 0 370 188" fill="none" xmlns="http://www.w3.org/2000/svg"><rect opacity=".2" x=".5" y="92.5" width="369" height="95" rx="4.5" fill="#fff" stroke="#000"/><path opacity=".8" d="M44.011 131H31.472v-10.708h1.245v9.58h4.395v-9.58h1.245v9.58h4.395v-9.58h1.26V131zm7.848 0l-.242-1.143h-.058c-.4.503-.801.845-1.201 1.026-.396.176-.892.263-1.487.263-.796 0-1.421-.205-1.875-.615-.45-.41-.674-.993-.674-1.75 0-1.621 1.296-2.471 3.889-2.549l1.362-.044v-.498c0-.63-.136-1.094-.41-1.392-.268-.302-.7-.454-1.296-.454-.67 0-1.426.205-2.27.615l-.374-.93a5.717 5.717 0 0 1 1.296-.505 5.677 5.677 0 0 1 1.421-.183c.957 0 1.665.212 2.124.637.464.425.696 1.106.696 2.043V131h-.901zm-2.747-.857c.757 0 1.35-.207 1.78-.622.435-.416.652-.997.652-1.744v-.725l-1.216.052c-.967.034-1.665.185-2.095.454-.424.263-.637.676-.637 1.237 0 .44.132.774.396 1.004.268.229.642.344 1.12.344zm7.526-7.17v3.361h4.497v-3.361h1.216V131h-1.216v-3.618h-4.497V131h-1.216v-8.027h1.216zm15.37 4.006c0 1.309-.33 2.332-.99 3.069-.658.732-1.569 1.098-2.731 1.098-.718 0-1.355-.168-1.912-.505-.556-.337-.986-.82-1.289-1.45-.302-.63-.454-1.367-.454-2.212 0-1.309.327-2.327.982-3.054.654-.733 1.562-1.099 2.724-1.099 1.123 0 2.014.374 2.674 1.121.664.747.996 1.758.996 3.032zm-6.116 0c0 1.025.205 1.807.615 2.344.41.537 1.013.805 1.81.805.795 0 1.398-.266 1.808-.798.415-.537.623-1.321.623-2.351 0-1.021-.208-1.794-.623-2.322-.41-.532-1.018-.798-1.823-.798-.796 0-1.397.261-1.802.784-.406.522-.608 1.301-.608 2.336zm14.916-1.992c0 .522-.152.92-.455 1.194-.297.268-.717.449-1.26.542v.066c.684.092 1.182.293 1.495.6.317.308.476.733.476 1.275 0 .747-.276 1.323-.828 1.728-.547.405-1.347.608-2.402.608h-3.538v-8.027h3.523c1.992 0 2.989.671 2.989 2.014zm-.96 3.596c0-.435-.166-.75-.498-.945-.327-.2-.872-.3-1.633-.3h-2.205v2.644h2.234c1.401 0 2.102-.466 2.102-1.399zm-.227-3.479c0-.391-.151-.666-.454-.828-.298-.166-.752-.249-1.362-.249h-2.293v2.264h2.058c.752 0 1.282-.093 1.59-.279.307-.185.461-.488.461-.908zm4.581-2.131v3.361H88.7v-3.361h1.216V131H88.7v-3.618h-4.497V131h-1.216v-8.027h1.216zm9.584 0v5.09l-.052 1.333-.021.417 4.343-6.84h1.516V131h-1.135v-4.907l.022-.967.036-.952L94.16 131h-1.516v-8.027h1.143zm9.657 0v5.09l-.052 1.333-.022.417 4.344-6.84h1.516V131h-1.136v-4.907l.022-.967.037-.952-4.336 6.826H102.3v-8.027h1.143zm2.292-1.062c-.903 0-1.562-.174-1.977-.52-.416-.352-.647-.928-.696-1.729h1.142c.044.508.176.862.396 1.062.224.2.613.3 1.164.3.503 0 .874-.107 1.114-.322.244-.215.393-.561.446-1.04h1.15c-.058.772-.305 1.34-.739 1.707-.435.361-1.102.542-2 .542zm14.948 1.062h1.334l-3.465 3.874 3.75 4.153h-1.421l-3.662-4.065V131h-1.216v-8.027h1.216v3.903l3.464-3.903zM129.93 131h-1.23v-6.987h-2.41c-.132 1.738-.315 3.117-.549 4.138-.235 1.02-.54 1.767-.916 2.241-.371.474-.845.711-1.421.711a1.86 1.86 0 0 1-.63-.088v-.901c.108.029.23.044.367.044.561 0 1.008-.594 1.34-1.78.332-1.187.583-2.988.754-5.405h4.695V131zm3.951 0h-1.215v-8.027h1.215V131zm-1.318-10.203c0-.278.068-.481.205-.608a.713.713 0 0 1 .513-.197c.195 0 .364.066.505.197.142.132.213.335.213.608 0 .274-.071.479-.213.616a.718.718 0 0 1-.505.197.713.713 0 0 1-.513-.197c-.137-.137-.205-.342-.205-.616zm7.394 10.349c-1.211 0-2.146-.354-2.805-1.062-.66-.712-.989-1.733-.989-3.061 0-1.343.334-2.378 1.003-3.106.674-.727 1.624-1.091 2.849-1.091.401 0 .794.039 1.18.117.385.078.717.179.996.301l-.359 1.032c-.699-.249-1.314-.373-1.846-.373-.801 0-1.409.2-1.824.6-.415.396-.661 1.006-.739 1.831h4.05v1.033h-4.065c.044.928.273 1.614.688 2.058.415.44 1.031.659 1.846.659.684 0 1.394-.144 2.131-.432v1.077c-.566.278-1.272.417-2.116.417zm5.401-8.173v3.361h4.497v-3.361h1.216V131h-1.216v-3.618h-4.497V131h-1.216v-8.027h1.216zm13.854 1.04h-2.608V131h-1.215v-6.987h-2.579v-1.04h6.402v1.04zm3.014 5.244l.109.168c-.127.489-.31 1.055-.549 1.7a23.81 23.81 0 0 1-.747 1.809h-.915c.131-.508.275-1.136.432-1.883.161-.747.273-1.345.337-1.794h1.333zm12.011-5.244h-2.607V131h-1.216v-6.987h-2.578v-1.04h6.401v1.04zm5.13 7.133c-1.186 0-2.124-.361-2.812-1.084-.684-.722-1.025-1.726-1.025-3.01 0-1.294.317-2.322.952-3.083.639-.762 1.496-1.143 2.571-1.143 1.005 0 1.801.332 2.387.996.586.659.879 1.531.879 2.615v.769h-5.53c.025.942.262 1.658.711 2.146.454.488 1.091.732 1.911.732.865 0 1.719-.18 2.564-.542v1.084c-.43.186-.838.318-1.223.396a6.616 6.616 0 0 1-1.385.124zm-.329-7.302c-.645 0-1.16.21-1.546.63-.38.42-.605 1.001-.673 1.743h4.196c0-.766-.17-1.352-.512-1.758-.342-.41-.83-.615-1.465-.615zm9.247 7.302a3.547 3.547 0 0 1-1.436-.285 2.72 2.72 0 0 1-1.084-.894h-.088c.059.469.088.913.088 1.333v3.304h-1.216v-11.631h.989l.168 1.098h.059c.313-.439.676-.757 1.091-.952.415-.195.891-.293 1.429-.293 1.064 0 1.884.364 2.461 1.091.581.728.871 1.749.871 3.062 0 1.318-.295 2.344-.886 3.076-.586.728-1.402 1.091-2.446 1.091zm-.176-7.287c-.821 0-1.414.227-1.78.681-.366.454-.554 1.177-.564 2.168v.271c0 1.128.188 1.936.564 2.424.376.484.979.725 1.809.725.693 0 1.235-.28 1.626-.842.396-.561.593-1.335.593-2.322 0-1.001-.197-1.767-.593-2.299-.391-.538-.942-.806-1.655-.806zm9.957 5.969l.227-.681.315-.864 2.175-5.296h1.546V131h-1.077v-6.628l-.147.424-.424 1.121-2.073 5.083h-1.018l-2.073-5.098c-.259-.654-.437-1.164-.535-1.53V131h-1.084v-8.013h1.487l2.102 5.091c.21.537.403 1.12.579 1.75zm8.229 1.172h-1.216v-8.027h1.216V131zm-1.319-10.203c0-.278.069-.481.205-.608a.713.713 0 0 1 .513-.197c.195 0 .364.066.505.197.142.132.213.335.213.608 0 .274-.071.479-.213.616a.718.718 0 0 1-.505.197.713.713 0 0 1-.513-.197c-.136-.137-.205-.342-.205-.616zm5.262 2.176v3.361h4.498v-3.361h1.215V131h-1.215v-3.618h-4.498V131h-1.215v-8.027h1.215zm15.37 4.006c0 1.309-.329 2.332-.989 3.069-.659.732-1.569 1.098-2.732 1.098-.717 0-1.354-.168-1.911-.505-.557-.337-.986-.82-1.289-1.45-.303-.63-.454-1.367-.454-2.212 0-1.309.327-2.327.981-3.054.654-.733 1.563-1.099 2.725-1.099 1.123 0 2.014.374 2.673 1.121.664.747.996 1.758.996 3.032zm-6.116 0c0 1.025.206 1.807.616 2.344.41.537 1.013.805 1.809.805s1.399-.266 1.809-.798c.415-.537.622-1.321.622-2.351 0-1.021-.207-1.794-.622-2.322-.41-.532-1.018-.798-1.824-.798-.796 0-1.396.261-1.802.784-.405.522-.608 1.301-.608 2.336zm14.916-1.992c0 .522-.151.92-.454 1.194-.298.268-.718.449-1.26.542v.066c.684.092 1.182.293 1.494.6.318.308.476.733.476 1.275 0 .747-.275 1.323-.827 1.728-.547.405-1.348.608-2.403.608h-3.537v-8.027h3.523c1.992 0 2.988.671 2.988 2.014zm-.959 3.596c0-.435-.166-.75-.498-.945-.328-.2-.872-.3-1.634-.3h-2.204v2.644h2.234c1.401 0 2.102-.466 2.102-1.399zm-.227-3.479c0-.391-.152-.666-.455-.828-.297-.166-.751-.249-1.362-.249h-2.292v2.264h2.058c.752 0 1.282-.093 1.589-.279.308-.185.462-.488.462-.908zm10.294 1.875c0 1.309-.33 2.332-.989 3.069-.659.732-1.57 1.098-2.732 1.098-.718 0-1.355-.168-1.912-.505-.556-.337-.986-.82-1.289-1.45-.302-.63-.454-1.367-.454-2.212 0-1.309.327-2.327.982-3.054.654-.733 1.562-1.099 2.724-1.099 1.123 0 2.014.374 2.674 1.121.664.747.996 1.758.996 3.032zm-6.116 0c0 1.025.205 1.807.615 2.344.41.537 1.013.805 1.809.805s1.399-.266 1.809-.798c.415-.537.623-1.321.623-2.351 0-1.021-.208-1.794-.623-2.322-.41-.532-1.018-.798-1.823-.798-.796 0-1.397.261-1.802.784-.405.522-.608 1.301-.608 2.336zm18.962-1.992c0 .522-.151.92-.454 1.194-.298.268-.718.449-1.26.542v.066c.684.092 1.182.293 1.494.6.318.308.476.733.476 1.275 0 .747-.276 1.323-.827 1.728-.547.405-1.348.608-2.403.608h-3.537v-8.027h3.523c1.992 0 2.988.671 2.988 2.014zm-.959 3.596c0-.435-.166-.75-.499-.945-.327-.2-.871-.3-1.633-.3h-2.204v2.644h2.233c1.402 0 2.103-.466 2.103-1.399zm-.228-3.479c0-.391-.151-.666-.454-.828-.297-.166-.752-.249-1.362-.249h-2.292v2.264h2.058c.752 0 1.281-.093 1.589-.279.308-.185.461-.488.461-.908zm4.582 5.896h-1.216v-8.027h1.216V131zm-1.319-10.203c0-.278.069-.481.205-.608a.713.713 0 0 1 .513-.197c.195 0 .364.066.505.197.142.132.213.335.213.608 0 .274-.071.479-.213.616a.718.718 0 0 1-.505.197.713.713 0 0 1-.513-.197c-.136-.137-.205-.342-.205-.616zm11.019 12.979h-1.179V131h-5.61v2.776h-1.172v-3.823h.63c.654-.889 1.167-1.932 1.538-3.128.371-1.196.564-2.48.579-3.852h4.065v6.98h1.149v3.823zm-2.321-3.823v-6.021h-1.802a13.389 13.389 0 0 1-.63 3.296c-.352 1.108-.791 2.017-1.318 2.725h3.75zm8.763-6.98h1.333l-3.464 3.874 3.75 4.153h-1.421l-3.662-4.065V131h-1.216v-8.027h1.216v3.903l3.464-3.903zm6.998 8.173a3.542 3.542 0 0 1-1.435-.285 2.72 2.72 0 0 1-1.084-.894h-.088c.058.469.088.913.088 1.333v3.304h-1.216v-11.631h.988l.169 1.098h.059c.312-.439.676-.757 1.091-.952.415-.195.891-.293 1.428-.293 1.065 0 1.885.364 2.461 1.091.581.728.872 1.749.872 3.062 0 1.318-.296 2.344-.887 3.076-.586.728-1.401 1.091-2.446 1.091zm-.176-7.287c-.82 0-1.413.227-1.78.681-.366.454-.554 1.177-.563 2.168v.271c0 1.128.188 1.936.563 2.424.376.484.98.725 1.81.725.693 0 1.235-.28 1.626-.842.395-.561.593-1.335.593-2.322 0-1.001-.198-1.767-.593-2.299-.391-.538-.943-.806-1.656-.806zm6.933-.886v5.09l-.052 1.333-.022.417 4.344-6.84h1.516V131h-1.136v-4.907l.022-.967.037-.952-4.336 6.826h-1.516v-8.027h1.143zm9.656 0v5.09l-.051 1.333-.022.417 4.343-6.84h1.516V131h-1.135v-4.907l.022-.967.037-.952-4.336 6.826h-1.516v-8.027h1.142zm2.293-1.062c-.903 0-1.563-.174-1.978-.52-.415-.352-.647-.928-.695-1.729h1.142c.044.508.176.862.396 1.062.224.2.612.3 1.164.3.503 0 .874-.107 1.113-.322.245-.215.393-.561.447-1.04h1.15c-.058.772-.305 1.34-.74 1.707-.434.361-1.101.542-1.999.542zm11.634 2.102h-2.607V131h-1.216v-6.987h-2.578v-1.04h6.401v1.04zm5.131 7.133c-1.187 0-2.124-.361-2.813-1.084-.683-.722-1.025-1.726-1.025-3.01 0-1.294.317-2.322.952-3.083.64-.762 1.497-1.143 2.571-1.143 1.006 0 1.801.332 2.387.996.586.659.879 1.531.879 2.615v.769h-5.529c.024.942.261 1.658.71 2.146.454.488 1.091.732 1.912.732.864 0 1.718-.18 2.563-.542v1.084a6.18 6.18 0 0 1-1.223.396 6.606 6.606 0 0 1-1.384.124zm-.33-7.302c-.644 0-1.16.21-1.545.63-.381.42-.606 1.001-.674 1.743h4.197c0-.766-.171-1.352-.513-1.758-.342-.41-.83-.615-1.465-.615zm14.97.169h-2.607V131h-1.216v-6.987h-2.578v-1.04h6.401v1.04zm6.676 6.987l-.241-1.143h-.059c-.4.503-.801.845-1.201 1.026-.396.176-.891.263-1.487.263-.796 0-1.421-.205-1.875-.615-.449-.41-.674-.993-.674-1.75 0-1.621 1.297-2.471 3.889-2.549l1.363-.044v-.498c0-.63-.137-1.094-.41-1.392-.269-.302-.701-.454-1.297-.454-.669 0-1.426.205-2.27.615l-.374-.93a5.726 5.726 0 0 1 1.297-.505 5.67 5.67 0 0 1 1.42-.183c.957 0 1.665.212 2.124.637.464.425.696 1.106.696 2.043V131h-.901zm-2.746-.857c.757 0 1.35-.207 1.78-.622.434-.416.651-.997.651-1.744v-.725l-1.215.052c-.967.034-1.665.185-2.095.454-.425.263-.637.676-.637 1.237 0 .44.132.774.395 1.004.269.229.642.344 1.121.344zm-298.72 22.836c0 1.309-.33 2.332-.989 3.069-.66.732-1.57 1.098-2.732 1.098-.718 0-1.355-.168-1.912-.505-.556-.337-.986-.82-1.289-1.45-.302-.63-.454-1.367-.454-2.212 0-1.309.327-2.327.982-3.054.654-.733 1.562-1.099 2.724-1.099 1.123 0 2.014.374 2.674 1.121.664.747.996 1.758.996 3.032zm-6.116 0c0 1.025.205 1.807.615 2.344.41.537 1.014.805 1.81.805.795 0 1.398-.266 1.808-.798.416-.537.623-1.321.623-2.351 0-1.021-.207-1.794-.623-2.322-.41-.532-1.018-.798-1.823-.798-.796 0-1.397.261-1.802.784-.405.522-.608 1.301-.608 2.336zm9.935-.674c1.519 0 2.278-.42 2.278-1.26 0-.791-.615-1.186-1.846-1.186a4.76 4.76 0 0 0-1.025.102c-.308.069-.71.206-1.209.411l-.432-.989a6.583 6.583 0 0 1 2.718-.557c.922 0 1.65.191 2.182.571.532.376.799.892.799 1.546 0 .898-.5 1.487-1.502 1.765v.059c.615.18 1.065.439 1.348.776.283.332.425.749.425 1.252 0 .743-.3 1.321-.901 1.736-.596.41-1.421.615-2.476.615-1.157 0-2.05-.173-2.68-.52v-1.113c.893.42 1.796.63 2.71.63.703 0 1.232-.12 1.589-.359.361-.244.542-.593.542-1.047 0-.933-.76-1.399-2.278-1.399h-1.113v-1.033h.871zm7.086-3.332v3.361h4.497v-3.361h1.216V157H53.62v-3.618h-4.497V157h-1.216v-8.027h1.216zM62.501 157l-.242-1.143H62.2c-.4.503-.8.845-1.2 1.026-.396.176-.892.263-1.487.263-.796 0-1.421-.205-1.875-.615-.45-.41-.674-.993-.674-1.75 0-1.621 1.296-2.471 3.889-2.549l1.362-.044v-.498c0-.63-.137-1.094-.41-1.392-.269-.302-.7-.454-1.296-.454-.67 0-1.426.205-2.27.615l-.374-.93a5.717 5.717 0 0 1 1.296-.505 5.677 5.677 0 0 1 1.42-.183c.958 0 1.666.212 2.125.637.464.425.696 1.106.696 2.043V157H62.5zm-2.747-.857c.757 0 1.35-.207 1.78-.622.435-.416.652-.997.652-1.744v-.725l-1.216.052c-.967.034-1.665.185-2.095.454-.425.263-.637.676-.637 1.237 0 .44.132.774.396 1.004.268.229.642.344 1.12.344zm7.452-7.17v5.09l-.05 1.333-.023.417 4.344-6.84h1.516V157h-1.136v-4.907l.022-.967.037-.952L67.58 157h-1.516v-8.027h1.142zm2.293-1.062c-.903 0-1.563-.174-1.978-.52-.415-.352-.647-.928-.695-1.729h1.142c.044.508.176.862.396 1.062.224.2.612.3 1.164.3.503 0 .874-.107 1.113-.322.245-.215.394-.561.447-1.04h1.15c-.058.772-.305 1.34-.74 1.707-.434.361-1.1.542-2 .542zm13.15 5.068c0 1.309-.33 2.332-.988 3.069-.66.732-1.57 1.098-2.732 1.098-.718 0-1.355-.168-1.912-.505-.557-.337-.986-.82-1.289-1.45-.303-.63-.454-1.367-.454-2.212 0-1.309.327-2.327.981-3.054.655-.733 1.563-1.099 2.725-1.099 1.123 0 2.014.374 2.673 1.121.664.747.996 1.758.996 3.032zm-6.115 0c0 1.025.205 1.807.615 2.344.41.537 1.013.805 1.809.805s1.399-.266 1.81-.798c.414-.537.622-1.321.622-2.351 0-1.021-.208-1.794-.623-2.322-.41-.532-1.018-.798-1.824-.798-.796 0-1.396.261-1.801.784-.406.522-.608 1.301-.608 2.336zm12.572 2.849l.227-.681.315-.864 2.175-5.296h1.545V157h-1.076v-6.628l-.147.424-.425 1.121L89.648 157h-1.019l-2.072-5.098c-.259-.654-.437-1.164-.535-1.53V157h-1.084v-8.013h1.487l2.102 5.091c.21.537.403 1.12.579 1.75zm12.425-5.815h-2.608V157h-1.215v-6.987H95.13v-1.04h6.401v1.04zm5.13 7.133c-1.186 0-2.124-.361-2.812-1.084-.684-.722-1.025-1.726-1.025-3.01 0-1.294.317-2.322.952-3.083.639-.762 1.496-1.143 2.57-1.143 1.006 0 1.802.332 2.388.996.586.659.879 1.531.879 2.615v.769h-5.53c.025.942.262 1.658.711 2.146.454.488 1.091.732 1.911.732.865 0 1.719-.18 2.564-.542v1.084c-.43.186-.838.318-1.223.396a6.616 6.616 0 0 1-1.385.124zm-.329-7.302c-.645 0-1.16.21-1.546.63-.38.42-.605 1.001-.673 1.743h4.196c0-.766-.171-1.352-.512-1.758-.342-.41-.83-.615-1.465-.615zm8.719 7.302c-1.162 0-2.063-.356-2.702-1.069-.635-.718-.953-1.731-.953-3.039 0-1.343.323-2.381.967-3.113.65-.733 1.572-1.099 2.769-1.099.385 0 .771.042 1.157.125.386.083.688.18.908.293l-.373 1.032a5.494 5.494 0 0 0-.879-.263 3.76 3.76 0 0 0-.843-.11c-1.63 0-2.446 1.04-2.446 3.12 0 .986.198 1.743.593 2.27.401.528.992.791 1.773.791.669 0 1.355-.144 2.058-.432v1.077c-.537.278-1.213.417-2.029.417zm5.306-4.855h2.476c2.051 0 3.076.754 3.076 2.263 0 .791-.268 1.396-.805 1.816-.533.42-1.314.63-2.344.63h-3.618v-8.027h1.215v3.318zm0 1.047v2.644h2.344c.645 0 1.138-.112 1.48-.337.341-.225.512-.564.512-1.018 0-.444-.158-.769-.476-.974-.312-.21-.83-.315-1.552-.315h-2.308zM133.431 157h-1.216v-8.027h1.216V157zm-1.318-10.203c0-.278.068-.481.205-.608a.71.71 0 0 1 .512-.197.72.72 0 0 1 .506.197c.141.132.212.335.212.608 0 .274-.071.479-.212.616a.72.72 0 0 1-.506.197.71.71 0 0 1-.512-.197c-.137-.137-.205-.342-.205-.616zm5.577 5.508c1.518 0 2.278-.42 2.278-1.26 0-.791-.616-1.186-1.846-1.186-.376 0-.718.034-1.026.102-.307.069-.71.206-1.208.411l-.432-.989a6.583 6.583 0 0 1 2.717-.557c.923 0 1.651.191 2.183.571.532.376.798.892.798 1.546 0 .898-.5 1.487-1.501 1.765v.059c.615.18 1.064.439 1.347.776.283.332.425.749.425 1.252 0 .743-.3 1.321-.901 1.736-.595.41-1.421.615-2.475.615-1.158 0-2.051-.173-2.681-.52v-1.113c.894.42 1.797.63 2.71.63.703 0 1.233-.12 1.589-.359.362-.244.542-.593.542-1.047 0-.933-.759-1.399-2.278-1.399h-1.113v-1.033h.872zM148.822 157h-1.216v-8.027h6.739V157h-1.231v-6.973h-4.292V157zm11.986.146a3.542 3.542 0 0 1-1.435-.285 2.72 2.72 0 0 1-1.084-.894h-.088c.058.469.088.913.088 1.333v3.304h-1.216v-11.631h.989l.168 1.098h.059c.312-.439.676-.757 1.091-.952.415-.195.891-.293 1.428-.293 1.065 0 1.885.364 2.461 1.091.581.728.872 1.749.872 3.062 0 1.318-.296 2.344-.887 3.076-.585.728-1.401 1.091-2.446 1.091zm-.176-7.287c-.82 0-1.413.227-1.779.681-.367.454-.555 1.177-.564 2.168v.271c0 1.128.188 1.936.564 2.424.376.484.979.725 1.809.725.693 0 1.235-.28 1.626-.842.395-.561.593-1.335.593-2.322 0-1.001-.198-1.767-.593-2.299-.391-.538-.943-.806-1.656-.806zm6.933-.886v5.09l-.052 1.333-.022.417 4.344-6.84h1.516V157h-1.135v-4.907l.022-.967.036-.952-4.336 6.826h-1.516v-8.027h1.143zm13.194 0h1.333l-3.464 3.874 3.75 4.153h-1.421l-3.662-4.065V157h-1.216v-8.027h1.216v3.903l3.464-3.903zm9.247 8.027h-1.231v-6.987h-2.409c-.132 1.738-.315 3.117-.55 4.138-.234 1.02-.539 1.767-.915 2.241-.371.474-.845.711-1.421.711-.264 0-.474-.03-.63-.088v-.901c.107.029.229.044.366.044.562 0 1.009-.594 1.341-1.78.332-1.187.583-2.988.754-5.405h4.695V157zm7.672 0l-.242-1.143h-.059c-.4.503-.8.845-1.201 1.026-.395.176-.891.263-1.487.263-.795 0-1.42-.205-1.875-.615-.449-.41-.673-.993-.673-1.75 0-1.621 1.296-2.471 3.889-2.549l1.362-.044v-.498c0-.63-.137-1.094-.41-1.392-.269-.302-.701-.454-1.296-.454-.669 0-1.426.205-2.271.615l-.373-.93a5.7 5.7 0 0 1 1.296-.505 5.677 5.677 0 0 1 1.421-.183c.957 0 1.665.212 2.124.637.464.425.696 1.106.696 2.043V157h-.901zm-2.747-.857c.757 0 1.35-.207 1.78-.622.435-.416.652-.997.652-1.744v-.725l-1.216.052c-.967.034-1.665.185-2.095.454-.425.263-.637.676-.637 1.237 0 .44.132.774.396 1.004.268.229.642.344 1.12.344zm13.282 3.633h-1.179V157h-5.61v2.776h-1.172v-3.823h.63c.654-.889 1.167-1.932 1.538-3.128.371-1.196.564-2.48.579-3.852h4.065v6.98h1.149v3.823zm-2.321-3.823v-6.021h-1.802a13.389 13.389 0 0 1-.63 3.296c-.352 1.108-.791 2.017-1.318 2.725h3.75zm7.474 1.193c-1.187 0-2.124-.361-2.813-1.084-.683-.722-1.025-1.726-1.025-3.01 0-1.294.317-2.322.952-3.083.64-.762 1.497-1.143 2.571-1.143 1.006 0 1.802.332 2.388.996.586.659.879 1.531.879 2.615v.769h-5.53c.024.942.261 1.658.71 2.146.454.488 1.092.732 1.912.732a6.45 6.45 0 0 0 2.563-.542v1.084a6.16 6.16 0 0 1-1.223.396 6.606 6.606 0 0 1-1.384.124zm-.33-7.302c-.644 0-1.159.21-1.545.63-.381.42-.606 1.001-.674 1.743h4.197c0-.766-.171-1.352-.513-1.758-.342-.41-.83-.615-1.465-.615zm6.727-.871v3.361h4.498v-3.361h1.215V157h-1.215v-3.618h-4.498V157h-1.215v-8.027h1.215zm9.584 0v5.09l-.051 1.333-.022.417 4.343-6.84h1.516V157h-1.135v-4.907l.022-.967.037-.952-4.336 6.826h-1.517v-8.027h1.143zm12.682 6.855l.227-.681.315-.864 2.175-5.296h1.546V157h-1.077v-6.628l-.147.424-.424 1.121-2.073 5.083h-1.018l-2.073-5.098c-.259-.654-.437-1.164-.535-1.53V157h-1.084v-8.013h1.487l2.102 5.091c.21.537.403 1.12.579 1.75zm18.032 3.948h-1.179V157h-5.611v2.776h-1.172v-3.823h.63c.654-.889 1.167-1.932 1.538-3.128.371-1.196.564-2.48.579-3.852h4.065v6.98h1.15v3.823zm-2.322-3.823v-6.021h-1.802a13.296 13.296 0 0 1-.63 3.296c-.351 1.108-.791 2.017-1.318 2.725h3.75zm11.012-2.974c0 1.309-.33 2.332-.989 3.069-.659.732-1.57 1.098-2.732 1.098-.718 0-1.355-.168-1.912-.505-.556-.337-.986-.82-1.289-1.45-.302-.63-.454-1.367-.454-2.212 0-1.309.327-2.327.982-3.054.654-.733 1.562-1.099 2.724-1.099 1.123 0 2.015.374 2.674 1.121.664.747.996 1.758.996 3.032zm-6.116 0c0 1.025.205 1.807.615 2.344.41.537 1.013.805 1.809.805s1.399-.266 1.809-.798c.415-.537.623-1.321.623-2.351 0-1.021-.208-1.794-.623-2.322-.41-.532-1.018-.798-1.823-.798-.796 0-1.397.261-1.802.784-.405.522-.608 1.301-.608 2.336zm13.085-4.006h1.333l-3.465 3.874 3.75 4.153h-1.421l-3.662-4.065V157h-1.216v-8.027h1.216v3.903l3.465-3.903zm1.988 0h1.304l1.758 4.577c.385 1.045.625 1.8.717 2.263h.059c.063-.249.195-.673.395-1.274.205-.605.87-2.461 1.993-5.566h1.303l-3.449 9.14c-.342.904-.743 1.543-1.202 1.919-.454.381-1.013.572-1.677.572-.371 0-.737-.042-1.098-.125v-.974c.268.058.568.088.9.088.835 0 1.431-.469 1.788-1.406l.446-1.143-3.237-8.071zm13.15 6.855l.228-.681.314-.864 2.176-5.296h1.545V157h-1.076v-6.628l-.147.424-.425 1.121L291.4 157h-1.018l-2.072-5.098c-.259-.654-.437-1.164-.535-1.53V157h-1.084v-8.013h1.487l2.102 5.091c.21.537.403 1.12.578 1.75zm10.404 1.318c-1.186 0-2.124-.361-2.812-1.084-.684-.722-1.026-1.726-1.026-3.01 0-1.294.318-2.322.953-3.083.639-.762 1.496-1.143 2.57-1.143 1.006 0 1.802.332 2.388.996.586.659.879 1.531.879 2.615v.769h-5.53c.025.942.261 1.658.711 2.146.454.488 1.091.732 1.911.732.865 0 1.719-.18 2.564-.542v1.084c-.43.186-.838.318-1.223.396a6.616 6.616 0 0 1-1.385.124zm-.329-7.302c-.645 0-1.16.21-1.546.63-.38.42-.605 1.001-.673 1.743h4.196c0-.766-.171-1.352-.512-1.758-.342-.41-.83-.615-1.465-.615zm6.727-.871v3.361h4.497v-3.361h1.216V157h-1.216v-3.618h-4.497V157h-1.216v-8.027h1.216zm13.854 1.04h-2.608V157h-1.216v-6.987h-2.578v-1.04h6.402v1.04zm8.668 2.966c0 1.309-.33 2.332-.989 3.069-.659.732-1.57 1.098-2.732 1.098-.718 0-1.355-.168-1.912-.505-.556-.337-.986-.82-1.289-1.45-.302-.63-.454-1.367-.454-2.212 0-1.309.327-2.327.982-3.054.654-.733 1.562-1.099 2.724-1.099 1.123 0 2.014.374 2.674 1.121.664.747.996 1.758.996 3.032zm-6.116 0c0 1.025.205 1.807.615 2.344.41.537 1.013.805 1.809.805s1.399-.266 1.809-.798c.415-.537.623-1.321.623-2.351 0-1.021-.208-1.794-.623-2.322-.41-.532-1.018-.798-1.823-.798-.796 0-1.397.261-1.802.784-.405.522-.608 1.301-.608 2.336zm12.572 2.849l.227-.681.315-.864 2.175-5.296h1.545V157h-1.076v-6.628l-.147.424-.424 1.121L337.18 157h-1.018l-2.073-5.098c-.259-.654-.437-1.164-.535-1.53V157h-1.084v-8.013h1.487l2.102 5.091c.21.537.403 1.12.579 1.75zm8.111-1.78h-.769l-.373-7.756h1.516l-.374 7.756zm-1.274 2.176c0-.664.293-.996.879-.996.283 0 .5.085.652.256.156.171.234.417.234.74 0 .312-.078.556-.234.732-.157.171-.374.256-.652.256a.896.896 0 0 1-.63-.227c-.166-.156-.249-.41-.249-.761z" fill="#000"/><rect opacity=".2" x=".5" y="22.5" width="369" height="49" rx="4.5" fill="#fff" stroke="#000"/><path opacity=".8" d="M52.467 49.81c0 .747-.278 1.323-.835 1.729-.556.405-1.338.608-2.343.608-1.065 0-1.895-.169-2.49-.506v-1.128c.385.196.798.35 1.237.462.444.112.872.168 1.282.168.635 0 1.123-.1 1.465-.3.341-.205.512-.515.512-.93 0-.313-.136-.579-.41-.799-.268-.224-.796-.488-1.582-.79-.747-.28-1.28-.52-1.596-.726a2.259 2.259 0 0 1-.704-.71 1.883 1.883 0 0 1-.227-.945c0-.654.266-1.17.799-1.545.532-.381 1.262-.572 2.19-.572.864 0 1.709.176 2.534.527l-.432.99c-.806-.333-1.536-.499-2.19-.499-.576 0-1.011.09-1.304.271-.293.18-.44.43-.44.747 0 .215.054.398.162.55.112.151.29.295.534.432.245.136.713.334 1.407.593.952.347 1.594.696 1.926 1.047.337.352.505.794.505 1.326zm3.278-5.837v5.207c0 .654.149 1.143.447 1.465.297.322.764.483 1.398.483.84 0 1.453-.23 1.839-.688.39-.459.586-1.209.586-2.249v-4.218h1.216V52h-1.004l-.176-1.077h-.066a2.419 2.419 0 0 1-1.04.908c-.439.21-.942.316-1.508.316-.977 0-1.71-.232-2.198-.696-.483-.464-.725-1.206-.725-2.227v-5.251h1.23zm13.4 5.837c0 .747-.28 1.323-.836 1.729-.556.405-1.338.608-2.343.608-1.065 0-1.895-.169-2.49-.506v-1.128c.385.196.798.35 1.237.462.444.112.872.168 1.282.168.635 0 1.123-.1 1.465-.3.342-.205.512-.515.512-.93 0-.313-.136-.579-.41-.799-.268-.224-.796-.488-1.582-.79-.747-.28-1.28-.52-1.597-.726a2.258 2.258 0 0 1-.703-.71c-.151-.264-.227-.579-.227-.945 0-.654.266-1.17.799-1.545.532-.381 1.262-.572 2.19-.572.864 0 1.709.176 2.534.527l-.432.99c-.806-.333-1.536-.499-2.19-.499-.576 0-1.011.09-1.304.271-.293.18-.44.43-.44.747 0 .215.054.398.162.55.112.151.29.295.534.432.245.136.713.334 1.407.593.952.347 1.594.696 1.926 1.047.337.352.505.794.505 1.326zm5.87 2.337a3.537 3.537 0 0 1-1.436-.286 2.728 2.728 0 0 1-1.084-.894h-.088c.059.469.088.913.088 1.333v3.303h-1.216v-11.63h.989l.168 1.098h.059c.312-.44.676-.756 1.091-.952.415-.195.891-.293 1.428-.293 1.065 0 1.885.364 2.461 1.091.581.728.872 1.748.872 3.062 0 1.318-.295 2.344-.886 3.076-.586.728-1.402 1.092-2.447 1.092zm-.176-7.288c-.82 0-1.414.227-1.78.681-.366.454-.554 1.177-.564 2.168v.271c0 1.128.188 1.936.564 2.424.376.484.979.725 1.809.725.693 0 1.235-.28 1.626-.842.395-.561.593-1.335.593-2.322 0-1-.198-1.767-.593-2.3-.39-.537-.942-.805-1.655-.805zM81.844 52h-1.216v-8.027h1.216V52zm-1.318-10.203c0-.278.068-.48.205-.607a.709.709 0 0 1 .513-.198c.195 0 .363.066.505.198.142.131.212.334.212.607 0 .274-.07.479-.212.616a.716.716 0 0 1-.505.197.71.71 0 0 1-.513-.197c-.137-.137-.205-.342-.205-.616zm7.254 10.35c-1.162 0-2.063-.357-2.702-1.07-.635-.718-.953-1.73-.953-3.04 0-1.342.323-2.38.967-3.112.65-.733 1.573-1.099 2.769-1.099.386 0 .771.042 1.157.125.386.083.689.18.908.293l-.373 1.032a5.455 5.455 0 0 0-.88-.263 3.803 3.803 0 0 0-.841-.11c-1.631 0-2.447 1.04-2.447 3.12 0 .986.198 1.743.593 2.27.4.528.992.791 1.773.791.669 0 1.355-.144 2.058-.432v1.077c-.537.278-1.213.418-2.029.418zM95.818 52h-1.186v-7.632c0-.635.02-1.235.058-1.802-.102.103-.217.21-.344.323-.127.112-.708.588-1.743 1.428l-.644-.835 2.834-2.19h1.025V52zm11.715-4.021c0 1.309-.329 2.331-.988 3.069-.66.732-1.57 1.099-2.732 1.099-.718 0-1.355-.169-1.912-.506-.557-.337-.986-.82-1.289-1.45-.303-.63-.454-1.367-.454-2.212 0-1.309.327-2.327.981-3.054.655-.733 1.563-1.099 2.725-1.099 1.123 0 2.014.374 2.673 1.12.664.748.996 1.759.996 3.033zm-6.115 0c0 1.025.205 1.807.615 2.344.41.537 1.013.805 1.809.805s1.399-.266 1.809-.798c.415-.537.623-1.32.623-2.351 0-1.02-.208-1.794-.623-2.322-.41-.532-1.018-.798-1.824-.798-.796 0-1.396.261-1.801.784-.406.522-.608 1.3-.608 2.336zm9.547-4.006v5.207c0 .654.149 1.143.446 1.465.298.322.765.483 1.399.483.84 0 1.453-.23 1.839-.688.39-.459.586-1.209.586-2.249v-4.218h1.215V52h-1.003l-.176-1.077h-.066a2.415 2.415 0 0 1-1.04.908c-.439.21-.942.316-1.508.316-.977 0-1.709-.232-2.198-.696-.483-.464-.725-1.206-.725-2.227v-5.251h1.231zm13.399 5.837c0 .747-.278 1.323-.835 1.729-.556.405-1.338.608-2.344.608-1.064 0-1.894-.169-2.49-.506v-1.128c.386.196.799.35 1.238.462.444.112.872.168 1.282.168.635 0 1.123-.1 1.465-.3.341-.205.512-.515.512-.93 0-.313-.136-.579-.41-.799-.268-.224-.796-.488-1.582-.79-.747-.28-1.279-.52-1.597-.726a2.271 2.271 0 0 1-.703-.71c-.151-.264-.227-.579-.227-.945 0-.654.266-1.17.799-1.545.532-.381 1.262-.572 2.19-.572.864 0 1.709.176 2.534.527l-.432.99c-.806-.333-1.536-.499-2.19-.499-.577 0-1.011.09-1.304.271-.293.18-.44.43-.44.747a.92.92 0 0 0 .162.55c.112.151.29.295.534.432.244.136.713.334 1.407.593.952.347 1.594.696 1.926 1.047.337.352.505.794.505 1.326zm5.123-8.672c.977 0 1.751.227 2.322.681.571.454.857 1.082.857 1.883 0 .527-.164 1.008-.491 1.443-.327.434-.849.83-1.567 1.186.869.415 1.487.852 1.853 1.311.366.454.549.981.549 1.582 0 .889-.31 1.6-.93 2.132-.62.527-1.47.79-2.549.79-1.142 0-2.021-.248-2.636-.747-.616-.502-.923-1.213-.923-2.13 0-1.227.747-2.181 2.241-2.865-.674-.38-1.157-.79-1.45-1.23a2.643 2.643 0 0 1-.44-1.487c0-.776.286-1.394.857-1.853.576-.464 1.345-.696 2.307-.696zm-2.314 8.16c0 .585.202 1.042.608 1.369.41.327.984.49 1.721.49.727 0 1.294-.17 1.699-.512.405-.342.608-.81.608-1.406 0-.474-.19-.894-.571-1.26-.381-.371-1.045-.73-1.992-1.077-.728.313-1.255.66-1.582 1.04-.328.376-.491.828-.491 1.355zm2.3-7.171c-.611 0-1.089.146-1.436.44-.347.292-.52.683-.52 1.171 0 .45.144.835.432 1.157.288.323.821.645 1.597.967.698-.293 1.191-.608 1.479-.945.293-.336.44-.73.44-1.179 0-.493-.178-.883-.535-1.172-.351-.293-.837-.439-1.457-.439zm17.069 4.534c0 .693-.108 1.328-.323 1.904-.215.576-.517 1.023-.908 1.34-.39.318-.84.476-1.348.476-.419 0-.773-.127-1.062-.38a1.525 1.525 0 0 1-.512-.975h-.059a2.311 2.311 0 0 1-.842.996c-.361.24-.791.36-1.289.36-.733 0-1.306-.25-1.721-.748-.411-.503-.616-1.184-.616-2.043 0-.996.288-1.804.865-2.425.576-.624 1.333-.937 2.27-.937.332 0 .708.032 1.128.095.42.059.798.142 1.135.25l-.183 3.442v.16c0 .87.325 1.304.974 1.304.445 0 .806-.26 1.084-.783.279-.528.418-1.211.418-2.051 0-.884-.181-1.658-.542-2.322a3.706 3.706 0 0 0-1.546-1.53c-.664-.362-1.428-.542-2.292-.542-1.089 0-2.036.226-2.842.68a4.47 4.47 0 0 0-1.846 1.934c-.424.835-.637 1.802-.637 2.9 0 1.49.393 2.635 1.179 3.436.787.8 1.919 1.2 3.399 1.2 1.025 0 2.09-.21 3.193-.63v.975c-.937.41-2.002.615-3.193.615-1.773 0-3.15-.486-4.131-1.457-.977-.977-1.465-2.34-1.465-4.087 0-1.27.261-2.4.784-3.391a5.538 5.538 0 0 1 2.234-2.3c.967-.547 2.075-.82 3.325-.82 1.05 0 1.982.222 2.798.666a4.583 4.583 0 0 1 1.897 1.883c.449.81.674 1.745.674 2.805zm-7.574.96c0 1.24.476 1.86 1.429 1.86 1.01 0 1.56-.765 1.648-2.293l.102-1.912a4.281 4.281 0 0 0-1.15-.146c-.635 0-1.133.22-1.494.66-.356.438-.535 1.049-.535 1.83zm16.476-3.648v.769l-1.487.175c.137.171.259.396.366.674.108.274.162.584.162.93 0 .787-.269 1.414-.806 1.883-.537.469-1.275.703-2.212.703-.239 0-.464-.02-.674-.059-.517.274-.776.618-.776 1.033 0 .22.09.383.271.49.18.103.491.155.93.155h1.421c.869 0 1.536.183 1.999.549.469.366.704.898.704 1.597 0 .888-.357 1.565-1.07 2.028-.713.47-1.753.703-3.12.703-1.05 0-1.86-.195-2.432-.585-.566-.391-.849-.943-.849-1.656 0-.488.156-.91.469-1.267.312-.356.752-.598 1.318-.725a1.295 1.295 0 0 1-.52-.432 1.156 1.156 0 0 1-.205-.681c0-.293.078-.55.234-.77.156-.219.403-.431.74-.636a2.19 2.19 0 0 1-1.018-.872 2.577 2.577 0 0 1-.388-1.406c0-.88.263-1.555.791-2.03.527-.478 1.274-.717 2.241-.717.42 0 .798.049 1.135.147h2.776zm-6.401 9.375c0 .434.183.764.549.988.366.225.891.337 1.575.337 1.02 0 1.775-.154 2.263-.461.493-.303.74-.715.74-1.238 0-.434-.135-.737-.403-.908-.269-.166-.774-.25-1.516-.25h-1.458c-.552 0-.981.133-1.289.396-.308.264-.461.642-.461 1.136zm.659-6.804c0 .561.159.986.476 1.274.317.288.759.432 1.326.432 1.186 0 1.779-.576 1.779-1.728 0-1.207-.6-1.81-1.801-1.81-.572 0-1.011.154-1.319.462-.307.307-.461.764-.461 1.37zM167.474 52v-5.222c0-.64-.137-1.118-.41-1.436-.274-.322-.698-.483-1.275-.483-.756 0-1.316.217-1.677.652-.361.434-.542 1.103-.542 2.007V52h-1.216v-5.222c0-.64-.136-1.118-.41-1.436-.273-.322-.701-.483-1.282-.483-.761 0-1.32.23-1.677.688-.351.455-.527 1.202-.527 2.242V52h-1.216v-8.027h.989l.198 1.098h.058a2.4 2.4 0 0 1 .967-.915c.42-.22.889-.33 1.406-.33 1.255 0 2.075.454 2.461 1.362h.059c.239-.42.586-.752 1.04-.996.454-.244.971-.366 1.552-.366.909 0 1.587.234 2.037.703.454.464.681 1.209.681 2.234V52h-1.216zm8.814 0l-.241-1.143h-.059c-.4.503-.801.845-1.201 1.026-.395.176-.891.264-1.487.264-.796 0-1.421-.206-1.875-.616-.449-.41-.674-.993-.674-1.75 0-1.621 1.297-2.47 3.89-2.55l1.362-.043v-.498c0-.63-.137-1.094-.41-1.392-.269-.302-.701-.454-1.297-.454-.669 0-1.425.205-2.27.615l-.374-.93a5.741 5.741 0 0 1 1.297-.505 5.671 5.671 0 0 1 1.421-.183c.957 0 1.665.212 2.124.637.463.425.695 1.106.695 2.044V52h-.901zm-2.746-.857c.757 0 1.35-.208 1.78-.623.434-.415.652-.996.652-1.743v-.725l-1.216.051c-.967.035-1.665.186-2.095.455-.425.263-.637.676-.637 1.237 0 .44.132.774.395 1.004.269.23.642.344 1.121.344zm7.525.857h-1.215v-8.027h1.215V52zm-1.318-10.203c0-.278.068-.48.205-.607a.71.71 0 0 1 .513-.198c.195 0 .364.066.505.198.142.131.213.334.213.607 0 .274-.071.479-.213.616a.715.715 0 0 1-.505.197.71.71 0 0 1-.513-.197c-.137-.137-.205-.342-.205-.616zM185.011 52h-1.215V40.603h1.215V52zm2.553-.776c0-.327.073-.574.219-.74.152-.171.367-.257.645-.257.283 0 .503.086.659.257.161.166.242.413.242.74 0 .317-.081.561-.242.732-.161.171-.381.256-.659.256a.89.89 0 0 1-.623-.227c-.161-.156-.241-.41-.241-.761zm7.532.923c-1.162 0-2.063-.357-2.702-1.07-.635-.718-.952-1.73-.952-3.04 0-1.342.322-2.38.966-3.112.65-.733 1.573-1.099 2.769-1.099.386 0 .772.042 1.157.125.386.083.689.18.908.293l-.373 1.032a5.483 5.483 0 0 0-.879-.263 3.799 3.799 0 0 0-.842-.11c-1.631 0-2.447 1.04-2.447 3.12 0 .986.198 1.743.594 2.27.4.528.991.791 1.772.791.669 0 1.355-.144 2.058-.432v1.077c-.537.278-1.213.418-2.029.418zm11.02-4.168c0 1.309-.33 2.331-.989 3.069-.659.732-1.57 1.099-2.732 1.099-.718 0-1.355-.169-1.912-.506-.556-.337-.986-.82-1.289-1.45-.302-.63-.454-1.367-.454-2.212 0-1.309.327-2.327.982-3.054.654-.733 1.562-1.099 2.724-1.099 1.123 0 2.014.374 2.674 1.12.664.748.996 1.759.996 3.033zm-6.116 0c0 1.025.205 1.807.615 2.344.41.537 1.013.805 1.809.805s1.399-.266 1.809-.798c.415-.537.623-1.32.623-2.351 0-1.02-.208-1.794-.623-2.322-.41-.532-1.018-.798-1.823-.798-.796 0-1.397.261-1.802.784-.405.522-.608 1.3-.608 2.336zM218.636 52v-5.222c0-.64-.136-1.118-.41-1.436-.273-.322-.698-.483-1.274-.483-.757 0-1.316.217-1.678.652-.361.434-.542 1.103-.542 2.007V52h-1.215v-5.222c0-.64-.137-1.118-.411-1.436-.273-.322-.7-.483-1.281-.483-.762 0-1.321.23-1.678.688-.351.455-.527 1.202-.527 2.242V52h-1.216v-8.027h.989l.198 1.098h.058a2.4 2.4 0 0 1 .967-.915c.42-.22.889-.33 1.406-.33 1.255 0 2.076.454 2.461 1.362h.059c.239-.42.586-.752 1.04-.996.454-.244.972-.366 1.553-.366.908 0 1.587.234 2.036.703.454.464.681 1.209.681 2.234V52h-1.216z" fill="#000"/><path d="M21.965 47.686a3.843 3.843 0 1 0 0-7.686 3.843 3.843 0 0 0 0 7.686zm.001.348A6.966 6.966 0 0 0 15 55h13.932a6.966 6.966 0 0 0-6.966-6.966z" opacity=".2" fill="#000"/><path opacity=".5" d="M7.401 12h-.83V8.64h-3.76V12h-.83V4.861h.83v3.037h3.76V4.861h.83V12zm6.59 1.85h-.787V12h-3.74v1.85h-.781v-2.548h.42a6.972 6.972 0 0 0 1.025-2.085 8.952 8.952 0 0 0 .386-2.569h2.71v4.654h.767v2.549zm-1.548-2.548V7.288h-1.201a8.897 8.897 0 0 1-.42 2.197c-.235.74-.528 1.345-.88 1.817h2.5zm9.78-2.881c0 1.234-.195 2.155-.586 2.764-.387.608-.982.913-1.782.913-.768 0-1.353-.311-1.753-.933-.4-.625-.6-1.54-.6-2.744 0-1.244.193-2.166.58-2.769.388-.602.978-.903 1.773-.903.774 0 1.362.314 1.762.942.404.629.606 1.538.606 2.73zm-3.901 0c0 1.038.122 1.795.366 2.27.244.472.633.708 1.167.708.54 0 .93-.239 1.172-.717.244-.482.366-1.236.366-2.261 0-1.025-.122-1.776-.366-2.251-.241-.479-.632-.718-1.172-.718-.534 0-.923.236-1.167.708-.244.469-.366 1.222-.366 2.26zM26.317 12h-.791V6.912c0-.423.013-.823.039-1.201a5.08 5.08 0 0 1-.23.215c-.084.075-.472.392-1.162.952l-.43-.557 1.89-1.46h.684V12zm3.074-.518c0-.218.049-.382.146-.493.101-.114.244-.17.43-.17.189 0 .335.056.44.17.107.11.16.275.16.493 0 .212-.053.375-.16.489a.575.575 0 0 1-.44.17.593.593 0 0 1-.415-.15c-.108-.105-.161-.274-.161-.509zm7.243-3.061c0 1.234-.195 2.155-.586 2.764-.387.608-.981.913-1.782.913-.768 0-1.352-.311-1.753-.933-.4-.625-.6-1.54-.6-2.744 0-1.244.193-2.166.58-2.769.388-.602.979-.903 1.773-.903.775 0 1.362.314 1.763.942.403.629.605 1.538.605 2.73zm-3.901 0c0 1.038.122 1.795.366 2.27.244.472.633.708 1.167.708.54 0 .931-.239 1.172-.717.244-.482.366-1.236.366-2.261 0-1.025-.122-1.776-.366-2.251-.241-.479-.632-.718-1.172-.718-.534 0-.923.236-1.167.708-.244.469-.366 1.222-.366 2.26zm9.685-.513c0 2.793-1.081 4.19-3.242 4.19-.378 0-.678-.033-.899-.098v-.698c.26.084.557.127.889.127.781 0 1.37-.241 1.767-.723.4-.485.619-1.227.655-2.227h-.059c-.179.27-.417.477-.713.62-.296.14-.63.21-1 .21-.632 0-1.134-.188-1.505-.566-.37-.377-.556-.905-.556-1.582 0-.742.206-1.328.62-1.758.416-.43.963-.644 1.64-.644.486 0 .909.125 1.27.376.365.247.645.61.84 1.089.195.475.293 1.036.293 1.684zm-2.403-2.456c-.465 0-.825.15-1.079.45-.254.299-.38.716-.38 1.25 0 .468.117.838.351 1.108.234.267.59.4 1.07.4.296 0 .567-.06.815-.18.25-.121.447-.285.59-.494a1.13 1.13 0 0 0 .215-.654c0-.342-.066-.658-.2-.947a1.645 1.645 0 0 0-.561-.684 1.397 1.397 0 0 0-.82-.249zm3.787 6.03c0-.218.049-.382.146-.493.101-.114.245-.17.43-.17.189 0 .335.056.44.17.107.11.16.275.16.493 0 .212-.053.375-.16.489a.575.575 0 0 1-.44.17.593.593 0 0 1-.415-.15c-.107-.105-.161-.274-.161-.509zm7.204.518h-4.692v-.698l1.88-1.89c.573-.58.95-.993 1.133-1.24.182-.248.319-.488.41-.723a2.07 2.07 0 0 0 .137-.757c0-.38-.116-.682-.347-.903-.231-.225-.552-.337-.962-.337a2.44 2.44 0 0 0-.845.147c-.263.097-.558.275-.883.532l-.43-.552c.657-.547 1.374-.82 2.148-.82.67 0 1.197.172 1.577.517.381.342.572.803.572 1.382 0 .453-.127.9-.381 1.343-.254.443-.73 1.003-1.426 1.68l-1.562 1.528v.039h3.671V12zm5.862-3.58c0 1.235-.195 2.156-.586 2.765-.387.608-.981.913-1.782.913-.768 0-1.352-.311-1.753-.933-.4-.625-.6-1.54-.6-2.744 0-1.244.193-2.166.58-2.769.388-.602.979-.903 1.773-.903.775 0 1.362.314 1.763.942.403.629.605 1.538.605 2.73zm-3.901 0c0 1.04.122 1.796.366 2.271.244.472.633.708 1.167.708.54 0 .931-.239 1.172-.717.244-.482.366-1.236.366-2.261 0-1.025-.122-1.776-.366-2.251-.241-.479-.632-.718-1.172-.718-.534 0-.923.236-1.167.708-.244.469-.366 1.222-.366 2.26zM60.962 12h-.79V6.912c0-.423.012-.823.038-1.201a5.08 5.08 0 0 1-.23.215 74.93 74.93 0 0 1-1.161.952l-.43-.557 1.89-1.46h.683V12zm7.512-4.092c0 2.793-1.08 4.19-3.242 4.19-.377 0-.677-.033-.898-.098v-.698c.26.084.556.127.888.127.782 0 1.37-.241 1.768-.723.4-.485.619-1.227.654-2.227h-.058c-.18.27-.417.477-.713.62-.296.14-.63.21-1.001.21-.632 0-1.133-.188-1.504-.566-.371-.377-.557-.905-.557-1.582 0-.742.207-1.328.62-1.758.417-.43.964-.644 1.641-.644.485 0 .908.125 1.27.376.364.247.644.61.84 1.089.195.475.292 1.036.292 1.684zm-2.402-2.456c-.465 0-.825.15-1.079.45-.254.299-.38.716-.38 1.25 0 .468.116.838.35 1.108.235.267.592.4 1.07.4.296 0 .568-.06.815-.18a1.47 1.47 0 0 0 .591-.494 1.13 1.13 0 0 0 .215-.654 2.24 2.24 0 0 0-.2-.947 1.645 1.645 0 0 0-.562-.684 1.397 1.397 0 0 0-.82-.249zm10.962 2.969c0 1.234-.196 2.155-.586 2.764-.387.608-.982.913-1.782.913-.769 0-1.353-.311-1.753-.933-.4-.625-.6-1.54-.6-2.744 0-1.244.193-2.166.58-2.769.388-.602.978-.903 1.773-.903.774 0 1.362.314 1.762.942.404.629.606 1.538.606 2.73zm-3.902 0c0 1.038.122 1.795.367 2.27.244.472.633.708 1.167.708.54 0 .93-.239 1.172-.717.244-.482.366-1.236.366-2.261 0-1.025-.122-1.776-.366-2.251-.241-.479-.632-.718-1.172-.718-.534 0-.923.236-1.167.708-.245.469-.367 1.222-.367 2.26zm9.417-1.88c0 .456-.129.828-.386 1.118-.254.29-.615.484-1.084.581v.04c.573.07.998.253 1.275.546.276.293.415.677.415 1.153 0 .68-.236 1.204-.709 1.572-.472.364-1.142.547-2.011.547-.378 0-.725-.03-1.04-.088a3.49 3.49 0 0 1-.913-.298v-.772a4.55 4.55 0 0 0 1.982.47c1.234 0 1.85-.484 1.85-1.451 0-.866-.68-1.299-2.04-1.299h-.703v-.698h.712c.557 0 .998-.122 1.324-.366.325-.248.488-.59.488-1.026 0-.348-.12-.621-.361-.82-.238-.199-.562-.298-.972-.298-.313 0-.607.042-.884.127-.276.085-.592.241-.947.469l-.41-.547c.293-.231.63-.412 1.01-.542a3.68 3.68 0 0 1 1.211-.2c.694 0 1.233.16 1.617.478.384.316.576.75.576 1.304zm1.653 4.941c0-.218.048-.382.146-.493.101-.114.244-.17.43-.17.188 0 .335.056.44.17.107.11.16.275.16.493 0 .212-.053.375-.16.489a.575.575 0 0 1-.44.17.593.593 0 0 1-.415-.15c-.108-.105-.161-.274-.161-.509zm0-4.311c0-.44.192-.66.576-.66.4 0 .6.22.6.66 0 .211-.053.374-.16.488a.575.575 0 0 1-.44.171.593.593 0 0 1-.415-.151c-.108-.104-.161-.274-.161-.508zm7.541 3.188h-1.06V12h-.776v-1.64h-3.472v-.71l3.389-4.829h.86v4.8h1.059v.737zm-1.836-.737V7.25c0-.465.016-.991.049-1.577h-.04a7.331 7.331 0 0 1-.439.776l-2.231 3.174h2.661zm7.659.737h-1.06V12h-.776v-1.64h-3.472v-.71l3.389-4.829h.86v4.8h1.059v.737zm-1.836-.737V7.25c0-.465.016-.991.048-1.577h-.038a7.349 7.349 0 0 1-.44.776l-2.231 3.174h2.66z" fill="#000"/></svg>