<svg width="401" height="653" viewBox="0 0 401 653" fill="none" xmlns="http://www.w3.org/2000/svg"><path d="M58.907 612.212c37.053-6.266 93.611 20.692 125.714-8.976 32.969-30.541.831-63.494 6.378-99.453 9.478-62.431 52.018-51.199 100.248-62.973 69.859-17.182 129.144-107.828 39.846-147.754-81.521-36.408-151.435-3.406-203.445-94.691C90.326 133.02 49.926 42.353-39.998 38.543c-132.653-5.535-89.227 134.495-60.534 207.157 37.283 94.447-19.647 175.06-18.464 272.518.439 40.6 3.958 96.716 44.907 119.329 47.3 26.112 87.523-17.781 132.996-25.335z" fill="url(#a)"/><defs><linearGradient id="a" x1="331.559" y1="534.705" x2="-165.043" y2="148.895" gradientUnits="userSpaceOnUse"><stop stop-color="#00A1FF"/><stop offset="1"/></linearGradient></defs></svg>