<svg width="1920" height="483" viewBox="0 0 1920 483" fill="none" xmlns="http://www.w3.org/2000/svg"><path d="M1909.79 481.395c2.48.435 4.6.804 6.34 1.105H-.5V10.952C3.139 37.225 18.695 88.704 82.971 127.9c75.045 45.762 216.413 74.719 482.559 27.409 35.005-6.211 68.836-10.322 101.338-12.552 136.253-9.291 245.734 27.629 358.052 76.832 25.89 11.342 51.93 23.338 78.49 35.572 88.63 40.827 182.99 84.29 296.49 114.873 125.65 33.856 256.15 62.221 355.24 82.121 49.55 9.951 91.24 17.785 120.55 23.132a5033.54 5033.54 0 0 0 34.1 6.109z" fill="url(#a)" stroke="#000"/><defs><linearGradient id="a" x1="1942.74" y1="341.661" x2="683.137" y2="-1079.04" gradientUnits="userSpaceOnUse"><stop stop-color="#00F7E7"/><stop offset="1" stop-color="#1B0052"/></linearGradient></defs></svg>