<svg width="528" height="549" viewBox="0 0 528 549" fill="none" xmlns="http://www.w3.org/2000/svg"><path d="M528 351.09c0 117.401-92.311 198.071-209.754 197.91-117.119-.161-212.592-78.248-212.107-195.326v-2.584c.807-46.993-20.84-91.402-57.51-120.793-29.886-23.9-48.948-60.72-48.625-102.06C.489 56.697 59.937-1.115 131.501.015c12.439.162 24.555 2.261 35.863 5.652 36.832 11.305 75.603 15.342 113.889 12.274a122.24 122.24 0 0 1 10.985-.485c56.702 0 104.842 36.658 122.289 87.203 13.731 39.888 34.408 77.03 62.517 108.359C510.484 250.644 528 296.668 528 351.09z" fill="url(#a)"/><defs><linearGradient id="a" x1="114.996" y1="118.923" x2="580.395" y2="584.484" gradientUnits="userSpaceOnUse"><stop stop-color="#00BAAE"/><stop offset="1" stop-color="#F6FF00"/></linearGradient></defs></svg>