<svg width="591" height="980" viewBox="0 0 591 980" fill="none" xmlns="http://www.w3.org/2000/svg"><path d="M319.279 179.978C426.042 73.214 583.35 83.8 690.004 190.748c106.361 106.654 122.171 264.487 15.261 370.516l-2.35 2.35c-43.469 42.001-64.169 102.071-57.549 162.147 5.443 48.912-10.705 99.73-48.594 137.031-65.497 64.616-172.133 63.129-236.185-2.979-11.165-11.458-20.274-24.386-27.473-37.753-23.215-43.775-54.801-82.704-92.408-114.73a156.825 156.825 0 0 1-10.43-9.549c-51.565-51.565-62.007-128.679-31.907-190.51 23.786-48.761 38.759-101.341 41.687-155.393 3.808-64.627 29.732-122.41 79.223-171.9z" fill="url(#a)"/><defs><linearGradient id="a" x1="483.729" y1="766.689" x2="483.877" y2="-79.915" gradientUnits="userSpaceOnUse"><stop stop-color="#00BAAE"/><stop offset="1" stop-color="#F6FF00"/></linearGradient></defs></svg>