<svg width="438" height="369" viewBox="0 0 438 369" fill="none" xmlns="http://www.w3.org/2000/svg"><path d="M420.732 246.425c-1.934-27.068 21.389-65.849 2.276-90.983-19.683-25.817-45.622-5.004-71.107-11.487-44.256-11.145-33.22-40.942-38.34-76.425-7.509-51.406-68.603-100.309-103.531-38.895-31.855 56.068-12.969 108.61-82.255 139.658C78.171 190.584 10.137 213.33 1.149 277.7c-13.198 94.963 90.56 73.468 144.829 57.888 70.537-20.244 124.578 26.271 194.774 32.185 29.239 2.502 69.855 3.867 88.968-23.997 22.071-32.185-6.712-64.143-8.988-97.351z" fill="url(#a)"/><defs><linearGradient id="a" x1="88.743" y1="113.141" x2="443.371" y2="467.897" gradientUnits="userSpaceOnUse"><stop stop-color="#00F7E7"/><stop offset="1" stop-color="#1B0052"/></linearGradient></defs></svg>