<svg xmlns="http://www.w3.org/2000/svg" xmlns:xlink="http://www.w3.org/1999/xlink">

    <symbol id="click"  viewBox="0 0 100 100">
        <svg>
            <path d="M99.1416 82.5691L82.2456 65.6731L90.5321 57.3867C91.25 56.6688 91.5452 55.6303 91.3118 54.642C91.0784 53.6537 90.3502 52.8569 89.3869 52.5358L39.6687 35.963C38.6161 35.612 37.4552 35.886 36.6706 36.6708C35.8859 37.4555 35.6119 38.6161 35.9628 39.6688L52.5357 89.3873C52.8569 90.3505 53.6538 91.0789 54.6419 91.3121C55.63 91.5459 56.6687 91.2505 57.3866 90.5324L65.6731 82.2461L82.5692 99.1419C83.1413 99.714 83.8911 100 84.6407 100C85.3903 100 86.1403 99.7142 86.7122 99.1419L99.1418 86.7123C100.286 85.5681 100.286 83.7133 99.1416 82.5691ZM84.6405 92.9271L67.7444 76.0312C66.6005 74.8871 64.7452 74.8871 63.6013 76.0312L56.5952 83.0373L43.3743 43.3747L83.037 56.5955L76.0309 63.6016C74.8878 64.7445 74.8868 66.6008 76.0309 67.7447L92.927 84.6408L84.6405 92.9271Z" fill="#15BBD1"/>
            <path d="M38.0859 23.4375C39.7038 23.4375 41.0156 22.1257 41.0156 20.5078V2.92968C41.0156 1.31172 39.7038 0 38.0859 0C36.4679 0 35.1562 1.31172 35.1562 2.92968V20.5078C35.1562 22.1257 36.4679 23.4375 38.0859 23.4375Z" fill="#15BBD1"/>
            <path d="M15.2983 11.155C14.1543 10.0108 12.2992 10.0108 11.1551 11.155C10.011 12.2991 10.011 14.154 11.1551 15.2981L23.5848 27.7278C24.7287 28.8719 26.584 28.8719 27.7279 27.7278C28.8721 26.5837 28.8721 24.7288 27.7279 23.5846L15.2983 11.155Z" fill="#15BBD1"/>
            <path d="M23.5848 48.444L11.1551 60.8737C10.011 62.0178 10.011 63.8727 11.1551 65.0169C12.299 66.161 14.1543 66.161 15.2983 65.0169L27.7279 52.5872C28.8721 51.4431 28.8721 49.5882 27.7279 48.444C26.5838 47.2999 24.7287 47.2999 23.5848 48.444Z" fill="#15BBD1"/>
            <path d="M52.587 27.7278L65.0167 15.2981C66.1608 14.154 66.1608 12.2991 65.0167 11.155C63.8727 10.0108 62.0177 10.0108 60.8735 11.155L48.4439 23.5846C47.2997 24.7288 47.2997 26.5837 48.4439 27.7278C49.5878 28.8719 51.4431 28.8719 52.587 27.7278Z" fill="#15BBD1"/>
            <path d="M23.4375 38.0859C23.4375 36.468 22.1257 35.1562 20.5078 35.1562H2.92968C1.31172 35.1562 0 36.468 0 38.0859C0 39.7039 1.31172 41.0156 2.92968 41.0156H20.5078C22.1257 41.0156 23.4375 39.7039 23.4375 38.0859Z" fill="#15BBD1"/>
        </svg>
    </symbol>

    <symbol id="box" viewBox="0 0 139 106">
        <svg>
            <path d="M28 86.3333H25.5C25.5 87.3556 26.1224 88.2749 27.0715 88.6545L28 86.3333ZM69.6667 103L68.7382 105.321C69.3342 105.56 69.9991 105.56 70.5951 105.321L69.6667 103ZM111.333 86.3333L112.262 88.6545C113.211 88.2749 113.833 87.3556 113.833 86.3333H111.333ZM86.6667 3L87.5951 0.678808C86.6749 0.310729 85.6242 0.520988 84.9165 1.21482L86.6667 3ZM128.333 19.6667L130.084 21.4519C130.687 20.8605 130.95 20.0045 130.785 19.1761C130.619 18.3478 130.046 17.6592 129.262 17.3455L128.333 19.6667ZM51.3333 3L53.015 1.15015C52.3069 0.506402 51.2934 0.323387 50.4049 0.678808L51.3333 3ZM9.66667 19.6667L8.73819 17.3455C7.93833 17.6654 7.35955 18.3746 7.20646 19.2224C7.05337 20.0702 7.34754 20.937 7.98498 21.5165L9.66667 19.6667ZM136.333 53L137.262 55.3212C138.124 54.9764 138.724 54.1823 138.82 53.2589C138.916 52.3355 138.493 51.4349 137.72 50.9199L136.333 53ZM94.6667 69.6667L93.2799 71.7468C93.9649 72.2035 94.8308 72.2936 95.5951 71.9879L94.6667 69.6667ZM44.6667 69.6667L43.7382 71.9879C44.5025 72.2936 45.3684 72.2035 46.0534 71.7468L44.6667 69.6667ZM3 53L1.61325 50.9199C0.840775 51.4349 0.417296 52.3355 0.513443 53.2589C0.609589 54.1823 1.20953 54.9764 2.07152 55.3212L3 53ZM116.428 63.6545C117.71 63.1417 118.334 61.6868 117.821 60.4049C117.308 59.1229 115.853 58.4994 114.572 59.0121L116.428 63.6545ZM124.988 54.8455C123.706 55.3583 123.083 56.8132 123.595 58.0951C124.108 59.3771 125.563 60.0006 126.845 59.4879L124.988 54.8455ZM23.8333 61.3333L24.7618 59.0121H24.7618L23.8333 61.3333ZM28.1132 65.7379C29.3951 66.2506 30.8501 65.6271 31.3629 64.3451C31.8756 63.0632 31.2521 61.6083 29.9701 61.0955L28.1132 65.7379ZM40.3868 65.2621C39.1049 64.7494 37.6499 65.3729 37.1371 66.6549C36.6244 67.9368 37.2479 69.3917 38.5299 69.9045L40.3868 65.2621ZM27.0715 88.6545L68.7382 105.321L70.5951 100.679L28.9285 84.0121L27.0715 88.6545ZM70.5951 105.321L112.262 88.6545L110.405 84.0121L68.7382 100.679L70.5951 105.321ZM72.1667 103V53H67.1667V103H72.1667ZM70.5951 50.6788L28.9285 34.0121L27.0715 38.6545L68.7382 55.3212L70.5951 50.6788ZM28.9285 38.6545L70.5951 21.9879L68.7382 17.3455L27.0715 34.0121L28.9285 38.6545ZM68.7382 21.9879L110.405 38.6545L112.262 34.0121L70.5951 17.3455L68.7382 21.9879ZM110.405 34.0121L68.7382 50.6788L70.5951 55.3212L112.262 38.6545L110.405 34.0121ZM71.4168 21.4519L88.4168 4.78518L84.9165 1.21482L67.9165 17.8815L71.4168 21.4519ZM85.7382 5.32119L127.405 21.9879L129.262 17.3455L87.5951 0.678808L85.7382 5.32119ZM126.583 17.8815L109.583 34.5482L113.084 38.1185L130.084 21.4519L126.583 17.8815ZM71.3483 17.8168L53.015 1.15015L49.6516 4.84985L67.985 21.5165L71.3483 17.8168ZM50.4049 0.678808L8.73819 17.3455L10.5951 21.9879L52.2618 5.32119L50.4049 0.678808ZM7.98498 21.5165L26.3183 38.1832L29.6817 34.4835L11.3483 17.8168L7.98498 21.5165ZM109.947 38.4135L134.947 55.0801L137.72 50.9199L112.72 34.2532L109.947 38.4135ZM96.0534 67.5865L71.0534 50.9199L68.2799 55.0801L93.2799 71.7468L96.0534 67.5865ZM68.2799 50.9199L43.2799 67.5865L46.0534 71.7468L71.0534 55.0801L68.2799 50.9199ZM4.38675 55.0801L29.3867 38.4135L26.6132 34.2532L1.61325 50.9199L4.38675 55.0801ZM113.833 86.3333V61.3333H108.833V86.3333H113.833ZM114.572 59.0121L93.7382 67.3455L95.5951 71.9879L116.428 63.6545L114.572 59.0121ZM135.405 50.6788L124.988 54.8455L126.845 59.4879L137.262 55.3212L135.405 50.6788ZM30.5 86.3333V61.3333H25.5V86.3333H30.5ZM24.7618 59.0121L3.92848 50.6788L2.07152 55.3212L22.9049 63.6545L24.7618 59.0121ZM29.9701 61.0955L24.7618 59.0121L22.9049 63.6545L28.1132 65.7379L29.9701 61.0955ZM45.5951 67.3455L40.3868 65.2621L38.5299 69.9045L43.7382 71.9879L45.5951 67.3455Z" fill="#15BBD1"/>
        </svg>
    </symbol>

    <symbol id="refresh" viewBox="0 0 100 100">
        <svg >
            <path d="M96.4686 0C94.4875 0 92.9371 1.55039 92.9371 3.53144V24.4617C84.0655 9.56073 67.9587 0 49.9569 0C22.3945 0 0 22.3945 0 50.0431C0 77.6916 22.3945 100 49.9569 100C77.5194 100 99.9139 77.6055 99.9139 50.0431C99.9139 48.062 98.3635 46.5116 96.3824 46.5116C94.4014 46.5116 92.851 48.062 92.851 50.0431C92.851 73.7295 73.5573 93.0233 49.8708 93.0233C26.1843 93.0233 6.97674 73.6434 6.97674 49.9569C6.97674 26.2705 26.2705 6.97674 49.9569 6.97674C66.9251 6.97674 82.0844 16.882 88.975 32.0413H64.255C62.2739 32.0413 60.7235 33.5917 60.7235 35.5728C60.7235 37.5538 62.2739 39.1042 64.255 39.1042H96.3824C98.3635 39.1042 99.9139 37.5538 99.9139 35.5728V3.44531C99.9139 1.55039 98.3635 0 96.4686 0Z" fill="#15BBD1"/>
        </svg>
    </symbol>

    <symbol id="arrow" viewBox="0 0 53 60">
        <svg>
            <g opacity="0.5">
                <path d="M35.9875 32.489V33.989H37.4875H50.5784L26.1802 58.3969L1.85295 33.9892H14.995H16.4949V32.4892V1.5H35.9875V32.489ZM1.42557 33.5604C1.42615 33.561 1.42674 33.5615 1.42732 33.5621L1.42557 33.5604Z" stroke="#D44040" stroke-width="3"/>
            </g>
        </svg>
    </symbol>

    <symbol id="id" viewBox="0 0 67 100">
        <svg>
            <path d="M61.6677 6.66506H41.6674L44.6674 2.66499C45.2208 1.92998 45.0708 0.88496 44.3341 0.333283C43.5991 -0.218393 42.5541 -0.0700568 42.0024 0.666623L37.5006 6.66506H29.3638L26.4905 0.91996C26.0788 0.0966127 25.0771 -0.233393 24.2537 0.174947C23.4304 0.586621 23.0971 1.5883 23.5087 2.41165L25.6371 6.66506H5.00009C2.24337 6.66506 0 8.90843 0 11.6651V94.9999C0 97.7566 2.24337 100 5.00009 100H61.6677C64.4244 100 66.6678 97.7566 66.6678 94.9999V11.6651C66.6678 8.90843 64.4244 6.66506 61.6677 6.66506ZM5.00009 9.99845H27.3038L28.9705 13.3318C27.5705 14.5552 26.6671 16.3302 26.6671 18.3319C26.6671 22.0087 29.6572 24.9987 33.3339 24.9987C37.0106 24.9987 40.0007 22.0087 40.0007 18.3319C40.0007 14.6552 37.0106 11.6651 33.3339 11.6651C32.8556 11.6651 32.3906 11.7201 31.9405 11.8168L31.0305 9.99845H61.6677C62.5877 9.99845 63.3344 10.7451 63.3344 11.6651V66.6661H49.7542C49.2458 64.6944 47.9292 63.0094 46.0708 62.0793L40.0007 58.9793V58.3343C42.7141 56.8526 44.6224 54.4125 45.6874 51.0608C47.3025 50.2041 48.3342 48.5358 48.3342 46.6657V44.9991C48.3342 43.4557 47.6158 42.024 46.4158 41.084C45.3758 34.7839 40.979 31.5905 33.3339 31.5905C32.9722 31.5905 32.6189 31.6038 32.2739 31.6305C30.8355 31.7422 28.7255 31.6255 26.9005 30.3971C26.2188 29.9371 25.7038 29.4904 25.3754 29.0754C24.8154 28.3588 23.8754 28.1088 23.0387 28.4538C22.202 28.7971 21.7104 29.6338 21.8154 30.5321C21.8854 31.1555 21.9904 31.8805 22.1487 32.6755C22.4704 34.3005 22.4704 34.3005 22.0187 35.2722C21.8487 35.6406 21.6387 36.0889 21.392 36.6939C20.8404 38.0456 20.4487 39.5256 20.2237 41.1057C19.0403 42.0457 18.3336 43.4707 18.3336 44.9991V46.6657C18.3336 48.5358 19.3653 50.2041 20.9804 51.0608C22.0454 54.4142 23.9537 56.8543 26.6671 58.3343V58.961L20.3854 62.0577C18.5903 63.036 17.3386 64.7211 16.8736 66.6661H3.33339V11.6651C3.33339 10.7451 4.08007 9.99845 5.00009 9.99845ZM30.5539 16.5002L31.8422 19.0769C32.1356 19.6619 32.7239 19.9986 33.3356 19.9986C33.5856 19.9986 33.8406 19.942 34.0789 19.8236C34.9023 19.4119 35.2356 18.4103 34.8239 17.5869L33.5406 15.0202C35.2806 15.1285 36.6673 16.5652 36.6673 18.3319C36.6673 20.1703 35.1723 21.6653 33.3339 21.6653C31.4955 21.6653 30.0005 20.1703 30.0005 18.3319C30.0005 17.6552 30.2055 17.0269 30.5539 16.5002ZM28.3505 61.8477C29.3538 61.3577 30.0005 60.3193 30.0005 59.201V56.1959L28.9938 55.7626C26.4655 54.6726 24.8221 52.5942 23.9687 49.4058L23.7304 48.5174L22.8537 48.2441C22.1554 48.0274 21.667 47.3791 21.667 46.6657V44.9991C21.667 44.3957 22.012 43.8357 22.5687 43.539L23.3504 43.1224L23.4421 42.2407C23.6071 40.6773 23.9554 39.2356 24.4788 37.9573C24.7004 37.4156 24.8888 37.0106 25.0421 36.6789C25.6071 35.4656 25.8121 34.8389 25.6704 33.5539C27.6305 34.6739 29.9855 35.1472 32.5406 34.9555C32.7989 34.9339 33.0639 34.9239 33.3356 34.9239C39.5757 34.9239 42.6224 37.1839 43.2174 42.254L43.3207 43.124L44.0958 43.534C44.6524 43.8307 45.0008 44.3924 45.0008 44.9991V46.6657C45.0008 47.3791 44.5124 48.0274 43.8141 48.2441L42.9374 48.5174L42.6991 49.4058C41.8457 52.5942 40.2024 54.6726 37.674 55.7626L36.6673 56.1976V59.216C36.6673 60.331 37.284 61.336 38.274 61.841L44.5658 65.0561C45.2841 65.4161 45.8525 65.9844 46.2158 66.6678H20.3753C20.707 65.9694 21.2454 65.3844 21.9204 65.0194L28.3505 61.8477ZM61.6677 96.6666H5.00009C4.08007 96.6666 3.33339 95.9199 3.33339 94.9999V69.9995H16.667H50.0309H63.3344V94.9999C63.3344 95.9199 62.5877 96.6666 61.6677 96.6666Z" fill="#15BBD1"/>
            <path d="M48.3342 81.6665H18.3337C17.412 81.6665 16.667 82.4115 16.667 83.3332C16.667 84.2549 17.412 84.9999 18.3337 84.9999H48.3342C49.2559 84.9999 50.0009 84.2549 50.0009 83.3332C50.0009 82.4115 49.2559 81.6665 48.3342 81.6665Z" fill="#15BBD1"/>
            <path d="M25.0004 78.3329H41.6673C42.589 78.3329 43.334 77.5879 43.334 76.6662C43.334 75.7445 42.589 74.9995 41.6673 74.9995H25.0004C24.0787 74.9995 23.3337 75.7445 23.3337 76.6662C23.3337 77.5879 24.0787 78.3329 25.0004 78.3329Z" fill="#15BBD1"/>
            <path d="M20.0004 88.3335H18.3337C17.412 88.3335 16.667 89.0785 16.667 90.0002C16.667 90.9219 17.412 91.6669 18.3337 91.6669H20.0004C20.9221 91.6669 21.6671 90.9219 21.6671 90.0002C21.6671 89.0785 20.9221 88.3335 20.0004 88.3335Z" fill="#15BBD1"/>
            <path d="M30.0004 88.3335H26.667C25.7453 88.3335 25.0003 89.0785 25.0003 90.0002C25.0003 90.9219 25.7453 91.6669 26.667 91.6669H30.0004C30.9221 91.6669 31.6671 90.9219 31.6671 90.0002C31.6671 89.0785 30.9221 88.3335 30.0004 88.3335Z" fill="#15BBD1"/>
            <path d="M38.3341 88.3335H36.6674C35.7457 88.3335 35.0007 89.0785 35.0007 90.0002C35.0007 90.9219 35.7457 91.6669 36.6674 91.6669H38.3341C39.2557 91.6669 40.0008 90.9219 40.0008 90.0002C40.0008 89.0785 39.2557 88.3335 38.3341 88.3335Z" fill="#15BBD1"/>
            <path d="M48.3344 88.3335H45.001C44.0793 88.3335 43.3343 89.0785 43.3343 90.0002C43.3343 90.9219 44.0793 91.6669 45.001 91.6669H48.3344C49.2561 91.6669 50.0011 90.9219 50.0011 90.0002C50.0011 89.0785 49.2561 88.3335 48.3344 88.3335Z" fill="#15BBD1"/>
        </svg>
    </symbol>

    <symbol id="link" viewBox="0 0 100 100">
        <svg>
            <path d="M99.9811 38.2283C99.9707 38.1135 99.9479 38 99.9127 37.89C99.8764 37.6875 99.784 37.4992 99.6461 37.3466C99.5814 37.2541 99.5078 37.1679 99.4262 37.09C99.3978 37.0667 99.3861 37.0333 99.3578 37.0117L83.3333 24.5624V11.6597C83.3333 8.89811 81.0945 6.65926 78.3329 6.65926H60.2698L53.0374 1.04378C51.2501 -0.347928 48.7458 -0.347928 46.9586 1.04378L39.7246 6.65926H21.6615C18.8999 6.65926 16.6611 8.89792 16.6611 11.6597V24.5624L0.636573 37.0117C0.608251 37.0333 0.596531 37.0667 0.568209 37.09C0.486562 37.1681 0.412923 37.2541 0.34827 37.3466C0.285179 37.4271 0.22951 37.5131 0.181655 37.6033C0.142394 37.6961 0.111142 37.792 0.0882882 37.89C0.0535198 37.9984 0.0306665 38.1102 0.0199234 38.2235C0.0199234 38.2584 0 38.2885 0 38.3235V94.9996C0.00273459 96.0594 0.344949 97.0906 0.976834 97.9414C0.986796 97.9565 0.988554 97.9731 1.00008 97.9881C1.0118 98.0032 1.03836 98.0164 1.0534 98.0348C1.9898 99.2667 3.44617 99.9932 4.99375 100H95.0008C96.5548 99.9955 98.0175 99.2648 98.9544 98.0248C98.9677 98.0098 98.9878 98.0049 99.0011 97.9881C99.0144 97.9715 99.0144 97.9565 99.0244 97.9414C99.6561 97.0904 99.9985 96.0594 100.001 94.9996V38.3284C100.001 38.2934 99.9827 38.2633 99.9811 38.2283ZM48.997 3.67407C49.5801 3.21407 50.4024 3.21407 50.9854 3.67407L54.8307 6.65926H45.1633L48.997 3.67407ZM5.41351 96.6663L48.997 62.8119C49.5791 62.3494 50.4034 62.3494 50.9854 62.8119L94.5805 96.6663H5.41351ZM96.6674 94.0661L53.0374 60.1818C51.2509 58.7878 48.745 58.7878 46.9586 60.1818L3.32682 94.0661V40.867L30.6407 62.0753C31.3685 62.6267 32.4045 62.49 32.9643 61.7687C33.5241 61.0473 33.3993 60.0097 32.6842 59.4417L4.93691 37.8951L16.6611 28.7844V41.6622C16.6611 42.5828 17.4074 43.3289 18.3278 43.3289C19.2484 43.3289 19.9945 42.5826 19.9945 41.6622V11.6599C19.9945 10.7393 20.7407 9.99312 21.6613 9.99312H78.3323C79.2529 9.99312 79.9991 10.7393 79.9991 11.6599V41.6622C79.9991 42.5828 80.7452 43.3289 81.6658 43.3289C82.5864 43.3289 83.3325 42.5826 83.3325 41.6622V28.7844L95.0567 37.8951L67.2617 59.48C66.5339 60.0443 66.4015 61.0917 66.9658 61.8195C67.5301 62.5472 68.5775 62.6797 69.3052 62.1154L96.6674 40.867V94.0661Z" fill="#15BBD1"/>
            <path d="M72.1645 24.2574C71.2609 20.8761 68.6199 18.2351 65.2386 17.3317C61.8573 16.4283 58.2509 17.4003 55.7814 19.8803L54.6346 21.0271C54.2014 21.4457 54.0276 22.0653 54.1801 22.6481C54.3327 23.231 54.7878 23.6859 55.3704 23.8385C55.9531 23.991 56.5729 23.8172 56.9915 23.3839V23.3857L58.1398 22.2389C59.7499 20.5253 62.1649 19.8239 64.4424 20.4083C66.72 20.9927 68.4988 22.7704 69.085 25.0474C69.671 27.3245 68.9713 29.7401 67.2589 31.3514L62.6685 35.9418C61.2969 37.3073 59.3856 37.9865 57.4601 37.7927C55.5343 37.5991 53.7967 36.5529 52.7245 34.9417C52.2149 34.1748 51.1803 33.9662 50.4136 34.4758C49.6467 34.9854 49.4381 36.0201 49.9477 36.7868C51.5717 39.2323 54.2069 40.8205 57.1276 41.1142C60.0483 41.408 62.947 40.3765 65.0255 38.3035L69.6159 33.7148C72.096 31.2453 73.0679 27.639 72.1645 24.2574Z" fill="#15BBD1"/>
            <path d="M43.4882 43.9836L42.3399 45.1304C40.7298 46.844 38.3148 47.5454 36.0372 46.961C33.7597 46.3766 31.9809 44.5989 31.3947 42.3219C30.8085 40.045 31.5084 37.6292 33.2208 36.0179L37.8112 31.4275C39.1828 30.062 41.0941 29.3828 43.0196 29.5766C44.9454 29.7702 46.683 30.8163 47.7551 32.4276C48.2648 33.1945 49.2994 33.4031 50.0661 32.8935C50.8329 32.3839 51.0415 31.3492 50.5319 30.5825C48.9064 28.1392 46.2716 26.5525 43.3517 26.2588C40.4317 25.965 37.5336 26.995 35.4542 29.0656L30.8638 33.6543C28.0673 36.4521 27.2311 40.6589 28.7451 44.3137C30.259 47.9685 33.8251 50.3515 37.7809 50.3523C40.3768 50.3597 42.8679 49.3278 44.6981 47.487L45.8448 46.3402C46.4765 45.6863 46.4675 44.6465 45.8245 44.0037C45.1817 43.3611 44.1422 43.3519 43.4882 43.9836Z" fill="#15BBD1"/>
        </svg>
    </symbol>

    <symbol id="mail" viewBox="0 0 101 100">
        <svg>
            <path d="M100.006 38.3287C100.006 38.2937 99.9873 38.2637 99.9857 38.2305C99.9754 38.115 99.9525 38.0009 99.9174 37.8904C99.8943 37.7917 99.8625 37.6953 99.8224 37.6021C99.7748 37.5138 99.7191 37.43 99.6558 37.3521C99.5898 37.2565 99.5138 37.1683 99.4291 37.0888C99.4023 37.0653 99.3908 37.0337 99.3624 37.012L83.338 24.5628V11.6601C83.338 8.89853 81.0991 6.65969 78.3376 6.65969H60.2745L53.0421 1.04422C51.2551 -0.348073 48.7504 -0.348073 46.9633 1.04422L39.7296 6.65969H21.6665C18.905 6.65969 16.6661 8.89833 16.6661 11.6601V24.5628L0.643213 37.012C0.614891 37.0337 0.603171 37.0653 0.576606 37.0888C0.491834 37.1683 0.415852 37.2565 0.349831 37.3521C0.286545 37.43 0.230682 37.5138 0.183217 37.6021C0.142784 37.6951 0.110946 37.7915 0.088288 37.8904C0.0535197 37.9988 0.0306664 38.1105 0.0199234 38.2238C0.0199234 38.2572 0 38.2871 0 38.3221V94.9996C0.00664113 95.5364 0.100594 96.0683 0.278342 96.5747C-0.104305 97.1517 -0.0863347 97.9061 0.323071 98.4643C0.732478 99.0226 1.44659 99.2663 2.11188 99.0749C2.95413 99.6767 3.96358 100 4.99882 100H95.0057C96.0452 99.9979 97.0578 99.6697 97.9008 99.0616C98.043 99.1054 98.1905 99.1294 98.3391 99.1333C98.948 99.1368 99.5093 98.8052 99.8 98.2702C100.091 97.7352 100.063 97.0838 99.7293 96.5749C99.9064 96.0685 99.9998 95.5364 100.006 94.9998V38.3287H100.006ZM49.0018 3.6745C49.5839 3.21196 50.4081 3.21196 50.9902 3.6745L54.8354 6.65969H45.1681L49.0018 3.6745ZM5.41194 96.6665L49.002 62.8073C49.5844 62.3475 50.4064 62.3475 50.9888 62.8073L94.592 96.6665H5.41194ZM96.6722 94.063L53.0388 60.1755C51.2529 58.7851 48.751 58.7851 46.9651 60.1755L3.3317 94.063V40.8672L30.6455 62.0772C31.3733 62.6415 32.4206 62.5091 32.9849 61.7813C33.5492 61.0535 33.4168 60.0061 32.689 59.4418L4.94022 37.8937L16.6661 28.7831V41.6624C16.6661 42.5829 17.4125 43.3291 18.3328 43.3291C19.2534 43.3291 19.9996 42.5827 19.9996 41.6624V11.6601C19.9996 10.7395 20.7457 9.99334 21.6663 9.99334H78.3372C79.2578 9.99334 80.0039 10.7395 80.0039 11.6601V41.6624C80.0039 42.5829 80.7501 43.3291 81.6707 43.3291C82.5912 43.3291 83.3374 42.5827 83.3374 41.6624V28.7831L95.0633 37.8937L67.2649 59.4803C66.5377 60.045 66.406 61.0923 66.9707 61.8197C67.5354 62.547 68.5828 62.6786 69.3102 62.1139L96.6722 40.8674V94.063Z" fill="#15BBD1"/>
            <path d="M33.334 21.6606H66.6699C67.5905 21.6606 68.3366 20.9145 68.3366 19.9939C68.3366 19.0733 67.5905 18.3271 66.6699 18.3271H33.334C32.4134 18.3271 31.6672 19.0733 31.6672 19.9939C31.6672 20.9145 32.4134 21.6606 33.334 21.6606Z" fill="#15BBD1"/>
            <path d="M68.3366 29.9949C68.3366 29.0743 67.5905 28.3281 66.6699 28.3281H33.334C32.4134 28.3281 31.6672 29.0745 31.6672 29.9949C31.6672 30.9154 32.4134 31.6616 33.334 31.6616H66.6699C67.5905 31.6616 68.3366 30.9152 68.3366 29.9949Z" fill="#15BBD1"/>
            <path d="M68.3368 39.9958C68.3368 39.0753 67.5906 38.3291 66.6701 38.3291H51.6689C50.7483 38.3291 50.0022 39.0753 50.0022 39.9958C50.0022 40.9164 50.7483 41.6626 51.6689 41.6626H66.6701C67.5906 41.6626 68.3368 40.9162 68.3368 39.9958Z" fill="#15BBD1"/>
        </svg>
    </symbol>

    <symbol id="spam" viewBox="0 0 100 100">
        <svg>
            <path d="M99.4121 34.1514C99.367 34.1006 99.2959 34.0396 99.192 33.9645L89.4531 26.9178V19.1373C89.4531 19.1109 89.4518 19.0873 89.45 19.0637C89.4316 18.5813 89.2363 18.1115 88.8809 17.7561L71.6934 0.571875C71.3701 0.248633 70.952 0.0613281 70.5162 0.0154297C70.49 0.0107422 70.4613 0.00722656 70.4295 0.0046875C70.4221 0.00429688 70.4146 0.00292969 70.4072 0.00273438C70.3779 0.000976563 70.3465 0 70.3125 0H16.4062C13.1754 0 10.5469 2.62852 10.5469 5.85938C10.5469 6.93789 11.4215 7.8125 12.5 7.8125C13.5785 7.8125 14.4531 6.93789 14.4531 5.85938C14.4531 4.78242 15.3293 3.90625 16.4062 3.90625H68.3594V15.2311C68.3594 18.4619 70.9879 21.0904 74.2188 21.0904H85.5469V45.2846L64.1549 66.6768L61.3367 63.8586C55.0855 57.6074 44.9145 57.6074 38.6633 63.8586L35.8451 66.6768L14.4531 45.2846V22.6562H25.3479C26.4264 22.6562 27.301 21.7816 27.301 20.7031C27.301 19.6246 26.4264 18.75 25.3479 18.75H6.73828C5.65977 18.75 4.78516 19.6246 4.78516 20.7031C4.78516 21.7816 5.65977 22.6562 6.73828 22.6562H10.5469V26.9178L0.808203 33.9645C0.788086 33.9791 0.771289 33.993 0.754492 34.007C0.296094 34.3646 0 34.9205 0 35.5469V90.2344C0 95.6191 4.38086 100 9.76562 100H90.2344C95.6191 100 100 95.6191 100 90.2344V35.5469C100 34.9998 99.7744 34.5061 99.4121 34.1514ZM74.2188 17.1844V17.1842C73.1418 17.1842 72.2656 16.308 72.2656 15.2311V6.66777L82.784 17.1844H74.2188ZM89.4531 31.7395L95.0455 35.7861L89.4531 41.3783V31.7395ZM10.5469 31.7395V41.3783L4.95449 35.7859L10.5469 31.7395ZM7.22324 95.2986C7.17617 95.3457 7.13223 95.3945 7.09082 95.4451C5.20195 94.4713 3.90625 92.502 3.90625 90.2344V40.2623L33.083 69.4391L7.22324 95.2986ZM11.9525 96.0938L27.9682 80.0781H41.4062C42.4848 80.0781 43.3594 79.2035 43.3594 78.125C43.3594 77.0465 42.4848 76.1719 41.4062 76.1719H31.8744L41.4256 66.6209C46.1535 61.893 53.8467 61.893 58.5746 66.6209L77.5006 85.5469H46.0963C45.0178 85.5469 44.1432 86.4215 44.1432 87.5C44.1432 88.5785 45.0178 89.4531 46.0963 89.4531H80.8098C80.9914 89.4531 81.1666 89.4264 81.3336 89.3799L88.0475 96.0938H11.9525ZM96.0938 90.2344C96.0938 92.502 94.798 94.4713 92.909 95.4449C92.8678 95.3945 92.8236 95.3455 92.7766 95.2984L90.625 93.1469V72.4281C90.625 71.3496 89.7504 70.475 88.6719 70.475C87.5934 70.475 86.7188 71.3496 86.7188 72.4281V89.2406L66.917 69.4389L96.0938 40.2623V90.2344Z" fill="#15BBD1"/>
            <path d="M51.3338 50.5723C50.9707 50.2088 50.4668 50 49.9531 50C49.4395 50 48.9355 50.2088 48.5723 50.5723C48.209 50.9357 48 51.4395 48 51.9531C48 52.4668 48.2088 52.9707 48.5723 53.3338C48.9355 53.6971 49.4395 53.9062 49.9531 53.9062C50.4668 53.9062 50.9707 53.6973 51.3338 53.3338C51.6971 52.9707 51.9062 52.4668 51.9062 51.9531C51.9062 51.4395 51.6973 50.9355 51.3338 50.5723Z" fill="#15BBD1"/>
            <path d="M31.3481 10.9375H22.313C21.2345 10.9375 20.3599 11.8121 20.3599 12.8906C20.3599 13.9691 21.2345 14.8438 22.313 14.8438H31.3481C32.4267 14.8438 33.3013 13.9691 33.3013 12.8906C33.3013 11.8121 32.4267 10.9375 31.3481 10.9375Z" fill="#15BBD1"/>
            <path d="M16.4627 11.5098C16.0996 11.1463 15.5957 10.9375 15.082 10.9375C14.5684 10.9375 14.0645 11.1463 13.7012 11.5098C13.3379 11.8732 13.1289 12.377 13.1289 12.8906C13.1289 13.4043 13.3377 13.9082 13.7012 14.2713C14.0645 14.6348 14.5684 14.8438 15.082 14.8438C15.5957 14.8438 16.0996 14.6348 16.4627 14.2713C16.8262 13.9082 17.0352 13.4043 17.0352 12.8906C17.0352 12.377 16.8262 11.873 16.4627 11.5098Z" fill="#15BBD1"/>
            <path d="M9.33379 11.5098C8.9707 11.1463 8.4668 10.9375 7.95312 10.9375C7.43945 10.9375 6.93555 11.1463 6.57227 11.5098C6.20898 11.8732 6 12.3748 6 12.8906C6 13.4043 6.20879 13.9082 6.57227 14.2713C6.93555 14.6348 7.43945 14.8438 7.95312 14.8438C8.4668 14.8438 8.9707 14.6348 9.33379 14.2713C9.69727 13.9082 9.90625 13.4043 9.90625 12.8906C9.90625 12.377 9.69727 11.873 9.33379 11.5098Z" fill="#15BBD1"/>
            <path d="M41.7101 26.5625H36.9536C35.8751 26.5625 35.0005 27.4371 35.0005 28.5156V35.5469V42.5781C35.0005 43.6566 35.8751 44.5312 36.9536 44.5312C38.0321 44.5312 38.9067 43.6566 38.9067 42.5781V37.5H41.7101C44.7255 37.5 47.1788 35.0467 47.1788 32.0312C47.1788 29.0158 44.7255 26.5625 41.7101 26.5625ZM41.7101 33.5938H38.9067V30.4688H41.7101C42.5716 30.4688 43.2726 31.1697 43.2726 32.0312C43.2726 32.8928 42.5716 33.5938 41.7101 33.5938Z" fill="#15BBD1"/>
            <path d="M25.8273 33.5938C24.7681 33.5938 23.9066 32.8928 23.9066 32.0312C23.9066 31.1697 24.7681 30.4688 25.8273 30.4688C26.8863 30.4688 27.7478 31.1697 27.7478 32.0312C27.7478 33.1098 28.6224 33.9844 29.701 33.9844C30.7795 33.9844 31.6541 33.1098 31.6541 32.0312C31.6541 29.0158 29.0402 26.5625 25.8273 26.5625C22.6144 26.5625 20.0004 29.0158 20.0004 32.0312C20.0004 35.0467 22.6144 37.5 25.8273 37.5C26.8863 37.5 27.7478 38.201 27.7478 39.0625C27.7478 39.924 26.8863 40.625 25.8273 40.625C24.7681 40.625 23.9066 39.924 23.9066 39.0625C23.9066 37.984 23.032 37.1094 21.9535 37.1094C20.875 37.1094 20.0004 37.984 20.0004 39.0625C20.0004 42.0779 22.6144 44.5312 25.8273 44.5312C29.0402 44.5312 31.6541 42.0779 31.6541 39.0625C31.6541 36.0471 29.0402 33.5938 25.8273 33.5938Z" fill="#15BBD1"/>
            <path d="M62.329 41.8922L57.0556 27.8297C56.7697 27.0676 56.041 26.5625 55.2269 26.5625C54.4128 26.5625 53.6841 27.0676 53.3982 27.8297L48.1247 41.8922C47.746 42.9023 48.2578 44.0281 49.2677 44.4068C50.2785 44.7854 51.4037 44.2734 51.7824 43.2639L52.1861 42.1873H58.2681L58.6718 43.2639C58.966 44.048 59.7099 44.5316 60.5009 44.5316C60.7287 44.5316 60.9605 44.4914 61.1865 44.4066C62.1962 44.0281 62.7079 42.9023 62.329 41.8922ZM52.1911 42.1734L52.1927 42.1693C52.204 42.1707 52.2019 42.1721 52.1911 42.1734ZM53.6507 38.2812L55.2269 34.0781L56.8031 38.2812H53.6507Z" fill="#15BBD1"/>
            <path d="M78.7783 26.6876C78.017 26.4012 77.1578 26.6169 76.6217 27.2288L72.5219 31.9092L68.4219 27.2288C67.8858 26.6167 67.0266 26.4014 66.2653 26.6876C65.5039 26.9741 64.9996 27.7022 64.9996 28.5157V42.5782C64.9996 43.6567 65.8742 44.5313 66.9528 44.5313C68.0313 44.5313 68.9059 43.6567 68.9059 42.5782V33.7094L71.0528 36.1602C71.4237 36.5837 71.9592 36.8264 72.5219 36.8264C73.0846 36.8264 73.6201 36.5837 73.991 36.1602L76.1377 33.7094V42.5782C76.1377 43.6567 77.0123 44.5313 78.0908 44.5313C79.1694 44.5313 80.044 43.6567 80.044 42.5782V28.5157C80.044 27.7022 79.5397 26.9739 78.7783 26.6876Z" fill="#15BBD1"/>
        </svg>
    </symbol>

    <symbol id="save-mail" viewBox="0 0 100 100">
        <svg>
            <path d="M98.3871 25.8065H78.0872L91.3889 12.5047C92.0678 12.7465 92.7868 12.9032 93.5484 12.9032C97.1065 12.9032 100 10.0098 100 6.45161C100 2.89346 97.1065 0 93.5484 0C89.9902 0 87.0968 2.89346 87.0968 6.45161C87.0968 8.05979 87.7095 9.5144 88.6868 10.6453L73.5257 25.8065H66.6L50.8899 15.8093C51.3373 14.932 51.6129 13.953 51.6129 12.9032C51.6129 9.34507 48.7194 6.45161 45.1613 6.45161C42.8175 6.45161 40.7825 7.71957 39.6532 9.59394L12.8875 6.61936C12.8875 6.56266 12.9032 6.50989 12.9032 6.45161C12.9032 2.89346 10.0098 0 6.45161 0C2.89346 0 0 2.89346 0 6.45161C0 10.0098 2.89346 12.9032 6.45161 12.9032C6.65165 12.9032 6.84224 12.8615 7.03676 12.8434L16.7449 32.2581H1.6129C0.720609 32.2581 0 32.981 0 33.871V75.8064C0 76.6987 0.720609 77.4194 1.6129 77.4194H29.0323V87.0968H25.8065C19.5824 87.0968 14.5161 92.1631 14.5161 98.3871C14.5161 99.2794 15.2367 100 16.129 100H54.8387C55.731 100 56.4516 99.2794 56.4516 98.3871C56.4516 92.1631 51.3853 87.0968 45.1613 87.0968H41.9355V77.4194H69.3548C70.2471 77.4194 70.9677 76.6987 70.9677 75.8064V64.5161H98.3871C99.2794 64.5161 100 63.7955 100 62.9032V27.4194C100 26.5294 99.2794 25.8065 98.3871 25.8065ZM93.5484 3.22581C95.3275 3.22581 96.7742 4.67254 96.7742 6.45161C96.7742 8.23069 95.3275 9.67742 93.5484 9.67742C91.7693 9.67742 90.3226 8.23069 90.3226 6.45161C90.3226 4.67254 91.7693 3.22581 93.5484 3.22581ZM45.1613 61.2903V30.8373L64.1483 46.4741L49.3322 61.2903H45.1613ZM41.9355 38.7097H34.1789L35.5374 35.4839H41.9355V38.7097ZM30.6775 38.7097H23.5777L21.9648 35.4839H32.0352L30.6775 38.7097ZM29.3197 41.9355L27.9384 45.2148C27.7643 45.1999 27.5966 45.1613 27.4194 45.1613C27.2193 45.1613 27.0287 45.203 26.8342 45.2211L25.1906 41.9355H29.3197ZM27.4194 48.3871C29.1984 48.3871 30.6452 49.8338 30.6452 51.6129C30.6452 53.392 29.1984 54.8387 27.4194 54.8387C25.6403 54.8387 24.1935 53.392 24.1935 51.6129C24.1935 49.8338 25.6403 48.3871 27.4194 48.3871ZM23.7675 46.3032C22.079 47.468 20.9677 49.4109 20.9677 51.6129C20.9677 55.1711 23.8612 58.0645 27.4194 58.0645C30.9775 58.0645 33.871 55.1711 33.871 51.6129C33.871 49.381 32.7306 47.4113 31.0019 46.2528L32.8196 41.9355H41.9355V62.9032C41.9355 63.7955 42.6561 64.5161 43.5484 64.5161H61.2903V67.7419H9.67742V41.9355H21.5836L23.7675 46.3032ZM53.8937 61.2903L66.6504 48.5336L69.9416 51.2451C70.24 51.49 70.6031 51.6129 70.9677 51.6129C71.3324 51.6129 71.6954 51.49 71.9939 51.2451L75.2851 48.5336L88.0418 61.2903H53.8937ZM70.9677 47.9114L48.0437 29.0323H93.8902L70.9677 47.9114ZM43.5484 25.8065C42.6561 25.8065 41.9355 26.5294 41.9355 27.4194V32.2581H36.8952L42.5632 18.798C43.3594 19.1517 44.2351 19.3548 45.1613 19.3548C46.4852 19.3548 47.7145 18.9516 48.7407 18.2664L60.5902 25.8065H43.5484ZM45.1613 9.67742C46.9404 9.67742 48.3871 11.1241 48.3871 12.9032C48.3871 14.6823 46.9404 16.129 45.1613 16.129C43.3822 16.129 41.9355 14.6823 41.9355 12.9032C41.9355 11.1241 43.3822 9.67742 45.1613 9.67742ZM3.22581 6.45161C3.22581 4.67254 4.67254 3.22581 6.45161 3.22581C8.23069 3.22581 9.67742 4.67254 9.67742 6.45161C9.67742 8.23069 8.23069 9.67742 6.45161 9.67742C4.67254 9.67742 3.22581 8.23069 3.22581 6.45161ZM10.1035 11.7613C10.8595 11.2383 11.4841 10.5516 11.9597 9.7609L38.7254 12.7355C38.7254 12.7922 38.7097 12.8449 38.7097 12.9032C38.7097 14.3161 39.1806 15.6148 39.9532 16.6787L33.3937 32.2581H20.3519L10.1035 11.7613ZM53.0628 96.7742H17.905C18.6547 93.0987 21.9112 90.3226 25.8065 90.3226H45.1613C49.0565 90.3226 52.3146 93.0987 53.0628 96.7742ZM38.7097 87.0968H32.2581V77.4194H38.7097V87.0968ZM67.7419 74.1936H3.22581V35.4839H18.3578L19.9707 38.7097H8.06452C7.17222 38.7097 6.45161 39.4326 6.45161 40.3226V69.3548C6.45161 70.2471 7.17222 70.9677 8.06452 70.9677H62.9032C63.7955 70.9677 64.5161 70.2471 64.5161 69.3548V64.5161H67.7419V74.1936ZM92.6033 61.2903L77.7871 46.4741L96.7742 30.8373V61.2903H92.6033Z" fill="#15BBD1"/>
        </svg>
    </symbol>

</svg>
